<mxfile host="app.diagrams.net" agent="Mozilla/5.0 (Windows NT 10.0; Win64; x64; rv:134.0) Gecko/20100101 Firefox/134.0" version="26.0.6">
  <diagram name="หน้า-1" id="EGxg87Kh7MVETGA80Ags">
    <mxGraphModel dx="1050" dy="558" grid="1" gridSize="10" guides="1" tooltips="1" connect="1" arrows="1" fold="1" page="1" pageScale="1" pageWidth="827" pageHeight="1169" math="0" shadow="0">
      <root>
        <mxCell id="0" />
        <mxCell id="1" parent="0" />
        <mxCell id="H7RTySpPC0p8DqEm5PfO-5" value="" style="html=1;verticalLabelPosition=bottom;align=center;labelBackgroundColor=#ffffff;verticalAlign=top;strokeWidth=2;strokeColor=#0080F0;shadow=0;dashed=0;shape=mxgraph.ios7.icons.cloud;" vertex="1" parent="1">
          <mxGeometry x="414" y="350" width="106" height="70" as="geometry" />
        </mxCell>
        <mxCell id="H7RTySpPC0p8DqEm5PfO-7" value="" style="html=1;outlineConnect=0;fillColor=#CCCCCC;strokeColor=#6881B3;gradientColor=none;gradientDirection=north;strokeWidth=2;shape=mxgraph.networks.comm_link_edge;html=1;rounded=0;" edge="1" parent="1">
          <mxGeometry width="100" height="100" relative="1" as="geometry">
            <mxPoint x="250" y="500" as="sourcePoint" />
            <mxPoint x="400" y="420" as="targetPoint" />
            <Array as="points">
              <mxPoint x="260" y="460" />
            </Array>
          </mxGeometry>
        </mxCell>
        <mxCell id="H7RTySpPC0p8DqEm5PfO-8" value="" style="fontColor=#0066CC;verticalAlign=top;verticalLabelPosition=bottom;labelPosition=center;align=center;html=1;outlineConnect=0;fillColor=#CCCCCC;strokeColor=#6881B3;gradientColor=none;gradientDirection=north;strokeWidth=2;shape=mxgraph.networks.pc;movable=1;resizable=1;rotatable=1;deletable=1;editable=1;locked=0;connectable=1;" vertex="1" parent="1">
          <mxGeometry x="130" y="320" width="100" height="70" as="geometry" />
        </mxCell>
        <mxCell id="H7RTySpPC0p8DqEm5PfO-9" value="" style="fontColor=#0066CC;verticalAlign=top;verticalLabelPosition=bottom;labelPosition=center;align=center;html=1;outlineConnect=0;fillColor=#CCCCCC;strokeColor=#6881B3;gradientColor=none;gradientDirection=north;strokeWidth=2;shape=mxgraph.networks.user_male;" vertex="1" parent="1">
          <mxGeometry x="160" y="450" width="40" height="100" as="geometry" />
        </mxCell>
        <mxCell id="H7RTySpPC0p8DqEm5PfO-10" value="Pattern 2" style="shape=image;verticalLabelPosition=top;labelBackgroundColor=default;verticalAlign=bottom;aspect=fixed;imageAspect=0;image=data:image/png,iVBORw0KGgoAAAANSUhEUgAAAJ0AAABnCAYAAAAaL0CpAAAgAElEQVR4Xuy9d3xWVdY2vFJIQoBAIKGG3rv0IkUpgiCKKNIRpKnoMHYd53F0dMaxdxCwAaKC2CnSBKT33kGqdJKQ3vmua+29z30SCeB8z+/96zmIJPe5zzn77L32qtdaK+gyDvm/4/9m4P/hDAT9H9H9P5zt/3uUzsAfiY58L++y5ObmSlBIkFzOy5PL+BOEP/g6/tqfg4LwNXxHP+On/DzY/IZzly/n6ae8xl0dbD/hHfVr9nf+HBwUjGt4F/dt8x3+n+fycI53yn/gifZZvM7c0T0VP9tz5lP7NHwtCPcz3+MY/aMw5zApkqv387+3u7t518B1OkI7DjP+/Pc0Y8zV8bsj8J583h+FjX+OzXV8d/OTO4efPCFlPuef4KAQnsCbubG7GeE98Cz7h+uW756cEzv/ZpTuLL7nm2O33mYcmCulg4LzGHjTkBCMB9/xvXx+osvNzpGM5BTJTs7CoPMkqEiw5GRkKwEFXTYLxSM4NERCcC4rM0tXOAh/zVQH4fNQEKtITnq2t/yii3xZwsJDlXiy8Ry5HHhpjik0IlRys/MkNyeXS6gToDfGydCiRSQnE9fkWKLj53weXqhIWCjOZdnNYYkO14SEBGMsIZKVgTFyzDp+M9CQMAwwGO+WmW2mXp9l3i0EYwzG71lZeB7nCuN05BIWESJ5GEMOxsjPdXw8i+cVicAYs0CqOVhuvhAJmu+IjVskvIhkcx6xme1NdX5DMI+hmK/sjBz/6ypZcOzBeIcsjlGHZ4mO48c4OO5cXmfXhMPhF4uEh8nl3DzJwVzqK+kjOUbOcRHMcQ7mmOvJzWC3OOcLc5zLMeJaHT/fOygPax2MMWL8OscBhsDxBONzjpHn/Oup84h10dvgWeHFi0pEqeJKG7puTrxmXEqR9ORUKRIcKqkJaYbT8SIzr0oU/DcnyyyUex9+GBoRhsXAhGfnGqoOkJuERoZJLiaOi6X3M9NuiIkLhRc1DzHn+L/gUExCGM6lZ+KU2SVuAoNB7EFYrBwlpsCO4qWheFEeuSQYtxj2Xz6LE5CHSTdEEVjIIkUxRrxXHs6TGHU8XGj8yHcjcZL7+985KBjjxwLnpnODmruZ3Y+/2AzBIBr/GB0/1THil1xsovw8EfMI4uTC5nIevTuaO4dwjjF2zrNyHp43TBabEmO0RO1mRM/jXBFclw0GwI3lncPPJPhgEjzG7+bXzD/OkWDwfm5TBtaGa11E5yJHN6Wf74Hg8SwyjTwQPMela8kNGQqCDr8sRaOLS4nokobosjMyJeVMglJrRnqG5KRlWZZqp4VEFxmqa8HdZcnDEBg+LFIsXHdQXpYTqXbK+NI4l4MX44J7BwdLoiuGyUrlLsGO89kzQdxdmMjs1EzzKD1npiw4DHwQk6XX2UnCm5mNURRj5IKmOaILLKsZI4gOxOUIxM22jpE7OdvuMLfkGH8YzmXxWUp0gXEEgXZCi4abMeqrBZ7F8QWHg+h0/I7czAIFY/PqgqZiHAFWpHysCDbo5VwQHbm6eTkzVvxnxgjisQRpzpt5LFIcc4U147X+tdGNgXtyHCoBPb6IcWDzhpADp2CMdsO4OSa3J4cmHeQ7p3SAjUH1Q+mgwBgjMcfcvCQ671lm/MXA6dIz0qVkpRgJws65nHo+ATfJk1SIViO/sSuw44MhhnQC+LvdXfozdwkGlZtpdqRvC+kOJzHmOW7jY296jvqG28n2WbwFJ4Cs3UhUs5Nzc3IgJiHKuct5P8ttqENQ5JNjkdsIdpennuG6PH6PBA9uyfHnQi/VZ+CddBkxdi7IZUyO/m5ZAGmbY1R91IpyQ/PUlSCOwAFUx7UbiPREzhSMe+kCKkfPkdAQw814jmMNplpBzsb7YAwhOM9Hcgx5GCc3vXJWPiMYc4SDYi0IooubIY/zQhFozwVRPeB74p5GnzKLwPcjwfD9yRX1O9zQfH9ez/GTE+F+hmDNfua/vE65F0Wok1bK7TEmzIlKD/dlpTVydNAIxuk2iV6neqGZRz7DjYPnwsLC5GJSvARlpWVcTjx+AbpcOgYbUP4pq7m7MvG5n9PwjtSJQjHILN0lnC9lzHpQRHAw2WluB3mnJAw7gc9QfS+fZLws4SWKSmZqhpw+c1oXhxNYtkysxF9KlNxQ7iyKYRASuEixomDTxUrojVPz0uXimXMBkY9rixUtJpHFi0lC2iXd5WWiy+gLn71wTgm5ZJloHXPSxUQlAnfwuWHFIiSqeJRcOHte3yw8PFzCi4TLpeQkcBSMX/U2K/4wkRHhEZKWni4hxYpIVBE8N7yonLlwFuoJiK9ImJSLLSth0GkyU9IlFMpucmqK/HbiiCSlJkvx4sWldq3aUjykKPaNIZLzF89D581WAgd1SoSESunoaOiYWTh3QYmMIo4EGJIXJKVKllIiz8I15/B+1M0ogoW6FN6Z7xKOMfL+nGPOvapCfq5HbolzWSkZhkC9AwRn6SArKd1eYzk36QA0EIqNzesMHZJKddpUDyfBZitHxwf8fmioXEg4L0FpicmXM+PTJDUpVQ0HtbTAiUiZyg04CN7Lcind5XoOmwLsXEUGiJA/85xyEXzG3/mD211k/TyngyMn4q7GPXUncEAgpvMXzsurU96SjKwMJaqnxj4qM777Qvb9dkC5A18qFFy2aHikdG7TXnrf1FN+WDpP5i5doETF+3DyO7RqL80bNpX3Z3you/62Lj2la4cu8uI7/5aLCfHSDT8npSTJxh1bJQwT4TYAOWLJElFya+dbZNbcb3BtrtStWUeqV64m835ZCOKDPuPniiDY7jd2kSVrlklGZrr07HiLtGveWv7z4RsqSlo1aS739R+ulivn9bcTR2X6t1/I2Yvn1BgJBVFFl4yWAbfdJTfUayzp2Rny6odvyvn4i7rpsnOypXHdRjJ+6Fg5deEMzr2ln+na2EWsUqGyjBw0TEXvfya9IZlZhhFwoEXwbrz/nT36SIOa9dSiJSfT+cdakEtxEynXo6eCa0YOhnUh06LKpOtEOlDRTTqgzovb0FDhWlOqOQkFlUINEervVHk4V6QLXELDCC4BuZR0SYKSzyRczriYqqI1BDuIA3H6kopZpVzqBpTluI5KqaVcw4WpU0CWk9WTC9BSsi/Nf8JKYJdBN8iDYaKizJ0juy0BfSmZooWLEiznEy/IG9PexwKC6CKLyxP3TZDPf5ol+48e1AUqEVlCUjPSsGA5Oq4nRk6QnYf2ytxlC8ABQRB4QlZ2lnRo3l5uqNtYJs36WB9YFQszbsgoeXXq23IB3KJrm85yCUS3ee82EB2I1RISiSwKxN6jfXf5evH3huhq1JbqlarK/BUL8YxwI3qsDkrHxKg7h8vcFT/L7+dOS7P6TaRlgxvk4+8+17ka2qe/tGvSRgmFm/e9LybL4d+PSURYuNSuUkOO4OdUcMmypWPkSbxLxuUseWUKCBYGFJ+Ti+dXjC0vj4/4iyRmJcmrk96SLNyLnI33SElLVSLr1bWndL6hnfwb12ZkZqpKUqxoUXBTeCLw/Uq4xyPDH1YidHoi15lckfOvS2xVKA5cjQUaa+RglnM5KzAUHF31TkoeTz6bu4ZRElCdodpiuZ5b73DSAWgnOSlZglITki5nX8qQtJQ0pU5HudSJqNeRcpXTgc0qSybF6/fwseVm/J4uBPUBx814HXckryO1k7Dws/ue6sd6zrBzug4oHl6Z+Kakk+iKFZdnHnxCps35XDkdHz3ynuGyYdsG2X1gn97vgWFjIMrOybfzv1cx2axhE+nasYuULBYlp0EEEz+fqmKIBDsWRPfFD7P1GV1v7IzvdVXO+uX3s+RCYrwSPTlOjRo15Nz58zJl5ic61lrVqsu9dw+VxJRL8tPi+XLgt0M6lu6dusgNeF7FshXlqx+/llUb10iNKtWlTrVasnj1L1Ic43/6/kelTBkozpiv+Ph4efmD1yCK06QERN4TY/8qH86cKr+fPa3W3TMPPg6CypLXP3xbF5CEw81VPLKY/O3hJ3VOXvngdRBZlsSASAf0uUumfvmpZGRkSJN6DWXAHffIy++/KmngsNw49949RD6ZPR1EnSaREUXl6Qcf07HQulS9TTkRORjXybcWVo9TvVx1SXvO6rFcM28NLb24NdT1tHRAnV+lmuOQ1FFx75QU2A2pCcmX005fUvFqSd6wVKfTQZabq63exnP0L8EKczqdp2CqLKd1Rp3OZ10qhdICA1fBC9OE9z+Lt48oGSlnT5+W1z56V8UrJ/uJERNk5rzZyul4jL5ruGzevV22gEPxuO+uYZKQmgii+1HH3LV1Bxl2+2DJxO7esnuLTP1munIF6jOdW3aQPYf3yunz56RLh84yrO8g1ene+Ow9fHZGFfgJQ+6Xxo0ayYadW2TSjKk6xuoVK8tfho5X/WjK15/I1n079XUH9bpLbmrVUV1La7ARZsz9SqJLlIR4LilHTx2X+tVqywMDR+s9+G6/HzuJZ4GLgzNFgSAnDHtAPpozDRzylG6Yx8CJEpIT5aNvp0uRkCJSqVx5OQn9lkzgkeEPKkd+Y9q7kgn1IbZ0rNyHjfDOZxOVyOpXrysDbr1LXvvsbYh1IyXG3D0S95qmakREWIQ8du94qVglDrplhtH5PC5lGAglUlaK8Xe69VYxDjqgBZyVbPQ2Px1QZFKvy0cHVmwEdDrjklFphvdMBXdWoqNORx+dcinSBy03WmS0WqzOpW4JHqqb0bKiZYLBkxZBxY76lZtR37POSaV+pxeCWPV7qhfaHWTP0cdz9vxZeQU7XcVrsWLy9LjHVAdSTodjzMARsnnXNvzdqs8dhd/jwaW+XfADdL1QqVS2vNSsUhN6UAPJw7b6YMYUJToaLzHRpbHgWZJwKUFubt9Zht45UFLA6l//6B1wRUt0Ix6QBrh2C+4/kUSHo0blqvLXEQ/p/ad8BaLbs0PnffDt/eXmdp3U4jsff15emfoOlH2INkwsCatfj9uh43VX7sV3O3MaOhn1VYg/KvePjXpYPv/hSzkFTkeCf2j4ONl/5KDMnv8ddNYIaXtDS1mzZYNyu3GD7pOK5SvKyxNfU501MjJSalauLrsP7lGjozu4dpe2neWlD14FR0xXKTFu0GgdryO6J8FZy5cvr35Wp1Or9Wy5Gd08up5WWimLsRyR3grPG0HuRhqyOjp9kp6FirVWzwEtenI2qgj0K1qdkZyOhlRQ0mnqdHAMp6TChwSrCF+m7ymf/kUOBllOt4SzPP3WT1jxCOOfsUqpoU4r56Mgy3E/Z6bzc6MKGp2OfiLjkoBOl3BB3pz+gafTPT7yLzKTOt0xI9JGgdNt2UNOt13vPrLvULmYeFF+gE4XRq85OFoyrMJ+XW+XutVqygdffaREF9AvglTn69SivQzsebekZqbJ2zM+kDMgdi78w4PHQjzWBmFtl6ngEjyqx1WTh4eMw74Klo/AObfv36VjGdj7buna6WY40pOUCD/4cqocPnlExTk33iP3PSRx0VhkcELucH23aXg3GkngRI+NeBiGCXxoOM+D3G/2ou/k101r9HyvTrfI97/MxVxkyV3db5fmNzSTf0M8k8j4POpyYbAcqa/eP3yMehle/fhtSSPR4frRd98rn2C8lzAfjtPFRMeonqriG0RG3S0b17kAo2Uryr3oK+XaqBhWKWekFX2rZCLU7VU869VmVYuQDujiUT+d71BOWhT+0yzodEkSlHLh0uVsiNDU1DTVI3iHfB5xK1Y1hIGfVScwFoQZDH52PjYaC7yBGzy/QuuV1xi27YZnfEEMo2iEwOp7dAm8OhncgCIC7oSnHwCnmxPgdGOx4zfv3Cqbdm3Rx48ZcK9cgK707aIflbhiSpeR8hBLrRu3gCsjXN6fPln1JYpGih0+k0R3U5uOMrjvQNWvXgP3OeM43cjxUq9WXdmCZ3z4xUc6yTWqVgUB/UXnZsrMjw2nw7OH9B2gYjo9NR0EHyY//TJffloyX4muUoWK8uQDj0oQuAHfmjol3TWv8d1ALCSKJ6Hvcf6o6HNeSsPKnDrrU9mxbxe4coyKzw+gk9JYuLltR+l+Uzf517v/ATfNVk7ZEkS4fM1K5YS9u/WE8dROXnz/P0a8ktMNHqU6H109ERER8uS4v0Isl/WIjhYp1aRA9IZhL6wLhRwlGc6rlMu3msYK5bIrd3N0YFkUaYRSpTA6oJRMTlZDIvlyxrkkWK/Q6UjJEAUUB+qUBcVnw5IyXvXAoZaPDaHkYOc5zqhE5rzZDK9wyLinc8pTN9Awj1o+Hs3q9+hDOnvmLEQQxKvlBk+O+qvM+PErFTs8RvcfAV1tq2zeY3S6UdjN8SnQ6RZ8r5NzU6sbZUifAarDbd+3Q6bMnqZ+vca1G8j2A3t0+pTo2neSIXcMkKT4RHnzM3I6I14fHjJWGjZsCL1xm3w4HUSHC6rFVZEJQx9Uov5ozmeyDTod52kAdLrOLW804hObZ+/xgzJx2hS1ONs2bS3D7xho3Rt4t6hicurESXn9Y+qrEK+wwv86YrxM+36mnILBQ0Idc89Idf8cgz5IP2PDOvWVAOl6aQh3R9/ufeTNT99TQyIWBsHI/sPknU8n4XyaNKhRTwZiPH5ONxb3o85IK1053X0PS6U46HRp8MWROXBdOGtqT4BLwSebjciLAWoEDopP6mfZzhdn15RzQ5eXRofUJ4vD3RBUGQKdn9LLhdl4jhw/heKV1itdJmk0JHCUrl5Wjp89KUmXwAY9Ss43Du8XTnYdcIbE385Z6jacjfqfIyyV/3ZAGv8ka1YxrHRiTzLcFCHnzkKn87hBpDw1Bn6677+UfSQ63OR+7N512zbKtr3Uq+CuGACdLilBdTolujYdZMjt96iPcNu+7TIZO50velePO9SipAshB5yFRDf0DhgSiSC6T96TUyA6Lvxfht0vDRsYops0fYoOsXocdLp7QXTU6cCJtu21hgTEa2c8j0RMV8SBE4flXRABDYsOEN9DYU2SK5FjhEXi3bChXpn6FtwhCAVZne7DLz+Wk9DpqBqMhj+P+lxC8iXdjdRri8LqpBQoH1NO7/ce/I7US8kJR8A6JSdPSwPR1QLR3XY3XEJvqWFBH+cDg0YJ7893po74xOi/SPmKFZQInB7HOXNusRCE9HIRzzbhSKu3WQnEiApDmU7nsnaB6m0aYy7o7MctGEDQcB/DZWoqGM9ISipsh+SziZczE0B04HT0gpepWV71j1SatlchOo4tFA+MKx8nSb9fNC9D/4yxRQKECd+Nxl6t6exOmN3F+Kp5URLHBTz39U9o4VHvKSZ+TsfzrZq0kMPHDoPQEKWggj1gpJyG2CKHICcqDWOhfNlyUg7WXY2K1XSnU+cY2/8+WbN1rew6uFc9+p3AoQb17o8FSpO3YFGeVp0uGFbqOKlbvY5y0qlff6ZDrQHH8MND74dOB06Hz7btJ9FdlkHwwXXtCJ0OQIkiePaew/tk0lcfg+jypGPr9jL8rsGSfinVbn7EtEFEr33yDnTQeHVh3NOzn/wAkZyIdykGw2DY7QPls+9mKifj+ZYNb5BNGAejHbTk770HLpCvpitRlSlZWoaBk34IQ4EqQqO69eUeWK+vTH0TqkmmEusN8Blu3LlJndD8/clRE6RUiVJe2EylFSUZ48NWX3NWJtUlDcHRA+EozNKCYRyMD9Nf61elGDtm7BX+Wh/ww/AW+HkRH84DAap4TT6XeDkrMQ1El6aRhTI1ystb774lO3fu0N1d2EHZXbp0aXn+uRckJzFTxbCa4vnkphmIQUAYf5/hcDbgT8gSCZLsGCGic7ACX55MB6fRS5598En57JvPdUHJTTiBLmylfjBELNZt3SDfL5mrehXHlJmdKbVhRNwKRZx6Gb3wE4aPl4uXLsrn4JrcLDe37YRFG6SO5lemvGlEHJ7/KJT/+jXrQmeE9QofGsdbE366x6DTkegmfTFV3TW8x7A7B0n3zl1BdEDmgOh2HtoDzvOhGgY3teuoPsV0zKlZM0ZSQuX7pXPl5+WLNBxkMILg+lAFGCGhiHx3+iSdosrlKsJyf1RexthOnj6lKsKQOwfInHnfweWQBk5XRkbeNRQRl8nQ+dKkcf0GMvT2AfLS+6+odcz5JcdVXx/+bVCrjoyHMaSYRStXqc9xvZWDeWtmJI9KK8bWPdeWlUr4R/V3xnZBXD5BpctKMUykjqEDcy8lS/wXQtUKjmOj0yUmXc66yDBYmn6rdPVyMnfRPDl69Mg1iO6yFC9RQgYPGCypJ+KNgYGDL6LuFIf1soYPz3HAChC1wWhLgfoPERaJEHdzF85TsUTl9/ZuvWQlnK6nE85KiI3pEyYagZ3bFDu5QR0o/bBkN27ZjIU3QXCGssrFxkojOEyXrV+porw7HMaMkc7/5WddhIZYpA7gRnQTzcNnCQjNhGChenTuLnHwZR09flQWLVuq9ysbEys9ERaj+F2+aaUcOXZEuXb7lm2VQHm/UHCFM4gpLli6SNWMejXqSPtWbQ08jK4n4tgwH9R/V6xfJTsP7FaOxTE1a9RYbm7VWUNkKzesUoIph5jzrTAOFq5YIqfhu6QbpkmDxrL30H7JxIYsWbKkdGzbQRYuXaxWbBwMl3Yt2srcJfMkmzuCbilwXBJZKXy3XbPW6lAOQpiKxGI8CYFDwQQOT+edMhxCA/5YNxf79nEO4xZhwP8KMDNKTXWZuMgFaCufTpd+Nlk5HSk4pnYF1YfOnT2XLxieb5QkT7xYBEItHdt1kISDDHAboqPTWGV5GtmvpXYbNjOGBOFRzpBwiAbCo+h2AarEoBF1x9MgoNika4WsHkBl3amMY9L0z8HNIkpESh6fxYlW893oKYz3ETxIBZgWnhpJsGR1IovgeoyJrhwG5XWYarVDBwOkihBJsWY/URrkRry+aMliuovpGqLBQFHqVBCGeRS1gs+4qBy7nlN4V4RxP+gYINJwjueLwKqOxPjTElP0nWnl8nDjDyNODu+mm8lyLv5MJZ3EHkQolp0Lnqc0CMWzLuN9czMwWepbNShwjqkIQ1EgEHIjB7xVgwB/6e4w7iuzZgash3+sczhbncPmfu40GQy5ohHRjDoFkCsMEnCdsjB+h1wKwYOS6RxOpssEoE3qdAz0ktOdPH1SLsGQoFld2MGJ4aTVrl5Lkk7FG6wXuZ1zHtqgvu5yGg42LGbuZxaLO8hBftzAlCUDxEmriMTpWb8cCn3KDEYrJ7WxPx+PV3OeX7OmvhKglenUXzQcB33D0rW3aRVRC4JXvdPzSxkCJqzKA3EyNGgYiY6BE64gVF0dnjMwfTpTCZJUEKeah3YhqUYoiBMcAHPieZ4sZEvHqLAk65Zy+hQuJ4SLsCklGBNzt+LLADxVx7LOXDUGOEaPS1kjQN9NqdrMsY7RxLH9Y+TcK+OwIlTfz6pGOkZc7+bY0QdvQUmm7jH+tXTgIGcK9MV7qXhNQsA/Mz5VRQ2tlJhaFeXdie/Krl27VJco7KD+FA3F/e/P/F2yE9IBdMQucQvKl1LHIYPADPTinI2/6voYO90zJFQc2Gv0PBaUAElCZpxO5IiSbFt3FzkH59D6ChV1ARHBw4AS7OSaLxmgKbkUcW32M8OlcI5OTUJ+NM5syVT1Tsul6BIgOsM/RkxqKPRVclJDAJZr81/lANBXNWDu4PBmHBpMp3VPDmbH70AEoRgjozUKzbcr7d5bHfDE6ykG0FKApVqeUyiZHaPqzJxHjpEgVH8Ii+dIkBbE+ccxWsi+GhJGPwyAAaxuRg+EL+Bvxk9uSeAHx2gc0N5aWzrgHCcZnS75cnZiunI6jjS6Sjn58eef5OgReNctu78S4ZHooqJKyJCBQyXtzCWj01kupaAB3a1KYYHd5eBRTqewi8/7K3iShOk4oo+DKQTKBqqtY4lITV087lYDCrWi1REAQ3oMweUDjFrisM5PN0azsPYc9RT8qNB1//gp1t0YbXzS4846fgOQdJtA58yCSYMh9rzxO27DyeL4GTpyaGBLLMqxNIzEcxYWbmhW/8d3VgCpM9wcR1RigohW+JJ1xvu4pRmjAcB67M0m1fjnWN9LJ8ECAzAWD7FsiVYJ0YVDKckKrjVDo7yPZUQq2fBXw2D006WdTlI/HXdQbN1K8vakd2T7tm3gdAjQF3JQpyqNCMCLz78oaceAPLaGBPUNBXHCFeJ2sNIB/tJFQqJSqLOPqHi+CPQ2fu6JFsvBeCVDKNl0aqqD3IgOPZj0wl2uQFP7EHuKcGxaUwqdcgOwz9TkG5zPRoDbskvv3xBAuHgv5j54G8Zep2MkhIuIaZfaZrkNz5EzGNeQpRBeRz8dxphVcIxk9gRVMIcEXI/JSGrNYl6px6oYw/tlwsBznMTdltdwAQmqyOfWIkcnt8FacC7zu7xwDjqdcnRHrHauSGAM+GcDaApl11txdWWBeCglspJswN9HDwp511Ca0/fsVJOjK4jThVTNmtGQSE4Dp0u5COsVLhOKV3KG0tXA6YDa+O236+F0UTJ08BChIcJAsgMD6ORYbqbcgbvL7l4+nLtQEQw8x51gd42xugw8igtCAtQp4M62ok/hVxi8Q0p48Ch3D+UAhgvqjiWokC9MiDc5AO9DKBZv7BujilYSjOV0juMq0JH3841Rv6djNMFu/xiDFCBpwkhmjCQupscx/8vCuywHUJ0L9//t+BFJvHRJYmEpVwBoYR+s1BwQX1U4pksBJU1jxnBZjIMoHaAhGfhXeD//kBPpe/L+FlRhIeo6Pw7pzHOE2+uEGE4EK0M3id6D60SJgXNm7oxuaebYSjKFNhGkC+tYASL2nDIBhshwPcfF7ykdICEH3gYFcWL4ySn0052Ov5yOgD+tV+6umDoV5Rwg04p7srv4SsxODQl40uMqVJKkk9Y5rHkRgXxJbwep5WksJj3ycQBwMFV8jXjU09xdDk6jm8RcqJdhjNTpHPhQzzqdAruLz3QWX2DPgpYIMAQRU+ewT/G4bWGL6UQAACAASURBVBGAEhiMVuJyu98+MDwKMG7sZJ1MlW/2alp1cHiSA7j3snYdxmcdr0jl5OFZ1dw/1Du51jbphSrM5K8/lvU7N0uPTt3kzm63yz/efkkjLeMAT2rZqLmG2tSCT8+RYCRVbD+wU37Z+Ks3Ur+YDyhTdqqdTmkG4oZvCI1EYY0Y78VJR3bd1YqmyFa9yb4376ecw97PLQy/gk3kVACepiHKkN7AHndJdLnSCg5OIogzJT7pcg4mTnU6TGSpuBiNSFwv0VWJqyyXQHSKu7ccTGW51SlIQApZpu7AHcRBqmVL4qKuZtwRJgHaKevENwd2qGdRcuG5Q/lyjkC423g/3oO7i4cFJppxWILlLuRW83RGXmd0G3Ib1SdVT7T3IGe2ItABWQPj4JrhJCxAukn0sFavi67oAmgOrP2ubqzAGHUT4h50oXw2Z4Zs3blNfW+9u9wqryMUyEjFcDiAm9ZrhBguuCnnEWMKhb9ww47NMh9O5hYtmktRuK1MInrgcHvbfeLO+WnOv//z0WIBWnL3+LP3pCg9euwYck3OKfiAvkVuauV0KQj4pwPESfHKeaGfbhfAjhfOX7i2nw4O3DYtW0v8gTPW4WgDvZgYWlNuB/KlOS0Kj/J0Orsr7FsFLB+KDMszdHdRF6FOB90MOD83QQqZx8LSB6YWmGGWeiixMI0R+oYHx7ZXGm4JtwvdBbC482fYY1HBYXkjD7rjm22m+tHVoTqdXUnDAHCdheUrFtF/QKowrqwBc98YdZwgWubcpsQnI5KShcA8wBbwJdLhS3EaXgwEBe6ms2BvS1/cJkRFlm5YISNGjtCokEmo+u8PdQ4zV9eKVU2eAqGbOOyfP5wU/PXXX2XLxs0y+s5hUhxqAhcmBVArNSQI4lQ/HT4sXb28PPrUo7J27RqT7FLIQYdjWegfM6ZNl9yL6erT0V2uSR30Q1lF1vBwnTRN0iHL9vxQPGdWgmJTOYOfE9mXpthXP5qzprgM1npV6JRNk/SApgpEdOlxxrINnDN+NNULrTrg56Sq++HrAV/ZNcZoubaOn7m/1En5zuR05GbU2zhGBv9JG+r7NOPnGOlaWbJiKaBlKZq11gLJPLMAfyfMvGeXHlID+RnqeDf7T42MDbs3y5LVy2TosGFwW0X/10RHLsu/qQjCnzx5Uv8SkEBCrlOnDuDtZRS/998QNe+7evVq2bZ5i4wdeB/gWMjew/iV06mfjigTgjgxOWVrV5KZsz+XAwcOXDMMVhLpb+NGj5XMCynwPCP2imRrvxpIvqRecOovaggYNmT/UUtLk32N5PFEhPrpVKdzSSO8zOgXqtMR2QD9gLvT+JBIt/Tt2Qx/cAdj6Vl/If6lv8pEE0i8lFTGSOFz1ZdIhIWPS+kexxeYbKLQLctMnKhi6YwQ+unsGN0L8DpuPA2mq5+RAzH30hisTc3T5Ce9WZD8uGKBNKnVUA6dOaIA0/9580UFBowfNAbYwJaajKN+OvjGgvGeG/dukV82rJRhw4ZKqf+C6MjRqI8fPnxY5s2bJ2vWrFGCI2KFBEaCqVChgvTq1UsGDBighM0UyD9z+IludL97pXQ5EDDe2QNxZtFPR6LDZEVXKatY/XTstKsbEph0cIxyMWU1IsGdrItmRaLTuWlSK6JYLUXKvYAMZO6sllew+o6jAuVSTPS2ua6OGo0Jb0RjelKKprP5NGPDSam5OeiUb5act58ckwDRSCA3HLUTMU3u60F+vCEyamK4rNFDHZkapVk5WL4xGq6oPjbqqy7cx1HajaVWHO6jXFYZYrBsBCiVOlz5cuUQz20gi39dLClAALdr2koql62kbhSdR4yRwASiRxY7Tlf6z3E6ElsmQAHTpk2TL7/8UhISEpQAuYH9603uyu81Qs7Ic889J/Xr19ffr/fwE904wKxKcpx4ZwviBJ7ufIqCOGmdlalZQaaT0+3ff02UCZXDhx98WNJOEGpkRAAXSX1I1EUsd3JEw1IRGpu02f9qGVnWQe++lqZQR6ldPJVEpvwEfVnchfyIImYn8gM++WYGxhhIllaOYjlUwclx6gldDXfc0kd63tQd0CPGPA0jcgfDNWRrXniIxGLHSMSMhqI0NySAReO1tI41EkLXhd7UvByJirqsg3B5D7R6JwvexEN/JuKXkCZae/GX4pH5j7VAkD5YgxPWisQ11Pk2Asi6eO0ycDqI1z9BdEwcPwKn/8svvyzr1q3TRHJ/svmVCIocLiYmRl588UVp166dorqv5wgQ3VYkCd2rOh3XOjnNgThJdEy2xt1IdJ/PmXkdRHdZSpYqJePvHw+USYL1nAdAnHkuFOUJMRAk3QWEcF+hwI06Samk20QOI5HMwvEcgYLOIqYyvRVAzonISwhF5tT1H6zGlC39b+snt3W9VbmlWVLrrAGhaCgNj3WgBP+9uTG0iI3bGI6C3BjJ2RzRWepXIxfj1+w4y/6dC4jRiHAYGZOmTQUMf4t0RjZb75t7yuJVS6UEEDzlYstJ09qNgE5h6M7wdCW6PVtliSW66xWvJLBVq1Yp8ZwFWJa/X+9Bva4U1vqNN96QZs2aXRfHy0d0QHyXANFxTVNIdMnnGHuFc5h5rwRxIuB/PvE8QJzGsCjs4PyRLVcqX0ku/X7BiwsGvm9EqXKwAothVBmTwJ3NGGQBK0kVbCIpdKHMHVWwUXRB7IZhwg4ePCALfgU2zdb30O+oy8Q4mAseLl+TE9j2hjYASTZT9AgXkxxY64JYFSBgPRuCUWRsQX8WA/4EA9Cq9j1OmbMiai3atsBADLLaFSIyXHvK7I817bFbh5ulT5desmDZIqgAJSS2FAwLgDnpMlGCx4YJAXxmI9Irl6xfrpzueoiOBuHmzZvlscceU/FmEtP/3EGOx5zgyZMnKwE6VFFhdylIdNExZTRpR3W65LMgOqJMQHTMeyhTs5z8unaVnD71+1VjrySAokUjpUe3HpKGHAuFzLBqk6EOIzd9ROf5uhwhE/LDykweYQVMCUVwsIyYh2q196MhoVWboO+BEEhwzvHKhWcIizzLgQ/9AXotWUbrmHgyiE8lMCc2bUUkTZv0bzSKM1aWInRKfYEBfcAboxu/R3jcGLRKDSjBqQpqQNGQYMAf99WNaDksIepa0ahMKSmGkhnE0BH6FFsqBt78CPXD6fh9RLd0/YrrIjrqahcuXJCxY8eqsfDfEJwjLFq2w4cPV+K9lmHh1+nGgNNFx5ZRwGgKiY4gTpf3ykkoXbWspvldD56OjskO7TtI0rHzXgaQVuthCIhuDD+jtJYnXQV+z797Ic9l4gLtPGHp0BgjFnrku6cGkeFyyGOZL3ydGDOzA43BocVdXNIIriOR0v9EZV45Hwwfwt6N6DJVjxjv5PWqtIMLKTckreFTikKtzGRDR8S/6XmcVV0WhElR6IZORDFrrygIkvNh3SvuC4pVw7kNWzYqerlapSpSD4nTv25ZDUMuA/D8ZlIeGVzE7XkbBOJ1w67NEMG/XBfREQw7ZcoUeffddzVf9v/PQZ2a9/v000+levXqBqdYyOHndOoyAdKbhxfwTz/jAv4isXUqyXtT35edO3ZcdVc4aNM/nn1OdTqXtsidTC7gAv4eDAcLRxGhiTnWqjPLaw7jtnDBaPcmRtfS7HMSjxV/XljMOocJgSJyeC7qjaxH4g6Jq1zZslKrZi1ZuXqVxiNLRZWUhrXrKxJZa30Ui5Tm9ZrICvxOw4ciu13TlrJi02rlQEVAgDfCfbECaF511YBGu3XqKsvWLJdsWxCQiUBrt6zXrHuOqVPL9prUQ9cDgZrMXb2xRRtQKyqCqmvIL/YNwiQCju83p7wr67dvlG7tbpb+PfrKc++j0E9igjw8fKy0rHeDxlnd4TmH1/8KP93Qq/rpuClJGKNHj5Z9+wD5/y/EakGaoiExbtw4GT9+/FWNCj/RjUa9l+JK8HAOU6dj3qvmSFCnw64kp9u5dxdY8vlrRiSojLZp2QYFFRNN5jiNAMXhk5ocCJIuBxsic6BQ6+SlDqkckQ5jP8AQK2xcJuSW9LXZurzOZUIwgOOkaugCiYKyC1/NmyNLUUGJxkVFOK5ZcYlOVBJZLBAxLZu01ApPWowHbpMOgHjPQziJFiaD0l2QsT9v2c86Ocy5uAUw93nLFuq808q7DUo+C+lo+Vo8t2+P25DzsEQnnyK79009ZNWmtbqbmc86sHc/1E3pojqZhgGpAhCjiGuNy4SEF6L5svsO75cWTZtLR1Scmvb1TM3M79O1l9QBSJaegRAQLjkePIDI4QCnw3teyzlMItu9e7eMGTPGWP5X0dGvlwNSJ65bt6589NFHSsSFRS38RDcOnK5kNJKCQAfJeC91DmsKIgL8rC3LgP+va3+VU7+fuqZOR3Z9S1fqdJc0TKVRCL9MpU7EmmiE/Kjj1efTUMgPHcDOqrN+PN4B4SGtxEk4kLFhPReZB5Em5/CxSsKwZv38jSxdt1yV84qw/JjZtQS/k/MxV7QlkrDn/bJAf2fiz43N28j8lYtBdCg/BrHRpXVHmQeiInKCaYG3tOuC88h7wAhC8Flv5EoswPc1Foo/d956uyr9dHcQ6kXOtnrreo/oBvS8U7q1vVlDXM7FR1XBwPldlcs8JeIMJBSViI4CSQVrQg8PFc0ssMhNxYA/NmEwoEesNrUUAf9rcTqKwunTp8vrr7+uYvF/41C9FN6Djz/+WKMWhYlYR3RbEZEYA05XulyM6u9JqtMh9pp9CRn+9NNhMqIrx8rx0ycAV0cdMVuF/EqDVe4Cq6guMo0uIQVRYTzUfejYpW7k6pVQv7OWHwPr/I4JdpN9MFRkCFGhNQo9MlEEfTSh27zAhpTUOcwT5G4ONKCwG3AAZGuxctJ26KN8PhNR4irFyVbUoOP9WNiG0PqN2zeprhaJuCb1p40Inqt4xbs0RY04ZoKprog/zRvdAEfsZlUJeM+2qD23YQfS+qzLpy0SXragtgpRIAyrtcD3d+/fpwnQ1C87tb5RmjZoopXaCQ1Sw0Zh3AaI4KBNPyyYq2MIjwhH+mIHeefj9xXqNPSuQajL0tCURuN7MuCPsdM5vGjl0uvidE888YQsXbr0T7lIrkWcdBI///zz0rdv30LdJ35Odz8qZkWh7h/pwMZeUbXpFKo2oT4d15cgzlfeflW2bt1yVR2ACjudhq++/LqkH08wZj292shwigd8JRvlFhRFYQAjKPhnMr40B8DqdP6XC4VOlwclHTYadj2pipSIZBLUhCtTIQZB/SQtlm0OI3JZQZ2htEyCCCm6GLC2YppErG4XBWoaJqu4NI6JRbtxbQbKafjzQCiCqFuSs9Bi1dKtDnVCnRSWrIbSEPDX+LIlRt48TCFQBJM6SwfvyU3Ec1qHj/Aoo3a4g0YX5+Sbn76TWij8cxzZ/Z1adJAXp7yqDuIHUVuled0mOrfOx6c63b5tCINdndNxfCSOe++9V44B7XG1dNJrEVnB81Qn7rnnHnn22WevTXSbtqKG3zB1epPRsExGUGp88uUsTcyBgoeFiIZOt2Dpz3IcA706XN2kIN7TD0nLQKmQmM5ejJcf5rwhdYJXS0wx7E5McHJuUUnMiZTK4RexHibv0sPV+d+GeQOQsMczYqVKxAWIGQM2DEfxv8othktEDVS0BBdUGiAiFRZrJipXUvwYqLyFVvOeykVMzV6tlcJLaJWSyyoYwCT3FA1FkUOVY4QN8RzBACbC4Ti1wsnJjUmwQMo6bqwgUYIGmJVFZkxIvQVZBuBXNkqjEC4nCQxRGjCAASUcRrpnAsJgZRFSrIAChnsP7dNAe3VUZiqFagDk90F0D7H0Kzj6Rup0qFhwNZ2Oa3fq1Cl1cTCgf63Iw58hPLpL6CT+8MMPzbsU8LPqlHoB/61adYqcjvObTJxmvqpNUOxpvR79/RjKSlyHeEUIpw4qVTLDPzfzMhyHz0ufqE+laWVjaHKdjyRHysHEKOlR5QzBs4UeXIrM3GBZcLyi9Kp2SsKCDTKFf3ODIyWl5U+SGVQN/i8QIso0bAOcfubc2crdnMLkNSVxzTScr4NPBcEbFyITnPMkFoiOBwaMhocf3AZcigF4l5ij31M/I2vxWlCC56ez3gtyWVjj5GDONekCrKp3svA1OTDvY/173HAMs6lOZwP+FLVHTx83sVeUfShfpqzs3bdXg/zVUJGpVBQUcHJgVr+ib5LO4b1bAeK8esCfSv727dvV0tTXxzjIebNolDiDTvevMdLItTkW5vA6kCYlg7tWuTrng0V3sNFYdoz6IiMnV0KheEQHTje6H8J10OnodzU6HeDqWrWJEQjsjujKMbJjzy45j2qUrtL3lSiFA41AxlbbVm0k9WwS6r6ly/zJfeXBJjslS3H2VL5FjiUXk0NJJaVb3KlrE11eiCw6ESc9q5yQIhCtntmB+2R1nCdpRZpiTLlqWW7evkU+QEZ9CCxVvzvQP1br5vvD8BlALw+O8jdUv2QFdg3O0/emwE3ezYBQPUi95aQOoey4qlY9clyW11jq83NZu2qG8MgRWaOP1quvrvP3C3+U2jVqQbyeRPWBzvI/b/wTtZEvoGbd/dIKdeq08DU4x2XmT4DTUa9ctNL46QqLvdKzsGjRInnqqadUXyXBxZQqBhdMnBxDIhUHQbF9ARUKimEjVK9QRpIhNvcdPYuQVbiqLlHwS5II06AOVSobhdp3ObLtwEkjgXB/+usYpbiSMZGP00GnIyKJeq1XtSkdRJOCOCTFREztivL6e28oJ7maX4fcgnir//zrZck4mYRS7amy5uvB0q/GTvhcDcQoBDc8mVpMjiYXl44VzoLoCiMPwz2yQHS/niovnSuhJKpHdAa6lNv2K8kJa8HVUt3x0InfUE7iJ7W4XT5GwDYmlyJzM5i2/Ad2PP6UBqcbfOvdgfp1lsSvVlmKYEy6hlwdPuUIeA55qMK0vH4ZPosb5+lUzoKO66SQY8AkQHLLH+b/oMYNjYQbm7WR9xFTvoQoxVCUM2tQtQ58fjRCyK0AFYNzmDVOliIMdjXxWtByzcC47+naTF7/Sz+IcujbmBRysmQkPEVg45Vg1SbM1Ykz8SifW1SJjZ9T5+XnUdB11+04IiNe+lylC53ib731lnTs2PGK0Yl8frp+wwvodKyuDjxcGstKYCRMtl60fLEcP34dOh3ig3fd2U9STwIKlZYuC74aK6XlIHa8bceDF0vPBUgwG7kXRa0iXbiExSQEyYWMohKL70Jb8jhdXm62VGn1qNRuPBhiwGV3MWGE4TLodNoRhkau1Ze4j3mOuDubDG1QzMqAVTfTAjEgEuVs1tDgDlYIFLUof48MS82alK3JxIaQvdwEXK/df2jV2jrM+gUSCg0pjUgwlKYMxhPHDsKVgSws6kkRUFeoi2VBD1WCxKIzbOddhJ/UemXs9Rp+OhIdXSUUgfw5HTrwU8O6y7i+HdSZbZUEnTN9XwvP19Ai5kH/BGweFHCEP3HVbnnknW/wc6j6JslFhwwZckUncb6IBAodsSYfD41IaHV1JFsTT8d4YQxAnP95/WWbglh4srXhdDHy8kv/kbxLmSgOnSSrPr9bhtXbhXoaZvHJ6Y6lFJfDSVHStRLF69U5XSY43ZKTleSWyogRWp3OWKooT9D+B0mVxiAk6BaYAI14eI46ozcRxcIpzPWBOO3a22400OdoeRqtxTuYYKN9tliKnrRih8nnOqCpw/ypiobv0DApognhrqSCXUcStcZeTTcan0qni2iSrU3yEM9RhVmwarEcRDWqZk2bSvvGbWTmD7MUAtSzfVepVbWG6lCaLA7xxioCm4AyofV6NRAnxd/f/vY3mT9/vorCbGyWDx6/R7q1qguiKzx8VRhPKIrNOH3BRnn+o/nKAUl0gwYNkmeeeeYaRLcFtaIB4iwLECcrcWrVpvOs2kQQJ6o2gQOUqVZelq1aJr8jOEyWX9jBRYhEKKl3z9skA5zy/IVkWTn9TrmvwW5XBkR1uqPQ6fZfuj6dLgtccdFJGBJVT3qGhOEoIhkd5klKUBNwAFRuApcyAXPrWaF4g86zcNUS2UA/HP7EQPRXA9R7A8JLWkgG6FcWGly5bpU6hyMjWU6rqUYQtMEeKGH4XUMQuTAlUi0rM03ctClfID9DxwSxQw7m9TZTBdKwTEWZYDxmjH7yJpc1KBONqKjiHqJ159aivnCPm7vJgN53yTOvPKf9Lh4eNk5a39BKdTo6yxlqDIUhwdjrtaBN5DQTJkxQyDjLf5DiP/v7EGlZv6oaE3/2KIp3fWfWcnkbf/kzOTPxdYzpXglxkh+uPkpKoWEMub1XtSnzAvpIMNkaA2OpsN8vnNaiiFczs13yBRXghN/OImyTIctmDZd2ZfbA02aIlV32zkFcZoKYusX9fk1Dgjrd3GNVpH6pRCRaOfGqfg6JbPeelCjXDT8GkqeNeCUKBCl60HU0DAacGY2LuPIVUNWpvvyMiAFLc7G8VotGzWTBCsKhghU6dGPztghrmTAYJ+mJ0ROkcuUqpjgOm9AFqFp/dI33/KWwnBWjJdF4jcsAs6uqvkoWwrEl0fyLrRXswS3XrFkNh/xJ+Opq6JiXrflV0rLTpB0qQ5UvFeu1meK13FxEGi9ZC51u6JUNCRfuouVKC5a6OQntvcf6S4829ZD48+c5XQSk4AsfLwC326CcjoRWqVIlRSAXQ1HyghZsPvF6zwiAOIHUxlxo7FUrcZ4zIE7uhjK1KkiGwAeG4nqFC0MnYsBBUGjv4v7TqJuWLku/HiW1iu5HkritjgSiS8iMgD8MNdiuw3ol0X1/pKpUiATMSrNYzAjy8nIkpvXzUqH6HTAMWITbptyBeEzDNVbDBNHNB9Ex7AUOXRlEV59EB/2UnI1ERwwdw1omDAaiawai+3VhgOjQLKVy1SqKDlYOZnVENw+ssaZ1OmwZhYDhYup4aKsCS3QOnm7yPQjTYh2+AMmpjUzcIO554eQZWIgZWhyRCSysMs+eYWUBXw/NNUaJO5ToIF75noUZEiQ6cseRI0dqHgQJgIbEP8f2kiG3tMLPf57owqDSPPbOd/Ljqp1KdC4iVZgF+0fksCU61ekoXl3VJviXYpANNvdn1L49dvSazmH6aAbcPUCY2HMOCdurpxnxmmVnyYjX4hCvJaQbLNKC2Xn+Xc9FyMwNkcXQ6XpXgU4XYvx0PFS8wmWSnEedzohX9ki1NqJuFpYBWwbkxSaErci5GAZj5XGGscix6Vpgv4XVRJXgdy5wY3TVWbtlnSlSiD+DUKafGVnctRpygwg1bS1tJVErPtVAIJeimNGyqGpaYqTWLcJavExx1KKCvrRJ6nSsyYzvGqI2hsHUWZ9osjWLI96OvNd5cM5HoQFLLCI+zbFRWLK2CAtIEm4F8cpC34wpF0Z0Wr4BuhMdw2fOoLQtRHg6uPCEQd3lr/1v1J//zMF5Dkbd4jGvfCurN6HLkEWrkLBprHTp0uUPkYmChoSKV63EaQP+iqej15qGBKo2Pf70Y7Jh/XotGV/YQfYai1KrH0/5BCZJtpw/B53u8ztleH30NihAdDQkrofTGaKLkx5qSPgr/4Ag2/0EQ6IRiI4NeH21UtwAbSspDU9pg2OSgPO7GQQwQZouIcbQh3F5aKYVrsnWtpwBPZHnyMG0Nh5THv2cilg4wtAtZElVOntx/rpt7n5moBrwJ9HZQuAkiE/QsIQisyuQw7079ZAFvyzSjjtlUca2OWK39IMxTEiRz2ywTciRWHoVQ4L3pJ+VfjzG0EmErNB5T9/b5F8jOwEmRj+dL7fkGhRIJ1Nmiapy798myu5dAcgbjYmHHnpIAaIFcyf8zmHmSJRCNhjnUZHDGvAHp9Pq6pgMFwY7epScrvCBMRzELn4D+g8UJmvHwzm8ckY/GVmf1qudYKzCEXC6A3+K08WB08E5TOvVTgaZSGan+ZIa3BSMwyA2aD2z3ofWsSOxKLMJKASmHoqv6YYxcPV/JiPLVkTiR3Rj0FLF903rAroDfa4KOxASkybeeKBKm5wDctP2mnSnKGDBDNwF+HlP07rSUaahbI6Rlnj8hXjNNyXGrxiI7eJFRHiw0PSDIk8r33VcTHLvRQBxFsbp+B3GW0eMGKH3JdFR8b+xY2eZ+D9jJPg8emFYt9a1OR5DikUkvkwrGT72YYRHj3pxXMZ2b731Vvn3v//9B19dvoA/ssEIJeOhYbBUlJVIcyBOKOyENiWko8T/NXMkINKYI1GuglzcdwpVvDNkxZwR0i527xUMiZDr4nTU6X5SQyIBhoQjOfqLYCm3fluKx3RVnY4vtO/Ifvnq52/154LlTPlyBqliOsIUPBSoQv8US0ngJBEhVSvEyYg7hijkXUNlWj/O+kcsEWkVAsLdnQ9PH2TYGwP+mvGlqBkjZp2DmpWlClZt0vHZikhr161VZzCrptdH6dilUBNYO7lti9ZSIQrIYVrTdjrYQ40Z/lcL+NNw2LNnj4I3HY6O3LJ27dryydTJUuLcevRcTfLtgMJJLwj5wTkxDeVkbowMHzpYw1jOwKR4ZWoisXUuB9ndKT+IExn+ET5DIuUiQZymPh31kOiq5eQ1oExMqbCri9fS2Ikvv/Sy5KLQdRLCKYtm3Cu1IvdjfqxzmIZEVrhEQD+7Hus1Ww2JajAk4DP0oQJoSMS2/adUqHkHFjIHKN8w2bRtCxrOTVGjIcBZzCv7f8/3syMSvwWAzxgOYnHsx0b9xaJUrLMU57SCgKssxTgvXSf4S6JR57OtVqngAopgIsuBB9Tf1eCwrStVT2QYjBWRwKlZidOiYn5Y/JPCqtgvg20Cnn39n2iSd1H+cu8D0gbAU9P/1VS/Yt7rBup0awqHqzPstWHDBkX3OtAG1SFyzhkzv5KSGcelaOI+g9W7yqESBmIrt2Z32f/bSRDxqHxgUL4vk3RmzJihiCO/6+QPIE58j5LAVOJEm6ZMVm1isjVEBAP+Cz2UydX9dMVhkrW2jQAAIABJREFUad15+53CvNlzSM5Z/cVdcl/DAjpd0p/30/WGn66geE2HTpeU3VB1ujDoUrt37ZavF31vAv6G1AzBkM9cobaH4tEo0rj4BSaa9Ycrl4uTwb3uNmgTilsbOvBaSWnA33uUV1vOVbl0oS3NLqMhwQx/1sZzYp33xPVMcSSnNQF/g61bgZyINOjUZSuUQ8vQJtpVkc7hHu27oNcZnMNYLFMbD8QHs1adwyi6XRiIk0RHDN2TTz7pMQ7n4vps+gyJDUoQOb0VPsloM19XIDxjAeeggDfKXbS6W1au3SyPP/5YPkbkNt/UqVM1KZuboyCn27oZea+ANrmAv2m9CWgTA/4sFUa4TikE/M/Gn7su8UpOWBUdZZjhHw9u+eu0O2RkPTiH8+l0JuB/y3W4TBiR+Pl4nNxKnQ7c0c2Gp9OF3IAhGrGnuDbi3VxtNuUwpq6alwBD+JFKJgN70lAPuY3WVWOzNFNvRcUFCZKFmqnvcSE0fxX6n62Np0TlJ2o+h49y9d0smNSAAQzyxd/WUr+nz7bQKQtt4j0zkITDJigsHE5rlhXUeRANraE91f8MlyXnIhD1ajodIxDfffedvPDCCx540yFJ3vtgkjSrFC5nd68AgqUE2kMVNxvXcxWYDcyeZGfjAVmD7lep/UD5/Osf5LVXX/kDApm6InU66nb+CgB/AHEiR8WDNvkrcfLB1OlWoina7yevnoJI1qoRiR695NJh5Mmit9jSb++XuPADAfGKn1JywuRSVpjEFUvR2OrVjjy4AwgQiCsOrqsVks3BCEG5Fk9L5Vr9IGKY+WWsThILqyVx05A9sS9EFjB2PE13RgTGl4SJU8KyEPR0VEQKhcikbhSM3cHfdZrxHaJXcmA1cx4YLmMjXzZScewgCimCKcAdamYaPiyGFEy2WucDQxWWzxZINinSsj4SVUCnc2xP11XzI1iV/VM0JdmBMv9tm7SSWzt0lfdmTpbE1CR0/xkgjarWDQT8cdn16HSMtX722Wfy5ptv5iMSEsVzL7woAzvVAdGtlEtII2ClqJKo8E7nLwk8B5shBZZ1EtaThFo+prQUbdRH/v3WRPni8xl/IDparQ888ID+9Vuwfut1FKBNxSNYtYkgTuV0SEHUvFdm+MOfVa2srECOBMNgV4M2kehovd52ay9JgfWaeClNls8cLF0q7MqHMjmTHimnUotK8xhYZFchOpIjdbpNF2KkVez5AhEJwKhunCrhZW7itwwNWOiR6lwgAvrpvv35B/kVSjh1lQowcOpAKf9FE3OCpAxySJuhxfqiX5eqVU7ncDuEmH5G6IyTHRFeFPDyDoAMLVGKYJHvru1uUlg4USkk2l5oy/7zisXaD4LW830DhkuTOsjAhx+N7qZAjb4ApJ6MSq1Xbbzn55aG+4YhovLeJxO1/RT9dP1vvVOee+slhMEuajtORlE0EYjWOPYhw2Z0r1wNxEmie+eddzSPwZ8bQaIYO+5+efwuhNYu/CbnoYcnAf3CQ1HXlCDM1qPfE7/HImejBP2Uce1lwj/elGXLliio1n+QkPv06aOVAwrjdEzMIeCXEkjh6gbEierqMGW1ahPg6lM+mSp79+65Zi2TaDhSH53wiGTHp8MvBJ1uZj+5t8FezwnsYq8HL0VJ97jTCsAo7CDR0U+38EQl4OmMTqfEhb/BYPHpHX6W5MzqiHfS5WEqInkKk3KpIvL1wu+0QmUoTPwKSMypU7U2rLwVJiIBJboFHK0L2LGG2WBwTbRD47ifV5PokA0GmD3LOjDxhnoWiY5JNQtR4sH5+3p17CYLgdil4UGL8oGhYxR6RCL0u0OYixsKxd9UhzduFRf510qcWNAAiFMAJ/pdEuE0LQedji2m9h3Yr8+oguoJirjF9VovGE7qEIAmNtJ6vQqIk+KVRDBnzpx8RJeOKFPfnp3l9ft7wLnOlptEfaSjPSckhBbANqmWkTDUoksUU+7Hd08LKSUDnv5QjgHhXBD2TvHasmVLmThxoolPWzEd4HQI+APapIk5AHGqIUHr1bVTp74RXTVGtu3eiaKIbF5i9JsrHQriRNqegjiRDcZmiasAbepTch62jbnCEF2kHE6Gc7gikMPXIjooyYt/ryQ9Kv3uGRJsWBJS7SbJaPk5choIZrQwdC+UQ3IFqBCikegM6jrkBnFodcQ2muRcmg0G66o1qiD9uHieWrxR4NKd0DXxx1/maTZYZEQkOE1n+RHpgJoNBlfMrUgp/GnJAtzdoGZv795bowVML6SP8C8jH4Ti31hRvt5B+mLAn6AEO0ZDeGYLORCnVvC0/sEDhw/IRbQQrRhXSSpXjJNtO7YpHL9WzdqIkKDoIXRXcnQmqWslTuh0i2G9Fuano65NI2LJEnAmW7NEkcF4h3f+epd0BdKEqBMejrvxd+q8LEjELDSdVd0rRiV45sO58u3ybQr49B90xVSuXFljsMwOdDFYf8B/3ODRAFzAeoUXwJT0R+w1HdEEtmnSqk2IvR44fkgSMAnXygYLBxtv1ripxB88g3EFyfkzB6Vs6kyJDkUHHVpqEB/Hzqej7lq6dGtcWtm201f1hS0ncy/P3bZw+0W5tWlpC5vGRJVqIDm170e1yqKQrNDn3EVcMBt75Q4iYW1DJtiBI4fV2R4NE70i2hftQt4ndb/i0O8ql6+s+Qc0DrhhquH33Yf2GscwFqp2tVrq/+MRDP2yLtow7cF5bUiC79yAd925B4aSdvvOlfYADFQCcXNBNXKhIE5XL8/oneRwhCWZ2KvPAiYPxAJH4Lp3kNy+jsnWbW9CsjXE6wf/hmF2UcajK2OLek1NC09eivsZECcK6FwjDMZIAd0mtGSz6WrBHPx9ZHcZ3KOVgTYVYADOteRcjH7C4jqmgMs+8e63snTTQUWZOEe8U7OI22NNO69zki9HYgyaQ5tKnC4xh5U4LcqEIykNlAnblZ9FzO5aKBOWlegM7pB0DAV0mGjNrs60wMJdlUt4wjMuSWbqJYmKqWwsQ0y81/nYzSS5IuvAQUwlnP5NSpWtpvfSibnM6AEC8AAUaFJN/tkw4EkuttV3THVx3tCANfPYrkgP43vjO2n/MkwkG674k4+IhiU6mMRB6BGJiamNdiBavIdDNlXfqXSb73BQGqMlXMlFK+yiqj+PcVPGWjUV070BE4RQtQnolJnffCk79sOQuKG1dGt/s0wCcjgRroVBt98tDaqZ3FKFyuMdWKqCpcIIbboSp9MwICxlOob37oWqg+FVKFMCBNdDerZriMiBMYL+7KGwdbhsXv98iXy5eItqC8yXcOKUpSuaNEHmmnWb5EeZjNROjnwD006dBXS0apONvaJU2GtvvQZIzNWdw64L4kv//BecwxmabM0COt4L6fyyrwHq5sIS1FCVn2Jo1bkSWr6KSBTpl6Exa6tvV0DHMAzjcsDCmx6j0G80qQTLb43CIkARc3E8rJ1VpTjBhBARPaLVBtQ/ZkaqaGElmPzV1XWoyqVskR+mE/poRi1nNt+1rec9nc6OkXqnJpmbafDUTwfi9Drm4BQNEbpMIkuV0L5klDrMh2DDOqPigPixGZiiqYk5e7Zo1OJKfjqCFNKwQQcPG45ssN+lV9sGMuGem1FGtvR/hS4pyPH43gvX7ZF3Z6+Qw3CV0Ugjs2DNu549e3rGREGUiSugEwBxsuawJboyQJn8fF0piHnIBCou/e7oDxAn8lyhpOay6pE3Ssq/QKkwLzzkzpPouGhXKMOlRaq1F6nLgjerpn4zEB1BiQegbLPCeMA5jK+4LCcfEbvHuXLz6tC0H+rGQcLIoLsHapV0k1frto1J+CZhmdp4hlt6w7eVpbyqU36CpHOYG8Nl8TtDguNXlAkIjSUzyC/xy+I1SzXDv0yp0trTdj7mnypCgxr1taOiNubTqk34F5xf4errTFFEf6kwzQUGoV44c0qev28IGg+3kZ63tFZ/IV0h/1sHDYx4QOwnTZoj87Ydld+xTo888oiMGXWf5zbJB+JEl+1ScL2QGXiJOewNpng6HGXQvOQs6tPpSU/Q/3G4alHBSquGBhsJR9gF0dbqYOVyvLzr16DLZLmU6RUKk9y1TvLdliKIYksbrnnKniFcf8M1XkIlfys6TJswWOHGzh9HHRBtPEcxVBGulWfGPaZWmZcjQRFqe4gxGcZxMVZYUqe0qyylp0g4JrVQS9lacavP5ssTHqUIY4OnMxzUKOk0NkiE3879XprUbYRQ0wG0yWwja7et1yYmvJwYQNUh+RtFGgCqJDq6TAzRlVaTMwhiNyspXs7Bqj259HtJht+vWvNG0rT/bbZDzv8WyWEYhEohx3nNRygfi6DC1oQMKdepl9z/3EvQLqCasDIWNuXqVSx0jbxX5EgQ6En5Ytupo6Q/ssFSWZUS78WS/qxUdOoazmEuUFFYK7f17A3n8DlDdNzJEItkwdzldKwePvqbHDp2RM4mnIOHDX1ckeAcWyJGagL7X71KNS15ysO1QNJesB6lmgVi1SaKKuVEOvEhagB8+v3M/EQXYFJX2CWW+H1nNBURrcofGjROjQv6wVybJq9FuCeiTXtQxlo9BIrveabxHgP+hGRZqqIYJ0dnppW2tXQEbC502WBbtmyCDpekUPmacdXVUCDKpB4MmZgStmS/5aQEcbLzNosiDr8PqX2IKiQe3K3Edn7zSlTQOqKWdpBuIpG2w/tJ+bo1C/TY/e8JUAMxEPmbvp4rJ7buVme1dujAZyVRYSq2dWeJadZOSlSoIqtWLNOS/mPgMimuiTnw02nVpvOXLmcmgtOxKCIGykqcb7z7huywMOfChmd0OtSiff4FdEFET1XsZGNMBMn+QwfkqwWzZcm+ZXI854RElouUzBB0v6ZjFwsbkYMFupgjcaGVpFu9Luio0l/q1q6jj6KyT+etFpHWErImuK7LxHMYI8UvK4cm0dFomRf/0fwDcjBbRNo/di2CjevJZQOWmqkNQn2DaGDTwsneULOjTO8rbStKsWxpScW8ijKoADYPwmSGcV5NPy0aTa4XhTln9F0ic1S8WqAAn5eAfIiU9FRUNoqWkpEl5NQZ+jRRtgOVONXlgQuVy2qha8ReyenWrZDeLRpJ0sp5Eo8qnjlZgDBxbnxBfIbeotBw+cbRAxCvLnrFmPSfJT/W/Du2bZdsnoX6K9Q3PeFBDmdK9EaULidxN/eSE1EVZe9vJ2RMf+Dp2O8Cup+6TLxsMKBMtE0TQJw/2S6IV6t/oaYyvMyD+g8SulyyET88e/qcvPn5u/LD4bmSXgWVJcuXlLiYOIkKj5K46DhNFD528ZjULldbdp/eLQdOHZDE04kSdixM7qpzpzw69GEpiwx3dqJhlU7CgTwfl5W51Om0DTj0CC2m4w4sNpsKawtxVs7k7qN/S61glvSHQcBeDhapbdLuTK0ScjdyNhKCH0OYi+uLlow0XApESCvSdKcx6Y8GxGlCcKZcholEBKOJsQb8UUfFmCxGV+T6UFXQgL/qexSxQA7P+RQYOZR/7dRF7uzSR154Fy6TSwkyFuDHFg2bq8tEG96BwEMY8Ec370WrF0mdPb9IWGoCCByEWYgqRMkR17SBtOzf24j1K+i710t43PCJp8/Kmk+/BhAULjYPbJH/DjSCghBePFu9uaTUaiEjbxug2WB8Z5Phj7xXB23ioEqj9ebbE9/WoojXIjo2uXjhH/+ULLhcVq5ZJY9OflKOVzgh9RrXQ7Z4snSv210yczJl4/GNUjychY4vQ2HOkFqxtSS6aLRER0bLycSTsvq31RJ/HM7RkxXkzTGvSrvW7axeZ8UQOJgJMZG1W+nrVT0CRyEHAHFthdg5cPSQyf6CJ79cLEo0gOuSsEpAp4iDh3/PwX06WbQMq0Mfpd+OBET/V+2qNWX3QfrtQIj4Tj3Ut+P1JF4u1k3tOyqal9U2Vd9VzmfGSGtVW29yUT1ggKvMZNqDOlQGX85VgiIHmzLjIzh8N8vN7TtL3+595F8fvCLx4H5jh46WZmgbT6IzbJaqBRNztsr8JXOl7oEVEpGBhKqr6N7K+cFhandoI4163WSiBv8F4fH9UgA2XTf9W0lmNyUQ4NWOYMDRTldsKCm1W8rou4cCfl9C11/bf+VrvakgzkqyFw7Si9dVFDFCWjZvKV9Mni6PzHpC8ppdlj4t+0ip8FKyeP9iuZB8ASUnUiXvIqiFUStVrPGXZXdjg6RsZRSMKVVBbqx+o+w+s1vW7l8rodtC5I3+r0jPzt11oqmka+tNy210ia3vQnNP4VwlvIgK9lcLUJ8Oug65XWU0ymtQpwGg3wv1d03MaXCDzEeOqUvM6QClfR6KZZMotShiG1ufDtQUhkm+pX03Pa+iEQv12P0TpE6lGpKhzXfNOJyxpa0rqXe6WJ+1GjS+qiBOf9UmQ7A0JMgtE8+hoR+4aDgIPxwxYAbFye1LAJkR5NxQ9p1Vp9sPTocEozr7SXQp1yQ6JTzcv3qb5tL41ps0J9fLaLsWm8MaUG9LQPLQplk/guAuXpPglIOD2ynRgdON6HWPzQbzqjYx4M+8V8RemcCCqk3HkA7HAjqFcE8dJueA0JvTp07L3c/dLWFtw6RF9RZSvUx1WbxvsRzdeVQiL0RK93rdUVzwFqmP0qslMYlsOLIP3GbhuoWyeO9iSYtJk3L1y0mtMrWkdLHSsmLfCsnblCufPvCxtGfpVBxea0k6dwnxIUyJuhmhS4QUwZrkYsyaB6JDgJ+7kIhmKuIsj08Hr6nE2RxFEX9WImQN3BtbttNKm3xvGjSsxDnXq8RZRHog1srz6iwG4U24bzxq2qHMA+KNDvnreqf6x8gxmYZ0/raWtmqTrQpl2qLDcYyxsgjl8d9PSB3U+muGnAiG2tJhhN2IqpxVyrF5iakmpfXpELJjjsSCX+b/KaLjjqeoja1dXRr36iKlEOcltzXQrD8eiswh3B/nj2/bLbt/XgGRCl/uNYCf7k4e0ZHT9RuMhtSANkFnNm2a0HqT2VxqSGiGf3nJRL0Q1X+uwbbPnTsvtz3QW07WOil3t74bAflkmb99vuTuypVBjQfJPx75h9RtUFfHQaw+8y6qVaumnft47N+zX154+wX5cseXEtE0Qm6uf7Nk5WbJ6v2rpfyecjL7b5+jI09sPqcsx0iDQQP+1rVivONh8sPyebJyM2oKY2HKlYnVmm8rt7CmMJLIoQrc0KAputH8oqKzOMRta1TmZDiJCnFRKOxMSVyyZrmxkMF1bgIAgE5YzQ7D31GwwnhP+s2Uy8Iq1dp4ugu5O4zexvGpkUHu5hujaSVl2qm7unmME3/w1VStOdzz5u5y9y195VkW0EEY7MGBo6UV2jTlwHFMbk9jjeG5zahPtwgc+89wOkcMJDwaFVVbNpEqLRpLidhovL+LugSILxvPunD0uBxes0XOHzxiNvjVuFABuiXRnQGnSyan632PlLEBf6PTxQOufgmtN5nhz4B/lVj58KMPFWN/Nbg6F2Ld9g2ytdxWiMKeUr54eZm1cZZkbc6Sd0a+I+MfHO8NY+vWreo0PPv7HikNfS4SC05kgjsmTpoof/3kr5LbNFeGth0qm05skj0798iwkoPllcf/RTmkIk7FGS1bUJlrMkwlTxVX/MkE1o5OVm1RaQvSODwc9VMSkraf4uThnuH4Sx2TFl8w/Y4Q0Rkgeo0g4C8tx0xrkfHZDOVoWEz1NoOHM5yOupsdI3VNx41dUJ3PUz3KNAHmT8YfSU6HDDi0Zdp/5BCqdjaWNqjuOfunOYpP7N65q9SIq6bFarRtvOV0hDbNXzJP6u1fDvGarHX//syhnJto5KIREh1XXkpVKi+R0SWVixF9kgxxn3D8tIpS1T1ZaepPHsrpKjWSZHC6MdDptPUmOZ0L+DMxxwX8YwBteun1l2TLpo1XbaeemHhJ1qVvkNgusTK4xWD5fOPncnbVWXl/2PuKzeeRgRfIwcttRt3Zzp07yaaVn0nLjvfKihW/SvPmzRU+xMA7D0Jjxs8YLyVbl5RG5RvJ+mPrpciOIvLdw7OkaTMEvb2kF8NUGISmc1pbfWslTqNfOe5sKnG6UJrlRFYvYiiKDowMODb9oAYtOohYqMaH2drdWpzOMmTStLZ811Aa1GJVzQwrc433THEd4z5RWwPrpYnYgK47l4oyRRVf1OmKAMyAPhwQY9wodHwn68YQiSqFhWLkQq1jw9jpo9x0ADoddM0aRzZKWCZCZteQSIXRixKfLUvL71imrF/XRHDlbM4n8ueojkR3vlxNSavWVDmda9PkZfgzIuFVbUJEgnBoNtDIF2Iq8MzPZk2TeTJf2rVoh4YbxWTJ0iUyuOJgmTl1pn4zFUX+ti//Xhp36S/7UeSPnG35/Nfkpl6Py5YtW7Wu2Z5fv5WWPQYj0cYE2YeNHSYzT8+UO269Q/ae2SsH9h2QMaXvk38++rypqEluQe4ArnIStdzWbgZhsqwEg9jWitQJUwcmHaSBFETfaVRyv6w1QqojGZsQpXzV29nRhu4U24rJRUeU0F17UFqpfIZaocZ/p5WZOEat2mSIX4Gm1NtwT63oZC1ujtGkJyJhG+P/5ItpsnX3dq2sTgNq3vKF2IzhUqNyVWmsIFFjLWsUCNyYtUx+QsHuMAth9ww056y2a6XkQn90YXTjKLkgPbn7XOE6t8kKPMrcocD9uP0igS4Zg7ISUXCvca40IqF+Ok3MgXhlhj/q052AIaFJsYXsIK3Y8/RgSWySKP2a9ZO5O+dKytoU2TRlkzRo0kCyEDyf8eYTkOMVpcfgRzRBt3nzZrL9l4elaZd3ASbYKXXq1pdvJz8Hy6iYDHjgOdWR9uzYIy3HtpTi7YqrW2XtkbVS42A1mf/i92pd8qCfjrkEGzZvlEmzPlbfX6GbsZBJZV+G4bcPko7o+5BNfcm23tTwlneNsTBNYg5RLFbm2odxvOSK1C0NQQeWQVtvsmPOHzr+mNabqtOlGgAEN9BktGlaD5cJC+j0uelWWQK9s3SpaDVu2E6dLhPXepNEfT7hvByD4aGlavFYU4rMhsp8vIkapqJ3XI1nO0T1vtA/CRSO6ZVr3XwkUKoN9G2qsRaAQDlSCKIDXg0QXw4L357WOB3wzm1kp4TYvPo16kmx6BLaQj6JGf6MSGQhUdpVbSoNTvevV/4tW7cUXuiaWePLUpdL89ubS93YuvLF4i/kjqJ3yPfTvpd9yFKa8e542Y/QzIPPzJD2PfuD6HZh1xaXX2b3ky79v5Zjp7KkHvIlF3z5gXwx5TFp2rit3PfUp6hVUlv6jewn36d9L93adJMdp3dI/NqLMu+vP0hDVBlXnQgTxUYjm7dulkkzpxodS/1iV9h7/o98u5ZN6Ub0GwLOcqOiO1x7UC+LTFfFphmy/p3GVB01mptqvWD2dmBZMm/VlIXZqk22D4bHAgwz4MLw9oZIDLc8feEMoispQDeXljIly8hvCB2y+Qkt8OJFwSEo9lk9yrYHpQRSJ7Ydkon72lZSPq71h8pSbg6okkJMKygBBoMXajGvrT5HXqtFhHzX6KYnt2dkhxEVF72xBEbHt/pTvSbSpGLmFcPpzhJpyElRomOGf8b5ZIhXOBnxh10QWabe1cDwvYP342pUGXpjBzridWwGFh8m6xevl4kDJ8mowQPlxXEogxCcLRUbDJLRExgAzpMDh45JdNByObPpISTYvCtJQd2AioVog1tg6ltPy4VDc9DhpqE8+s5qmTh5koyf/aA06thIjsUfk5RDKTLxlvekDxqHOB8YrVGGwE5AxIYxrkl4kV9+cnEVqWJaXgb4kJkETnbluDgpHgakK68zSpbGDrQLIjaxq9pkdDMz84r0oAilo9fOhlsTbb3JkmKEfXszZZEqvE5LUwTq4vFpHCOfx015HtZqhTLlkPRdVXYeYjXTPM3FjY4saTB7vjEGYyPw+kDLd8OqOBYtKYZF1j5t+uKBigNstExiL+ijIxyKDZNzCcXyjVE1VnJ0Im04jzpVhtL5rCAwAAPhMm2y/BtfOyfhD6uTWr+2ehGsTkeiYyVOtqEEiBNEd/zs73IpMbFQEOcXs7+Qtw+9La1atZITiSfkzNozsuyllRJ0fofMnzNe7n9hHoCbsVKveSttYrtrx1qJkCPy7eePSd8hr4Ioa0sDcLdSsGgOEJqds1E+/df9MuZvy+VsWojc9GxHJFfHSo2YGop+fa7Bs4jfjfCITl+Yuh3imNqW06FydTrs+nhE5xrjBshEE5fxxSxUJXA6ipsy3ZH4asG2A7xa24OS21iUDK8xRGd70rKwog34u+AXuYGrLGXlsLc8tAojsNhvTXlP1qOfRde2iEh06wO3z2qNptCf2LI+UCa0oH1qPlsScDx54LKqW1qOp2P04QYLqh1hWs6M3R5NV2/3zoqcZkdKH8zMzZYaOzTISJCkbd91TDbXbo9UI+zEGxcRS7jhHH42fX/NmpC4U5Dfi9abiXAOw5CAJUd9ifXp1mxYd1VO9+0P38qmEpukKypFJmQkyLdffCvr39gkJ7cvlfmzHpf/mbxJ4qq10L6iy5f/Isf3zECd2yw5daGEVCidBH0lTKo2GC6dOt+sVbp3bpwjb6B22oR/L5G8omWkzaMtpe/gvhITGSPLgJC9PbS3TBjxoL4uuRQXixNkpaCZCIoFBXGCS2m1JDs7lijCuFuhh7j2SAaxZJZS24NqmynPXjWXO4KxHMBZscZ1A1wfnkc8neGygeVwi8GFCgzDkCG5r7be1CI/xoL9esF3suvAHtSjayNdQHjz0EqK71inai1pULOeiieCSVUkQ6cz7ZEsEBWToERNLmsxc2YjUQVgcjcLANmW9a5qgnJ7EJPVO431i6sspZEOaL0ql1L+b+LNPELYst5JAiuO3UxzU3JDKnTNvrhDhqHKpY5fqzYFWm+a8q9lalaUL2d/iX6qhzRB40rHuk3rZFHYImndurXGTk+tPiXL//WrVCpTTB4a0EJr4G4RAAAYoklEQVQGjh0jIyZ8CGh0nhoNe/YisI8GaxfOn0FjYnSygWirVau6NGncEGPLkDf/fqdsWLlBpi04Jpu2bpOb/wfE2L68VCtdTdZvWC/P1npKxg0cpS+vjlcLkHQsXSdEiQ6LgR/Z4NjsPOPW4BGqHIBcyrRY8iYS511PWpdg7SaYREaRpPmstDytiDOzbyzPbHBLQ/N+scNCPA7E6YjbER0SW/BM1aV03Ix2MB6KqAqgU3wGETSMgDDdz9VR5jhY4vR3oIHXbt2QTwppDwsf9/WvmaZGXqEendZzoZ/RFQryX8TCPlpgKEA87rQzXgoWEOfb0zDRvF+tsGAmnvpoFHphdO3STUN6SZrhz4D/RVRtAnJYxSvKv8754Rs5dOhQoc7hnbt2yuyE2VKjZQ2JLR4r65esl/f7wz+HLteT/zlIDm//Shrf2FqatB8l5SrWx8IXkYTEbGDGcjAAQWY5gZ4ICB/fJltXTJG9m/ZLx9v/IXeOel4++HCiPPT1eGnTrY1GOPau3yuTer4vfbr1shnzloqsy0EtN+5yTc4OcBtyEC3BamuxKYHa/5FwqasYq84JSEMc2gQY33NAU17m7kolmhauFzryhRvU90esnT+YrmM0ZWIVFEri8hbX5GuEwjXyzdxvAUTYKy0aN5ebW3eSj+dM14Z0/XrermmU5HQ8GOrbvmcnysVO1oy3wNjcJvJsC7sRnPblf64Jf/OM0z79ItMjLp8498+BX8z7hUn+2Tdzxr+sDM/kpacfeBTx7HATBtOA/xkaEggcY1JYy+TQqSMSD2So30/n9HSu0cGDB2XslLHSuHdjKV8M8PaVP0vfqL7y3WffoYJnhiye+aJsXgaDAfFclDsRxLDh8Y6CM7ckwkYoiwUCh/8TNfGAakE/0xtBcJ3ueBDrf9mzXkf0HCEbT2yU/Qv3yc9PzpU6lWuZHeRbaNVFGPBnSMwZBHaG1JAAJzKFqHXLmWkgEpm9WcHFec6l2JH4jE5kqkwS6uQ/p4tOEacgThNT9TzAuNJzDuer2mQMCXIwckSFvHsTaYyd8OLF5G223tyxUXW6/j36yT+QDcaaw5psXZedrZlXa8r574BXYOqcaUp0HCcTnKn7kYCZFEPRqwnTWGzNBMNnfA/+zIPnmKvKCI1DEdEPyL/8jkvG4nd4f35Hax5bZLUW3cYztKgPLXgCdlk/jygbbDi6Uvgzz+u4sPkrxJSXR4Y/YIiOGEjXetOAOKHYosGFiqXAltTBUlzwM4ooxlFveqCrXGh4QdrXaK+IkrBtqBQ0eYP66XhcBE7/6L5Ncu7oTgT5T8rOzZ/AuIDugbBT2y5jpExsTSlXrYlUq9dcohCM5+H8dFHto6Rv074ya/MsKb0jWha9Pg8hKYgeBvxt3qtpCucqIlFBo+i1jUFstSROtpeH6UCcNtCuNEPnLd/Noi44YV580Vp9Cia1teUMmJSTYCFLtu6cU5JVt+M5zXuFy4RuDFxDBdp1xjZjxLh4T3zORdu+e4ecgf5brXo1hVetWr9GiemGho0VX6i4P7hnWIybnO7DLz9RscvQUu/evbVz9fHjx1F4uq1s3LhJYgHcZDogi1y3aYPWqNj8CxeyZWi21KxZE9GhzrILFvPGjRt13tu3b6/tNFl0h3XtGP5jbRIS186dO6Vt27ayf/9+JSJev3btWo0o0XXGbtlUszZt2iQVK1bUMW2Bu43XcEzLli2TOCB+ngKnIwBVY6/aehPV0cl9tEokFUh/W0vVjYy7gP9qBUl89uLk/8jHSZ9Jvy795GLqRVmxfEW+iIRhL+bIRHzw7Wfb4EXPIU0tWh56YQOg7qZikDu8iMSpmVKtSTWJioiSnUj6HlXiXvn7uGd8Is5YTHTYeia6GyO5FH7WTCt7OH1Py/ZTp1Nx61fvCZU3UPM/dNy2sKQcOoDVa2F3oiUkAkNNCI4PCxgTtI5pMGSxahOvotXndEst6e9vvSlyPh45KYBxlykbg8z6ksikP6p+uvJwoRDmTf2O0CnqdNvRi/ejOZ/pPatUqSJvvPGGSp5169ZpzsTs2bOlXr26mOemWvmcxa7PnTsnTz/9lDKLrl27Ikz5kHbTYW8vjotJNR06dNR7kVCZcPXaa68heboY7jdL7gMsfvny5coJSaCTJ0/W0rKnT59SYrvnngHyzTdztF9YJXSenDFjOlIgxyjxvfjSS1IFCeRPPvgodDo0S/G33mR9Ouo5KuttNrjChrQZGz6m4mkYioqMPYf2y23/ukPK3lRW4krFybqj6yR3e668PzQQe3ULnwQf4LT3x8uKBdPkln6jZeDod1CZsWi+iIeLvUa1ipL+zfrLkgNL5NyyczL36e+kQf2GGtQ3IScTYtIKTNZ77rzjCidSTkTYOeFFHH8gk11pQ0NTBh6l0CNKXBus5/01b5akQq7HFeH3bP4Hw2rKsTT5huMg2MD4wwz0CD/zV/oKyEltVU4q7DoOnTtqVEbZNiGyMJn06YeISGySbv9fc2cf22V1xfHj2KjxhagMHEhpyyQotVIgKKFAilo0SBRlQifbQIkbmhQrgntxoi5qfEGnUcOybIIbCoWA8rayVRTU4Vyim8iriyhC0eoEHS9CQd35fO+9z+9po8ZE//Axhqe/53nuPfecc8+997xWjbCLR45WvpWTPFi8kzPgwAoCc1jKnJG9nVc2r7fZ8/4oQvTsWexJcn7rkXGvOdO94Iww0RoaFjjTnWb9+lUqnwmJbVpa3lGhkcB053jK1qku+VZlTFdff50NH+7pJmbd40y3Tkw3a9a9CqaZP/8xZ6CfSmIh+YYOHerfzbZJk66w5uZml5b/tNraH9qiRQtd+g1UtP/cuXM8JezPxJC33e5M52Xifz7lOrnqZ9FgB9xlHOVwwHYUBM5wHdkvKSNS+D09whUb9cQNd/zC5u1bIIN8zxN6WtNGTy7z8hG7/4r723iZ/G3pAnv0vjpXr3xgJaf0sQtrZ9jocRMzaSQvkzn1drj8sI2qHOUVdvbb2nVrbcIx4+2Oqbd6lktcxsmIVFB4aoo6AeUg6VsD5ZUrCCLFKCSXdw0r8InGAOxsJSTR2wqpUPJdezrUBbltm98rnwh6rlhVO0kwpKtcj1CfZDUaIrZwTMDBE4mI4jVtLeFNh6HIv/v9vD/Yy56dYPiAKrtgaI01/r1JaS5KnIBnehgi0WB8hzPA+tc3+Z7uT9pvkxyHTJiUb//A9apIvp07dyiFbKdOnWzbtm1WWlqqpXqr16FNpbVYImHE7dvf0vDLysq0JMO8tMMySrv8izQrKSlVDmMmIYkV3/ScJj16FMuhgyWWMggss/SJzZj70tIytUWb3b0OW/2Pr1FWrL0pa1NrdOKUSw77FmyQyUEyhQvyTMRDOoR8Ii3uFDBm5jjb2afZKssqrVfnXvbES0/YkQ1H2vjT7XVt+z9WL7FP3M7qii07u9q9i33p2LrR/ekecH+6V+dbh/IONqT3EOt8XGdb/tJyK36thz3xmwbr6kpSufUowQuSCCkSYYTvUllLZydlBUCKIGGQNkjqBL/slDwj5IsMRTh/RknH2GAI7ceipItG9iTtZaDnWWxDUtBhUXs8k7t6vKdvSdLA6exDg13XpZvwGL5LTqj7fc9FImpcvkjdRWTYJx6Yg6oBp02Nm4ORm/z+rT2d25zjQSIdFNgbsslPaVhZrdj8J2eB5KbG72mTnz9IpPfzqV2ht2JOHBfp9/ReSh+R75dtALM6/w1j7Na1m90wpd7z03w7BuZ41qaP3OCvCH8kgHdCuoWC5jWc0ji5KThFOrDCyQ2d3eS519jh/oft0oGXulvOXvnDtWxusWN3H2vn9TnPLqi6wM7w6jRkDMfLYOOW9V6aqNFWb11t+07cZyf0PsEGlw7W6WzVq6us6JWONtc9hwe5e7mO6FGkkGtFUtY399ovRVGUPDC07/SLwJw2Ysq/Q2oTDB5UKHETyBLpPUhKeQYgQhyTOS3FQLCX4pSbDgJhPQ7a9eBWFUu+52GMe7pD7TJLQRGZhzhpxtKbFLN7cf2L9oGrEr53Sner6NXXk/Z4dSA/2g8bMMRKuntdC483AMajHP5/+aHjdwvnZCqTbLn4ht6k2OJf1U23o7w8a1Z6s/V/B6Wn6xAzWeIDp90dEoWZDcdHj4aPo/MhfKd9lT/769qnrO7Rejt4xkGrrqj2gnKe7urdLbZhl+eq+6+f0nb7S8kaxQfoRzs70Tp/x053PV6njp08ceKHtmn7Jiva4AllfnSfjfZki4qB5YI5HA75TnIyZFYrzJB9FTwZ1tXkbKhQSPGG7/3iMyXEpo1oAtK+EAnF2GJQTYr0CloZNmCMOxQxlrTR6TX0x32+9GaaiNr+okpwiUYAj6rMRhhpkmWdvwOMQQ29rGmFvJo3b9uqnMO/vudWz+L0vtVNutoG9R+kVGSC0RGAnmvXu28HaR/hz9MpqXmEkYiDtu9pLRBuEu604kdBku6BK+Ej9BX3rrwXcSDo49gyfsn2YfE9l6xFLr3LSsoUV5w5cX7UEgz+WQMgA08Gl25HdAIrEFaN+35J9rjkqu2/vfDyizZ9zi9tR/ed1qVXFzur5CzpbPjvkGdEb9nbYns8XK6ju5WfdMxJVtGtQu3yDIn3/pvvW/E7xTbrJ3fIHFQ48oVCv8oLEoNesqgqTpeSNph50oYu8qn0dBSFiwZ/ljaR2JlCejqkTdDTZadLv6GCjcw80aohAgnRwb6KA2covcmTwrNUejOrmBPA0BKKNUH7x9wJWAyHVcPbfGbtGjkwdPG0Ev1OO9OWrl6prKI1w0Z4CCcxEiE7qJZqh6MI64Tfa9Vpd9EXVoZQ8j08TKrNdEpPsRtplx4Cwp3Wjqs0SVOzbGdwBsjTOj07ioymbt4KoZahtXSRFkSndGKX/T8EGavDfpVTJ2sTMRKcXjMuxvXFB4j+KhZji/QK+xefrRAtJarRTPDe0Bfd9+cHbOHmxdZa3GpFXbwUumdr6tst6O6If2Xdf2//e7bnwB7FvX7oBW+LthfZuPIf2LSJ1wrxIcFNbgB4Tjgc0rllmAxOkAwuFIWDwkw7oTm4tfsy93EsEpK+g2HluuPPSTIYxIGmq777FrZRJGIqeZmhM2Qv0N5Se8HcjPf7UHrTf49Zm7Rwx9MLniRi4oy76SrYb9EDeoI7eZJwQiXVrSwVSDbvotWX/cyvMR7mOrjOjgsv5jAfEneFFByclIMJq/A74yRRkBiS1UozInKKv8fhCi9lrRrpIRNVLlzRJy+dJPkWUsgO3g6PUdIpM5a3o0xWAjGY1lANSU8XmG5fKPXtjQSvgUiICJiygvvHhT0dLQXephgbS2FIYe8BN6//xxY2eWTWa27sP7LTPj7efz/GXwRXCAnfBnX4sIP17Fhs5/YeYeNqxlofTxQTBhvUFrjotBLIHK9AxLin4+SJETuI5gx5ckuii8z2WkCsJID0dCzLdBP9S5RZioo5qZx6/CZgKuSWSwb/HNJhWmAMJ+Dc0d7/ypw4o8Uj0++xvGpPF/V0EY5Uhl3lNfMwBnKpfcHok0Rp1vK08XtO8MHiARyR0QgSQoJR8h16gqdsYgZFutz52+w7w1Aw26kebhZqmcMjdTbwp8ONPmPaQCTBz0qQ2XMLsg/4EWDKrn7As6vj6/WRB4IEmyQ53dp7aUTnPW9Dng4Ih8gM2qeglHVksd9LISJ0R9bwN97eoeP6215Z8ZD7zx3tNaZQevbu1dv6nH6ah8Bi6wxSJmsVHy7qpTqSA18XbIfso5hdKddIBoe/JbupX8nAnVrkX1UwZLmXwT8RMwxCyXtweU8mrASNJEChvGa+L7lW6VnwM8vjAw8O1QZzPOa/oS88O5TOzA80beQ5EhhJileu8t8VYGT0OBdk7vD5hSzCIbpkdt/ofiDbrivSMekJx1E6M7HZG+OWFFVDkZxqAjxmTpwFfgsMyaTxtrK0GOlD8AiOlQQpl7oDXDJ5eeYwyonTxfqnyZMh9312m5eo7Z/nXV4+69vELm0Xy89785v/+5cZbxhzgQm/rlF9VTp8XXB81Xbe9bTCznQkZUXl1DaMDWVgQ0OD9e3b1+bNmyf/upO9FORDDz2kE8hjj3kAzcUXS6lI6k/MI+Xl5Xq3tLTUqkdU28KGhR7PcLRd6iXXly1bZrs9pewkr1f19NNP25YtW2Tnw7ZHHCzmGrKB0zbtYFKhEgtLKiUkx48fL9MNCs8pU6Z4hNlL0pLX1dUpnraxsVHqHv5FWlx55ZVunhlnzz//vGqe4tuHhhx9Fd8DP/BQughbJKWG+I5v+HbN2rVKDHnt1Gt1zF+wIGj6GSf3ZJYfM8adHLxeA7ZNTFBNTU3yzsEKsG7dOjmgkoaVcE7GjJJ2rbfLBQy8T2lM0nPMmDHD7rrrLilUTz31VJt0xSS71ZMTYXjHflpdXW133323YKRfvnnkkUdiW1fbjh1vqYo1+0GqTa9atUo4QoF80003GZkysYV27dpVfWPmOuBeF9D3Xrc+YFt98sknbfLkyWp75cqV2qODe/AMnKVlpXoXmowePVpjw2wGXrkndgaewXWtpqZGJjlWBHCqyeiMtnnLJiSlb3ddEUmy53TNnz9fpbhhhLFjx9qwYcNkvyspKRFBYDLsdRh3Z86cKUArKirs+uuvFyOef/75Vl9fLwJho5s+fbq05XzD+yDmNrfJ8ftzzz0nRnjwwQf1/X73LMWAPHLkSL3DRUgjxGQAt9zi7k8PP2wbPZcwRTNgRBBMJkiIfPvtHifrF4meQRST584771S2cRiSi++Bg8JvwH355ZeLUFyMj99hNIiMxv2qq64S4s7xEpOMa/jw4fqG8cC0U6dOtRtvvFEE5l/qN8DkwPL4448LLtpasmSJ7JZclKxkkpGiFSLDyJdddpn6gxF4PmrUKL0LPulv4sSJGcPi/AouuGAgGJvaq1y0NXv2bDE4uF6+fLlgBB8IDkyOlEJPDA2dcAi4+eabZaiH5tBr2rRpKoACo2OXJX4ZJuTie5TMCKM0GYDvoosuEkNSVRvBAYxlZWX6hgnV7BaTwHSyMoTTBRfShGzZAElDqW4oXgQMCEIza3iGoRmPBe5BIH+DPAjH7L7wwtEKImHmMDjaYEYhzUAGkggdGhKUQWLSgemYKYmBYAiQQYr6fl7nnsEAB3Wp8LJYvHixGBfNOUZuLhCYpBJmn2effVZwJ6Zj9iPp2jMdMxYPC2YpnhcgGVyAcAi/a9cuEZN+uWBkmJDaWEuXLlW5Iv4HJio/I0WBmwnKt0hvLoiIdAVnJ3qKMPqD2DD7ZzHdhAkTRAcuJBVeJIwxMR2TkIIl7ZmOibpixQqtCNAVSQdD1tbWimnANZNk0aJFklS0+dRTq30iNwrn2FKR5gMHDtQYWKm4+BfGgw6sbMDE2JB6jAMGI7v7JWMusfG141X9cJsnIe/uxZ/FdCyvBHNwxCc9Axe/QpRDHk64Zs0zvoTs9SXleDWItwGSj2WRQsO7XZGJWQnkgTSAZ3AHXCdDUDbI5ze+YQYxWOJqWfaw7VF4pKpqiBj2oKeRhTH5BmMy1yBHzID+AzQzmVm0wezDxse7LKv8vu2Nbbbh1Q2CHYRVVlbKNERfG9zxFFsj71ZVVQk5MHjXk7va93sFdx2+69+/0pezwWLg5uadsitCOCQQcMNcSGP+pm/GxTIEcYCPvlgR6Bf4iot7CDf8zhKGLZLD55AhVbpHElNy89xzz9Nyiz3zu55K4+zBZ1vjXxrVDkRl4uB6xMVEIX0++OLCCL/HPbM3OePR18iRNc7MWyQYmNDkAma5h57HuTGf91c7YzEemBfpxNgx4DM+XJtaSfXVUqAXtGMbgbcJu9by8jPUTsBTs8YPnqA/jgVIVPCL8MEmS9FqCj0Xe1kvMV1isr1eGgiNt8VwRyWr8acwGYhCJ33IT6TysJVnBmajoF/ixZDvLSzTSE8QgEIQxIV77IOpHpcf2R0hROqjHycpDRH7goUjuX8v26D3z8BwZEQSpzakd8JnTV614V655vASQT+EY6IyfYdnql6NPdn/I+ww2SIZA2qKzA7psBILq9OpjyW0j5Xhi8YVxvhZMLWBDziw+/qbxN7SZ7AE+N8+fjla8qePH4aA+OBaTpmkgQA/aBDQw3Gijem6lLoMjxV5yPj4fO9I26Kft9/qE5k8zVLb0RdtqyQ6wsWV9/4+F/U1oFtQvrellyo2cgqNlTGBBzyCzwIdgjUGGJR53t855H2jm2Vyd3a/SSnFE9OpV7/I9M3sJTY0QhUYITIHx+Vw/P7qlwJCdIp3QByx9JF0b0GFFcxfQRX35fv8FMKmsL0IZqGvPNxQOLT7dY3pi7CSpX9gnEm9kbvPw9D+XTlt4WgBPvKdtGsrP+4w5ohb7j+nry9DyYwWtBEB+DycJVzDuBSV4TCZzw39fxmN/fsD7Ke6AAAAAElFTkSuQmCC;horizontal=1;labelPosition=center;align=center;fontFamily=Verdana;fontStyle=0;movable=1;resizable=1;rotatable=1;deletable=1;editable=1;locked=0;connectable=1;" vertex="1" parent="1">
          <mxGeometry x="720" y="340" width="91.46" height="60" as="geometry" />
        </mxCell>
        <mxCell id="H7RTySpPC0p8DqEm5PfO-11" value="Pattern 3" style="shape=image;verticalLabelPosition=top;labelBackgroundColor=default;verticalAlign=bottom;aspect=fixed;imageAspect=0;image=data:image/png,iVBORw0KGgoAAAANSUhEUgAAAJ0AAABnCAYAAAAaL0CpAAAgAElEQVR4Xuy9d3xWVdY2vFJIQoBAIKGG3rv0IkUpgiCKKNIRpKnoMHYd53F0dMaxdxCwAaKC2CnSBKT33kGqdJKQ3vmua+29z30SCeB8z+/96zmIJPe5zzn77L32qtdaK+gyDvm/4/9m4P/hDAT9H9H9P5zt/3uUzsAfiY58L++y5ObmSlBIkFzOy5PL+BOEP/g6/tqfg4LwNXxHP+On/DzY/IZzly/n6ae8xl0dbD/hHfVr9nf+HBwUjGt4F/dt8x3+n+fycI53yn/gifZZvM7c0T0VP9tz5lP7NHwtCPcz3+MY/aMw5zApkqv387+3u7t518B1OkI7DjP+/Pc0Y8zV8bsj8J583h+FjX+OzXV8d/OTO4efPCFlPuef4KAQnsCbubG7GeE98Cz7h+uW756cEzv/ZpTuLL7nm2O33mYcmCulg4LzGHjTkBCMB9/xvXx+osvNzpGM5BTJTs7CoPMkqEiw5GRkKwEFXTYLxSM4NERCcC4rM0tXOAh/zVQH4fNQEKtITnq2t/yii3xZwsJDlXiy8Ry5HHhpjik0IlRys/MkNyeXS6gToDfGydCiRSQnE9fkWKLj53weXqhIWCjOZdnNYYkO14SEBGMsIZKVgTFyzDp+M9CQMAwwGO+WmW2mXp9l3i0EYwzG71lZeB7nCuN05BIWESJ5GEMOxsjPdXw8i+cVicAYs0CqOVhuvhAJmu+IjVskvIhkcx6xme1NdX5DMI+hmK/sjBz/6ypZcOzBeIcsjlGHZ4mO48c4OO5cXmfXhMPhF4uEh8nl3DzJwVzqK+kjOUbOcRHMcQ7mmOvJzWC3OOcLc5zLMeJaHT/fOygPax2MMWL8OscBhsDxBONzjpHn/Oup84h10dvgWeHFi0pEqeJKG7puTrxmXEqR9ORUKRIcKqkJaYbT8SIzr0oU/DcnyyyUex9+GBoRhsXAhGfnGqoOkJuERoZJLiaOi6X3M9NuiIkLhRc1DzHn+L/gUExCGM6lZ+KU2SVuAoNB7EFYrBwlpsCO4qWheFEeuSQYtxj2Xz6LE5CHSTdEEVjIIkUxRrxXHs6TGHU8XGj8yHcjcZL7+985KBjjxwLnpnODmruZ3Y+/2AzBIBr/GB0/1THil1xsovw8EfMI4uTC5nIevTuaO4dwjjF2zrNyHp43TBabEmO0RO1mRM/jXBFclw0GwI3lncPPJPhgEjzG7+bXzD/OkWDwfm5TBtaGa11E5yJHN6Wf74Hg8SwyjTwQPMela8kNGQqCDr8sRaOLS4nokobosjMyJeVMglJrRnqG5KRlWZZqp4VEFxmqa8HdZcnDEBg+LFIsXHdQXpYTqXbK+NI4l4MX44J7BwdLoiuGyUrlLsGO89kzQdxdmMjs1EzzKD1npiw4DHwQk6XX2UnCm5mNURRj5IKmOaILLKsZI4gOxOUIxM22jpE7OdvuMLfkGH8YzmXxWUp0gXEEgXZCi4abMeqrBZ7F8QWHg+h0/I7czAIFY/PqgqZiHAFWpHysCDbo5VwQHbm6eTkzVvxnxgjisQRpzpt5LFIcc4U147X+tdGNgXtyHCoBPb6IcWDzhpADp2CMdsO4OSa3J4cmHeQ7p3SAjUH1Q+mgwBgjMcfcvCQ671lm/MXA6dIz0qVkpRgJws65nHo+ATfJk1SIViO/sSuw44MhhnQC+LvdXfozdwkGlZtpdqRvC+kOJzHmOW7jY296jvqG28n2WbwFJ4Cs3UhUs5Nzc3IgJiHKuct5P8ttqENQ5JNjkdsIdpennuG6PH6PBA9uyfHnQi/VZ+CddBkxdi7IZUyO/m5ZAGmbY1R91IpyQ/PUlSCOwAFUx7UbiPREzhSMe+kCKkfPkdAQw814jmMNplpBzsb7YAwhOM9Hcgx5GCc3vXJWPiMYc4SDYi0IooubIY/zQhFozwVRPeB74p5GnzKLwPcjwfD9yRX1O9zQfH9ez/GTE+F+hmDNfua/vE65F0Wok1bK7TEmzIlKD/dlpTVydNAIxuk2iV6neqGZRz7DjYPnwsLC5GJSvARlpWVcTjx+AbpcOgYbUP4pq7m7MvG5n9PwjtSJQjHILN0lnC9lzHpQRHAw2WluB3mnJAw7gc9QfS+fZLws4SWKSmZqhpw+c1oXhxNYtkysxF9KlNxQ7iyKYRASuEixomDTxUrojVPz0uXimXMBkY9rixUtJpHFi0lC2iXd5WWiy+gLn71wTgm5ZJloHXPSxUQlAnfwuWHFIiSqeJRcOHte3yw8PFzCi4TLpeQkcBSMX/U2K/4wkRHhEZKWni4hxYpIVBE8N7yonLlwFuoJiK9ImJSLLSth0GkyU9IlFMpucmqK/HbiiCSlJkvx4sWldq3aUjykKPaNIZLzF89D581WAgd1SoSESunoaOiYWTh3QYmMIo4EGJIXJKVKllIiz8I15/B+1M0ogoW6FN6Z7xKOMfL+nGPOvapCfq5HbolzWSkZhkC9AwRn6SArKd1eYzk36QA0EIqNzesMHZJKddpUDyfBZitHxwf8fmioXEg4L0FpicmXM+PTJDUpVQ0HtbTAiUiZyg04CN7Lcind5XoOmwLsXEUGiJA/85xyEXzG3/mD211k/TyngyMn4q7GPXUncEAgpvMXzsurU96SjKwMJaqnxj4qM777Qvb9dkC5A18qFFy2aHikdG7TXnrf1FN+WDpP5i5doETF+3DyO7RqL80bNpX3Z3you/62Lj2la4cu8uI7/5aLCfHSDT8npSTJxh1bJQwT4TYAOWLJElFya+dbZNbcb3BtrtStWUeqV64m835ZCOKDPuPniiDY7jd2kSVrlklGZrr07HiLtGveWv7z4RsqSlo1aS739R+ulivn9bcTR2X6t1/I2Yvn1BgJBVFFl4yWAbfdJTfUayzp2Rny6odvyvn4i7rpsnOypXHdRjJ+6Fg5deEMzr2ln+na2EWsUqGyjBw0TEXvfya9IZlZhhFwoEXwbrz/nT36SIOa9dSiJSfT+cdakEtxEynXo6eCa0YOhnUh06LKpOtEOlDRTTqgzovb0FDhWlOqOQkFlUINEervVHk4V6QLXELDCC4BuZR0SYKSzyRczriYqqI1BDuIA3H6kopZpVzqBpTluI5KqaVcw4WpU0CWk9WTC9BSsi/Nf8JKYJdBN8iDYaKizJ0juy0BfSmZooWLEiznEy/IG9PexwKC6CKLyxP3TZDPf5ol+48e1AUqEVlCUjPSsGA5Oq4nRk6QnYf2ytxlC8ABQRB4QlZ2lnRo3l5uqNtYJs36WB9YFQszbsgoeXXq23IB3KJrm85yCUS3ee82EB2I1RISiSwKxN6jfXf5evH3huhq1JbqlarK/BUL8YxwI3qsDkrHxKg7h8vcFT/L7+dOS7P6TaRlgxvk4+8+17ka2qe/tGvSRgmFm/e9LybL4d+PSURYuNSuUkOO4OdUcMmypWPkSbxLxuUseWUKCBYGFJ+Ti+dXjC0vj4/4iyRmJcmrk96SLNyLnI33SElLVSLr1bWndL6hnfwb12ZkZqpKUqxoUXBTeCLw/Uq4xyPDH1YidHoi15lckfOvS2xVKA5cjQUaa+RglnM5KzAUHF31TkoeTz6bu4ZRElCdodpiuZ5b73DSAWgnOSlZglITki5nX8qQtJQ0pU5HudSJqNeRcpXTgc0qSybF6/fwseVm/J4uBPUBx814HXckryO1k7Dws/ue6sd6zrBzug4oHl6Z+Kakk+iKFZdnHnxCps35XDkdHz3ynuGyYdsG2X1gn97vgWFjIMrOybfzv1cx2axhE+nasYuULBYlp0EEEz+fqmKIBDsWRPfFD7P1GV1v7IzvdVXO+uX3s+RCYrwSPTlOjRo15Nz58zJl5ic61lrVqsu9dw+VxJRL8tPi+XLgt0M6lu6dusgNeF7FshXlqx+/llUb10iNKtWlTrVasnj1L1Ic43/6/kelTBkozpiv+Ph4efmD1yCK06QERN4TY/8qH86cKr+fPa3W3TMPPg6CypLXP3xbF5CEw81VPLKY/O3hJ3VOXvngdRBZlsSASAf0uUumfvmpZGRkSJN6DWXAHffIy++/KmngsNw49949RD6ZPR1EnSaREUXl6Qcf07HQulS9TTkRORjXybcWVo9TvVx1SXvO6rFcM28NLb24NdT1tHRAnV+lmuOQ1FFx75QU2A2pCcmX005fUvFqSd6wVKfTQZabq63exnP0L8EKczqdp2CqLKd1Rp3OZ10qhdICA1fBC9OE9z+Lt48oGSlnT5+W1z56V8UrJ/uJERNk5rzZyul4jL5ruGzevV22gEPxuO+uYZKQmgii+1HH3LV1Bxl2+2DJxO7esnuLTP1munIF6jOdW3aQPYf3yunz56RLh84yrO8g1ene+Ow9fHZGFfgJQ+6Xxo0ayYadW2TSjKk6xuoVK8tfho5X/WjK15/I1n079XUH9bpLbmrVUV1La7ARZsz9SqJLlIR4LilHTx2X+tVqywMDR+s9+G6/HzuJZ4GLgzNFgSAnDHtAPpozDRzylG6Yx8CJEpIT5aNvp0uRkCJSqVx5OQn9lkzgkeEPKkd+Y9q7kgn1IbZ0rNyHjfDOZxOVyOpXrysDbr1LXvvsbYh1IyXG3D0S95qmakREWIQ8du94qVglDrplhtH5PC5lGAglUlaK8Xe69VYxDjqgBZyVbPQ2Px1QZFKvy0cHVmwEdDrjklFphvdMBXdWoqNORx+dcinSBy03WmS0WqzOpW4JHqqb0bKiZYLBkxZBxY76lZtR37POSaV+pxeCWPV7qhfaHWTP0cdz9vxZeQU7XcVrsWLy9LjHVAdSTodjzMARsnnXNvzdqs8dhd/jwaW+XfADdL1QqVS2vNSsUhN6UAPJw7b6YMYUJToaLzHRpbHgWZJwKUFubt9Zht45UFLA6l//6B1wRUt0Ix6QBrh2C+4/kUSHo0blqvLXEQ/p/ad8BaLbs0PnffDt/eXmdp3U4jsff15emfoOlH2INkwsCatfj9uh43VX7sV3O3MaOhn1VYg/KvePjXpYPv/hSzkFTkeCf2j4ONl/5KDMnv8ddNYIaXtDS1mzZYNyu3GD7pOK5SvKyxNfU501MjJSalauLrsP7lGjozu4dpe2neWlD14FR0xXKTFu0GgdryO6J8FZy5cvr35Wp1Or9Wy5Gd08up5WWimLsRyR3grPG0HuRhqyOjp9kp6FirVWzwEtenI2qgj0K1qdkZyOhlRQ0mnqdHAMp6TChwSrCF+m7ymf/kUOBllOt4SzPP3WT1jxCOOfsUqpoU4r56Mgy3E/Z6bzc6MKGp2OfiLjkoBOl3BB3pz+gafTPT7yLzKTOt0xI9JGgdNt2UNOt13vPrLvULmYeFF+gE4XRq85OFoyrMJ+XW+XutVqygdffaREF9AvglTn69SivQzsebekZqbJ2zM+kDMgdi78w4PHQjzWBmFtl6ngEjyqx1WTh4eMw74Klo/AObfv36VjGdj7buna6WY40pOUCD/4cqocPnlExTk33iP3PSRx0VhkcELucH23aXg3GkngRI+NeBiGCXxoOM+D3G/2ou/k101r9HyvTrfI97/MxVxkyV3db5fmNzSTf0M8k8j4POpyYbAcqa/eP3yMehle/fhtSSPR4frRd98rn2C8lzAfjtPFRMeonqriG0RG3S0b17kAo2Uryr3oK+XaqBhWKWekFX2rZCLU7VU869VmVYuQDujiUT+d71BOWhT+0yzodEkSlHLh0uVsiNDU1DTVI3iHfB5xK1Y1hIGfVScwFoQZDH52PjYaC7yBGzy/QuuV1xi27YZnfEEMo2iEwOp7dAm8OhncgCIC7oSnHwCnmxPgdGOx4zfv3Cqbdm3Rx48ZcK9cgK707aIflbhiSpeR8hBLrRu3gCsjXN6fPln1JYpGih0+k0R3U5uOMrjvQNWvXgP3OeM43cjxUq9WXdmCZ3z4xUc6yTWqVgUB/UXnZsrMjw2nw7OH9B2gYjo9NR0EHyY//TJffloyX4muUoWK8uQDj0oQuAHfmjol3TWv8d1ALCSKJ6Hvcf6o6HNeSsPKnDrrU9mxbxe4coyKzw+gk9JYuLltR+l+Uzf517v/ATfNVk7ZEkS4fM1K5YS9u/WE8dROXnz/P0a8ktMNHqU6H109ERER8uS4v0Isl/WIjhYp1aRA9IZhL6wLhRwlGc6rlMu3msYK5bIrd3N0YFkUaYRSpTA6oJRMTlZDIvlyxrkkWK/Q6UjJEAUUB+qUBcVnw5IyXvXAoZaPDaHkYOc5zqhE5rzZDK9wyLinc8pTN9Awj1o+Hs3q9+hDOnvmLEQQxKvlBk+O+qvM+PErFTs8RvcfAV1tq2zeY3S6UdjN8SnQ6RZ8r5NzU6sbZUifAarDbd+3Q6bMnqZ+vca1G8j2A3t0+pTo2neSIXcMkKT4RHnzM3I6I14fHjJWGjZsCL1xm3w4HUSHC6rFVZEJQx9Uov5ozmeyDTod52kAdLrOLW804hObZ+/xgzJx2hS1ONs2bS3D7xho3Rt4t6hicurESXn9Y+qrEK+wwv86YrxM+36mnILBQ0Idc89Idf8cgz5IP2PDOvWVAOl6aQh3R9/ufeTNT99TQyIWBsHI/sPknU8n4XyaNKhRTwZiPH5ONxb3o85IK1053X0PS6U46HRp8MWROXBdOGtqT4BLwSebjciLAWoEDopP6mfZzhdn15RzQ5eXRofUJ4vD3RBUGQKdn9LLhdl4jhw/heKV1itdJmk0JHCUrl5Wjp89KUmXwAY9Ss43Du8XTnYdcIbE385Z6jacjfqfIyyV/3ZAGv8ka1YxrHRiTzLcFCHnzkKn87hBpDw1Bn6677+UfSQ63OR+7N512zbKtr3Uq+CuGACdLilBdTolujYdZMjt96iPcNu+7TIZO50velePO9SipAshB5yFRDf0DhgSiSC6T96TUyA6Lvxfht0vDRsYops0fYoOsXocdLp7QXTU6cCJtu21hgTEa2c8j0RMV8SBE4flXRABDYsOEN9DYU2SK5FjhEXi3bChXpn6FtwhCAVZne7DLz+Wk9DpqBqMhj+P+lxC8iXdjdRri8LqpBQoH1NO7/ce/I7US8kJR8A6JSdPSwPR1QLR3XY3XEJvqWFBH+cDg0YJ7893po74xOi/SPmKFZQInB7HOXNusRCE9HIRzzbhSKu3WQnEiApDmU7nsnaB6m0aYy7o7MctGEDQcB/DZWoqGM9ISipsh+SziZczE0B04HT0gpepWV71j1SatlchOo4tFA+MKx8nSb9fNC9D/4yxRQKECd+Nxl6t6exOmN3F+Kp5URLHBTz39U9o4VHvKSZ+TsfzrZq0kMPHDoPQEKWggj1gpJyG2CKHICcqDWOhfNlyUg7WXY2K1XSnU+cY2/8+WbN1rew6uFc9+p3AoQb17o8FSpO3YFGeVp0uGFbqOKlbvY5y0qlff6ZDrQHH8MND74dOB06Hz7btJ9FdlkHwwXXtCJ0OQIkiePaew/tk0lcfg+jypGPr9jL8rsGSfinVbn7EtEFEr33yDnTQeHVh3NOzn/wAkZyIdykGw2DY7QPls+9mKifj+ZYNb5BNGAejHbTk770HLpCvpitRlSlZWoaBk34IQ4EqQqO69eUeWK+vTH0TqkmmEusN8Blu3LlJndD8/clRE6RUiVJe2EylFSUZ48NWX3NWJtUlDcHRA+EozNKCYRyMD9Nf61elGDtm7BX+Wh/ww/AW+HkRH84DAap4TT6XeDkrMQ1El6aRhTI1ystb774lO3fu0N1d2EHZXbp0aXn+uRckJzFTxbCa4vnkphmIQUAYf5/hcDbgT8gSCZLsGCGic7ACX55MB6fRS5598En57JvPdUHJTTiBLmylfjBELNZt3SDfL5mrehXHlJmdKbVhRNwKRZx6Gb3wE4aPl4uXLsrn4JrcLDe37YRFG6SO5lemvGlEHJ7/KJT/+jXrQmeE9QofGsdbE366x6DTkegmfTFV3TW8x7A7B0n3zl1BdEDmgOh2HtoDzvOhGgY3teuoPsV0zKlZM0ZSQuX7pXPl5+WLNBxkMILg+lAFGCGhiHx3+iSdosrlKsJyf1RexthOnj6lKsKQOwfInHnfweWQBk5XRkbeNRQRl8nQ+dKkcf0GMvT2AfLS+6+odcz5JcdVXx/+bVCrjoyHMaSYRStXqc9xvZWDeWtmJI9KK8bWPdeWlUr4R/V3xnZBXD5BpctKMUykjqEDcy8lS/wXQtUKjmOj0yUmXc66yDBYmn6rdPVyMnfRPDl69Mg1iO6yFC9RQgYPGCypJ+KNgYGDL6LuFIf1soYPz3HAChC1wWhLgfoPERaJEHdzF85TsUTl9/ZuvWQlnK6nE85KiI3pEyYagZ3bFDu5QR0o/bBkN27ZjIU3QXCGssrFxkojOEyXrV+porw7HMaMkc7/5WddhIZYpA7gRnQTzcNnCQjNhGChenTuLnHwZR09flQWLVuq9ysbEys9ERaj+F2+aaUcOXZEuXb7lm2VQHm/UHCFM4gpLli6SNWMejXqSPtWbQ08jK4n4tgwH9R/V6xfJTsP7FaOxTE1a9RYbm7VWUNkKzesUoIph5jzrTAOFq5YIqfhu6QbpkmDxrL30H7JxIYsWbKkdGzbQRYuXaxWbBwMl3Yt2srcJfMkmzuCbilwXBJZKXy3XbPW6lAOQpiKxGI8CYFDwQQOT+edMhxCA/5YNxf79nEO4xZhwP8KMDNKTXWZuMgFaCufTpd+Nlk5HSk4pnYF1YfOnT2XLxieb5QkT7xYBEItHdt1kISDDHAboqPTWGV5GtmvpXYbNjOGBOFRzpBwiAbCo+h2AarEoBF1x9MgoNika4WsHkBl3amMY9L0z8HNIkpESh6fxYlW893oKYz3ETxIBZgWnhpJsGR1IovgeoyJrhwG5XWYarVDBwOkihBJsWY/URrkRry+aMliuovpGqLBQFHqVBCGeRS1gs+4qBy7nlN4V4RxP+gYINJwjueLwKqOxPjTElP0nWnl8nDjDyNODu+mm8lyLv5MJZ3EHkQolp0Lnqc0CMWzLuN9czMwWepbNShwjqkIQ1EgEHIjB7xVgwB/6e4w7iuzZgash3+sczhbncPmfu40GQy5ohHRjDoFkCsMEnCdsjB+h1wKwYOS6RxOpssEoE3qdAz0ktOdPH1SLsGQoFld2MGJ4aTVrl5Lkk7FG6wXuZ1zHtqgvu5yGg42LGbuZxaLO8hBftzAlCUDxEmriMTpWb8cCn3KDEYrJ7WxPx+PV3OeX7OmvhKglenUXzQcB33D0rW3aRVRC4JXvdPzSxkCJqzKA3EyNGgYiY6BE64gVF0dnjMwfTpTCZJUEKeah3YhqUYoiBMcAHPieZ4sZEvHqLAk65Zy+hQuJ4SLsCklGBNzt+LLADxVx7LOXDUGOEaPS1kjQN9NqdrMsY7RxLH9Y+TcK+OwIlTfz6pGOkZc7+bY0QdvQUmm7jH+tXTgIGcK9MV7qXhNQsA/Mz5VRQ2tlJhaFeXdie/Krl27VJco7KD+FA3F/e/P/F2yE9IBdMQucQvKl1LHIYPADPTinI2/6voYO90zJFQc2Gv0PBaUAElCZpxO5IiSbFt3FzkH59D6ChV1ARHBw4AS7OSaLxmgKbkUcW32M8OlcI5OTUJ+NM5syVT1Tsul6BIgOsM/RkxqKPRVclJDAJZr81/lANBXNWDu4PBmHBpMp3VPDmbH70AEoRgjozUKzbcr7d5bHfDE6ykG0FKApVqeUyiZHaPqzJxHjpEgVH8Ii+dIkBbE+ccxWsi+GhJGPwyAAaxuRg+EL+Bvxk9uSeAHx2gc0N5aWzrgHCcZnS75cnZiunI6jjS6Sjn58eef5OgReNctu78S4ZHooqJKyJCBQyXtzCWj01kupaAB3a1KYYHd5eBRTqewi8/7K3iShOk4oo+DKQTKBqqtY4lITV087lYDCrWi1REAQ3oMweUDjFrisM5PN0azsPYc9RT8qNB1//gp1t0YbXzS4846fgOQdJtA58yCSYMh9rzxO27DyeL4GTpyaGBLLMqxNIzEcxYWbmhW/8d3VgCpM9wcR1RigohW+JJ1xvu4pRmjAcB67M0m1fjnWN9LJ8ECAzAWD7FsiVYJ0YVDKckKrjVDo7yPZUQq2fBXw2D006WdTlI/HXdQbN1K8vakd2T7tm3gdAjQF3JQpyqNCMCLz78oaceAPLaGBPUNBXHCFeJ2sNIB/tJFQqJSqLOPqHi+CPQ2fu6JFsvBeCVDKNl0aqqD3IgOPZj0wl2uQFP7EHuKcGxaUwqdcgOwz9TkG5zPRoDbskvv3xBAuHgv5j54G8Zep2MkhIuIaZfaZrkNz5EzGNeQpRBeRz8dxphVcIxk9gRVMIcEXI/JSGrNYl6px6oYw/tlwsBznMTdltdwAQmqyOfWIkcnt8FacC7zu7xwDjqdcnRHrHauSGAM+GcDaApl11txdWWBeCglspJswN9HDwp511Ca0/fsVJOjK4jThVTNmtGQSE4Dp0u5COsVLhOKV3KG0tXA6YDa+O236+F0UTJ08BChIcJAsgMD6ORYbqbcgbvL7l4+nLtQEQw8x51gd42xugw8igtCAtQp4M62ok/hVxi8Q0p48Ch3D+UAhgvqjiWokC9MiDc5AO9DKBZv7BujilYSjOV0juMq0JH3841Rv6djNMFu/xiDFCBpwkhmjCQupscx/8vCuywHUJ0L9//t+BFJvHRJYmEpVwBoYR+s1BwQX1U4pksBJU1jxnBZjIMoHaAhGfhXeD//kBPpe/L+FlRhIeo6Pw7pzHOE2+uEGE4EK0M3id6D60SJgXNm7oxuaebYSjKFNhGkC+tYASL2nDIBhshwPcfF7ykdICEH3gYFcWL4ySn0052Ov5yOgD+tV+6umDoV5Rwg04p7srv4SsxODQl40uMqVJKkk9Y5rHkRgXxJbwep5WksJj3ycQBwMFV8jXjU09xdDk6jm8RcqJdhjNTpHPhQzzqdAruLz3QWX2DPgpYIMAQRU+ewT/G4bWGL6UQAACAASURBVBGAEhiMVuJyu98+MDwKMG7sZJ1MlW/2alp1cHiSA7j3snYdxmcdr0jl5OFZ1dw/1Du51jbphSrM5K8/lvU7N0uPTt3kzm63yz/efkkjLeMAT2rZqLmG2tSCT8+RYCRVbD+wU37Z+Ks3Ur+YDyhTdqqdTmkG4oZvCI1EYY0Y78VJR3bd1YqmyFa9yb4376ecw97PLQy/gk3kVACepiHKkN7AHndJdLnSCg5OIogzJT7pcg4mTnU6TGSpuBiNSFwv0VWJqyyXQHSKu7ccTGW51SlIQApZpu7AHcRBqmVL4qKuZtwRJgHaKevENwd2qGdRcuG5Q/lyjkC423g/3oO7i4cFJppxWILlLuRW83RGXmd0G3Ib1SdVT7T3IGe2ItABWQPj4JrhJCxAukn0sFavi67oAmgOrP2ubqzAGHUT4h50oXw2Z4Zs3blNfW+9u9wqryMUyEjFcDiAm9ZrhBguuCnnEWMKhb9ww47NMh9O5hYtmktRuK1MInrgcHvbfeLO+WnOv//z0WIBWnL3+LP3pCg9euwYck3OKfiAvkVuauV0KQj4pwPESfHKeaGfbhfAjhfOX7i2nw4O3DYtW0v8gTPW4WgDvZgYWlNuB/KlOS0Kj/J0Orsr7FsFLB+KDMszdHdRF6FOB90MOD83QQqZx8LSB6YWmGGWeiixMI0R+oYHx7ZXGm4JtwvdBbC482fYY1HBYXkjD7rjm22m+tHVoTqdXUnDAHCdheUrFtF/QKowrqwBc98YdZwgWubcpsQnI5KShcA8wBbwJdLhS3EaXgwEBe6ms2BvS1/cJkRFlm5YISNGjtCokEmo+u8PdQ4zV9eKVU2eAqGbOOyfP5wU/PXXX2XLxs0y+s5hUhxqAhcmBVArNSQI4lQ/HT4sXb28PPrUo7J27RqT7FLIQYdjWegfM6ZNl9yL6erT0V2uSR30Q1lF1vBwnTRN0iHL9vxQPGdWgmJTOYOfE9mXpthXP5qzprgM1npV6JRNk/SApgpEdOlxxrINnDN+NNULrTrg56Sq++HrAV/ZNcZoubaOn7m/1En5zuR05GbU2zhGBv9JG+r7NOPnGOlaWbJiKaBlKZq11gLJPLMAfyfMvGeXHlID+RnqeDf7T42MDbs3y5LVy2TosGFwW0X/10RHLsu/qQjCnzx5Uv8SkEBCrlOnDuDtZRS/998QNe+7evVq2bZ5i4wdeB/gWMjew/iV06mfjigTgjgxOWVrV5KZsz+XAwcOXDMMVhLpb+NGj5XMCynwPCP2imRrvxpIvqRecOovaggYNmT/UUtLk32N5PFEhPrpVKdzSSO8zOgXqtMR2QD9gLvT+JBIt/Tt2Qx/cAdj6Vl/If6lv8pEE0i8lFTGSOFz1ZdIhIWPS+kexxeYbKLQLctMnKhi6YwQ+unsGN0L8DpuPA2mq5+RAzH30hisTc3T5Ce9WZD8uGKBNKnVUA6dOaIA0/9580UFBowfNAbYwJaajKN+OvjGgvGeG/dukV82rJRhw4ZKqf+C6MjRqI8fPnxY5s2bJ2vWrFGCI2KFBEaCqVChgvTq1UsGDBighM0UyD9z+IludL97pXQ5EDDe2QNxZtFPR6LDZEVXKatY/XTstKsbEph0cIxyMWU1IsGdrItmRaLTuWlSK6JYLUXKvYAMZO6sllew+o6jAuVSTPS2ua6OGo0Jb0RjelKKprP5NGPDSam5OeiUb5act58ckwDRSCA3HLUTMU3u60F+vCEyamK4rNFDHZkapVk5WL4xGq6oPjbqqy7cx1HajaVWHO6jXFYZYrBsBCiVOlz5cuUQz20gi39dLClAALdr2koql62kbhSdR4yRwASiRxY7Tlf6z3E6ElsmQAHTpk2TL7/8UhISEpQAuYH9603uyu81Qs7Ic889J/Xr19ffr/fwE904wKxKcpx4ZwviBJ7ufIqCOGmdlalZQaaT0+3ff02UCZXDhx98WNJOEGpkRAAXSX1I1EUsd3JEw1IRGpu02f9qGVnWQe++lqZQR6ldPJVEpvwEfVnchfyIImYn8gM++WYGxhhIllaOYjlUwclx6gldDXfc0kd63tQd0CPGPA0jcgfDNWRrXniIxGLHSMSMhqI0NySAReO1tI41EkLXhd7UvByJirqsg3B5D7R6JwvexEN/JuKXkCZae/GX4pH5j7VAkD5YgxPWisQ11Pk2Asi6eO0ycDqI1z9BdEwcPwKn/8svvyzr1q3TRHJ/svmVCIocLiYmRl588UVp166dorqv5wgQ3VYkCd2rOh3XOjnNgThJdEy2xt1IdJ/PmXkdRHdZSpYqJePvHw+USYL1nAdAnHkuFOUJMRAk3QWEcF+hwI06Samk20QOI5HMwvEcgYLOIqYyvRVAzonISwhF5tT1H6zGlC39b+snt3W9VbmlWVLrrAGhaCgNj3WgBP+9uTG0iI3bGI6C3BjJ2RzRWepXIxfj1+w4y/6dC4jRiHAYGZOmTQUMf4t0RjZb75t7yuJVS6UEEDzlYstJ09qNgE5h6M7wdCW6PVtliSW66xWvJLBVq1Yp8ZwFWJa/X+9Bva4U1vqNN96QZs2aXRfHy0d0QHyXANFxTVNIdMnnGHuFc5h5rwRxIuB/PvE8QJzGsCjs4PyRLVcqX0ku/X7BiwsGvm9EqXKwAothVBmTwJ3NGGQBK0kVbCIpdKHMHVWwUXRB7IZhwg4ePCALfgU2zdb30O+oy8Q4mAseLl+TE9j2hjYASTZT9AgXkxxY64JYFSBgPRuCUWRsQX8WA/4EA9Cq9j1OmbMiai3atsBADLLaFSIyXHvK7I817bFbh5ulT5desmDZIqgAJSS2FAwLgDnpMlGCx4YJAXxmI9Irl6xfrpzueoiOBuHmzZvlscceU/FmEtP/3EGOx5zgyZMnKwE6VFFhdylIdNExZTRpR3W65LMgOqJMQHTMeyhTs5z8unaVnD71+1VjrySAokUjpUe3HpKGHAuFzLBqk6EOIzd9ROf5uhwhE/LDykweYQVMCUVwsIyYh2q196MhoVWboO+BEEhwzvHKhWcIizzLgQ/9AXotWUbrmHgyiE8lMCc2bUUkTZv0bzSKM1aWInRKfYEBfcAboxu/R3jcGLRKDSjBqQpqQNGQYMAf99WNaDksIepa0ahMKSmGkhnE0BH6FFsqBt78CPXD6fh9RLd0/YrrIjrqahcuXJCxY8eqsfDfEJwjLFq2w4cPV+K9lmHh1+nGgNNFx5ZRwGgKiY4gTpf3ykkoXbWspvldD56OjskO7TtI0rHzXgaQVuthCIhuDD+jtJYnXQV+z797Ic9l4gLtPGHp0BgjFnrku6cGkeFyyGOZL3ydGDOzA43BocVdXNIIriOR0v9EZV45Hwwfwt6N6DJVjxjv5PWqtIMLKTckreFTikKtzGRDR8S/6XmcVV0WhElR6IZORDFrrygIkvNh3SvuC4pVw7kNWzYqerlapSpSD4nTv25ZDUMuA/D8ZlIeGVzE7XkbBOJ1w67NEMG/XBfREQw7ZcoUeffddzVf9v/PQZ2a9/v000+levXqBqdYyOHndOoyAdKbhxfwTz/jAv4isXUqyXtT35edO3ZcdVc4aNM/nn1OdTqXtsidTC7gAv4eDAcLRxGhiTnWqjPLaw7jtnDBaPcmRtfS7HMSjxV/XljMOocJgSJyeC7qjaxH4g6Jq1zZslKrZi1ZuXqVxiNLRZWUhrXrKxJZa30Ui5Tm9ZrICvxOw4ciu13TlrJi02rlQEVAgDfCfbECaF511YBGu3XqKsvWLJdsWxCQiUBrt6zXrHuOqVPL9prUQ9cDgZrMXb2xRRtQKyqCqmvIL/YNwiQCju83p7wr67dvlG7tbpb+PfrKc++j0E9igjw8fKy0rHeDxlnd4TmH1/8KP93Qq/rpuClJGKNHj5Z9+wD5/y/EakGaoiExbtw4GT9+/FWNCj/RjUa9l+JK8HAOU6dj3qvmSFCnw64kp9u5dxdY8vlrRiSojLZp2QYFFRNN5jiNAMXhk5ocCJIuBxsic6BQ6+SlDqkckQ5jP8AQK2xcJuSW9LXZurzOZUIwgOOkaugCiYKyC1/NmyNLUUGJxkVFOK5ZcYlOVBJZLBAxLZu01ApPWowHbpMOgHjPQziJFiaD0l2QsT9v2c86Ocy5uAUw93nLFuq808q7DUo+C+lo+Vo8t2+P25DzsEQnnyK79009ZNWmtbqbmc86sHc/1E3pojqZhgGpAhCjiGuNy4SEF6L5svsO75cWTZtLR1Scmvb1TM3M79O1l9QBSJaegRAQLjkePIDI4QCnw3teyzlMItu9e7eMGTPGWP5X0dGvlwNSJ65bt6589NFHSsSFRS38RDcOnK5kNJKCQAfJeC91DmsKIgL8rC3LgP+va3+VU7+fuqZOR3Z9S1fqdJc0TKVRCL9MpU7EmmiE/Kjj1efTUMgPHcDOqrN+PN4B4SGtxEk4kLFhPReZB5Em5/CxSsKwZv38jSxdt1yV84qw/JjZtQS/k/MxV7QlkrDn/bJAf2fiz43N28j8lYtBdCg/BrHRpXVHmQeiInKCaYG3tOuC88h7wAhC8Flv5EoswPc1Foo/d956uyr9dHcQ6kXOtnrreo/oBvS8U7q1vVlDXM7FR1XBwPldlcs8JeIMJBSViI4CSQVrQg8PFc0ssMhNxYA/NmEwoEesNrUUAf9rcTqKwunTp8vrr7+uYvF/41C9FN6Djz/+WKMWhYlYR3RbEZEYA05XulyM6u9JqtMh9pp9CRn+9NNhMqIrx8rx0ycAV0cdMVuF/EqDVe4Cq6guMo0uIQVRYTzUfejYpW7k6pVQv7OWHwPr/I4JdpN9MFRkCFGhNQo9MlEEfTSh27zAhpTUOcwT5G4ONKCwG3AAZGuxctJ26KN8PhNR4irFyVbUoOP9WNiG0PqN2zeprhaJuCb1p40Inqt4xbs0RY04ZoKprog/zRvdAEfsZlUJeM+2qD23YQfS+qzLpy0SXragtgpRIAyrtcD3d+/fpwnQ1C87tb5RmjZoopXaCQ1Sw0Zh3AaI4KBNPyyYq2MIjwhH+mIHeefj9xXqNPSuQajL0tCURuN7MuCPsdM5vGjl0uvidE888YQsXbr0T7lIrkWcdBI///zz0rdv30LdJ35Odz8qZkWh7h/pwMZeUbXpFKo2oT4d15cgzlfeflW2bt1yVR2ACjudhq++/LqkH08wZj292shwigd8JRvlFhRFYQAjKPhnMr40B8DqdP6XC4VOlwclHTYadj2pipSIZBLUhCtTIQZB/SQtlm0OI3JZQZ2htEyCCCm6GLC2YppErG4XBWoaJqu4NI6JRbtxbQbKafjzQCiCqFuSs9Bi1dKtDnVCnRSWrIbSEPDX+LIlRt48TCFQBJM6SwfvyU3Ec1qHj/Aoo3a4g0YX5+Sbn76TWij8cxzZ/Z1adJAXp7yqDuIHUVuled0mOrfOx6c63b5tCINdndNxfCSOe++9V44B7XG1dNJrEVnB81Qn7rnnHnn22WevTXSbtqKG3zB1epPRsExGUGp88uUsTcyBgoeFiIZOt2Dpz3IcA706XN2kIN7TD0nLQKmQmM5ejJcf5rwhdYJXS0wx7E5McHJuUUnMiZTK4RexHibv0sPV+d+GeQOQsMczYqVKxAWIGQM2DEfxv8othktEDVS0BBdUGiAiFRZrJipXUvwYqLyFVvOeykVMzV6tlcJLaJWSyyoYwCT3FA1FkUOVY4QN8RzBACbC4Ti1wsnJjUmwQMo6bqwgUYIGmJVFZkxIvQVZBuBXNkqjEC4nCQxRGjCAASUcRrpnAsJgZRFSrIAChnsP7dNAe3VUZiqFagDk90F0D7H0Kzj6Rup0qFhwNZ2Oa3fq1Cl1cTCgf63Iw58hPLpL6CT+8MMPzbsU8LPqlHoB/61adYqcjvObTJxmvqpNUOxpvR79/RjKSlyHeEUIpw4qVTLDPzfzMhyHz0ufqE+laWVjaHKdjyRHysHEKOlR5QzBs4UeXIrM3GBZcLyi9Kp2SsKCDTKFf3ODIyWl5U+SGVQN/i8QIso0bAOcfubc2crdnMLkNSVxzTScr4NPBcEbFyITnPMkFoiOBwaMhocf3AZcigF4l5ij31M/I2vxWlCC56ez3gtyWVjj5GDONekCrKp3svA1OTDvY/173HAMs6lOZwP+FLVHTx83sVeUfShfpqzs3bdXg/zVUJGpVBQUcHJgVr+ib5LO4b1bAeK8esCfSv727dvV0tTXxzjIebNolDiDTvevMdLItTkW5vA6kCYlg7tWuTrng0V3sNFYdoz6IiMnV0KheEQHTje6H8J10OnodzU6HeDqWrWJEQjsjujKMbJjzy45j2qUrtL3lSiFA41AxlbbVm0k9WwS6r6ly/zJfeXBJjslS3H2VL5FjiUXk0NJJaVb3KlrE11eiCw6ESc9q5yQIhCtntmB+2R1nCdpRZpiTLlqWW7evkU+QEZ9CCxVvzvQP1br5vvD8BlALw+O8jdUv2QFdg3O0/emwE3ezYBQPUi95aQOoey4qlY9clyW11jq83NZu2qG8MgRWaOP1quvrvP3C3+U2jVqQbyeRPWBzvI/b/wTtZEvoGbd/dIKdeq08DU4x2XmT4DTUa9ctNL46QqLvdKzsGjRInnqqadUXyXBxZQqBhdMnBxDIhUHQbF9ARUKimEjVK9QRpIhNvcdPYuQVbiqLlHwS5II06AOVSobhdp3ObLtwEkjgXB/+usYpbiSMZGP00GnIyKJeq1XtSkdRJOCOCTFREztivL6e28oJ7maX4fcgnir//zrZck4mYRS7amy5uvB0q/GTvhcDcQoBDc8mVpMjiYXl44VzoLoCiMPwz2yQHS/niovnSuhJKpHdAa6lNv2K8kJa8HVUt3x0InfUE7iJ7W4XT5GwDYmlyJzM5i2/Ad2PP6UBqcbfOvdgfp1lsSvVlmKYEy6hlwdPuUIeA55qMK0vH4ZPosb5+lUzoKO66SQY8AkQHLLH+b/oMYNjYQbm7WR9xFTvoQoxVCUM2tQtQ58fjRCyK0AFYNzmDVOliIMdjXxWtByzcC47+naTF7/Sz+IcujbmBRysmQkPEVg45Vg1SbM1Ykz8SifW1SJjZ9T5+XnUdB11+04IiNe+lylC53ib731lnTs2PGK0Yl8frp+wwvodKyuDjxcGstKYCRMtl60fLEcP34dOh3ig3fd2U9STwIKlZYuC74aK6XlIHa8bceDF0vPBUgwG7kXRa0iXbiExSQEyYWMohKL70Jb8jhdXm62VGn1qNRuPBhiwGV3MWGE4TLodNoRhkau1Ze4j3mOuDubDG1QzMqAVTfTAjEgEuVs1tDgDlYIFLUof48MS82alK3JxIaQvdwEXK/df2jV2jrM+gUSCg0pjUgwlKYMxhPHDsKVgSws6kkRUFeoi2VBD1WCxKIzbOddhJ/UemXs9Rp+OhIdXSUUgfw5HTrwU8O6y7i+HdSZbZUEnTN9XwvP19Ai5kH/BGweFHCEP3HVbnnknW/wc6j6JslFhwwZckUncb6IBAodsSYfD41IaHV1JFsTT8d4YQxAnP95/WWbglh4srXhdDHy8kv/kbxLmSgOnSSrPr9bhtXbhXoaZvHJ6Y6lFJfDSVHStRLF69U5XSY43ZKTleSWyogRWp3OWKooT9D+B0mVxiAk6BaYAI14eI46ozcRxcIpzPWBOO3a22400OdoeRqtxTuYYKN9tliKnrRih8nnOqCpw/ypiobv0DApognhrqSCXUcStcZeTTcan0qni2iSrU3yEM9RhVmwarEcRDWqZk2bSvvGbWTmD7MUAtSzfVepVbWG6lCaLA7xxioCm4AyofV6NRAnxd/f/vY3mT9/vorCbGyWDx6/R7q1qguiKzx8VRhPKIrNOH3BRnn+o/nKAUl0gwYNkmeeeeYaRLcFtaIB4iwLECcrcWrVpvOs2kQQJ6o2gQOUqVZelq1aJr8jOEyWX9jBRYhEKKl3z9skA5zy/IVkWTn9TrmvwW5XBkR1uqPQ6fZfuj6dLgtccdFJGBJVT3qGhOEoIhkd5klKUBNwAFRuApcyAXPrWaF4g86zcNUS2UA/HP7EQPRXA9R7A8JLWkgG6FcWGly5bpU6hyMjWU6rqUYQtMEeKGH4XUMQuTAlUi0rM03ctClfID9DxwSxQw7m9TZTBdKwTEWZYDxmjH7yJpc1KBONqKjiHqJ159aivnCPm7vJgN53yTOvPKf9Lh4eNk5a39BKdTo6yxlqDIUhwdjrtaBN5DQTJkxQyDjLf5DiP/v7EGlZv6oaE3/2KIp3fWfWcnkbf/kzOTPxdYzpXglxkh+uPkpKoWEMub1XtSnzAvpIMNkaA2OpsN8vnNaiiFczs13yBRXghN/OImyTIctmDZd2ZfbA02aIlV32zkFcZoKYusX9fk1Dgjrd3GNVpH6pRCRaOfGqfg6JbPeelCjXDT8GkqeNeCUKBCl60HU0DAacGY2LuPIVUNWpvvyMiAFLc7G8VotGzWTBCsKhghU6dGPztghrmTAYJ+mJ0ROkcuUqpjgOm9AFqFp/dI33/KWwnBWjJdF4jcsAs6uqvkoWwrEl0fyLrRXswS3XrFkNh/xJ+Opq6JiXrflV0rLTpB0qQ5UvFeu1meK13FxEGi9ZC51u6JUNCRfuouVKC5a6OQntvcf6S4829ZD48+c5XQSk4AsfLwC326CcjoRWqVIlRSAXQ1HyghZsPvF6zwiAOIHUxlxo7FUrcZ4zIE7uhjK1KkiGwAeG4nqFC0MnYsBBUGjv4v7TqJuWLku/HiW1iu5HkritjgSiS8iMgD8MNdiuw3ol0X1/pKpUiATMSrNYzAjy8nIkpvXzUqH6HTAMWITbptyBeEzDNVbDBNHNB9Ex7AUOXRlEV59EB/2UnI1ERwwdw1omDAaiawai+3VhgOjQLKVy1SqKDlYOZnVENw+ssaZ1OmwZhYDhYup4aKsCS3QOnm7yPQjTYh2+AMmpjUzcIO554eQZWIgZWhyRCSysMs+eYWUBXw/NNUaJO5ToIF75noUZEiQ6cseRI0dqHgQJgIbEP8f2kiG3tMLPf57owqDSPPbOd/Ljqp1KdC4iVZgF+0fksCU61ekoXl3VJviXYpANNvdn1L49dvSazmH6aAbcPUCY2HMOCdurpxnxmmVnyYjX4hCvJaQbLNKC2Xn+Xc9FyMwNkcXQ6XpXgU4XYvx0PFS8wmWSnEedzohX9ki1NqJuFpYBWwbkxSaErci5GAZj5XGGscix6Vpgv4XVRJXgdy5wY3TVWbtlnSlSiD+DUKafGVnctRpygwg1bS1tJVErPtVAIJeimNGyqGpaYqTWLcJavExx1KKCvrRJ6nSsyYzvGqI2hsHUWZ9osjWLI96OvNd5cM5HoQFLLCI+zbFRWLK2CAtIEm4F8cpC34wpF0Z0Wr4BuhMdw2fOoLQtRHg6uPCEQd3lr/1v1J//zMF5Dkbd4jGvfCurN6HLkEWrkLBprHTp0uUPkYmChoSKV63EaQP+iqej15qGBKo2Pf70Y7Jh/XotGV/YQfYai1KrH0/5BCZJtpw/B53u8ztleH30NihAdDQkrofTGaKLkx5qSPgr/4Ag2/0EQ6IRiI4NeH21UtwAbSspDU9pg2OSgPO7GQQwQZouIcbQh3F5aKYVrsnWtpwBPZHnyMG0Nh5THv2cilg4wtAtZElVOntx/rpt7n5moBrwJ9HZQuAkiE/QsIQisyuQw7079ZAFvyzSjjtlUca2OWK39IMxTEiRz2ywTciRWHoVQ4L3pJ+VfjzG0EmErNB5T9/b5F8jOwEmRj+dL7fkGhRIJ1Nmiapy798myu5dAcgbjYmHHnpIAaIFcyf8zmHmSJRCNhjnUZHDGvAHp9Pq6pgMFwY7epScrvCBMRzELn4D+g8UJmvHwzm8ckY/GVmf1qudYKzCEXC6A3+K08WB08E5TOvVTgaZSGan+ZIa3BSMwyA2aD2z3ofWsSOxKLMJKASmHoqv6YYxcPV/JiPLVkTiR3Rj0FLF903rAroDfa4KOxASkybeeKBKm5wDctP2mnSnKGDBDNwF+HlP07rSUaahbI6Rlnj8hXjNNyXGrxiI7eJFRHiw0PSDIk8r33VcTHLvRQBxFsbp+B3GW0eMGKH3JdFR8b+xY2eZ+D9jJPg8emFYt9a1OR5DikUkvkwrGT72YYRHj3pxXMZ2b731Vvn3v//9B19dvoA/ssEIJeOhYbBUlJVIcyBOKOyENiWko8T/NXMkINKYI1GuglzcdwpVvDNkxZwR0i527xUMiZDr4nTU6X5SQyIBhoQjOfqLYCm3fluKx3RVnY4vtO/Ifvnq52/154LlTPlyBqliOsIUPBSoQv8US0ngJBEhVSvEyYg7hijkXUNlWj/O+kcsEWkVAsLdnQ9PH2TYGwP+mvGlqBkjZp2DmpWlClZt0vHZikhr161VZzCrptdH6dilUBNYO7lti9ZSIQrIYVrTdjrYQ40Z/lcL+NNw2LNnj4I3HY6O3LJ27dryydTJUuLcevRcTfLtgMJJLwj5wTkxDeVkbowMHzpYw1jOwKR4ZWoisXUuB9ndKT+IExn+ET5DIuUiQZymPh31kOiq5eQ1oExMqbCri9fS2Ikvv/Sy5KLQdRLCKYtm3Cu1IvdjfqxzmIZEVrhEQD+7Hus1Ww2JajAk4DP0oQJoSMS2/adUqHkHFjIHKN8w2bRtCxrOTVGjIcBZzCv7f8/3syMSvwWAzxgOYnHsx0b9xaJUrLMU57SCgKssxTgvXSf4S6JR57OtVqngAopgIsuBB9Tf1eCwrStVT2QYjBWRwKlZidOiYn5Y/JPCqtgvg20Cnn39n2iSd1H+cu8D0gbAU9P/1VS/Yt7rBup0awqHqzPstWHDBkX3OtAG1SFyzhkzv5KSGcelaOI+g9W7yqESBmIrt2Z32f/bSRDxqHxgUL4vk3RmzJihiCO/6+QPIE58j5LAVOJEm6ZMVm1isjVEBAP+Cz2UydX9dMVhkrW2jQAAIABJREFUad15+53CvNlzSM5Z/cVdcl/DAjpd0p/30/WGn66geE2HTpeU3VB1ujDoUrt37ZavF31vAv6G1AzBkM9cobaH4tEo0rj4BSaa9Ycrl4uTwb3uNmgTilsbOvBaSWnA33uUV1vOVbl0oS3NLqMhwQx/1sZzYp33xPVMcSSnNQF/g61bgZyINOjUZSuUQ8vQJtpVkc7hHu27oNcZnMNYLFMbD8QHs1adwyi6XRiIk0RHDN2TTz7pMQ7n4vps+gyJDUoQOb0VPsloM19XIDxjAeeggDfKXbS6W1au3SyPP/5YPkbkNt/UqVM1KZuboyCn27oZea+ANrmAv2m9CWgTA/4sFUa4TikE/M/Gn7su8UpOWBUdZZjhHw9u+eu0O2RkPTiH8+l0JuB/y3W4TBiR+Pl4nNxKnQ7c0c2Gp9OF3IAhGrGnuDbi3VxtNuUwpq6alwBD+JFKJgN70lAPuY3WVWOzNFNvRcUFCZKFmqnvcSE0fxX6n62Np0TlJ2o+h49y9d0smNSAAQzyxd/WUr+nz7bQKQtt4j0zkITDJigsHE5rlhXUeRANraE91f8MlyXnIhD1ajodIxDfffedvPDCCx540yFJ3vtgkjSrFC5nd68AgqUE2kMVNxvXcxWYDcyeZGfjAVmD7lep/UD5/Osf5LVXX/kDApm6InU66nb+CgB/AHEiR8WDNvkrcfLB1OlWoina7yevnoJI1qoRiR695NJh5Mmit9jSb++XuPADAfGKn1JywuRSVpjEFUvR2OrVjjy4AwgQiCsOrqsVks3BCEG5Fk9L5Vr9IGKY+WWsThILqyVx05A9sS9EFjB2PE13RgTGl4SJU8KyEPR0VEQKhcikbhSM3cHfdZrxHaJXcmA1cx4YLmMjXzZScewgCimCKcAdamYaPiyGFEy2WucDQxWWzxZINinSsj4SVUCnc2xP11XzI1iV/VM0JdmBMv9tm7SSWzt0lfdmTpbE1CR0/xkgjarWDQT8cdn16HSMtX722Wfy5ptv5iMSEsVzL7woAzvVAdGtlEtII2ClqJKo8E7nLwk8B5shBZZ1EtaThFo+prQUbdRH/v3WRPni8xl/IDparQ888ID+9Vuwfut1FKBNxSNYtYkgTuV0SEHUvFdm+MOfVa2srECOBMNgV4M2kehovd52ay9JgfWaeClNls8cLF0q7MqHMjmTHimnUotK8xhYZFchOpIjdbpNF2KkVez5AhEJwKhunCrhZW7itwwNWOiR6lwgAvrpvv35B/kVSjh1lQowcOpAKf9FE3OCpAxySJuhxfqiX5eqVU7ncDuEmH5G6IyTHRFeFPDyDoAMLVGKYJHvru1uUlg4USkk2l5oy/7zisXaD4LW830DhkuTOsjAhx+N7qZAjb4ApJ6MSq1Xbbzn55aG+4YhovLeJxO1/RT9dP1vvVOee+slhMEuajtORlE0EYjWOPYhw2Z0r1wNxEmie+eddzSPwZ8bQaIYO+5+efwuhNYu/CbnoYcnAf3CQ1HXlCDM1qPfE7/HImejBP2Uce1lwj/elGXLliio1n+QkPv06aOVAwrjdEzMIeCXEkjh6gbEierqMGW1ahPg6lM+mSp79+65Zi2TaDhSH53wiGTHp8MvBJ1uZj+5t8FezwnsYq8HL0VJ97jTCsAo7CDR0U+38EQl4OmMTqfEhb/BYPHpHX6W5MzqiHfS5WEqInkKk3KpIvL1wu+0QmUoTPwKSMypU7U2rLwVJiIBJboFHK0L2LGG2WBwTbRD47ifV5PokA0GmD3LOjDxhnoWiY5JNQtR4sH5+3p17CYLgdil4UGL8oGhYxR6RCL0u0OYixsKxd9UhzduFRf510qcWNAAiFMAJ/pdEuE0LQedji2m9h3Yr8+oguoJirjF9VovGE7qEIAmNtJ6vQqIk+KVRDBnzpx8RJeOKFPfnp3l9ft7wLnOlptEfaSjPSckhBbANqmWkTDUoksUU+7Hd08LKSUDnv5QjgHhXBD2TvHasmVLmThxoolPWzEd4HQI+APapIk5AHGqIUHr1bVTp74RXTVGtu3eiaKIbF5i9JsrHQriRNqegjiRDcZmiasAbepTch62jbnCEF2kHE6Gc7gikMPXIjooyYt/ryQ9Kv3uGRJsWBJS7SbJaPk5choIZrQwdC+UQ3IFqBCikegM6jrkBnFodcQ2muRcmg0G66o1qiD9uHieWrxR4NKd0DXxx1/maTZYZEQkOE1n+RHpgJoNBlfMrUgp/GnJAtzdoGZv795bowVML6SP8C8jH4Ti31hRvt5B+mLAn6AEO0ZDeGYLORCnVvC0/sEDhw/IRbQQrRhXSSpXjJNtO7YpHL9WzdqIkKDoIXRXcnQmqWslTuh0i2G9Fuano65NI2LJEnAmW7NEkcF4h3f+epd0BdKEqBMejrvxd+q8LEjELDSdVd0rRiV45sO58u3ybQr49B90xVSuXFljsMwOdDFYf8B/3ODRAFzAeoUXwJT0R+w1HdEEtmnSqk2IvR44fkgSMAnXygYLBxtv1ripxB88g3EFyfkzB6Vs6kyJDkUHHVpqEB/Hzqej7lq6dGtcWtm201f1hS0ncy/P3bZw+0W5tWlpC5vGRJVqIDm170e1yqKQrNDn3EVcMBt75Q4iYW1DJtiBI4fV2R4NE70i2hftQt4ndb/i0O8ql6+s+Qc0DrhhquH33Yf2GscwFqp2tVrq/+MRDP2yLtow7cF5bUiC79yAd925B4aSdvvOlfYADFQCcXNBNXKhIE5XL8/oneRwhCWZ2KvPAiYPxAJH4Lp3kNy+jsnWbW9CsjXE6wf/hmF2UcajK2OLek1NC09eivsZECcK6FwjDMZIAd0mtGSz6WrBHPx9ZHcZ3KOVgTYVYADOteRcjH7C4jqmgMs+8e63snTTQUWZOEe8U7OI22NNO69zki9HYgyaQ5tKnC4xh5U4LcqEIykNlAnblZ9FzO5aKBOWlegM7pB0DAV0mGjNrs60wMJdlUt4wjMuSWbqJYmKqWwsQ0y81/nYzSS5IuvAQUwlnP5NSpWtpvfSibnM6AEC8AAUaFJN/tkw4EkuttV3THVx3tCANfPYrkgP43vjO2n/MkwkG674k4+IhiU6mMRB6BGJiamNdiBavIdDNlXfqXSb73BQGqMlXMlFK+yiqj+PcVPGWjUV070BE4RQtQnolJnffCk79sOQuKG1dGt/s0wCcjgRroVBt98tDaqZ3FKFyuMdWKqCpcIIbboSp9MwICxlOob37oWqg+FVKFMCBNdDerZriMiBMYL+7KGwdbhsXv98iXy5eItqC8yXcOKUpSuaNEHmmnWb5EeZjNROjnwD006dBXS0apONvaJU2GtvvQZIzNWdw64L4kv//BecwxmabM0COt4L6fyyrwHq5sIS1FCVn2Jo1bkSWr6KSBTpl6Exa6tvV0DHMAzjcsDCmx6j0G80qQTLb43CIkARc3E8rJ1VpTjBhBARPaLVBtQ/ZkaqaGElmPzV1XWoyqVskR+mE/poRi1nNt+1rec9nc6OkXqnJpmbafDUTwfi9Drm4BQNEbpMIkuV0L5klDrMh2DDOqPigPixGZiiqYk5e7Zo1OJKfjqCFNKwQQcPG45ssN+lV9sGMuGem1FGtvR/hS4pyPH43gvX7ZF3Z6+Qw3CV0Ugjs2DNu549e3rGREGUiSugEwBxsuawJboyQJn8fF0piHnIBCou/e7oDxAn8lyhpOay6pE3Ssq/QKkwLzzkzpPouGhXKMOlRaq1F6nLgjerpn4zEB1BiQegbLPCeMA5jK+4LCcfEbvHuXLz6tC0H+rGQcLIoLsHapV0k1frto1J+CZhmdp4hlt6w7eVpbyqU36CpHOYG8Nl8TtDguNXlAkIjSUzyC/xy+I1SzXDv0yp0trTdj7mnypCgxr1taOiNubTqk34F5xf4errTFFEf6kwzQUGoV44c0qev28IGg+3kZ63tFZ/IV0h/1sHDYx4QOwnTZoj87Ydld+xTo888oiMGXWf5zbJB+JEl+1ScL2QGXiJOewNpng6HGXQvOQs6tPpSU/Q/3G4alHBSquGBhsJR9gF0dbqYOVyvLzr16DLZLmU6RUKk9y1TvLdliKIYksbrnnKniFcf8M1XkIlfys6TJswWOHGzh9HHRBtPEcxVBGulWfGPaZWmZcjQRFqe4gxGcZxMVZYUqe0qyylp0g4JrVQS9lacavP5ssTHqUIY4OnMxzUKOk0NkiE3879XprUbYRQ0wG0yWwja7et1yYmvJwYQNUh+RtFGgCqJDq6TAzRlVaTMwhiNyspXs7Bqj259HtJht+vWvNG0rT/bbZDzv8WyWEYhEohx3nNRygfi6DC1oQMKdepl9z/3EvQLqCasDIWNuXqVSx0jbxX5EgQ6En5Ytupo6Q/ssFSWZUS78WS/qxUdOoazmEuUFFYK7f17A3n8DlDdNzJEItkwdzldKwePvqbHDp2RM4mnIOHDX1ckeAcWyJGagL7X71KNS15ysO1QNJesB6lmgVi1SaKKuVEOvEhagB8+v3M/EQXYFJX2CWW+H1nNBURrcofGjROjQv6wVybJq9FuCeiTXtQxlo9BIrveabxHgP+hGRZqqIYJ0dnppW2tXQEbC502WBbtmyCDpekUPmacdXVUCDKpB4MmZgStmS/5aQEcbLzNosiDr8PqX2IKiQe3K3Edn7zSlTQOqKWdpBuIpG2w/tJ+bo1C/TY/e8JUAMxEPmbvp4rJ7buVme1dujAZyVRYSq2dWeJadZOSlSoIqtWLNOS/mPgMimuiTnw02nVpvOXLmcmgtOxKCIGykqcb7z7huywMOfChmd0OtSiff4FdEFET1XsZGNMBMn+QwfkqwWzZcm+ZXI854RElouUzBB0v6ZjFwsbkYMFupgjcaGVpFu9Luio0l/q1q6jj6KyT+etFpHWErImuK7LxHMYI8UvK4cm0dFomRf/0fwDcjBbRNo/di2CjevJZQOWmqkNQn2DaGDTwsneULOjTO8rbStKsWxpScW8ijKoADYPwmSGcV5NPy0aTa4XhTln9F0ic1S8WqAAn5eAfIiU9FRUNoqWkpEl5NQZ+jRRtgOVONXlgQuVy2qha8ReyenWrZDeLRpJ0sp5Eo8qnjlZgDBxbnxBfIbeotBw+cbRAxCvLnrFmPSfJT/W/Du2bZdsnoX6K9Q3PeFBDmdK9EaULidxN/eSE1EVZe9vJ2RMf+Dp2O8Cup+6TLxsMKBMtE0TQJw/2S6IV6t/oaYyvMyD+g8SulyyET88e/qcvPn5u/LD4bmSXgWVJcuXlLiYOIkKj5K46DhNFD528ZjULldbdp/eLQdOHZDE04kSdixM7qpzpzw69GEpiwx3dqJhlU7CgTwfl5W51Om0DTj0CC2m4w4sNpsKawtxVs7k7qN/S61glvSHQcBeDhapbdLuTK0ScjdyNhKCH0OYi+uLlow0XApESCvSdKcx6Y8GxGlCcKZcholEBKOJsQb8UUfFmCxGV+T6UFXQgL/qexSxQA7P+RQYOZR/7dRF7uzSR154Fy6TSwkyFuDHFg2bq8tEG96BwEMY8Ec370WrF0mdPb9IWGoCCByEWYgqRMkR17SBtOzf24j1K+i710t43PCJp8/Kmk+/BhAULjYPbJH/DjSCghBePFu9uaTUaiEjbxug2WB8Z5Phj7xXB23ioEqj9ebbE9/WoojXIjo2uXjhH/+ULLhcVq5ZJY9OflKOVzgh9RrXQ7Z4snSv210yczJl4/GNUjychY4vQ2HOkFqxtSS6aLRER0bLycSTsvq31RJ/HM7RkxXkzTGvSrvW7axeZ8UQOJgJMZG1W+nrVT0CRyEHAHFthdg5cPSQyf6CJ79cLEo0gOuSsEpAp4iDh3/PwX06WbQMq0Mfpd+OBET/V+2qNWX3QfrtQIj4Tj3Ut+P1JF4u1k3tOyqal9U2Vd9VzmfGSGtVW29yUT1ggKvMZNqDOlQGX85VgiIHmzLjIzh8N8vN7TtL3+595F8fvCLx4H5jh46WZmgbT6IzbJaqBRNztsr8JXOl7oEVEpGBhKqr6N7K+cFhandoI4163WSiBv8F4fH9UgA2XTf9W0lmNyUQ4NWOYMDRTldsKCm1W8rou4cCfl9C11/bf+VrvakgzkqyFw7Si9dVFDFCWjZvKV9Mni6PzHpC8ppdlj4t+0ip8FKyeP9iuZB8ASUnUiXvIqiFUStVrPGXZXdjg6RsZRSMKVVBbqx+o+w+s1vW7l8rodtC5I3+r0jPzt11oqmka+tNy210ia3vQnNP4VwlvIgK9lcLUJ8Oug65XWU0ymtQpwGg3wv1d03MaXCDzEeOqUvM6QClfR6KZZMotShiG1ufDtQUhkm+pX03Pa+iEQv12P0TpE6lGpKhzXfNOJyxpa0rqXe6WJ+1GjS+qiBOf9UmQ7A0JMgtE8+hoR+4aDgIPxwxYAbFye1LAJkR5NxQ9p1Vp9sPTocEozr7SXQp1yQ6JTzcv3qb5tL41ps0J9fLaLsWm8MaUG9LQPLQplk/guAuXpPglIOD2ynRgdON6HWPzQbzqjYx4M+8V8RemcCCqk3HkA7HAjqFcE8dJueA0JvTp07L3c/dLWFtw6RF9RZSvUx1WbxvsRzdeVQiL0RK93rdUVzwFqmP0qslMYlsOLIP3GbhuoWyeO9iSYtJk3L1y0mtMrWkdLHSsmLfCsnblCufPvCxtGfpVBxea0k6dwnxIUyJuhmhS4QUwZrkYsyaB6JDgJ+7kIhmKuIsj08Hr6nE2RxFEX9WImQN3BtbttNKm3xvGjSsxDnXq8RZRHog1srz6iwG4U24bzxq2qHMA+KNDvnreqf6x8gxmYZ0/raWtmqTrQpl2qLDcYyxsgjl8d9PSB3U+muGnAiG2tJhhN2IqpxVyrF5iakmpfXpELJjjsSCX+b/KaLjjqeoja1dXRr36iKlEOcltzXQrD8eiswh3B/nj2/bLbt/XgGRCl/uNYCf7k4e0ZHT9RuMhtSANkFnNm2a0HqT2VxqSGiGf3nJRL0Q1X+uwbbPnTsvtz3QW07WOil3t74bAflkmb99vuTuypVBjQfJPx75h9RtUFfHQaw+8y6qVaumnft47N+zX154+wX5cseXEtE0Qm6uf7Nk5WbJ6v2rpfyecjL7b5+jI09sPqcsx0iDQQP+1rVivONh8sPyebJyM2oKY2HKlYnVmm8rt7CmMJLIoQrc0KAputH8oqKzOMRta1TmZDiJCnFRKOxMSVyyZrmxkMF1bgIAgE5YzQ7D31GwwnhP+s2Uy8Iq1dp4ugu5O4zexvGpkUHu5hujaSVl2qm7unmME3/w1VStOdzz5u5y9y195VkW0EEY7MGBo6UV2jTlwHFMbk9jjeG5zahPtwgc+89wOkcMJDwaFVVbNpEqLRpLidhovL+LugSILxvPunD0uBxes0XOHzxiNvjVuFABuiXRnQGnSyan632PlLEBf6PTxQOufgmtN5nhz4B/lVj58KMPFWN/Nbg6F2Ld9g2ytdxWiMKeUr54eZm1cZZkbc6Sd0a+I+MfHO8NY+vWreo0PPv7HikNfS4SC05kgjsmTpoof/3kr5LbNFeGth0qm05skj0798iwkoPllcf/RTmkIk7FGS1bUJlrMkwlTxVX/MkE1o5OVm1RaQvSODwc9VMSkraf4uThnuH4Sx2TFl8w/Y4Q0Rkgeo0g4C8tx0xrkfHZDOVoWEz1NoOHM5yOupsdI3VNx41dUJ3PUz3KNAHmT8YfSU6HDDi0Zdp/5BCqdjaWNqjuOfunOYpP7N65q9SIq6bFarRtvOV0hDbNXzJP6u1fDvGarHX//syhnJto5KIREh1XXkpVKi+R0SWVixF9kgxxn3D8tIpS1T1ZaepPHsrpKjWSZHC6MdDptPUmOZ0L+DMxxwX8YwBteun1l2TLpo1XbaeemHhJ1qVvkNgusTK4xWD5fOPncnbVWXl/2PuKzeeRgRfIwcttRt3Zzp07yaaVn0nLjvfKihW/SvPmzRU+xMA7D0Jjxs8YLyVbl5RG5RvJ+mPrpciOIvLdw7OkaTMEvb2kF8NUGISmc1pbfWslTqNfOe5sKnG6UJrlRFYvYiiKDowMODb9oAYtOohYqMaH2drdWpzOMmTStLZ811Aa1GJVzQwrc433THEd4z5RWwPrpYnYgK47l4oyRRVf1OmKAMyAPhwQY9wodHwn68YQiSqFhWLkQq1jw9jpo9x0ADoddM0aRzZKWCZCZteQSIXRixKfLUvL71imrF/XRHDlbM4n8ueojkR3vlxNSavWVDmda9PkZfgzIuFVbUJEgnBoNtDIF2Iq8MzPZk2TeTJf2rVoh4YbxWTJ0iUyuOJgmTl1pn4zFUX+ti//Xhp36S/7UeSPnG35/Nfkpl6Py5YtW7Wu2Z5fv5WWPQYj0cYE2YeNHSYzT8+UO269Q/ae2SsH9h2QMaXvk38++rypqEluQe4ArnIStdzWbgZhsqwEg9jWitQJUwcmHaSBFETfaVRyv6w1QqojGZsQpXzV29nRhu4U24rJRUeU0F17UFqpfIZaocZ/p5WZOEat2mSIX4Gm1NtwT63oZC1ujtGkJyJhG+P/5ItpsnX3dq2sTgNq3vKF2IzhUqNyVWmsIFFjLWsUCNyYtUx+QsHuMAth9ww056y2a6XkQn90YXTjKLkgPbn7XOE6t8kKPMrcocD9uP0igS4Zg7ISUXCvca40IqF+Ok3MgXhlhj/q052AIaFJsYXsIK3Y8/RgSWySKP2a9ZO5O+dKytoU2TRlkzRo0kCyEDyf8eYTkOMVpcfgRzRBt3nzZrL9l4elaZd3ASbYKXXq1pdvJz8Hy6iYDHjgOdWR9uzYIy3HtpTi7YqrW2XtkbVS42A1mf/i92pd8qCfjrkEGzZvlEmzPlbfX6GbsZBJZV+G4bcPko7o+5BNfcm23tTwlneNsTBNYg5RLFbm2odxvOSK1C0NQQeWQVtvsmPOHzr+mNabqtOlGgAEN9BktGlaD5cJC+j0uelWWQK9s3SpaDVu2E6dLhPXepNEfT7hvByD4aGlavFYU4rMhsp8vIkapqJ3XI1nO0T1vtA/CRSO6ZVr3XwkUKoN9G2qsRaAQDlSCKIDXg0QXw4L357WOB3wzm1kp4TYvPo16kmx6BLaQj6JGf6MSGQhUdpVbSoNTvevV/4tW7cUXuiaWePLUpdL89ubS93YuvLF4i/kjqJ3yPfTvpd9yFKa8e542Y/QzIPPzJD2PfuD6HZh1xaXX2b3ky79v5Zjp7KkHvIlF3z5gXwx5TFp2rit3PfUp6hVUlv6jewn36d9L93adJMdp3dI/NqLMu+vP0hDVBlXnQgTxUYjm7dulkkzpxodS/1iV9h7/o98u5ZN6Ub0GwLOcqOiO1x7UC+LTFfFphmy/p3GVB01mptqvWD2dmBZMm/VlIXZqk22D4bHAgwz4MLw9oZIDLc8feEMoispQDeXljIly8hvCB2y+Qkt8OJFwSEo9lk9yrYHpQRSJ7Ydkon72lZSPq71h8pSbg6okkJMKygBBoMXajGvrT5HXqtFhHzX6KYnt2dkhxEVF72xBEbHt/pTvSbSpGLmFcPpzhJpyElRomOGf8b5ZIhXOBnxh10QWabe1cDwvYP342pUGXpjBzridWwGFh8m6xevl4kDJ8mowQPlxXEogxCcLRUbDJLRExgAzpMDh45JdNByObPpISTYvCtJQd2AioVog1tg6ltPy4VDc9DhpqE8+s5qmTh5koyf/aA06thIjsUfk5RDKTLxlvekDxqHOB8YrVGGwE5AxIYxrkl4kV9+cnEVqWJaXgb4kJkETnbluDgpHgakK68zSpbGDrQLIjaxq9pkdDMz84r0oAilo9fOhlsTbb3JkmKEfXszZZEqvE5LUwTq4vFpHCOfx015HtZqhTLlkPRdVXYeYjXTPM3FjY4saTB7vjEGYyPw+kDLd8OqOBYtKYZF1j5t+uKBigNstExiL+ijIxyKDZNzCcXyjVE1VnJ0Im04jzpVhtL5rCAwAAPhMm2y/BtfOyfhD6uTWr+2ehGsTkeiYyVOtqEEiBNEd/zs73IpMbFQEOcXs7+Qtw+9La1atZITiSfkzNozsuyllRJ0fofMnzNe7n9hHoCbsVKveSttYrtrx1qJkCPy7eePSd8hr4Ioa0sDcLdSsGgOEJqds1E+/df9MuZvy+VsWojc9GxHJFfHSo2YGop+fa7Bs4jfjfCITl+Yuh3imNqW06FydTrs+nhE5xrjBshEE5fxxSxUJXA6ipsy3ZH4asG2A7xa24OS21iUDK8xRGd70rKwog34u+AXuYGrLGXlsLc8tAojsNhvTXlP1qOfRde2iEh06wO3z2qNptCf2LI+UCa0oH1qPlsScDx54LKqW1qOp2P04QYLqh1hWs6M3R5NV2/3zoqcZkdKH8zMzZYaOzTISJCkbd91TDbXbo9UI+zEGxcRS7jhHH42fX/NmpC4U5Dfi9abiXAOw5CAJUd9ifXp1mxYd1VO9+0P38qmEpukKypFJmQkyLdffCvr39gkJ7cvlfmzHpf/mbxJ4qq10L6iy5f/Isf3zECd2yw5daGEVCidBH0lTKo2GC6dOt+sVbp3bpwjb6B22oR/L5G8omWkzaMtpe/gvhITGSPLgJC9PbS3TBjxoL4uuRQXixNkpaCZCIoFBXGCS2m1JDs7lijCuFuhh7j2SAaxZJZS24NqmynPXjWXO4KxHMBZscZ1A1wfnkc8neGygeVwi8GFCgzDkCG5r7be1CI/xoL9esF3suvAHtSjayNdQHjz0EqK71inai1pULOeiieCSVUkQ6cz7ZEsEBWToERNLmsxc2YjUQVgcjcLANmW9a5qgnJ7EJPVO431i6sspZEOaL0ql1L+b+LNPELYst5JAiuO3UxzU3JDKnTNvrhDhqHKpY5fqzYFWm+a8q9lalaUL2d/iX6qhzRB40rHuk3rZFHYImndurXGTk+tPiXL//WrVCpTTB4a0EJr4G4RAAAYoklEQVQGjh0jIyZ8CGh0nhoNe/YisI8GaxfOn0FjYnSygWirVau6NGncEGPLkDf/fqdsWLlBpi04Jpu2bpOb/wfE2L68VCtdTdZvWC/P1npKxg0cpS+vjlcLkHQsXSdEiQ6LgR/Z4NjsPOPW4BGqHIBcyrRY8iYS511PWpdg7SaYREaRpPmstDytiDOzbyzPbHBLQ/N+scNCPA7E6YjbER0SW/BM1aV03Ix2MB6KqAqgU3wGETSMgDDdz9VR5jhY4vR3oIHXbt2QTwppDwsf9/WvmaZGXqEendZzoZ/RFQryX8TCPlpgKEA87rQzXgoWEOfb0zDRvF+tsGAmnvpoFHphdO3STUN6SZrhz4D/RVRtAnJYxSvKv8754Rs5dOhQoc7hnbt2yuyE2VKjZQ2JLR4r65esl/f7wz+HLteT/zlIDm//Shrf2FqatB8l5SrWx8IXkYTEbGDGcjAAQWY5gZ4ICB/fJltXTJG9m/ZLx9v/IXeOel4++HCiPPT1eGnTrY1GOPau3yuTer4vfbr1shnzloqsy0EtN+5yTc4OcBtyEC3BamuxKYHa/5FwqasYq84JSEMc2gQY33NAU17m7kolmhauFzryhRvU90esnT+YrmM0ZWIVFEri8hbX5GuEwjXyzdxvAUTYKy0aN5ebW3eSj+dM14Z0/XrermmU5HQ8GOrbvmcnysVO1oy3wNjcJvJsC7sRnPblf64Jf/OM0z79ItMjLp8498+BX8z7hUn+2Tdzxr+sDM/kpacfeBTx7HATBtOA/xkaEggcY1JYy+TQqSMSD2So30/n9HSu0cGDB2XslLHSuHdjKV8M8PaVP0vfqL7y3WffoYJnhiye+aJsXgaDAfFclDsRxLDh8Y6CM7ckwkYoiwUCh/8TNfGAakE/0xtBcJ3ueBDrf9mzXkf0HCEbT2yU/Qv3yc9PzpU6lWuZHeRbaNVFGPBnSMwZBHaG1JAAJzKFqHXLmWkgEpm9WcHFec6l2JH4jE5kqkwS6uQ/p4tOEacgThNT9TzAuNJzDuer2mQMCXIwckSFvHsTaYyd8OLF5G223tyxUXW6/j36yT+QDcaaw5psXZedrZlXa8r574BXYOqcaUp0HCcTnKn7kYCZFEPRqwnTWGzNBMNnfA/+zIPnmKvKCI1DEdEPyL/8jkvG4nd4f35Hax5bZLUW3cYztKgPLXgCdlk/jygbbDi6Uvgzz+u4sPkrxJSXR4Y/YIiOGEjXetOAOKHYosGFiqXAltTBUlzwM4ooxlFveqCrXGh4QdrXaK+IkrBtqBQ0eYP66XhcBE7/6L5Ncu7oTgT5T8rOzZ/AuIDugbBT2y5jpExsTSlXrYlUq9dcohCM5+H8dFHto6Rv074ya/MsKb0jWha9Pg8hKYgeBvxt3qtpCucqIlFBo+i1jUFstSROtpeH6UCcNtCuNEPnLd/Noi44YV580Vp9Cia1teUMmJSTYCFLtu6cU5JVt+M5zXuFy4RuDFxDBdp1xjZjxLh4T3zORdu+e4ecgf5brXo1hVetWr9GiemGho0VX6i4P7hnWIybnO7DLz9RscvQUu/evbVz9fHjx1F4uq1s3LhJYgHcZDogi1y3aYPWqNj8CxeyZWi21KxZE9GhzrILFvPGjRt13tu3b6/tNFl0h3XtGP5jbRIS186dO6Vt27ayf/9+JSJev3btWo0o0XXGbtlUszZt2iQVK1bUMW2Bu43XcEzLli2TOCB+ngKnIwBVY6/aehPV0cl9tEokFUh/W0vVjYy7gP9qBUl89uLk/8jHSZ9Jvy795GLqRVmxfEW+iIRhL+bIRHzw7Wfb4EXPIU0tWh56YQOg7qZikDu8iMSpmVKtSTWJioiSnUj6HlXiXvn7uGd8Is5YTHTYeia6GyO5FH7WTCt7OH1Py/ZTp1Nx61fvCZU3UPM/dNy2sKQcOoDVa2F3oiUkAkNNCI4PCxgTtI5pMGSxahOvotXndEst6e9vvSlyPh45KYBxlykbg8z6ksikP6p+uvJwoRDmTf2O0CnqdNvRi/ejOZ/pPatUqSJvvPGGSp5169ZpzsTs2bOlXr26mOemWvmcxa7PnTsnTz/9lDKLrl27Ikz5kHbTYW8vjotJNR06dNR7kVCZcPXaa68heboY7jdL7gMsfvny5coJSaCTJ0/W0rKnT59SYrvnngHyzTdztF9YJXSenDFjOlIgxyjxvfjSS1IFCeRPPvgodDo0S/G33mR9Ouo5KuttNrjChrQZGz6m4mkYioqMPYf2y23/ukPK3lRW4krFybqj6yR3e668PzQQe3ULnwQf4LT3x8uKBdPkln6jZeDod1CZsWi+iIeLvUa1ipL+zfrLkgNL5NyyczL36e+kQf2GGtQ3IScTYtIKTNZ77rzjCidSTkTYOeFFHH8gk11pQ0NTBh6l0CNKXBus5/01b5akQq7HFeH3bP4Hw2rKsTT5huMg2MD4wwz0CD/zV/oKyEltVU4q7DoOnTtqVEbZNiGyMJn06YeISGySbv9fc2cf22V1xfHj2KjxhagMHEhpyyQotVIgKKFAilo0SBRlQifbQIkbmhQrgntxoi5qfEGnUcOybIIbCoWA8rayVRTU4Vyim8iriyhC0eoEHS9CQd35fO+9z+9po8ZE//Axhqe/53nuPfecc8+997xWjbCLR45WvpWTPFi8kzPgwAoCc1jKnJG9nVc2r7fZ8/4oQvTsWexJcn7rkXGvOdO94Iww0RoaFjjTnWb9+lUqnwmJbVpa3lGhkcB053jK1qku+VZlTFdff50NH+7pJmbd40y3Tkw3a9a9CqaZP/8xZ6CfSmIh+YYOHerfzbZJk66w5uZml5b/tNraH9qiRQtd+g1UtP/cuXM8JezPxJC33e5M52Xifz7lOrnqZ9FgB9xlHOVwwHYUBM5wHdkvKSNS+D09whUb9cQNd/zC5u1bIIN8zxN6WtNGTy7z8hG7/4r723iZ/G3pAnv0vjpXr3xgJaf0sQtrZ9jocRMzaSQvkzn1drj8sI2qHOUVdvbb2nVrbcIx4+2Oqbd6lktcxsmIVFB4aoo6AeUg6VsD5ZUrCCLFKCSXdw0r8InGAOxsJSTR2wqpUPJdezrUBbltm98rnwh6rlhVO0kwpKtcj1CfZDUaIrZwTMDBE4mI4jVtLeFNh6HIv/v9vD/Yy56dYPiAKrtgaI01/r1JaS5KnIBnehgi0WB8hzPA+tc3+Z7uT9pvkxyHTJiUb//A9apIvp07dyiFbKdOnWzbtm1WWlqqpXqr16FNpbVYImHE7dvf0vDLysq0JMO8tMMySrv8izQrKSlVDmMmIYkV3/ScJj16FMuhgyWWMggss/SJzZj70tIytUWb3b0OW/2Pr1FWrL0pa1NrdOKUSw77FmyQyUEyhQvyTMRDOoR8Ii3uFDBm5jjb2afZKssqrVfnXvbES0/YkQ1H2vjT7XVt+z9WL7FP3M7qii07u9q9i33p2LrR/ekecH+6V+dbh/IONqT3EOt8XGdb/tJyK36thz3xmwbr6kpSufUowQuSCCkSYYTvUllLZydlBUCKIGGQNkjqBL/slDwj5IsMRTh/RknH2GAI7ceipItG9iTtZaDnWWxDUtBhUXs8k7t6vKdvSdLA6exDg13XpZvwGL5LTqj7fc9FImpcvkjdRWTYJx6Yg6oBp02Nm4ORm/z+rT2d25zjQSIdFNgbsslPaVhZrdj8J2eB5KbG72mTnz9IpPfzqV2ht2JOHBfp9/ReSh+R75dtALM6/w1j7Na1m90wpd7z03w7BuZ41qaP3OCvCH8kgHdCuoWC5jWc0ji5KThFOrDCyQ2d3eS519jh/oft0oGXulvOXvnDtWxusWN3H2vn9TnPLqi6wM7w6jRkDMfLYOOW9V6aqNFWb11t+07cZyf0PsEGlw7W6WzVq6us6JWONtc9hwe5e7mO6FGkkGtFUtY399ovRVGUPDC07/SLwJw2Ysq/Q2oTDB5UKHETyBLpPUhKeQYgQhyTOS3FQLCX4pSbDgJhPQ7a9eBWFUu+52GMe7pD7TJLQRGZhzhpxtKbFLN7cf2L9oGrEr53Sner6NXXk/Z4dSA/2g8bMMRKuntdC483AMajHP5/+aHjdwvnZCqTbLn4ht6k2OJf1U23o7w8a1Z6s/V/B6Wn6xAzWeIDp90dEoWZDcdHj4aPo/MhfKd9lT/769qnrO7Rejt4xkGrrqj2gnKe7urdLbZhl+eq+6+f0nb7S8kaxQfoRzs70Tp/x053PV6njp08ceKHtmn7Jiva4AllfnSfjfZki4qB5YI5HA75TnIyZFYrzJB9FTwZ1tXkbKhQSPGG7/3iMyXEpo1oAtK+EAnF2GJQTYr0CloZNmCMOxQxlrTR6TX0x32+9GaaiNr+okpwiUYAj6rMRhhpkmWdvwOMQQ29rGmFvJo3b9uqnMO/vudWz+L0vtVNutoG9R+kVGSC0RGAnmvXu28HaR/hz9MpqXmEkYiDtu9pLRBuEu604kdBku6BK+Ej9BX3rrwXcSDo49gyfsn2YfE9l6xFLr3LSsoUV5w5cX7UEgz+WQMgA08Gl25HdAIrEFaN+35J9rjkqu2/vfDyizZ9zi9tR/ed1qVXFzur5CzpbPjvkGdEb9nbYns8XK6ju5WfdMxJVtGtQu3yDIn3/pvvW/E7xTbrJ3fIHFQ48oVCv8oLEoNesqgqTpeSNph50oYu8qn0dBSFiwZ/ljaR2JlCejqkTdDTZadLv6GCjcw80aohAgnRwb6KA2covcmTwrNUejOrmBPA0BKKNUH7x9wJWAyHVcPbfGbtGjkwdPG0Ev1OO9OWrl6prKI1w0Z4CCcxEiE7qJZqh6MI64Tfa9Vpd9EXVoZQ8j08TKrNdEpPsRtplx4Cwp3Wjqs0SVOzbGdwBsjTOj07ioymbt4KoZahtXSRFkSndGKX/T8EGavDfpVTJ2sTMRKcXjMuxvXFB4j+KhZji/QK+xefrRAtJarRTPDe0Bfd9+cHbOHmxdZa3GpFXbwUumdr6tst6O6If2Xdf2//e7bnwB7FvX7oBW+LthfZuPIf2LSJ1wrxIcFNbgB4Tjgc0rllmAxOkAwuFIWDwkw7oTm4tfsy93EsEpK+g2HluuPPSTIYxIGmq777FrZRJGIqeZmhM2Qv0N5Se8HcjPf7UHrTf49Zm7Rwx9MLniRi4oy76SrYb9EDeoI7eZJwQiXVrSwVSDbvotWX/cyvMR7mOrjOjgsv5jAfEneFFByclIMJq/A74yRRkBiS1UozInKKv8fhCi9lrRrpIRNVLlzRJy+dJPkWUsgO3g6PUdIpM5a3o0xWAjGY1lANSU8XmG5fKPXtjQSvgUiICJiygvvHhT0dLQXephgbS2FIYe8BN6//xxY2eWTWa27sP7LTPj7efz/GXwRXCAnfBnX4sIP17Fhs5/YeYeNqxlofTxQTBhvUFrjotBLIHK9AxLin4+SJETuI5gx5ckuii8z2WkCsJID0dCzLdBP9S5RZioo5qZx6/CZgKuSWSwb/HNJhWmAMJ+Dc0d7/ypw4o8Uj0++xvGpPF/V0EY5Uhl3lNfMwBnKpfcHok0Rp1vK08XtO8MHiARyR0QgSQoJR8h16gqdsYgZFutz52+w7w1Aw26kebhZqmcMjdTbwp8ONPmPaQCTBz0qQ2XMLsg/4EWDKrn7As6vj6/WRB4IEmyQ53dp7aUTnPW9Dng4Ih8gM2qeglHVksd9LISJ0R9bwN97eoeP6215Z8ZD7zx3tNaZQevbu1dv6nH6ah8Bi6wxSJmsVHy7qpTqSA18XbIfso5hdKddIBoe/JbupX8nAnVrkX1UwZLmXwT8RMwxCyXtweU8mrASNJEChvGa+L7lW6VnwM8vjAw8O1QZzPOa/oS88O5TOzA80beQ5EhhJileu8t8VYGT0OBdk7vD5hSzCIbpkdt/ofiDbrivSMekJx1E6M7HZG+OWFFVDkZxqAjxmTpwFfgsMyaTxtrK0GOlD8AiOlQQpl7oDXDJ5eeYwyonTxfqnyZMh9312m5eo7Z/nXV4+69vELm0Xy89785v/+5cZbxhzgQm/rlF9VTp8XXB81Xbe9bTCznQkZUXl1DaMDWVgQ0OD9e3b1+bNmyf/upO9FORDDz2kE8hjj3kAzcUXS6lI6k/MI+Xl5Xq3tLTUqkdU28KGhR7PcLRd6iXXly1bZrs9pewkr1f19NNP25YtW2Tnw7ZHHCzmGrKB0zbtYFKhEgtLKiUkx48fL9MNCs8pU6Z4hNlL0pLX1dUpnraxsVHqHv5FWlx55ZVunhlnzz//vGqe4tuHhhx9Fd8DP/BQughbJKWG+I5v+HbN2rVKDHnt1Gt1zF+wIGj6GSf3ZJYfM8adHLxeA7ZNTFBNTU3yzsEKsG7dOjmgkoaVcE7GjJJ2rbfLBQy8T2lM0nPMmDHD7rrrLilUTz31VJt0xSS71ZMTYXjHflpdXW133323YKRfvnnkkUdiW1fbjh1vqYo1+0GqTa9atUo4QoF80003GZkysYV27dpVfWPmOuBeF9D3Xrc+YFt98sknbfLkyWp75cqV2qODe/AMnKVlpXoXmowePVpjw2wGXrkndgaewXWtpqZGJjlWBHCqyeiMtnnLJiSlb3ddEUmy53TNnz9fpbhhhLFjx9qwYcNkvyspKRFBYDLsdRh3Z86cKUArKirs+uuvFyOef/75Vl9fLwJho5s+fbq05XzD+yDmNrfJ8ftzzz0nRnjwwQf1/X73LMWAPHLkSL3DRUgjxGQAt9zi7k8PP2wbPZcwRTNgRBBMJkiIfPvtHifrF4meQRST584771S2cRiSi++Bg8JvwH355ZeLUFyMj99hNIiMxv2qq64S4s7xEpOMa/jw4fqG8cC0U6dOtRtvvFEE5l/qN8DkwPL4448LLtpasmSJ7JZclKxkkpGiFSLDyJdddpn6gxF4PmrUKL0LPulv4sSJGcPi/AouuGAgGJvaq1y0NXv2bDE4uF6+fLlgBB8IDkyOlEJPDA2dcAi4+eabZaiH5tBr2rRpKoACo2OXJX4ZJuTie5TMCKM0GYDvoosuEkNSVRvBAYxlZWX6hgnV7BaTwHSyMoTTBRfShGzZAElDqW4oXgQMCEIza3iGoRmPBe5BIH+DPAjH7L7wwtEKImHmMDjaYEYhzUAGkggdGhKUQWLSgemYKYmBYAiQQYr6fl7nnsEAB3Wp8LJYvHixGBfNOUZuLhCYpBJmn2effVZwJ6Zj9iPp2jMdMxYPC2YpnhcgGVyAcAi/a9cuEZN+uWBkmJDaWEuXLlW5Iv4HJio/I0WBmwnKt0hvLoiIdAVnJ3qKMPqD2DD7ZzHdhAkTRAcuJBVeJIwxMR2TkIIl7ZmOibpixQqtCNAVSQdD1tbWimnANZNk0aJFklS0+dRTq30iNwrn2FKR5gMHDtQYWKm4+BfGgw6sbMDE2JB6jAMGI7v7JWMusfG141X9cJsnIe/uxZ/FdCyvBHNwxCc9Axe/QpRDHk64Zs0zvoTs9SXleDWItwGSj2WRQsO7XZGJWQnkgTSAZ3AHXCdDUDbI5ze+YQYxWOJqWfaw7VF4pKpqiBj2oKeRhTH5BmMy1yBHzID+AzQzmVm0wezDxse7LKv8vu2Nbbbh1Q2CHYRVVlbKNERfG9zxFFsj71ZVVQk5MHjXk7va93sFdx2+69+/0pezwWLg5uadsitCOCQQcMNcSGP+pm/GxTIEcYCPvlgR6Bf4iot7CDf8zhKGLZLD55AhVbpHElNy89xzz9Nyiz3zu55K4+zBZ1vjXxrVDkRl4uB6xMVEIX0++OLCCL/HPbM3OePR18iRNc7MWyQYmNDkAma5h57HuTGf91c7YzEemBfpxNgx4DM+XJtaSfXVUqAXtGMbgbcJu9by8jPUTsBTs8YPnqA/jgVIVPCL8MEmS9FqCj0Xe1kvMV1isr1eGgiNt8VwRyWr8acwGYhCJ33IT6TysJVnBmajoF/ixZDvLSzTSE8QgEIQxIV77IOpHpcf2R0hROqjHycpDRH7goUjuX8v26D3z8BwZEQSpzakd8JnTV614V655vASQT+EY6IyfYdnql6NPdn/I+ww2SIZA2qKzA7psBILq9OpjyW0j5Xhi8YVxvhZMLWBDziw+/qbxN7SZ7AE+N8+fjla8qePH4aA+OBaTpmkgQA/aBDQw3Gijem6lLoMjxV5yPj4fO9I26Kft9/qE5k8zVLb0RdtqyQ6wsWV9/4+F/U1oFtQvrellyo2cgqNlTGBBzyCzwIdgjUGGJR53t855H2jm2Vyd3a/SSnFE9OpV7/I9M3sJTY0QhUYITIHx+Vw/P7qlwJCdIp3QByx9JF0b0GFFcxfQRX35fv8FMKmsL0IZqGvPNxQOLT7dY3pi7CSpX9gnEm9kbvPw9D+XTlt4WgBPvKdtGsrP+4w5ohb7j+nry9DyYwWtBEB+DycJVzDuBSV4TCZzw39fxmN/fsD7Ke6AAAAAElFTkSuQmCC;horizontal=1;labelPosition=center;align=center;fontFamily=Verdana;fontStyle=0;movable=1;resizable=1;rotatable=1;deletable=1;editable=1;locked=0;connectable=1;" vertex="1" parent="1">
          <mxGeometry x="850" y="370" width="91.46" height="60" as="geometry" />
        </mxCell>
        <mxCell id="H7RTySpPC0p8DqEm5PfO-13" value="" style="shape=image;verticalLabelPosition=bottom;labelBackgroundColor=default;verticalAlign=top;aspect=fixed;imageAspect=0;image=data:image/png,iVBORw0KGgoAAAANSUhEUgAAAJ0AAABnCAYAAAAaL0CpAAAgAElEQVR4Xuy9d3xWVdY2vFJIQoBAIKGG3rv0IkUpgiCKKNIRpKnoMHYd53F0dMaxdxCwAaKC2CnSBKT33kGqdJKQ3vmua+29z30SCeB8z+/96zmIJPe5zzn77L32qtdaK+gyDvm/4/9m4P/hDAT9H9H9P5zt/3uUzsAfiY58L++y5ObmSlBIkFzOy5PL+BOEP/g6/tqfg4LwNXxHP+On/DzY/IZzly/n6ae8xl0dbD/hHfVr9nf+HBwUjGt4F/dt8x3+n+fycI53yn/gifZZvM7c0T0VP9tz5lP7NHwtCPcz3+MY/aMw5zApkqv387+3u7t518B1OkI7DjP+/Pc0Y8zV8bsj8J583h+FjX+OzXV8d/OTO4efPCFlPuef4KAQnsCbubG7GeE98Cz7h+uW756cEzv/ZpTuLL7nm2O33mYcmCulg4LzGHjTkBCMB9/xvXx+osvNzpGM5BTJTs7CoPMkqEiw5GRkKwEFXTYLxSM4NERCcC4rM0tXOAh/zVQH4fNQEKtITnq2t/yii3xZwsJDlXiy8Ry5HHhpjik0IlRys/MkNyeXS6gToDfGydCiRSQnE9fkWKLj53weXqhIWCjOZdnNYYkO14SEBGMsIZKVgTFyzDp+M9CQMAwwGO+WmW2mXp9l3i0EYwzG71lZeB7nCuN05BIWESJ5GEMOxsjPdXw8i+cVicAYs0CqOVhuvhAJmu+IjVskvIhkcx6xme1NdX5DMI+hmK/sjBz/6ypZcOzBeIcsjlGHZ4mO48c4OO5cXmfXhMPhF4uEh8nl3DzJwVzqK+kjOUbOcRHMcQ7mmOvJzWC3OOcLc5zLMeJaHT/fOygPax2MMWL8OscBhsDxBONzjpHn/Oup84h10dvgWeHFi0pEqeJKG7puTrxmXEqR9ORUKRIcKqkJaYbT8SIzr0oU/DcnyyyUex9+GBoRhsXAhGfnGqoOkJuERoZJLiaOi6X3M9NuiIkLhRc1DzHn+L/gUExCGM6lZ+KU2SVuAoNB7EFYrBwlpsCO4qWheFEeuSQYtxj2Xz6LE5CHSTdEEVjIIkUxRrxXHs6TGHU8XGj8yHcjcZL7+985KBjjxwLnpnODmruZ3Y+/2AzBIBr/GB0/1THil1xsovw8EfMI4uTC5nIevTuaO4dwjjF2zrNyHp43TBabEmO0RO1mRM/jXBFclw0GwI3lncPPJPhgEjzG7+bXzD/OkWDwfm5TBtaGa11E5yJHN6Wf74Hg8SwyjTwQPMela8kNGQqCDr8sRaOLS4nokobosjMyJeVMglJrRnqG5KRlWZZqp4VEFxmqa8HdZcnDEBg+LFIsXHdQXpYTqXbK+NI4l4MX44J7BwdLoiuGyUrlLsGO89kzQdxdmMjs1EzzKD1npiw4DHwQk6XX2UnCm5mNURRj5IKmOaILLKsZI4gOxOUIxM22jpE7OdvuMLfkGH8YzmXxWUp0gXEEgXZCi4abMeqrBZ7F8QWHg+h0/I7czAIFY/PqgqZiHAFWpHysCDbo5VwQHbm6eTkzVvxnxgjisQRpzpt5LFIcc4U147X+tdGNgXtyHCoBPb6IcWDzhpADp2CMdsO4OSa3J4cmHeQ7p3SAjUH1Q+mgwBgjMcfcvCQ671lm/MXA6dIz0qVkpRgJws65nHo+ATfJk1SIViO/sSuw44MhhnQC+LvdXfozdwkGlZtpdqRvC+kOJzHmOW7jY296jvqG28n2WbwFJ4Cs3UhUs5Nzc3IgJiHKuct5P8ttqENQ5JNjkdsIdpennuG6PH6PBA9uyfHnQi/VZ+CddBkxdi7IZUyO/m5ZAGmbY1R91IpyQ/PUlSCOwAFUx7UbiPREzhSMe+kCKkfPkdAQw814jmMNplpBzsb7YAwhOM9Hcgx5GCc3vXJWPiMYc4SDYi0IooubIY/zQhFozwVRPeB74p5GnzKLwPcjwfD9yRX1O9zQfH9ez/GTE+F+hmDNfua/vE65F0Wok1bK7TEmzIlKD/dlpTVydNAIxuk2iV6neqGZRz7DjYPnwsLC5GJSvARlpWVcTjx+AbpcOgYbUP4pq7m7MvG5n9PwjtSJQjHILN0lnC9lzHpQRHAw2WluB3mnJAw7gc9QfS+fZLws4SWKSmZqhpw+c1oXhxNYtkysxF9KlNxQ7iyKYRASuEixomDTxUrojVPz0uXimXMBkY9rixUtJpHFi0lC2iXd5WWiy+gLn71wTgm5ZJloHXPSxUQlAnfwuWHFIiSqeJRcOHte3yw8PFzCi4TLpeQkcBSMX/U2K/4wkRHhEZKWni4hxYpIVBE8N7yonLlwFuoJiK9ImJSLLSth0GkyU9IlFMpucmqK/HbiiCSlJkvx4sWldq3aUjykKPaNIZLzF89D581WAgd1SoSESunoaOiYWTh3QYmMIo4EGJIXJKVKllIiz8I15/B+1M0ogoW6FN6Z7xKOMfL+nGPOvapCfq5HbolzWSkZhkC9AwRn6SArKd1eYzk36QA0EIqNzesMHZJKddpUDyfBZitHxwf8fmioXEg4L0FpicmXM+PTJDUpVQ0HtbTAiUiZyg04CN7Lcind5XoOmwLsXEUGiJA/85xyEXzG3/mD211k/TyngyMn4q7GPXUncEAgpvMXzsurU96SjKwMJaqnxj4qM777Qvb9dkC5A18qFFy2aHikdG7TXnrf1FN+WDpP5i5doETF+3DyO7RqL80bNpX3Z3you/62Lj2la4cu8uI7/5aLCfHSDT8npSTJxh1bJQwT4TYAOWLJElFya+dbZNbcb3BtrtStWUeqV64m835ZCOKDPuPniiDY7jd2kSVrlklGZrr07HiLtGveWv7z4RsqSlo1aS739R+ulivn9bcTR2X6t1/I2Yvn1BgJBVFFl4yWAbfdJTfUayzp2Rny6odvyvn4i7rpsnOypXHdRjJ+6Fg5deEMzr2ln+na2EWsUqGyjBw0TEXvfya9IZlZhhFwoEXwbrz/nT36SIOa9dSiJSfT+cdakEtxEynXo6eCa0YOhnUh06LKpOtEOlDRTTqgzovb0FDhWlOqOQkFlUINEervVHk4V6QLXELDCC4BuZR0SYKSzyRczriYqqI1BDuIA3H6kopZpVzqBpTluI5KqaVcw4WpU0CWk9WTC9BSsi/Nf8JKYJdBN8iDYaKizJ0juy0BfSmZooWLEiznEy/IG9PexwKC6CKLyxP3TZDPf5ol+48e1AUqEVlCUjPSsGA5Oq4nRk6QnYf2ytxlC8ABQRB4QlZ2lnRo3l5uqNtYJs36WB9YFQszbsgoeXXq23IB3KJrm85yCUS3ee82EB2I1RISiSwKxN6jfXf5evH3huhq1JbqlarK/BUL8YxwI3qsDkrHxKg7h8vcFT/L7+dOS7P6TaRlgxvk4+8+17ka2qe/tGvSRgmFm/e9LybL4d+PSURYuNSuUkOO4OdUcMmypWPkSbxLxuUseWUKCBYGFJ+Ti+dXjC0vj4/4iyRmJcmrk96SLNyLnI33SElLVSLr1bWndL6hnfwb12ZkZqpKUqxoUXBTeCLw/Uq4xyPDH1YidHoi15lckfOvS2xVKA5cjQUaa+RglnM5KzAUHF31TkoeTz6bu4ZRElCdodpiuZ5b73DSAWgnOSlZglITki5nX8qQtJQ0pU5HudSJqNeRcpXTgc0qSybF6/fwseVm/J4uBPUBx814HXckryO1k7Dws/ue6sd6zrBzug4oHl6Z+Kakk+iKFZdnHnxCps35XDkdHz3ynuGyYdsG2X1gn97vgWFjIMrOybfzv1cx2axhE+nasYuULBYlp0EEEz+fqmKIBDsWRPfFD7P1GV1v7IzvdVXO+uX3s+RCYrwSPTlOjRo15Nz58zJl5ic61lrVqsu9dw+VxJRL8tPi+XLgt0M6lu6dusgNeF7FshXlqx+/llUb10iNKtWlTrVasnj1L1Ic43/6/kelTBkozpiv+Ph4efmD1yCK06QERN4TY/8qH86cKr+fPa3W3TMPPg6CypLXP3xbF5CEw81VPLKY/O3hJ3VOXvngdRBZlsSASAf0uUumfvmpZGRkSJN6DWXAHffIy++/KmngsNw49949RD6ZPR1EnSaREUXl6Qcf07HQulS9TTkRORjXybcWVo9TvVx1SXvO6rFcM28NLb24NdT1tHRAnV+lmuOQ1FFx75QU2A2pCcmX005fUvFqSd6wVKfTQZabq63exnP0L8EKczqdp2CqLKd1Rp3OZ10qhdICA1fBC9OE9z+Lt48oGSlnT5+W1z56V8UrJ/uJERNk5rzZyul4jL5ruGzevV22gEPxuO+uYZKQmgii+1HH3LV1Bxl2+2DJxO7esnuLTP1munIF6jOdW3aQPYf3yunz56RLh84yrO8g1ene+Ow9fHZGFfgJQ+6Xxo0ayYadW2TSjKk6xuoVK8tfho5X/WjK15/I1n079XUH9bpLbmrVUV1La7ARZsz9SqJLlIR4LilHTx2X+tVqywMDR+s9+G6/HzuJZ4GLgzNFgSAnDHtAPpozDRzylG6Yx8CJEpIT5aNvp0uRkCJSqVx5OQn9lkzgkeEPKkd+Y9q7kgn1IbZ0rNyHjfDOZxOVyOpXrysDbr1LXvvsbYh1IyXG3D0S95qmakREWIQ8du94qVglDrplhtH5PC5lGAglUlaK8Xe69VYxDjqgBZyVbPQ2Px1QZFKvy0cHVmwEdDrjklFphvdMBXdWoqNORx+dcinSBy03WmS0WqzOpW4JHqqb0bKiZYLBkxZBxY76lZtR37POSaV+pxeCWPV7qhfaHWTP0cdz9vxZeQU7XcVrsWLy9LjHVAdSTodjzMARsnnXNvzdqs8dhd/jwaW+XfADdL1QqVS2vNSsUhN6UAPJw7b6YMYUJToaLzHRpbHgWZJwKUFubt9Zht45UFLA6l//6B1wRUt0Ix6QBrh2C+4/kUSHo0blqvLXEQ/p/ad8BaLbs0PnffDt/eXmdp3U4jsff15emfoOlH2INkwsCatfj9uh43VX7sV3O3MaOhn1VYg/KvePjXpYPv/hSzkFTkeCf2j4ONl/5KDMnv8ddNYIaXtDS1mzZYNyu3GD7pOK5SvKyxNfU501MjJSalauLrsP7lGjozu4dpe2neWlD14FR0xXKTFu0GgdryO6J8FZy5cvr35Wp1Or9Wy5Gd08up5WWimLsRyR3grPG0HuRhqyOjp9kp6FirVWzwEtenI2qgj0K1qdkZyOhlRQ0mnqdHAMp6TChwSrCF+m7ymf/kUOBllOt4SzPP3WT1jxCOOfsUqpoU4r56Mgy3E/Z6bzc6MKGp2OfiLjkoBOl3BB3pz+gafTPT7yLzKTOt0xI9JGgdNt2UNOt13vPrLvULmYeFF+gE4XRq85OFoyrMJ+XW+XutVqygdffaREF9AvglTn69SivQzsebekZqbJ2zM+kDMgdi78w4PHQjzWBmFtl6ngEjyqx1WTh4eMw74Klo/AObfv36VjGdj7buna6WY40pOUCD/4cqocPnlExTk33iP3PSRx0VhkcELucH23aXg3GkngRI+NeBiGCXxoOM+D3G/2ou/k101r9HyvTrfI97/MxVxkyV3db5fmNzSTf0M8k8j4POpyYbAcqa/eP3yMehle/fhtSSPR4frRd98rn2C8lzAfjtPFRMeonqriG0RG3S0b17kAo2Uryr3oK+XaqBhWKWekFX2rZCLU7VU869VmVYuQDujiUT+d71BOWhT+0yzodEkSlHLh0uVsiNDU1DTVI3iHfB5xK1Y1hIGfVScwFoQZDH52PjYaC7yBGzy/QuuV1xi27YZnfEEMo2iEwOp7dAm8OhncgCIC7oSnHwCnmxPgdGOx4zfv3Cqbdm3Rx48ZcK9cgK707aIflbhiSpeR8hBLrRu3gCsjXN6fPln1JYpGih0+k0R3U5uOMrjvQNWvXgP3OeM43cjxUq9WXdmCZ3z4xUc6yTWqVgUB/UXnZsrMjw2nw7OH9B2gYjo9NR0EHyY//TJffloyX4muUoWK8uQDj0oQuAHfmjol3TWv8d1ALCSKJ6Hvcf6o6HNeSsPKnDrrU9mxbxe4coyKzw+gk9JYuLltR+l+Uzf517v/ATfNVk7ZEkS4fM1K5YS9u/WE8dROXnz/P0a8ktMNHqU6H109ERER8uS4v0Isl/WIjhYp1aRA9IZhL6wLhRwlGc6rlMu3msYK5bIrd3N0YFkUaYRSpTA6oJRMTlZDIvlyxrkkWK/Q6UjJEAUUB+qUBcVnw5IyXvXAoZaPDaHkYOc5zqhE5rzZDK9wyLinc8pTN9Awj1o+Hs3q9+hDOnvmLEQQxKvlBk+O+qvM+PErFTs8RvcfAV1tq2zeY3S6UdjN8SnQ6RZ8r5NzU6sbZUifAarDbd+3Q6bMnqZ+vca1G8j2A3t0+pTo2neSIXcMkKT4RHnzM3I6I14fHjJWGjZsCL1xm3w4HUSHC6rFVZEJQx9Uov5ozmeyDTod52kAdLrOLW804hObZ+/xgzJx2hS1ONs2bS3D7xho3Rt4t6hicurESXn9Y+qrEK+wwv86YrxM+36mnILBQ0Idc89Idf8cgz5IP2PDOvWVAOl6aQh3R9/ufeTNT99TQyIWBsHI/sPknU8n4XyaNKhRTwZiPH5ONxb3o85IK1053X0PS6U46HRp8MWROXBdOGtqT4BLwSebjciLAWoEDopP6mfZzhdn15RzQ5eXRofUJ4vD3RBUGQKdn9LLhdl4jhw/heKV1itdJmk0JHCUrl5Wjp89KUmXwAY9Ss43Du8XTnYdcIbE385Z6jacjfqfIyyV/3ZAGv8ka1YxrHRiTzLcFCHnzkKn87hBpDw1Bn6677+UfSQ63OR+7N512zbKtr3Uq+CuGACdLilBdTolujYdZMjt96iPcNu+7TIZO50velePO9SipAshB5yFRDf0DhgSiSC6T96TUyA6Lvxfht0vDRsYops0fYoOsXocdLp7QXTU6cCJtu21hgTEa2c8j0RMV8SBE4flXRABDYsOEN9DYU2SK5FjhEXi3bChXpn6FtwhCAVZne7DLz+Wk9DpqBqMhj+P+lxC8iXdjdRri8LqpBQoH1NO7/ce/I7US8kJR8A6JSdPSwPR1QLR3XY3XEJvqWFBH+cDg0YJ7893po74xOi/SPmKFZQInB7HOXNusRCE9HIRzzbhSKu3WQnEiApDmU7nsnaB6m0aYy7o7MctGEDQcB/DZWoqGM9ISipsh+SziZczE0B04HT0gpepWV71j1SatlchOo4tFA+MKx8nSb9fNC9D/4yxRQKECd+Nxl6t6exOmN3F+Kp5URLHBTz39U9o4VHvKSZ+TsfzrZq0kMPHDoPQEKWggj1gpJyG2CKHICcqDWOhfNlyUg7WXY2K1XSnU+cY2/8+WbN1rew6uFc9+p3AoQb17o8FSpO3YFGeVp0uGFbqOKlbvY5y0qlff6ZDrQHH8MND74dOB06Hz7btJ9FdlkHwwXXtCJ0OQIkiePaew/tk0lcfg+jypGPr9jL8rsGSfinVbn7EtEFEr33yDnTQeHVh3NOzn/wAkZyIdykGw2DY7QPls+9mKifj+ZYNb5BNGAejHbTk770HLpCvpitRlSlZWoaBk34IQ4EqQqO69eUeWK+vTH0TqkmmEusN8Blu3LlJndD8/clRE6RUiVJe2EylFSUZ48NWX3NWJtUlDcHRA+EozNKCYRyMD9Nf61elGDtm7BX+Wh/ww/AW+HkRH84DAap4TT6XeDkrMQ1El6aRhTI1ystb774lO3fu0N1d2EHZXbp0aXn+uRckJzFTxbCa4vnkphmIQUAYf5/hcDbgT8gSCZLsGCGic7ACX55MB6fRS5598En57JvPdUHJTTiBLmylfjBELNZt3SDfL5mrehXHlJmdKbVhRNwKRZx6Gb3wE4aPl4uXLsrn4JrcLDe37YRFG6SO5lemvGlEHJ7/KJT/+jXrQmeE9QofGsdbE366x6DTkegmfTFV3TW8x7A7B0n3zl1BdEDmgOh2HtoDzvOhGgY3teuoPsV0zKlZM0ZSQuX7pXPl5+WLNBxkMILg+lAFGCGhiHx3+iSdosrlKsJyf1RexthOnj6lKsKQOwfInHnfweWQBk5XRkbeNRQRl8nQ+dKkcf0GMvT2AfLS+6+odcz5JcdVXx/+bVCrjoyHMaSYRStXqc9xvZWDeWtmJI9KK8bWPdeWlUr4R/V3xnZBXD5BpctKMUykjqEDcy8lS/wXQtUKjmOj0yUmXc66yDBYmn6rdPVyMnfRPDl69Mg1iO6yFC9RQgYPGCypJ+KNgYGDL6LuFIf1soYPz3HAChC1wWhLgfoPERaJEHdzF85TsUTl9/ZuvWQlnK6nE85KiI3pEyYagZ3bFDu5QR0o/bBkN27ZjIU3QXCGssrFxkojOEyXrV+porw7HMaMkc7/5WddhIZYpA7gRnQTzcNnCQjNhGChenTuLnHwZR09flQWLVuq9ysbEys9ERaj+F2+aaUcOXZEuXb7lm2VQHm/UHCFM4gpLli6SNWMejXqSPtWbQ08jK4n4tgwH9R/V6xfJTsP7FaOxTE1a9RYbm7VWUNkKzesUoIph5jzrTAOFq5YIqfhu6QbpkmDxrL30H7JxIYsWbKkdGzbQRYuXaxWbBwMl3Yt2srcJfMkmzuCbilwXBJZKXy3XbPW6lAOQpiKxGI8CYFDwQQOT+edMhxCA/5YNxf79nEO4xZhwP8KMDNKTXWZuMgFaCufTpd+Nlk5HSk4pnYF1YfOnT2XLxieb5QkT7xYBEItHdt1kISDDHAboqPTWGV5GtmvpXYbNjOGBOFRzpBwiAbCo+h2AarEoBF1x9MgoNika4WsHkBl3amMY9L0z8HNIkpESh6fxYlW893oKYz3ETxIBZgWnhpJsGR1IovgeoyJrhwG5XWYarVDBwOkihBJsWY/URrkRry+aMliuovpGqLBQFHqVBCGeRS1gs+4qBy7nlN4V4RxP+gYINJwjueLwKqOxPjTElP0nWnl8nDjDyNODu+mm8lyLv5MJZ3EHkQolp0Lnqc0CMWzLuN9czMwWepbNShwjqkIQ1EgEHIjB7xVgwB/6e4w7iuzZgash3+sczhbncPmfu40GQy5ohHRjDoFkCsMEnCdsjB+h1wKwYOS6RxOpssEoE3qdAz0ktOdPH1SLsGQoFld2MGJ4aTVrl5Lkk7FG6wXuZ1zHtqgvu5yGg42LGbuZxaLO8hBftzAlCUDxEmriMTpWb8cCn3KDEYrJ7WxPx+PV3OeX7OmvhKglenUXzQcB33D0rW3aRVRC4JXvdPzSxkCJqzKA3EyNGgYiY6BE64gVF0dnjMwfTpTCZJUEKeah3YhqUYoiBMcAHPieZ4sZEvHqLAk65Zy+hQuJ4SLsCklGBNzt+LLADxVx7LOXDUGOEaPS1kjQN9NqdrMsY7RxLH9Y+TcK+OwIlTfz6pGOkZc7+bY0QdvQUmm7jH+tXTgIGcK9MV7qXhNQsA/Mz5VRQ2tlJhaFeXdie/Krl27VJco7KD+FA3F/e/P/F2yE9IBdMQucQvKl1LHIYPADPTinI2/6voYO90zJFQc2Gv0PBaUAElCZpxO5IiSbFt3FzkH59D6ChV1ARHBw4AS7OSaLxmgKbkUcW32M8OlcI5OTUJ+NM5syVT1Tsul6BIgOsM/RkxqKPRVclJDAJZr81/lANBXNWDu4PBmHBpMp3VPDmbH70AEoRgjozUKzbcr7d5bHfDE6ykG0FKApVqeUyiZHaPqzJxHjpEgVH8Ii+dIkBbE+ccxWsi+GhJGPwyAAaxuRg+EL+Bvxk9uSeAHx2gc0N5aWzrgHCcZnS75cnZiunI6jjS6Sjn58eef5OgReNctu78S4ZHooqJKyJCBQyXtzCWj01kupaAB3a1KYYHd5eBRTqewi8/7K3iShOk4oo+DKQTKBqqtY4lITV087lYDCrWi1REAQ3oMweUDjFrisM5PN0azsPYc9RT8qNB1//gp1t0YbXzS4846fgOQdJtA58yCSYMh9rzxO27DyeL4GTpyaGBLLMqxNIzEcxYWbmhW/8d3VgCpM9wcR1RigohW+JJ1xvu4pRmjAcB67M0m1fjnWN9LJ8ECAzAWD7FsiVYJ0YVDKckKrjVDo7yPZUQq2fBXw2D006WdTlI/HXdQbN1K8vakd2T7tm3gdAjQF3JQpyqNCMCLz78oaceAPLaGBPUNBXHCFeJ2sNIB/tJFQqJSqLOPqHi+CPQ2fu6JFsvBeCVDKNl0aqqD3IgOPZj0wl2uQFP7EHuKcGxaUwqdcgOwz9TkG5zPRoDbskvv3xBAuHgv5j54G8Zep2MkhIuIaZfaZrkNz5EzGNeQpRBeRz8dxphVcIxk9gRVMIcEXI/JSGrNYl6px6oYw/tlwsBznMTdltdwAQmqyOfWIkcnt8FacC7zu7xwDjqdcnRHrHauSGAM+GcDaApl11txdWWBeCglspJswN9HDwp511Ca0/fsVJOjK4jThVTNmtGQSE4Dp0u5COsVLhOKV3KG0tXA6YDa+O236+F0UTJ08BChIcJAsgMD6ORYbqbcgbvL7l4+nLtQEQw8x51gd42xugw8igtCAtQp4M62ok/hVxi8Q0p48Ch3D+UAhgvqjiWokC9MiDc5AO9DKBZv7BujilYSjOV0juMq0JH3841Rv6djNMFu/xiDFCBpwkhmjCQupscx/8vCuywHUJ0L9//t+BFJvHRJYmEpVwBoYR+s1BwQX1U4pksBJU1jxnBZjIMoHaAhGfhXeD//kBPpe/L+FlRhIeo6Pw7pzHOE2+uEGE4EK0M3id6D60SJgXNm7oxuaebYSjKFNhGkC+tYASL2nDIBhshwPcfF7ykdICEH3gYFcWL4ySn0052Ov5yOgD+tV+6umDoV5Rwg04p7srv4SsxODQl40uMqVJKkk9Y5rHkRgXxJbwep5WksJj3ycQBwMFV8jXjU09xdDk6jm8RcqJdhjNTpHPhQzzqdAruLz3QWX2DPgpYIMAQRU+ewT/G4bWGL6UQAACAASURBVBGAEhiMVuJyu98+MDwKMG7sZJ1MlW/2alp1cHiSA7j3snYdxmcdr0jl5OFZ1dw/1Du51jbphSrM5K8/lvU7N0uPTt3kzm63yz/efkkjLeMAT2rZqLmG2tSCT8+RYCRVbD+wU37Z+Ks3Ur+YDyhTdqqdTmkG4oZvCI1EYY0Y78VJR3bd1YqmyFa9yb4376ecw97PLQy/gk3kVACepiHKkN7AHndJdLnSCg5OIogzJT7pcg4mTnU6TGSpuBiNSFwv0VWJqyyXQHSKu7ccTGW51SlIQApZpu7AHcRBqmVL4qKuZtwRJgHaKevENwd2qGdRcuG5Q/lyjkC423g/3oO7i4cFJppxWILlLuRW83RGXmd0G3Ib1SdVT7T3IGe2ItABWQPj4JrhJCxAukn0sFavi67oAmgOrP2ubqzAGHUT4h50oXw2Z4Zs3blNfW+9u9wqryMUyEjFcDiAm9ZrhBguuCnnEWMKhb9ww47NMh9O5hYtmktRuK1MInrgcHvbfeLO+WnOv//z0WIBWnL3+LP3pCg9euwYck3OKfiAvkVuauV0KQj4pwPESfHKeaGfbhfAjhfOX7i2nw4O3DYtW0v8gTPW4WgDvZgYWlNuB/KlOS0Kj/J0Orsr7FsFLB+KDMszdHdRF6FOB90MOD83QQqZx8LSB6YWmGGWeiixMI0R+oYHx7ZXGm4JtwvdBbC482fYY1HBYXkjD7rjm22m+tHVoTqdXUnDAHCdheUrFtF/QKowrqwBc98YdZwgWubcpsQnI5KShcA8wBbwJdLhS3EaXgwEBe6ms2BvS1/cJkRFlm5YISNGjtCokEmo+u8PdQ4zV9eKVU2eAqGbOOyfP5wU/PXXX2XLxs0y+s5hUhxqAhcmBVArNSQI4lQ/HT4sXb28PPrUo7J27RqT7FLIQYdjWegfM6ZNl9yL6erT0V2uSR30Q1lF1vBwnTRN0iHL9vxQPGdWgmJTOYOfE9mXpthXP5qzprgM1npV6JRNk/SApgpEdOlxxrINnDN+NNULrTrg56Sq++HrAV/ZNcZoubaOn7m/1En5zuR05GbU2zhGBv9JG+r7NOPnGOlaWbJiKaBlKZq11gLJPLMAfyfMvGeXHlID+RnqeDf7T42MDbs3y5LVy2TosGFwW0X/10RHLsu/qQjCnzx5Uv8SkEBCrlOnDuDtZRS/998QNe+7evVq2bZ5i4wdeB/gWMjew/iV06mfjigTgjgxOWVrV5KZsz+XAwcOXDMMVhLpb+NGj5XMCynwPCP2imRrvxpIvqRecOovaggYNmT/UUtLk32N5PFEhPrpVKdzSSO8zOgXqtMR2QD9gLvT+JBIt/Tt2Qx/cAdj6Vl/If6lv8pEE0i8lFTGSOFz1ZdIhIWPS+kexxeYbKLQLctMnKhi6YwQ+unsGN0L8DpuPA2mq5+RAzH30hisTc3T5Ce9WZD8uGKBNKnVUA6dOaIA0/9580UFBowfNAbYwJaajKN+OvjGgvGeG/dukV82rJRhw4ZKqf+C6MjRqI8fPnxY5s2bJ2vWrFGCI2KFBEaCqVChgvTq1UsGDBighM0UyD9z+IludL97pXQ5EDDe2QNxZtFPR6LDZEVXKatY/XTstKsbEph0cIxyMWU1IsGdrItmRaLTuWlSK6JYLUXKvYAMZO6sllew+o6jAuVSTPS2ua6OGo0Jb0RjelKKprP5NGPDSam5OeiUb5act58ckwDRSCA3HLUTMU3u60F+vCEyamK4rNFDHZkapVk5WL4xGq6oPjbqqy7cx1HajaVWHO6jXFYZYrBsBCiVOlz5cuUQz20gi39dLClAALdr2koql62kbhSdR4yRwASiRxY7Tlf6z3E6ElsmQAHTpk2TL7/8UhISEpQAuYH9603uyu81Qs7Ic889J/Xr19ffr/fwE904wKxKcpx4ZwviBJ7ufIqCOGmdlalZQaaT0+3ff02UCZXDhx98WNJOEGpkRAAXSX1I1EUsd3JEw1IRGpu02f9qGVnWQe++lqZQR6ldPJVEpvwEfVnchfyIImYn8gM++WYGxhhIllaOYjlUwclx6gldDXfc0kd63tQd0CPGPA0jcgfDNWRrXniIxGLHSMSMhqI0NySAReO1tI41EkLXhd7UvByJirqsg3B5D7R6JwvexEN/JuKXkCZae/GX4pH5j7VAkD5YgxPWisQ11Pk2Asi6eO0ycDqI1z9BdEwcPwKn/8svvyzr1q3TRHJ/svmVCIocLiYmRl588UVp166dorqv5wgQ3VYkCd2rOh3XOjnNgThJdEy2xt1IdJ/PmXkdRHdZSpYqJePvHw+USYL1nAdAnHkuFOUJMRAk3QWEcF+hwI06Samk20QOI5HMwvEcgYLOIqYyvRVAzonISwhF5tT1H6zGlC39b+snt3W9VbmlWVLrrAGhaCgNj3WgBP+9uTG0iI3bGI6C3BjJ2RzRWepXIxfj1+w4y/6dC4jRiHAYGZOmTQUMf4t0RjZb75t7yuJVS6UEEDzlYstJ09qNgE5h6M7wdCW6PVtliSW66xWvJLBVq1Yp8ZwFWJa/X+9Bva4U1vqNN96QZs2aXRfHy0d0QHyXANFxTVNIdMnnGHuFc5h5rwRxIuB/PvE8QJzGsCjs4PyRLVcqX0ku/X7BiwsGvm9EqXKwAothVBmTwJ3NGGQBK0kVbCIpdKHMHVWwUXRB7IZhwg4ePCALfgU2zdb30O+oy8Q4mAseLl+TE9j2hjYASTZT9AgXkxxY64JYFSBgPRuCUWRsQX8WA/4EA9Cq9j1OmbMiai3atsBADLLaFSIyXHvK7I817bFbh5ulT5desmDZIqgAJSS2FAwLgDnpMlGCx4YJAXxmI9Irl6xfrpzueoiOBuHmzZvlscceU/FmEtP/3EGOx5zgyZMnKwE6VFFhdylIdNExZTRpR3W65LMgOqJMQHTMeyhTs5z8unaVnD71+1VjrySAokUjpUe3HpKGHAuFzLBqk6EOIzd9ROf5uhwhE/LDykweYQVMCUVwsIyYh2q196MhoVWboO+BEEhwzvHKhWcIizzLgQ/9AXotWUbrmHgyiE8lMCc2bUUkTZv0bzSKM1aWInRKfYEBfcAboxu/R3jcGLRKDSjBqQpqQNGQYMAf99WNaDksIepa0ahMKSmGkhnE0BH6FFsqBt78CPXD6fh9RLd0/YrrIjrqahcuXJCxY8eqsfDfEJwjLFq2w4cPV+K9lmHh1+nGgNNFx5ZRwGgKiY4gTpf3ykkoXbWspvldD56OjskO7TtI0rHzXgaQVuthCIhuDD+jtJYnXQV+z797Ic9l4gLtPGHp0BgjFnrku6cGkeFyyGOZL3ydGDOzA43BocVdXNIIriOR0v9EZV45Hwwfwt6N6DJVjxjv5PWqtIMLKTckreFTikKtzGRDR8S/6XmcVV0WhElR6IZORDFrrygIkvNh3SvuC4pVw7kNWzYqerlapSpSD4nTv25ZDUMuA/D8ZlIeGVzE7XkbBOJ1w67NEMG/XBfREQw7ZcoUeffddzVf9v/PQZ2a9/v000+levXqBqdYyOHndOoyAdKbhxfwTz/jAv4isXUqyXtT35edO3ZcdVc4aNM/nn1OdTqXtsidTC7gAv4eDAcLRxGhiTnWqjPLaw7jtnDBaPcmRtfS7HMSjxV/XljMOocJgSJyeC7qjaxH4g6Jq1zZslKrZi1ZuXqVxiNLRZWUhrXrKxJZa30Ui5Tm9ZrICvxOw4ciu13TlrJi02rlQEVAgDfCfbECaF511YBGu3XqKsvWLJdsWxCQiUBrt6zXrHuOqVPL9prUQ9cDgZrMXb2xRRtQKyqCqmvIL/YNwiQCju83p7wr67dvlG7tbpb+PfrKc++j0E9igjw8fKy0rHeDxlnd4TmH1/8KP93Qq/rpuClJGKNHj5Z9+wD5/y/EakGaoiExbtw4GT9+/FWNCj/RjUa9l+JK8HAOU6dj3qvmSFCnw64kp9u5dxdY8vlrRiSojLZp2QYFFRNN5jiNAMXhk5ocCJIuBxsic6BQ6+SlDqkckQ5jP8AQK2xcJuSW9LXZurzOZUIwgOOkaugCiYKyC1/NmyNLUUGJxkVFOK5ZcYlOVBJZLBAxLZu01ApPWowHbpMOgHjPQziJFiaD0l2QsT9v2c86Ocy5uAUw93nLFuq808q7DUo+C+lo+Vo8t2+P25DzsEQnnyK79009ZNWmtbqbmc86sHc/1E3pojqZhgGpAhCjiGuNy4SEF6L5svsO75cWTZtLR1Scmvb1TM3M79O1l9QBSJaegRAQLjkePIDI4QCnw3teyzlMItu9e7eMGTPGWP5X0dGvlwNSJ65bt6589NFHSsSFRS38RDcOnK5kNJKCQAfJeC91DmsKIgL8rC3LgP+va3+VU7+fuqZOR3Z9S1fqdJc0TKVRCL9MpU7EmmiE/Kjj1efTUMgPHcDOqrN+PN4B4SGtxEk4kLFhPReZB5Em5/CxSsKwZv38jSxdt1yV84qw/JjZtQS/k/MxV7QlkrDn/bJAf2fiz43N28j8lYtBdCg/BrHRpXVHmQeiInKCaYG3tOuC88h7wAhC8Flv5EoswPc1Foo/d956uyr9dHcQ6kXOtnrreo/oBvS8U7q1vVlDXM7FR1XBwPldlcs8JeIMJBSViI4CSQVrQg8PFc0ssMhNxYA/NmEwoEesNrUUAf9rcTqKwunTp8vrr7+uYvF/41C9FN6Djz/+WKMWhYlYR3RbEZEYA05XulyM6u9JqtMh9pp9CRn+9NNhMqIrx8rx0ycAV0cdMVuF/EqDVe4Cq6guMo0uIQVRYTzUfejYpW7k6pVQv7OWHwPr/I4JdpN9MFRkCFGhNQo9MlEEfTSh27zAhpTUOcwT5G4ONKCwG3AAZGuxctJ26KN8PhNR4irFyVbUoOP9WNiG0PqN2zeprhaJuCb1p40Inqt4xbs0RY04ZoKprog/zRvdAEfsZlUJeM+2qD23YQfS+qzLpy0SXragtgpRIAyrtcD3d+/fpwnQ1C87tb5RmjZoopXaCQ1Sw0Zh3AaI4KBNPyyYq2MIjwhH+mIHeefj9xXqNPSuQajL0tCURuN7MuCPsdM5vGjl0uvidE888YQsXbr0T7lIrkWcdBI///zz0rdv30LdJ35Odz8qZkWh7h/pwMZeUbXpFKo2oT4d15cgzlfeflW2bt1yVR2ACjudhq++/LqkH08wZj292shwigd8JRvlFhRFYQAjKPhnMr40B8DqdP6XC4VOlwclHTYadj2pipSIZBLUhCtTIQZB/SQtlm0OI3JZQZ2htEyCCCm6GLC2YppErG4XBWoaJqu4NI6JRbtxbQbKafjzQCiCqFuSs9Bi1dKtDnVCnRSWrIbSEPDX+LIlRt48TCFQBJM6SwfvyU3Ec1qHj/Aoo3a4g0YX5+Sbn76TWij8cxzZ/Z1adJAXp7yqDuIHUVuled0mOrfOx6c63b5tCINdndNxfCSOe++9V44B7XG1dNJrEVnB81Qn7rnnHnn22WevTXSbtqKG3zB1epPRsExGUGp88uUsTcyBgoeFiIZOt2Dpz3IcA706XN2kIN7TD0nLQKmQmM5ejJcf5rwhdYJXS0wx7E5McHJuUUnMiZTK4RexHibv0sPV+d+GeQOQsMczYqVKxAWIGQM2DEfxv8othktEDVS0BBdUGiAiFRZrJipXUvwYqLyFVvOeykVMzV6tlcJLaJWSyyoYwCT3FA1FkUOVY4QN8RzBACbC4Ti1wsnJjUmwQMo6bqwgUYIGmJVFZkxIvQVZBuBXNkqjEC4nCQxRGjCAASUcRrpnAsJgZRFSrIAChnsP7dNAe3VUZiqFagDk90F0D7H0Kzj6Rup0qFhwNZ2Oa3fq1Cl1cTCgf63Iw58hPLpL6CT+8MMPzbsU8LPqlHoB/61adYqcjvObTJxmvqpNUOxpvR79/RjKSlyHeEUIpw4qVTLDPzfzMhyHz0ufqE+laWVjaHKdjyRHysHEKOlR5QzBs4UeXIrM3GBZcLyi9Kp2SsKCDTKFf3ODIyWl5U+SGVQN/i8QIso0bAOcfubc2crdnMLkNSVxzTScr4NPBcEbFyITnPMkFoiOBwaMhocf3AZcigF4l5ij31M/I2vxWlCC56ez3gtyWVjj5GDONekCrKp3svA1OTDvY/173HAMs6lOZwP+FLVHTx83sVeUfShfpqzs3bdXg/zVUJGpVBQUcHJgVr+ib5LO4b1bAeK8esCfSv727dvV0tTXxzjIebNolDiDTvevMdLItTkW5vA6kCYlg7tWuTrng0V3sNFYdoz6IiMnV0KheEQHTje6H8J10OnodzU6HeDqWrWJEQjsjujKMbJjzy45j2qUrtL3lSiFA41AxlbbVm0k9WwS6r6ly/zJfeXBJjslS3H2VL5FjiUXk0NJJaVb3KlrE11eiCw6ESc9q5yQIhCtntmB+2R1nCdpRZpiTLlqWW7evkU+QEZ9CCxVvzvQP1br5vvD8BlALw+O8jdUv2QFdg3O0/emwE3ezYBQPUi95aQOoey4qlY9clyW11jq83NZu2qG8MgRWaOP1quvrvP3C3+U2jVqQbyeRPWBzvI/b/wTtZEvoGbd/dIKdeq08DU4x2XmT4DTUa9ctNL46QqLvdKzsGjRInnqqadUXyXBxZQqBhdMnBxDIhUHQbF9ARUKimEjVK9QRpIhNvcdPYuQVbiqLlHwS5II06AOVSobhdp3ObLtwEkjgXB/+usYpbiSMZGP00GnIyKJeq1XtSkdRJOCOCTFREztivL6e28oJ7maX4fcgnir//zrZck4mYRS7amy5uvB0q/GTvhcDcQoBDc8mVpMjiYXl44VzoLoCiMPwz2yQHS/niovnSuhJKpHdAa6lNv2K8kJa8HVUt3x0InfUE7iJ7W4XT5GwDYmlyJzM5i2/Ad2PP6UBqcbfOvdgfp1lsSvVlmKYEy6hlwdPuUIeA55qMK0vH4ZPosb5+lUzoKO66SQY8AkQHLLH+b/oMYNjYQbm7WR9xFTvoQoxVCUM2tQtQ58fjRCyK0AFYNzmDVOliIMdjXxWtByzcC47+naTF7/Sz+IcujbmBRysmQkPEVg45Vg1SbM1Ykz8SifW1SJjZ9T5+XnUdB11+04IiNe+lylC53ib731lnTs2PGK0Yl8frp+wwvodKyuDjxcGstKYCRMtl60fLEcP34dOh3ig3fd2U9STwIKlZYuC74aK6XlIHa8bceDF0vPBUgwG7kXRa0iXbiExSQEyYWMohKL70Jb8jhdXm62VGn1qNRuPBhiwGV3MWGE4TLodNoRhkau1Ze4j3mOuDubDG1QzMqAVTfTAjEgEuVs1tDgDlYIFLUof48MS82alK3JxIaQvdwEXK/df2jV2jrM+gUSCg0pjUgwlKYMxhPHDsKVgSws6kkRUFeoi2VBD1WCxKIzbOddhJ/UemXs9Rp+OhIdXSUUgfw5HTrwU8O6y7i+HdSZbZUEnTN9XwvP19Ai5kH/BGweFHCEP3HVbnnknW/wc6j6JslFhwwZckUncb6IBAodsSYfD41IaHV1JFsTT8d4YQxAnP95/WWbglh4srXhdDHy8kv/kbxLmSgOnSSrPr9bhtXbhXoaZvHJ6Y6lFJfDSVHStRLF69U5XSY43ZKTleSWyogRWp3OWKooT9D+B0mVxiAk6BaYAI14eI46ozcRxcIpzPWBOO3a22400OdoeRqtxTuYYKN9tliKnrRih8nnOqCpw/ypiobv0DApognhrqSCXUcStcZeTTcan0qni2iSrU3yEM9RhVmwarEcRDWqZk2bSvvGbWTmD7MUAtSzfVepVbWG6lCaLA7xxioCm4AyofV6NRAnxd/f/vY3mT9/vorCbGyWDx6/R7q1qguiKzx8VRhPKIrNOH3BRnn+o/nKAUl0gwYNkmeeeeYaRLcFtaIB4iwLECcrcWrVpvOs2kQQJ6o2gQOUqVZelq1aJr8jOEyWX9jBRYhEKKl3z9skA5zy/IVkWTn9TrmvwW5XBkR1uqPQ6fZfuj6dLgtccdFJGBJVT3qGhOEoIhkd5klKUBNwAFRuApcyAXPrWaF4g86zcNUS2UA/HP7EQPRXA9R7A8JLWkgG6FcWGly5bpU6hyMjWU6rqUYQtMEeKGH4XUMQuTAlUi0rM03ctClfID9DxwSxQw7m9TZTBdKwTEWZYDxmjH7yJpc1KBONqKjiHqJ159aivnCPm7vJgN53yTOvPKf9Lh4eNk5a39BKdTo6yxlqDIUhwdjrtaBN5DQTJkxQyDjLf5DiP/v7EGlZv6oaE3/2KIp3fWfWcnkbf/kzOTPxdYzpXglxkh+uPkpKoWEMub1XtSnzAvpIMNkaA2OpsN8vnNaiiFczs13yBRXghN/OImyTIctmDZd2ZfbA02aIlV32zkFcZoKYusX9fk1Dgjrd3GNVpH6pRCRaOfGqfg6JbPeelCjXDT8GkqeNeCUKBCl60HU0DAacGY2LuPIVUNWpvvyMiAFLc7G8VotGzWTBCsKhghU6dGPztghrmTAYJ+mJ0ROkcuUqpjgOm9AFqFp/dI33/KWwnBWjJdF4jcsAs6uqvkoWwrEl0fyLrRXswS3XrFkNh/xJ+Opq6JiXrflV0rLTpB0qQ5UvFeu1meK13FxEGi9ZC51u6JUNCRfuouVKC5a6OQntvcf6S4829ZD48+c5XQSk4AsfLwC326CcjoRWqVIlRSAXQ1HyghZsPvF6zwiAOIHUxlxo7FUrcZ4zIE7uhjK1KkiGwAeG4nqFC0MnYsBBUGjv4v7TqJuWLku/HiW1iu5HkritjgSiS8iMgD8MNdiuw3ol0X1/pKpUiATMSrNYzAjy8nIkpvXzUqH6HTAMWITbptyBeEzDNVbDBNHNB9Ex7AUOXRlEV59EB/2UnI1ERwwdw1omDAaiawai+3VhgOjQLKVy1SqKDlYOZnVENw+ssaZ1OmwZhYDhYup4aKsCS3QOnm7yPQjTYh2+AMmpjUzcIO554eQZWIgZWhyRCSysMs+eYWUBXw/NNUaJO5ToIF75noUZEiQ6cseRI0dqHgQJgIbEP8f2kiG3tMLPf57owqDSPPbOd/Ljqp1KdC4iVZgF+0fksCU61ekoXl3VJviXYpANNvdn1L49dvSazmH6aAbcPUCY2HMOCdurpxnxmmVnyYjX4hCvJaQbLNKC2Xn+Xc9FyMwNkcXQ6XpXgU4XYvx0PFS8wmWSnEedzohX9ki1NqJuFpYBWwbkxSaErci5GAZj5XGGscix6Vpgv4XVRJXgdy5wY3TVWbtlnSlSiD+DUKafGVnctRpygwg1bS1tJVErPtVAIJeimNGyqGpaYqTWLcJavExx1KKCvrRJ6nSsyYzvGqI2hsHUWZ9osjWLI96OvNd5cM5HoQFLLCI+zbFRWLK2CAtIEm4F8cpC34wpF0Z0Wr4BuhMdw2fOoLQtRHg6uPCEQd3lr/1v1J//zMF5Dkbd4jGvfCurN6HLkEWrkLBprHTp0uUPkYmChoSKV63EaQP+iqej15qGBKo2Pf70Y7Jh/XotGV/YQfYai1KrH0/5BCZJtpw/B53u8ztleH30NihAdDQkrofTGaKLkx5qSPgr/4Ag2/0EQ6IRiI4NeH21UtwAbSspDU9pg2OSgPO7GQQwQZouIcbQh3F5aKYVrsnWtpwBPZHnyMG0Nh5THv2cilg4wtAtZElVOntx/rpt7n5moBrwJ9HZQuAkiE/QsIQisyuQw7079ZAFvyzSjjtlUca2OWK39IMxTEiRz2ywTciRWHoVQ4L3pJ+VfjzG0EmErNB5T9/b5F8jOwEmRj+dL7fkGhRIJ1Nmiapy798myu5dAcgbjYmHHnpIAaIFcyf8zmHmSJRCNhjnUZHDGvAHp9Pq6pgMFwY7epScrvCBMRzELn4D+g8UJmvHwzm8ckY/GVmf1qudYKzCEXC6A3+K08WB08E5TOvVTgaZSGan+ZIa3BSMwyA2aD2z3ofWsSOxKLMJKASmHoqv6YYxcPV/JiPLVkTiR3Rj0FLF903rAroDfa4KOxASkybeeKBKm5wDctP2mnSnKGDBDNwF+HlP07rSUaahbI6Rlnj8hXjNNyXGrxiI7eJFRHiw0PSDIk8r33VcTHLvRQBxFsbp+B3GW0eMGKH3JdFR8b+xY2eZ+D9jJPg8emFYt9a1OR5DikUkvkwrGT72YYRHj3pxXMZ2b731Vvn3v//9B19dvoA/ssEIJeOhYbBUlJVIcyBOKOyENiWko8T/NXMkINKYI1GuglzcdwpVvDNkxZwR0i527xUMiZDr4nTU6X5SQyIBhoQjOfqLYCm3fluKx3RVnY4vtO/Ifvnq52/154LlTPlyBqliOsIUPBSoQv8US0ngJBEhVSvEyYg7hijkXUNlWj/O+kcsEWkVAsLdnQ9PH2TYGwP+mvGlqBkjZp2DmpWlClZt0vHZikhr161VZzCrptdH6dilUBNYO7lti9ZSIQrIYVrTdjrYQ40Z/lcL+NNw2LNnj4I3HY6O3LJ27dryydTJUuLcevRcTfLtgMJJLwj5wTkxDeVkbowMHzpYw1jOwKR4ZWoisXUuB9ndKT+IExn+ET5DIuUiQZymPh31kOiq5eQ1oExMqbCri9fS2Ikvv/Sy5KLQdRLCKYtm3Cu1IvdjfqxzmIZEVrhEQD+7Hus1Ww2JajAk4DP0oQJoSMS2/adUqHkHFjIHKN8w2bRtCxrOTVGjIcBZzCv7f8/3syMSvwWAzxgOYnHsx0b9xaJUrLMU57SCgKssxTgvXSf4S6JR57OtVqngAopgIsuBB9Tf1eCwrStVT2QYjBWRwKlZidOiYn5Y/JPCqtgvg20Cnn39n2iSd1H+cu8D0gbAU9P/1VS/Yt7rBup0awqHqzPstWHDBkX3OtAG1SFyzhkzv5KSGcelaOI+g9W7yqESBmIrt2Z32f/bSRDxqHxgUL4vk3RmzJihiCO/6+QPIE58j5LAVOJEm6ZMVm1isjVEBAP+Cz2UydX9dMVhkrW2jQAAIABJREFUad15+53CvNlzSM5Z/cVdcl/DAjpd0p/30/WGn66geE2HTpeU3VB1ujDoUrt37ZavF31vAv6G1AzBkM9cobaH4tEo0rj4BSaa9Ycrl4uTwb3uNmgTilsbOvBaSWnA33uUV1vOVbl0oS3NLqMhwQx/1sZzYp33xPVMcSSnNQF/g61bgZyINOjUZSuUQ8vQJtpVkc7hHu27oNcZnMNYLFMbD8QHs1adwyi6XRiIk0RHDN2TTz7pMQ7n4vps+gyJDUoQOb0VPsloM19XIDxjAeeggDfKXbS6W1au3SyPP/5YPkbkNt/UqVM1KZuboyCn27oZea+ANrmAv2m9CWgTA/4sFUa4TikE/M/Gn7su8UpOWBUdZZjhHw9u+eu0O2RkPTiH8+l0JuB/y3W4TBiR+Pl4nNxKnQ7c0c2Gp9OF3IAhGrGnuDbi3VxtNuUwpq6alwBD+JFKJgN70lAPuY3WVWOzNFNvRcUFCZKFmqnvcSE0fxX6n62Np0TlJ2o+h49y9d0smNSAAQzyxd/WUr+nz7bQKQtt4j0zkITDJigsHE5rlhXUeRANraE91f8MlyXnIhD1ajodIxDfffedvPDCCx540yFJ3vtgkjSrFC5nd68AgqUE2kMVNxvXcxWYDcyeZGfjAVmD7lep/UD5/Osf5LVXX/kDApm6InU66nb+CgB/AHEiR8WDNvkrcfLB1OlWoina7yevnoJI1qoRiR695NJh5Mmit9jSb++XuPADAfGKn1JywuRSVpjEFUvR2OrVjjy4AwgQiCsOrqsVks3BCEG5Fk9L5Vr9IGKY+WWsThILqyVx05A9sS9EFjB2PE13RgTGl4SJU8KyEPR0VEQKhcikbhSM3cHfdZrxHaJXcmA1cx4YLmMjXzZScewgCimCKcAdamYaPiyGFEy2WucDQxWWzxZINinSsj4SVUCnc2xP11XzI1iV/VM0JdmBMv9tm7SSWzt0lfdmTpbE1CR0/xkgjarWDQT8cdn16HSMtX722Wfy5ptv5iMSEsVzL7woAzvVAdGtlEtII2ClqJKo8E7nLwk8B5shBZZ1EtaThFo+prQUbdRH/v3WRPni8xl/IDparQ888ID+9Vuwfut1FKBNxSNYtYkgTuV0SEHUvFdm+MOfVa2srECOBMNgV4M2kehovd52ay9JgfWaeClNls8cLF0q7MqHMjmTHimnUotK8xhYZFchOpIjdbpNF2KkVez5AhEJwKhunCrhZW7itwwNWOiR6lwgAvrpvv35B/kVSjh1lQowcOpAKf9FE3OCpAxySJuhxfqiX5eqVU7ncDuEmH5G6IyTHRFeFPDyDoAMLVGKYJHvru1uUlg4USkk2l5oy/7zisXaD4LW830DhkuTOsjAhx+N7qZAjb4ApJ6MSq1Xbbzn55aG+4YhovLeJxO1/RT9dP1vvVOee+slhMEuajtORlE0EYjWOPYhw2Z0r1wNxEmie+eddzSPwZ8bQaIYO+5+efwuhNYu/CbnoYcnAf3CQ1HXlCDM1qPfE7/HImejBP2Uce1lwj/elGXLliio1n+QkPv06aOVAwrjdEzMIeCXEkjh6gbEierqMGW1ahPg6lM+mSp79+65Zi2TaDhSH53wiGTHp8MvBJ1uZj+5t8FezwnsYq8HL0VJ97jTCsAo7CDR0U+38EQl4OmMTqfEhb/BYPHpHX6W5MzqiHfS5WEqInkKk3KpIvL1wu+0QmUoTPwKSMypU7U2rLwVJiIBJboFHK0L2LGG2WBwTbRD47ifV5PokA0GmD3LOjDxhnoWiY5JNQtR4sH5+3p17CYLgdil4UGL8oGhYxR6RCL0u0OYixsKxd9UhzduFRf510qcWNAAiFMAJ/pdEuE0LQedji2m9h3Yr8+oguoJirjF9VovGE7qEIAmNtJ6vQqIk+KVRDBnzpx8RJeOKFPfnp3l9ft7wLnOlptEfaSjPSckhBbANqmWkTDUoksUU+7Hd08LKSUDnv5QjgHhXBD2TvHasmVLmThxoolPWzEd4HQI+APapIk5AHGqIUHr1bVTp74RXTVGtu3eiaKIbF5i9JsrHQriRNqegjiRDcZmiasAbepTch62jbnCEF2kHE6Gc7gikMPXIjooyYt/ryQ9Kv3uGRJsWBJS7SbJaPk5choIZrQwdC+UQ3IFqBCikegM6jrkBnFodcQ2muRcmg0G66o1qiD9uHieWrxR4NKd0DXxx1/maTZYZEQkOE1n+RHpgJoNBlfMrUgp/GnJAtzdoGZv795bowVML6SP8C8jH4Ti31hRvt5B+mLAn6AEO0ZDeGYLORCnVvC0/sEDhw/IRbQQrRhXSSpXjJNtO7YpHL9WzdqIkKDoIXRXcnQmqWslTuh0i2G9Fuano65NI2LJEnAmW7NEkcF4h3f+epd0BdKEqBMejrvxd+q8LEjELDSdVd0rRiV45sO58u3ybQr49B90xVSuXFljsMwOdDFYf8B/3ODRAFzAeoUXwJT0R+w1HdEEtmnSqk2IvR44fkgSMAnXygYLBxtv1ripxB88g3EFyfkzB6Vs6kyJDkUHHVpqEB/Hzqej7lq6dGtcWtm201f1hS0ncy/P3bZw+0W5tWlpC5vGRJVqIDm170e1yqKQrNDn3EVcMBt75Q4iYW1DJtiBI4fV2R4NE70i2hftQt4ndb/i0O8ql6+s+Qc0DrhhquH33Yf2GscwFqp2tVrq/+MRDP2yLtow7cF5bUiC79yAd925B4aSdvvOlfYADFQCcXNBNXKhIE5XL8/oneRwhCWZ2KvPAiYPxAJH4Lp3kNy+jsnWbW9CsjXE6wf/hmF2UcajK2OLek1NC09eivsZECcK6FwjDMZIAd0mtGSz6WrBHPx9ZHcZ3KOVgTYVYADOteRcjH7C4jqmgMs+8e63snTTQUWZOEe8U7OI22NNO69zki9HYgyaQ5tKnC4xh5U4LcqEIykNlAnblZ9FzO5aKBOWlegM7pB0DAV0mGjNrs60wMJdlUt4wjMuSWbqJYmKqWwsQ0y81/nYzSS5IuvAQUwlnP5NSpWtpvfSibnM6AEC8AAUaFJN/tkw4EkuttV3THVx3tCANfPYrkgP43vjO2n/MkwkG674k4+IhiU6mMRB6BGJiamNdiBavIdDNlXfqXSb73BQGqMlXMlFK+yiqj+PcVPGWjUV070BE4RQtQnolJnffCk79sOQuKG1dGt/s0wCcjgRroVBt98tDaqZ3FKFyuMdWKqCpcIIbboSp9MwICxlOob37oWqg+FVKFMCBNdDerZriMiBMYL+7KGwdbhsXv98iXy5eItqC8yXcOKUpSuaNEHmmnWb5EeZjNROjnwD006dBXS0apONvaJU2GtvvQZIzNWdw64L4kv//BecwxmabM0COt4L6fyyrwHq5sIS1FCVn2Jo1bkSWr6KSBTpl6Exa6tvV0DHMAzjcsDCmx6j0G80qQTLb43CIkARc3E8rJ1VpTjBhBARPaLVBtQ/ZkaqaGElmPzV1XWoyqVskR+mE/poRi1nNt+1rec9nc6OkXqnJpmbafDUTwfi9Drm4BQNEbpMIkuV0L5klDrMh2DDOqPigPixGZiiqYk5e7Zo1OJKfjqCFNKwQQcPG45ssN+lV9sGMuGem1FGtvR/hS4pyPH43gvX7ZF3Z6+Qw3CV0Ugjs2DNu549e3rGREGUiSugEwBxsuawJboyQJn8fF0piHnIBCou/e7oDxAn8lyhpOay6pE3Ssq/QKkwLzzkzpPouGhXKMOlRaq1F6nLgjerpn4zEB1BiQegbLPCeMA5jK+4LCcfEbvHuXLz6tC0H+rGQcLIoLsHapV0k1frto1J+CZhmdp4hlt6w7eVpbyqU36CpHOYG8Nl8TtDguNXlAkIjSUzyC/xy+I1SzXDv0yp0trTdj7mnypCgxr1taOiNubTqk34F5xf4errTFFEf6kwzQUGoV44c0qev28IGg+3kZ63tFZ/IV0h/1sHDYx4QOwnTZoj87Ydld+xTo888oiMGXWf5zbJB+JEl+1ScL2QGXiJOewNpng6HGXQvOQs6tPpSU/Q/3G4alHBSquGBhsJR9gF0dbqYOVyvLzr16DLZLmU6RUKk9y1TvLdliKIYksbrnnKniFcf8M1XkIlfys6TJswWOHGzh9HHRBtPEcxVBGulWfGPaZWmZcjQRFqe4gxGcZxMVZYUqe0qyylp0g4JrVQS9lacavP5ssTHqUIY4OnMxzUKOk0NkiE3879XprUbYRQ0wG0yWwja7et1yYmvJwYQNUh+RtFGgCqJDq6TAzRlVaTMwhiNyspXs7Bqj259HtJht+vWvNG0rT/bbZDzv8WyWEYhEohx3nNRygfi6DC1oQMKdepl9z/3EvQLqCasDIWNuXqVSx0jbxX5EgQ6En5Ytupo6Q/ssFSWZUS78WS/qxUdOoazmEuUFFYK7f17A3n8DlDdNzJEItkwdzldKwePvqbHDp2RM4mnIOHDX1ckeAcWyJGagL7X71KNS15ysO1QNJesB6lmgVi1SaKKuVEOvEhagB8+v3M/EQXYFJX2CWW+H1nNBURrcofGjROjQv6wVybJq9FuCeiTXtQxlo9BIrveabxHgP+hGRZqqIYJ0dnppW2tXQEbC502WBbtmyCDpekUPmacdXVUCDKpB4MmZgStmS/5aQEcbLzNosiDr8PqX2IKiQe3K3Edn7zSlTQOqKWdpBuIpG2w/tJ+bo1C/TY/e8JUAMxEPmbvp4rJ7buVme1dujAZyVRYSq2dWeJadZOSlSoIqtWLNOS/mPgMimuiTnw02nVpvOXLmcmgtOxKCIGykqcb7z7huywMOfChmd0OtSiff4FdEFET1XsZGNMBMn+QwfkqwWzZcm+ZXI854RElouUzBB0v6ZjFwsbkYMFupgjcaGVpFu9Luio0l/q1q6jj6KyT+etFpHWErImuK7LxHMYI8UvK4cm0dFomRf/0fwDcjBbRNo/di2CjevJZQOWmqkNQn2DaGDTwsneULOjTO8rbStKsWxpScW8ijKoADYPwmSGcV5NPy0aTa4XhTln9F0ic1S8WqAAn5eAfIiU9FRUNoqWkpEl5NQZ+jRRtgOVONXlgQuVy2qha8ReyenWrZDeLRpJ0sp5Eo8qnjlZgDBxbnxBfIbeotBw+cbRAxCvLnrFmPSfJT/W/Du2bZdsnoX6K9Q3PeFBDmdK9EaULidxN/eSE1EVZe9vJ2RMf+Dp2O8Cup+6TLxsMKBMtE0TQJw/2S6IV6t/oaYyvMyD+g8SulyyET88e/qcvPn5u/LD4bmSXgWVJcuXlLiYOIkKj5K46DhNFD528ZjULldbdp/eLQdOHZDE04kSdixM7qpzpzw69GEpiwx3dqJhlU7CgTwfl5W51Om0DTj0CC2m4w4sNpsKawtxVs7k7qN/S61glvSHQcBeDhapbdLuTK0ScjdyNhKCH0OYi+uLlow0XApESCvSdKcx6Y8GxGlCcKZcholEBKOJsQb8UUfFmCxGV+T6UFXQgL/qexSxQA7P+RQYOZR/7dRF7uzSR154Fy6TSwkyFuDHFg2bq8tEG96BwEMY8Ec370WrF0mdPb9IWGoCCByEWYgqRMkR17SBtOzf24j1K+i710t43PCJp8/Kmk+/BhAULjYPbJH/DjSCghBePFu9uaTUaiEjbxug2WB8Z5Phj7xXB23ioEqj9ebbE9/WoojXIjo2uXjhH/+ULLhcVq5ZJY9OflKOVzgh9RrXQ7Z4snSv210yczJl4/GNUjychY4vQ2HOkFqxtSS6aLRER0bLycSTsvq31RJ/HM7RkxXkzTGvSrvW7axeZ8UQOJgJMZG1W+nrVT0CRyEHAHFthdg5cPSQyf6CJ79cLEo0gOuSsEpAp4iDh3/PwX06WbQMq0Mfpd+OBET/V+2qNWX3QfrtQIj4Tj3Ut+P1JF4u1k3tOyqal9U2Vd9VzmfGSGtVW29yUT1ggKvMZNqDOlQGX85VgiIHmzLjIzh8N8vN7TtL3+595F8fvCLx4H5jh46WZmgbT6IzbJaqBRNztsr8JXOl7oEVEpGBhKqr6N7K+cFhandoI4163WSiBv8F4fH9UgA2XTf9W0lmNyUQ4NWOYMDRTldsKCm1W8rou4cCfl9C11/bf+VrvakgzkqyFw7Si9dVFDFCWjZvKV9Mni6PzHpC8ppdlj4t+0ip8FKyeP9iuZB8ASUnUiXvIqiFUStVrPGXZXdjg6RsZRSMKVVBbqx+o+w+s1vW7l8rodtC5I3+r0jPzt11oqmka+tNy210ia3vQnNP4VwlvIgK9lcLUJ8Oug65XWU0ymtQpwGg3wv1d03MaXCDzEeOqUvM6QClfR6KZZMotShiG1ufDtQUhkm+pX03Pa+iEQv12P0TpE6lGpKhzXfNOJyxpa0rqXe6WJ+1GjS+qiBOf9UmQ7A0JMgtE8+hoR+4aDgIPxwxYAbFye1LAJkR5NxQ9p1Vp9sPTocEozr7SXQp1yQ6JTzcv3qb5tL41ps0J9fLaLsWm8MaUG9LQPLQplk/guAuXpPglIOD2ynRgdON6HWPzQbzqjYx4M+8V8RemcCCqk3HkA7HAjqFcE8dJueA0JvTp07L3c/dLWFtw6RF9RZSvUx1WbxvsRzdeVQiL0RK93rdUVzwFqmP0qslMYlsOLIP3GbhuoWyeO9iSYtJk3L1y0mtMrWkdLHSsmLfCsnblCufPvCxtGfpVBxea0k6dwnxIUyJuhmhS4QUwZrkYsyaB6JDgJ+7kIhmKuIsj08Hr6nE2RxFEX9WImQN3BtbttNKm3xvGjSsxDnXq8RZRHog1srz6iwG4U24bzxq2qHMA+KNDvnreqf6x8gxmYZ0/raWtmqTrQpl2qLDcYyxsgjl8d9PSB3U+muGnAiG2tJhhN2IqpxVyrF5iakmpfXpELJjjsSCX+b/KaLjjqeoja1dXRr36iKlEOcltzXQrD8eiswh3B/nj2/bLbt/XgGRCl/uNYCf7k4e0ZHT9RuMhtSANkFnNm2a0HqT2VxqSGiGf3nJRL0Q1X+uwbbPnTsvtz3QW07WOil3t74bAflkmb99vuTuypVBjQfJPx75h9RtUFfHQaw+8y6qVaumnft47N+zX154+wX5cseXEtE0Qm6uf7Nk5WbJ6v2rpfyecjL7b5+jI09sPqcsx0iDQQP+1rVivONh8sPyebJyM2oKY2HKlYnVmm8rt7CmMJLIoQrc0KAputH8oqKzOMRta1TmZDiJCnFRKOxMSVyyZrmxkMF1bgIAgE5YzQ7D31GwwnhP+s2Uy8Iq1dp4ugu5O4zexvGpkUHu5hujaSVl2qm7unmME3/w1VStOdzz5u5y9y195VkW0EEY7MGBo6UV2jTlwHFMbk9jjeG5zahPtwgc+89wOkcMJDwaFVVbNpEqLRpLidhovL+LugSILxvPunD0uBxes0XOHzxiNvjVuFABuiXRnQGnSyan632PlLEBf6PTxQOufgmtN5nhz4B/lVj58KMPFWN/Nbg6F2Ld9g2ytdxWiMKeUr54eZm1cZZkbc6Sd0a+I+MfHO8NY+vWreo0PPv7HikNfS4SC05kgjsmTpoof/3kr5LbNFeGth0qm05skj0798iwkoPllcf/RTmkIk7FGS1bUJlrMkwlTxVX/MkE1o5OVm1RaQvSODwc9VMSkraf4uThnuH4Sx2TFl8w/Y4Q0Rkgeo0g4C8tx0xrkfHZDOVoWEz1NoOHM5yOupsdI3VNx41dUJ3PUz3KNAHmT8YfSU6HDDi0Zdp/5BCqdjaWNqjuOfunOYpP7N65q9SIq6bFarRtvOV0hDbNXzJP6u1fDvGarHX//syhnJto5KIREh1XXkpVKi+R0SWVixF9kgxxn3D8tIpS1T1ZaepPHsrpKjWSZHC6MdDptPUmOZ0L+DMxxwX8YwBteun1l2TLpo1XbaeemHhJ1qVvkNgusTK4xWD5fOPncnbVWXl/2PuKzeeRgRfIwcttRt3Zzp07yaaVn0nLjvfKihW/SvPmzRU+xMA7D0Jjxs8YLyVbl5RG5RvJ+mPrpciOIvLdw7OkaTMEvb2kF8NUGISmc1pbfWslTqNfOe5sKnG6UJrlRFYvYiiKDowMODb9oAYtOohYqMaH2drdWpzOMmTStLZ811Aa1GJVzQwrc433THEd4z5RWwPrpYnYgK47l4oyRRVf1OmKAMyAPhwQY9wodHwn68YQiSqFhWLkQq1jw9jpo9x0ADoddM0aRzZKWCZCZteQSIXRixKfLUvL71imrF/XRHDlbM4n8ueojkR3vlxNSavWVDmda9PkZfgzIuFVbUJEgnBoNtDIF2Iq8MzPZk2TeTJf2rVoh4YbxWTJ0iUyuOJgmTl1pn4zFUX+ti//Xhp36S/7UeSPnG35/Nfkpl6Py5YtW7Wu2Z5fv5WWPQYj0cYE2YeNHSYzT8+UO269Q/ae2SsH9h2QMaXvk38++rypqEluQe4ArnIStdzWbgZhsqwEg9jWitQJUwcmHaSBFETfaVRyv6w1QqojGZsQpXzV29nRhu4U24rJRUeU0F17UFqpfIZaocZ/p5WZOEat2mSIX4Gm1NtwT63oZC1ujtGkJyJhG+P/5ItpsnX3dq2sTgNq3vKF2IzhUqNyVWmsIFFjLWsUCNyYtUx+QsHuMAth9ww056y2a6XkQn90YXTjKLkgPbn7XOE6t8kKPMrcocD9uP0igS4Zg7ISUXCvca40IqF+Ok3MgXhlhj/q052AIaFJsYXsIK3Y8/RgSWySKP2a9ZO5O+dKytoU2TRlkzRo0kCyEDyf8eYTkOMVpcfgRzRBt3nzZrL9l4elaZd3ASbYKXXq1pdvJz8Hy6iYDHjgOdWR9uzYIy3HtpTi7YqrW2XtkbVS42A1mf/i92pd8qCfjrkEGzZvlEmzPlbfX6GbsZBJZV+G4bcPko7o+5BNfcm23tTwlneNsTBNYg5RLFbm2odxvOSK1C0NQQeWQVtvsmPOHzr+mNabqtOlGgAEN9BktGlaD5cJC+j0uelWWQK9s3SpaDVu2E6dLhPXepNEfT7hvByD4aGlavFYU4rMhsp8vIkapqJ3XI1nO0T1vtA/CRSO6ZVr3XwkUKoN9G2qsRaAQDlSCKIDXg0QXw4L357WOB3wzm1kp4TYvPo16kmx6BLaQj6JGf6MSGQhUdpVbSoNTvevV/4tW7cUXuiaWePLUpdL89ubS93YuvLF4i/kjqJ3yPfTvpd9yFKa8e542Y/QzIPPzJD2PfuD6HZh1xaXX2b3ky79v5Zjp7KkHvIlF3z5gXwx5TFp2rit3PfUp6hVUlv6jewn36d9L93adJMdp3dI/NqLMu+vP0hDVBlXnQgTxUYjm7dulkkzpxodS/1iV9h7/o98u5ZN6Ub0GwLOcqOiO1x7UC+LTFfFphmy/p3GVB01mptqvWD2dmBZMm/VlIXZqk22D4bHAgwz4MLw9oZIDLc8feEMoispQDeXljIly8hvCB2y+Qkt8OJFwSEo9lk9yrYHpQRSJ7Ydkon72lZSPq71h8pSbg6okkJMKygBBoMXajGvrT5HXqtFhHzX6KYnt2dkhxEVF72xBEbHt/pTvSbSpGLmFcPpzhJpyElRomOGf8b5ZIhXOBnxh10QWabe1cDwvYP342pUGXpjBzridWwGFh8m6xevl4kDJ8mowQPlxXEogxCcLRUbDJLRExgAzpMDh45JdNByObPpISTYvCtJQd2AioVog1tg6ltPy4VDc9DhpqE8+s5qmTh5koyf/aA06thIjsUfk5RDKTLxlvekDxqHOB8YrVGGwE5AxIYxrkl4kV9+cnEVqWJaXgb4kJkETnbluDgpHgakK68zSpbGDrQLIjaxq9pkdDMz84r0oAilo9fOhlsTbb3JkmKEfXszZZEqvE5LUwTq4vFpHCOfx015HtZqhTLlkPRdVXYeYjXTPM3FjY4saTB7vjEGYyPw+kDLd8OqOBYtKYZF1j5t+uKBigNstExiL+ijIxyKDZNzCcXyjVE1VnJ0Im04jzpVhtL5rCAwAAPhMm2y/BtfOyfhD6uTWr+2ehGsTkeiYyVOtqEEiBNEd/zs73IpMbFQEOcXs7+Qtw+9La1atZITiSfkzNozsuyllRJ0fofMnzNe7n9hHoCbsVKveSttYrtrx1qJkCPy7eePSd8hr4Ioa0sDcLdSsGgOEJqds1E+/df9MuZvy+VsWojc9GxHJFfHSo2YGop+fa7Bs4jfjfCITl+Yuh3imNqW06FydTrs+nhE5xrjBshEE5fxxSxUJXA6ipsy3ZH4asG2A7xa24OS21iUDK8xRGd70rKwog34u+AXuYGrLGXlsLc8tAojsNhvTXlP1qOfRde2iEh06wO3z2qNptCf2LI+UCa0oH1qPlsScDx54LKqW1qOp2P04QYLqh1hWs6M3R5NV2/3zoqcZkdKH8zMzZYaOzTISJCkbd91TDbXbo9UI+zEGxcRS7jhHH42fX/NmpC4U5Dfi9abiXAOw5CAJUd9ifXp1mxYd1VO9+0P38qmEpukKypFJmQkyLdffCvr39gkJ7cvlfmzHpf/mbxJ4qq10L6iy5f/Isf3zECd2yw5daGEVCidBH0lTKo2GC6dOt+sVbp3bpwjb6B22oR/L5G8omWkzaMtpe/gvhITGSPLgJC9PbS3TBjxoL4uuRQXixNkpaCZCIoFBXGCS2m1JDs7lijCuFuhh7j2SAaxZJZS24NqmynPXjWXO4KxHMBZscZ1A1wfnkc8neGygeVwi8GFCgzDkCG5r7be1CI/xoL9esF3suvAHtSjayNdQHjz0EqK71inai1pULOeiieCSVUkQ6cz7ZEsEBWToERNLmsxc2YjUQVgcjcLANmW9a5qgnJ7EJPVO431i6sspZEOaL0ql1L+b+LNPELYst5JAiuO3UxzU3JDKnTNvrhDhqHKpY5fqzYFWm+a8q9lalaUL2d/iX6qhzRB40rHuk3rZFHYImndurXGTk+tPiXL//WrVCpTTB4a0EJr4G4RAAAYoklEQVQGjh0jIyZ8CGh0nhoNe/YisI8GaxfOn0FjYnSygWirVau6NGncEGPLkDf/fqdsWLlBpi04Jpu2bpOb/wfE2L68VCtdTdZvWC/P1npKxg0cpS+vjlcLkHQsXSdEiQ6LgR/Z4NjsPOPW4BGqHIBcyrRY8iYS511PWpdg7SaYREaRpPmstDytiDOzbyzPbHBLQ/N+scNCPA7E6YjbER0SW/BM1aV03Ix2MB6KqAqgU3wGETSMgDDdz9VR5jhY4vR3oIHXbt2QTwppDwsf9/WvmaZGXqEendZzoZ/RFQryX8TCPlpgKEA87rQzXgoWEOfb0zDRvF+tsGAmnvpoFHphdO3STUN6SZrhz4D/RVRtAnJYxSvKv8754Rs5dOhQoc7hnbt2yuyE2VKjZQ2JLR4r65esl/f7wz+HLteT/zlIDm//Shrf2FqatB8l5SrWx8IXkYTEbGDGcjAAQWY5gZ4ICB/fJltXTJG9m/ZLx9v/IXeOel4++HCiPPT1eGnTrY1GOPau3yuTer4vfbr1shnzloqsy0EtN+5yTc4OcBtyEC3BamuxKYHa/5FwqasYq84JSEMc2gQY33NAU17m7kolmhauFzryhRvU90esnT+YrmM0ZWIVFEri8hbX5GuEwjXyzdxvAUTYKy0aN5ebW3eSj+dM14Z0/XrermmU5HQ8GOrbvmcnysVO1oy3wNjcJvJsC7sRnPblf64Jf/OM0z79ItMjLp8498+BX8z7hUn+2Tdzxr+sDM/kpacfeBTx7HATBtOA/xkaEggcY1JYy+TQqSMSD2So30/n9HSu0cGDB2XslLHSuHdjKV8M8PaVP0vfqL7y3WffoYJnhiye+aJsXgaDAfFclDsRxLDh8Y6CM7ckwkYoiwUCh/8TNfGAakE/0xtBcJ3ueBDrf9mzXkf0HCEbT2yU/Qv3yc9PzpU6lWuZHeRbaNVFGPBnSMwZBHaG1JAAJzKFqHXLmWkgEpm9WcHFec6l2JH4jE5kqkwS6uQ/p4tOEacgThNT9TzAuNJzDuer2mQMCXIwckSFvHsTaYyd8OLF5G223tyxUXW6/j36yT+QDcaaw5psXZedrZlXa8r574BXYOqcaUp0HCcTnKn7kYCZFEPRqwnTWGzNBMNnfA/+zIPnmKvKCI1DEdEPyL/8jkvG4nd4f35Hax5bZLUW3cYztKgPLXgCdlk/jygbbDi6Uvgzz+u4sPkrxJSXR4Y/YIiOGEjXetOAOKHYosGFiqXAltTBUlzwM4ooxlFveqCrXGh4QdrXaK+IkrBtqBQ0eYP66XhcBE7/6L5Ncu7oTgT5T8rOzZ/AuIDugbBT2y5jpExsTSlXrYlUq9dcohCM5+H8dFHto6Rv074ya/MsKb0jWha9Pg8hKYgeBvxt3qtpCucqIlFBo+i1jUFstSROtpeH6UCcNtCuNEPnLd/Noi44YV580Vp9Cia1teUMmJSTYCFLtu6cU5JVt+M5zXuFy4RuDFxDBdp1xjZjxLh4T3zORdu+e4ecgf5brXo1hVetWr9GiemGho0VX6i4P7hnWIybnO7DLz9RscvQUu/evbVz9fHjx1F4uq1s3LhJYgHcZDogi1y3aYPWqNj8CxeyZWi21KxZE9GhzrILFvPGjRt13tu3b6/tNFl0h3XtGP5jbRIS186dO6Vt27ayf/9+JSJev3btWo0o0XXGbtlUszZt2iQVK1bUMW2Bu43XcEzLli2TOCB+ngKnIwBVY6/aehPV0cl9tEokFUh/W0vVjYy7gP9qBUl89uLk/8jHSZ9Jvy795GLqRVmxfEW+iIRhL+bIRHzw7Wfb4EXPIU0tWh56YQOg7qZikDu8iMSpmVKtSTWJioiSnUj6HlXiXvn7uGd8Is5YTHTYeia6GyO5FH7WTCt7OH1Py/ZTp1Nx61fvCZU3UPM/dNy2sKQcOoDVa2F3oiUkAkNNCI4PCxgTtI5pMGSxahOvotXndEst6e9vvSlyPh45KYBxlykbg8z6ksikP6p+uvJwoRDmTf2O0CnqdNvRi/ejOZ/pPatUqSJvvPGGSp5169ZpzsTs2bOlXr26mOemWvmcxa7PnTsnTz/9lDKLrl27Ikz5kHbTYW8vjotJNR06dNR7kVCZcPXaa68heboY7jdL7gMsfvny5coJSaCTJ0/W0rKnT59SYrvnngHyzTdztF9YJXSenDFjOlIgxyjxvfjSS1IFCeRPPvgodDo0S/G33mR9Ouo5KuttNrjChrQZGz6m4mkYioqMPYf2y23/ukPK3lRW4krFybqj6yR3e668PzQQe3ULnwQf4LT3x8uKBdPkln6jZeDod1CZsWi+iIeLvUa1ipL+zfrLkgNL5NyyczL36e+kQf2GGtQ3IScTYtIKTNZ77rzjCidSTkTYOeFFHH8gk11pQ0NTBh6l0CNKXBus5/01b5akQq7HFeH3bP4Hw2rKsTT5huMg2MD4wwz0CD/zV/oKyEltVU4q7DoOnTtqVEbZNiGyMJn06YeISGySbv9fc2cf22V1xfHj2KjxhagMHEhpyyQotVIgKKFAilo0SBRlQifbQIkbmhQrgntxoi5qfEGnUcOybIIbCoWA8rayVRTU4Vyim8iriyhC0eoEHS9CQd35fO+9z+9po8ZE//Axhqe/53nuPfecc8+997xWjbCLR45WvpWTPFi8kzPgwAoCc1jKnJG9nVc2r7fZ8/4oQvTsWexJcn7rkXGvOdO94Iww0RoaFjjTnWb9+lUqnwmJbVpa3lGhkcB053jK1qku+VZlTFdff50NH+7pJmbd40y3Tkw3a9a9CqaZP/8xZ6CfSmIh+YYOHerfzbZJk66w5uZml5b/tNraH9qiRQtd+g1UtP/cuXM8JezPxJC33e5M52Xifz7lOrnqZ9FgB9xlHOVwwHYUBM5wHdkvKSNS+D09whUb9cQNd/zC5u1bIIN8zxN6WtNGTy7z8hG7/4r723iZ/G3pAnv0vjpXr3xgJaf0sQtrZ9jocRMzaSQvkzn1drj8sI2qHOUVdvbb2nVrbcIx4+2Oqbd6lktcxsmIVFB4aoo6AeUg6VsD5ZUrCCLFKCSXdw0r8InGAOxsJSTR2wqpUPJdezrUBbltm98rnwh6rlhVO0kwpKtcj1CfZDUaIrZwTMDBE4mI4jVtLeFNh6HIv/v9vD/Yy56dYPiAKrtgaI01/r1JaS5KnIBnehgi0WB8hzPA+tc3+Z7uT9pvkxyHTJiUb//A9apIvp07dyiFbKdOnWzbtm1WWlqqpXqr16FNpbVYImHE7dvf0vDLysq0JMO8tMMySrv8izQrKSlVDmMmIYkV3/ScJj16FMuhgyWWMggss/SJzZj70tIytUWb3b0OW/2Pr1FWrL0pa1NrdOKUSw77FmyQyUEyhQvyTMRDOoR8Ii3uFDBm5jjb2afZKssqrVfnXvbES0/YkQ1H2vjT7XVt+z9WL7FP3M7qii07u9q9i33p2LrR/ekecH+6V+dbh/IONqT3EOt8XGdb/tJyK36thz3xmwbr6kpSufUowQuSCCkSYYTvUllLZydlBUCKIGGQNkjqBL/slDwj5IsMRTh/RknH2GAI7ceipItG9iTtZaDnWWxDUtBhUXs8k7t6vKdvSdLA6exDg13XpZvwGL5LTqj7fc9FImpcvkjdRWTYJx6Yg6oBp02Nm4ORm/z+rT2d25zjQSIdFNgbsslPaVhZrdj8J2eB5KbG72mTnz9IpPfzqV2ht2JOHBfp9/ReSh+R75dtALM6/w1j7Na1m90wpd7z03w7BuZ41qaP3OCvCH8kgHdCuoWC5jWc0ji5KThFOrDCyQ2d3eS519jh/oft0oGXulvOXvnDtWxusWN3H2vn9TnPLqi6wM7w6jRkDMfLYOOW9V6aqNFWb11t+07cZyf0PsEGlw7W6WzVq6us6JWONtc9hwe5e7mO6FGkkGtFUtY399ovRVGUPDC07/SLwJw2Ysq/Q2oTDB5UKHETyBLpPUhKeQYgQhyTOS3FQLCX4pSbDgJhPQ7a9eBWFUu+52GMe7pD7TJLQRGZhzhpxtKbFLN7cf2L9oGrEr53Sner6NXXk/Z4dSA/2g8bMMRKuntdC483AMajHP5/+aHjdwvnZCqTbLn4ht6k2OJf1U23o7w8a1Z6s/V/B6Wn6xAzWeIDp90dEoWZDcdHj4aPo/MhfKd9lT/769qnrO7Rejt4xkGrrqj2gnKe7urdLbZhl+eq+6+f0nb7S8kaxQfoRzs70Tp/x053PV6njp08ceKHtmn7Jiva4AllfnSfjfZki4qB5YI5HA75TnIyZFYrzJB9FTwZ1tXkbKhQSPGG7/3iMyXEpo1oAtK+EAnF2GJQTYr0CloZNmCMOxQxlrTR6TX0x32+9GaaiNr+okpwiUYAj6rMRhhpkmWdvwOMQQ29rGmFvJo3b9uqnMO/vudWz+L0vtVNutoG9R+kVGSC0RGAnmvXu28HaR/hz9MpqXmEkYiDtu9pLRBuEu604kdBku6BK+Ej9BX3rrwXcSDo49gyfsn2YfE9l6xFLr3LSsoUV5w5cX7UEgz+WQMgA08Gl25HdAIrEFaN+35J9rjkqu2/vfDyizZ9zi9tR/ed1qVXFzur5CzpbPjvkGdEb9nbYns8XK6ju5WfdMxJVtGtQu3yDIn3/pvvW/E7xTbrJ3fIHFQ48oVCv8oLEoNesqgqTpeSNph50oYu8qn0dBSFiwZ/ljaR2JlCejqkTdDTZadLv6GCjcw80aohAgnRwb6KA2covcmTwrNUejOrmBPA0BKKNUH7x9wJWAyHVcPbfGbtGjkwdPG0Ev1OO9OWrl6prKI1w0Z4CCcxEiE7qJZqh6MI64Tfa9Vpd9EXVoZQ8j08TKrNdEpPsRtplx4Cwp3Wjqs0SVOzbGdwBsjTOj07ioymbt4KoZahtXSRFkSndGKX/T8EGavDfpVTJ2sTMRKcXjMuxvXFB4j+KhZji/QK+xefrRAtJarRTPDe0Bfd9+cHbOHmxdZa3GpFXbwUumdr6tst6O6If2Xdf2//e7bnwB7FvX7oBW+LthfZuPIf2LSJ1wrxIcFNbgB4Tjgc0rllmAxOkAwuFIWDwkw7oTm4tfsy93EsEpK+g2HluuPPSTIYxIGmq777FrZRJGIqeZmhM2Qv0N5Se8HcjPf7UHrTf49Zm7Rwx9MLniRi4oy76SrYb9EDeoI7eZJwQiXVrSwVSDbvotWX/cyvMR7mOrjOjgsv5jAfEneFFByclIMJq/A74yRRkBiS1UozInKKv8fhCi9lrRrpIRNVLlzRJy+dJPkWUsgO3g6PUdIpM5a3o0xWAjGY1lANSU8XmG5fKPXtjQSvgUiICJiygvvHhT0dLQXephgbS2FIYe8BN6//xxY2eWTWa27sP7LTPj7efz/GXwRXCAnfBnX4sIP17Fhs5/YeYeNqxlofTxQTBhvUFrjotBLIHK9AxLin4+SJETuI5gx5ckuii8z2WkCsJID0dCzLdBP9S5RZioo5qZx6/CZgKuSWSwb/HNJhWmAMJ+Dc0d7/ypw4o8Uj0++xvGpPF/V0EY5Uhl3lNfMwBnKpfcHok0Rp1vK08XtO8MHiARyR0QgSQoJR8h16gqdsYgZFutz52+w7w1Aw26kebhZqmcMjdTbwp8ONPmPaQCTBz0qQ2XMLsg/4EWDKrn7As6vj6/WRB4IEmyQ53dp7aUTnPW9Dng4Ih8gM2qeglHVksd9LISJ0R9bwN97eoeP6215Z8ZD7zx3tNaZQevbu1dv6nH6ah8Bi6wxSJmsVHy7qpTqSA18XbIfso5hdKddIBoe/JbupX8nAnVrkX1UwZLmXwT8RMwxCyXtweU8mrASNJEChvGa+L7lW6VnwM8vjAw8O1QZzPOa/oS88O5TOzA80beQ5EhhJileu8t8VYGT0OBdk7vD5hSzCIbpkdt/ofiDbrivSMekJx1E6M7HZG+OWFFVDkZxqAjxmTpwFfgsMyaTxtrK0GOlD8AiOlQQpl7oDXDJ5eeYwyonTxfqnyZMh9312m5eo7Z/nXV4+69vELm0Xy89785v/+5cZbxhzgQm/rlF9VTp8XXB81Xbe9bTCznQkZUXl1DaMDWVgQ0OD9e3b1+bNmyf/upO9FORDDz2kE8hjj3kAzcUXS6lI6k/MI+Xl5Xq3tLTUqkdU28KGhR7PcLRd6iXXly1bZrs9pewkr1f19NNP25YtW2Tnw7ZHHCzmGrKB0zbtYFKhEgtLKiUkx48fL9MNCs8pU6Z4hNlL0pLX1dUpnraxsVHqHv5FWlx55ZVunhlnzz//vGqe4tuHhhx9Fd8DP/BQughbJKWG+I5v+HbN2rVKDHnt1Gt1zF+wIGj6GSf3ZJYfM8adHLxeA7ZNTFBNTU3yzsEKsG7dOjmgkoaVcE7GjJJ2rbfLBQy8T2lM0nPMmDHD7rrrLilUTz31VJt0xSS71ZMTYXjHflpdXW133323YKRfvnnkkUdiW1fbjh1vqYo1+0GqTa9atUo4QoF80003GZkysYV27dpVfWPmOuBeF9D3Xrc+YFt98sknbfLkyWp75cqV2qODe/AMnKVlpXoXmowePVpjw2wGXrkndgaewXWtpqZGJjlWBHCqyeiMtnnLJiSlb3ddEUmy53TNnz9fpbhhhLFjx9qwYcNkvyspKRFBYDLsdRh3Z86cKUArKirs+uuvFyOef/75Vl9fLwJho5s+fbq05XzD+yDmNrfJ8ftzzz0nRnjwwQf1/X73LMWAPHLkSL3DRUgjxGQAt9zi7k8PP2wbPZcwRTNgRBBMJkiIfPvtHifrF4meQRST584771S2cRiSi++Bg8JvwH355ZeLUFyMj99hNIiMxv2qq64S4s7xEpOMa/jw4fqG8cC0U6dOtRtvvFEE5l/qN8DkwPL4448LLtpasmSJ7JZclKxkkpGiFSLDyJdddpn6gxF4PmrUKL0LPulv4sSJGcPi/AouuGAgGJvaq1y0NXv2bDE4uF6+fLlgBB8IDkyOlEJPDA2dcAi4+eabZaiH5tBr2rRpKoACo2OXJX4ZJuTie5TMCKM0GYDvoosuEkNSVRvBAYxlZWX6hgnV7BaTwHSyMoTTBRfShGzZAElDqW4oXgQMCEIza3iGoRmPBe5BIH+DPAjH7L7wwtEKImHmMDjaYEYhzUAGkggdGhKUQWLSgemYKYmBYAiQQYr6fl7nnsEAB3Wp8LJYvHixGBfNOUZuLhCYpBJmn2effVZwJ6Zj9iPp2jMdMxYPC2YpnhcgGVyAcAi/a9cuEZN+uWBkmJDaWEuXLlW5Iv4HJio/I0WBmwnKt0hvLoiIdAVnJ3qKMPqD2DD7ZzHdhAkTRAcuJBVeJIwxMR2TkIIl7ZmOibpixQqtCNAVSQdD1tbWimnANZNk0aJFklS0+dRTq30iNwrn2FKR5gMHDtQYWKm4+BfGgw6sbMDE2JB6jAMGI7v7JWMusfG141X9cJsnIe/uxZ/FdCyvBHNwxCc9Axe/QpRDHk64Zs0zvoTs9SXleDWItwGSj2WRQsO7XZGJWQnkgTSAZ3AHXCdDUDbI5ze+YQYxWOJqWfaw7VF4pKpqiBj2oKeRhTH5BmMy1yBHzID+AzQzmVm0wezDxse7LKv8vu2Nbbbh1Q2CHYRVVlbKNERfG9zxFFsj71ZVVQk5MHjXk7va93sFdx2+69+/0pezwWLg5uadsitCOCQQcMNcSGP+pm/GxTIEcYCPvlgR6Bf4iot7CDf8zhKGLZLD55AhVbpHElNy89xzz9Nyiz3zu55K4+zBZ1vjXxrVDkRl4uB6xMVEIX0++OLCCL/HPbM3OePR18iRNc7MWyQYmNDkAma5h57HuTGf91c7YzEemBfpxNgx4DM+XJtaSfXVUqAXtGMbgbcJu9by8jPUTsBTs8YPnqA/jgVIVPCL8MEmS9FqCj0Xe1kvMV1isr1eGgiNt8VwRyWr8acwGYhCJ33IT6TysJVnBmajoF/ixZDvLSzTSE8QgEIQxIV77IOpHpcf2R0hROqjHycpDRH7goUjuX8v26D3z8BwZEQSpzakd8JnTV614V655vASQT+EY6IyfYdnql6NPdn/I+ww2SIZA2qKzA7psBILq9OpjyW0j5Xhi8YVxvhZMLWBDziw+/qbxN7SZ7AE+N8+fjla8qePH4aA+OBaTpmkgQA/aBDQw3Gijem6lLoMjxV5yPj4fO9I26Kft9/qE5k8zVLb0RdtqyQ6wsWV9/4+F/U1oFtQvrellyo2cgqNlTGBBzyCzwIdgjUGGJR53t855H2jm2Vyd3a/SSnFE9OpV7/I9M3sJTY0QhUYITIHx+Vw/P7qlwJCdIp3QByx9JF0b0GFFcxfQRX35fv8FMKmsL0IZqGvPNxQOLT7dY3pi7CSpX9gnEm9kbvPw9D+XTlt4WgBPvKdtGsrP+4w5ohb7j+nry9DyYwWtBEB+DycJVzDuBSV4TCZzw39fxmN/fsD7Ke6AAAAAElFTkSuQmCC;" vertex="1" parent="1">
          <mxGeometry x="800" y="480.21999999999997" width="167" height="109.56" as="geometry" />
        </mxCell>
        <mxCell id="H7RTySpPC0p8DqEm5PfO-17" value="" style="shape=image;verticalLabelPosition=bottom;labelBackgroundColor=default;verticalAlign=top;aspect=fixed;imageAspect=0;image=data:image/png,iVBORw0KGgoAAAANSUhEUgAAAYYAAAFvCAYAAABOy2yvAAAgAElEQVR4Xuy9B2Ad1ZU+fl5veqq2bNlyL7iBwbQECCTUhPTsf1s2u8vmt9lNlhZS6OkVkpC2ySZh0wtsgJBAQgmdQAwY22BwN7Zx7+qvv6f/d+6d+zSSVebVmSfdIYpkad7MnXPvnO+e9h1XPB7vJ31oCWgJaAloCWgJGBJwaWDQa0FLQEtAS0BLwCwBDQx6PWgJaAloCWgJDJKABga9ILQEtAS0BLQENDDoNaAloCWgJaAlMLIEtMWgV4eWgJaAloCWgLYY9BrQEtAS0BLQEtAWg14DWgJaAloCWgIWJaBdSRYFpU/TEtAS0BKYKBLQwDBRZlo/p5aAloCWgEUJaGCwKCh9mpaAloCWwESRgAaGiTLT+jm1BLQEtAQsSkADg0VB6dO0BLQEtAQmigQ0MEyUmdbPqSWgJaAlYFECGhgsCkqfpiWgJaAlMFEkoIFhosy0fk4tAS0BLQGLEtDAYFFQ+jQtAS0BLYGJIgENDBNlpvVzagloCWgJWJSABgaLgtKnaQloCWgJTBQJaGCYKDOtn1NLQEtAS8CiBDQwWBTURDmtv1+2AFffC31ul8s16CND/13o9fT5WgJaAtWXgAaG6svc9jvmcv1Q/DmMw0Uej9v28QwdgBmcBEwZYEUAHQE0+Dd/16DjuKnTAxonEtDAME4mcrTHUIqWAcHtPl6hpjMZymZz+MpSd08vdff2UQ++UqmUON/j8eR183D3UUYC6++21skUCgUoh3/4fT583i0+6/V6yIufpXLnb3IcbF+4XG5xn0IPfi6+jwaLQiWnz9cSGF0CGhjG8QrJ5XLEO24PK2TTsWP3Ptq9bz/tO3CQNmx5jfbsP0gdnZ2USacFOGTxOf7OCldu1qV7aayDFXVdYzP5/AHxEan85af5Zw8AQAAEvhg02Frxer3kx1cwGBC/C+F7wO+jYIC/+6mhLkyRcJjqImHxN/6qw7/roxGK4ndDD35mbU2MNVP671oCGhgm3Bpgy0Dtyvnhe2Nx2r13Pz32zHO0edt2AMEBiidTwiWTy2bErvs4k4B/l48XsOtpZDGq0/i+oWgjeX0B4apiS0CYBKZD/pNNBvlLYTOIn6X1oO6ZdxMZlkUuB8CCZeOD9RIM+ikSAliEgzS5pYlmTWujE+bNonmz2qkhWieuyyClXU0TbunrBy6TBLTFUCZBOuEyymWkFOL23Xvpqb+uoqdWviCsA2PvLsCAXTzSImClL79KPfgawboGAIN/VMU8nMKWv5NjMCDCQA4DQXBttmQkdrAlgvEblpAYO76ikRCdc/rJ9Hdvv5Aa66PE1gM/pz60BLQECpOABobC5OXIs4cCwiubt9LvHniE1qzbQMlkEjvttFC6Ygdv7KbN36W/p3rAUIoQFaiouIKyNhS4eeF+mt46iT75oQ/QjGlTtOVQirD1ZyesBDQw1PjUm3fFG7ftpP+794/019VrhSunHztmDhyLWIMps0dk9eT35+UTgFWLoXx3HHwlBgsRxHZ5qLWlgW659koRi9AupUpJXF93vEpAA0MNz6zyox/r7KZf/+5++tMjT4h4QT/88cpNJE0E/l/pFsFYorIbGNT4OKjtcnvp/DecQpf/y99pq2GsidN/1xIYIgENDDW4JMxWwlMrX6Tbf/1bOnz0GLKKUkZqaXliBoWKxgnAoKwDN9xmfr+Xvn7T1dQ+VbuUCp1Lff7EloAGhhqbfwUKCWQV/fiOu+m+hx8X2Tq8S+ZaBJgLgzJ7yhFUtioiJwCDsqI4Rdfl8dIH3nMJvffiN+tAtNVJ1OdpCUACGhhqaBkoUDhw+Ajd+r0f06ubtkggYG+RyiwqUyC5GLE4ARiUC83NcnB76KQT5tLnrvnPYh5Hf0ZLYMJKQANDjUw9F5xxIJnrED532/fpyLFjIoDMv1fAYHeQ1QnAoKZTyAJf9SiC++GXbxSFcfrQEtASsCYBDQzW5GTrWcpSeHnDFvr8N74L2ooeEVzm35sVYTXdRsMJxEnAwJlXnHvlQ5X1dz/3SZo2ZbKtc6hvriVQSxLQwODw2VKgsG7DZvrULd+ivngc1BKE7KPiGVAr9chOAgazS+nL115Oi+fP0dlJlZp4fd1xJwENDA6eUgUKO3btoWu/+HXqBJ+RUnjqb3ZbCWbxOQkY1Lg4SfezV3+IVixbpAPQDl7remjOkoAGBmfNx3GjOXj4KF3zmS+LdFSXiRZCspZWvjahEPE4ERh4/J8GMJyqgaGQqdTnTnAJaGBw6ALg1NMcMo5u+NI3aN3GLfCWM+OpZA6V/nPnHU4EBpbXrddfRQvnzqQMB/ANjijnSU+PSEvAORLQwOCcuciPROXi/+TOe+jOPzxALqbBHo4B1WFjdyIwcNrqjVd8kE4/aUleWppcz2ELRw/HcRLQwOCwKVFK66X1G+naL9wqrQMRaJYd15x8OBEYWF7cy6Ft8iQ6ffkSOv+s02hyc5MQo6bmdvJq0mOzUwIaGOyU/jD3ZmDIZLJ01U1foNd27c6znjotnjCc2JwKDFzP4EaxG3+PoJcDV0K/+6JzRZMgDQ4OewH0cBwhAQ0MjpgGOQhlLdx134P0v3fcI8jwFDOq3cVrVsTkVGBQneTY4mJ5cr+IFUsW0DX/7/0UDgWtPJo+R0tgQklAA4NDpltZBJ1dPfSR6z5Nxzq7JCMqChacGGiuKYvBNFhBzc2NfsCjtHjuLLrx8stEVXQtAK9DlqoexgSQgAYGh0xy3lr448P0v7+5i80HkYUk63dr43CqxTCc9LygFyGAw4VvWEEf+ef/T7uUamOJ6VFWSQIaGKokaCu3SaZSdNlV19GRjk4j6Iz0VPynLQYr0iv8HNXe9HMf/Q86cdF8XQBXuAj1J8apBDQwOGBilbXw+F+eo6/89w8FY2oOLqRac2/UksXA0y66vaGhz8knzKPPfPRD2mpwwLugh+AMCWhgcMA8KObUL37rf+iZF9aIoLNiTXXA8CwPodaAgR/MhYK3IPpEf+WTl9OcmdO01WB5tvWJ41kCGhhsnl2VLsnUF/91w+eoq6vb6MdcKw6kAQHWIjCohj6Xve9SeueFbxLV5tz9TR9aAhNZAhoYbJ595UZa++oGuv5Lt8FayAg3Ui0etQgMIs6AGoczTlpE13/ksloUux6zlkDZJaCBoewiLeyCymLgTKS77n9IxBdEi84aPGoVGDjza/qUVvrOZz8huJT0oSUw0SWggcHmFaCA4cqbvkibX9suspHMDXhsHl5Bt69FYOAxs9UQCgTo9ltuprpwqKBn1idrCYxHCWhgcMis/suVn6T9B49gNKhdqE1PksjqCdY1iMriWqGakP0tUNLgcdM3b76GZrW3OWRF6GFoCdgnAQ0M9sk+f2futfDhaz+Nlp19+B2T5tUmMtQqMLCFxgDx+Y/9Jy1fvLBmQM0BS1cPYZxKQAODjRObZ1JF287rwKSaSaeFW0MDQ3UnRVgNuOXH//39dO4ZK3TKanXFr+/mQAloYLBxUnLs34ZSeuq5F+kLt/034s5c1GbjgEq8dS1aDPzILhS6uZCietnfvEOwrqp5KVEc+uNaAjUrAQ0MNk6dKmx76Mln6Js//KkobJO9F7QrqZrTwgXQLlRA/907LqB/eMfFlEOnNzdzKelDS2CCSkADg40Tr4Dhvocfp+/97DeIO2coW6M1DCzGWrUYuKDN5fXQO95yFn3wb98lWoAKkj19aAlMUAloYLBx4rMIenLe/D1/+jP96NdgVIVCysBqqFVvUiWBYWiWUzmzntg64K/zzzyFLv+Xv6NsJgPiVa+NK0PfWkvAXgloYLBR/spiuPP3f6Kf3fV74cLIQSnVaqChIsDArU05DmAEXxSYlnPaGAS4+vmNaP35if/4AKw2Cdj60BKYqBLQwGDjzCtguOPeP9Iv7r5PkucBGGozwlB+V5KyChgTMlwNDsE0RvzUHU/nZ60cDLQedhsBGE5bugCNez6o01VtfCf0rZ0hAQ0MNs6DSlf99b330y/vuQ+uJPR7htVQqxVu5bIYBCDwvHC3NXyLp7MU8LnpXafMoJNnNdO3H95AR3qS5ENcQKBFic43D5PmocBt2YK5opZBH1oCE10CGhhsXAHKYvjl3X+g39z7J7iSYC3AjcHpkrV4lAMYBlsJ/ZTKZGnBlHp632kzaWFbA/S3i57edIB+9sxrFPS6ufNpyX0ruHYEviRaOLudvvSJ/yKvABx9aAlMXAloYLBx7jNwG3nh3/7Fb++lO37/IAwF2YdhoqWrmgPJ7DZidtkErITGsJ/OXzqVzl/cRiG/h+IppJHiBK/HRf/z+GZ6aecx9FLwluz6kSzbHprTPpW+fO3lgjepnMFtG5eYvrWWQFES0MBQlNjK8yFlMfwCFsMdsBiYWTWN6udaPQqxGJTiVd+5liADQEgCEII+D50+dxJdcuI0mt4UFiDBlgHwgLKwpgLY0e8+1ke3PbSBUvgbxxlKiTUw2KDknGZMbRXAoIn0anUF6nGXSwIaGMolySKuk7cYkJF0x+8fyHduG+8WQ95dxDITgWUJCHVBL500s4nevGgqzWuNilBLGnEX1tuK7I5jCuxqCwe8dN/q3XTv6l0UhtXAvysWHDj4zJ+f1jqJvnrdFVRfF9EWQxHrWX9k/EhAA4ONczkcMPDvavWwajGwdcCFfKkMM8n2U3NdgE5BUPkMWAnzpkRFPDmJvylAYHkosGTlL4L2+M6g8a2HN9KOI73CiuDEVtgOBYuPez9zB4wpzU106w1XUWM9g1LxQFPwAPQHtAQcJgENDDZOiAKGn8NiuNOwGMYjMDAQ8O6fd+XsLuKAcjToo5ktEQEIy2c20+RoUCh2BgQGBukeGgwIZoDga4VgKazb1UHff2yTAAqVyVTolEpLw0UtjVG65fqraFJzY6GX0OdrCYwrCWhgsHE6a9WVNNJuWlkMPu7HwLt3KFx2EzEQsOLmlNNpiBmcDCBYMDVKcyfViZRTrlFI4zzW7MLfP8RCME+ROTbBYBNAPOKXz75GT248ULRLibOSGGgao3X0tRuvptaWJm0x2Phe6FvbLwENDDbOwVBgsCX4LMoARnHCcOWx2o0PIytDjYtqAm5J6osgpdTry3M+TYoGYBnU0WyAwKJp9SKYzDEBVvBsHbByl1jAO35Z5Sz+NQrNrHIr8Xcv6g86+lJ024Pr6Ri+878LdSkJYIB7ioPOX0eznrbJLZp628b3Qt/afgloYLBxDvLAYGQlicrnEtNVy+UbH85TL9S2+B83E2LXEGcJSf+8D2m3daEA/PN11NbEQBChWQCDKfVBasWXHzUHbBVkuE7DaGk9EFSWcFBo8JiflXf6EQDNU5sO0s+f2SYymkQZSAH85TJuAddU0E9fv+mjNKNtirYYbHwv9K3tl4AGBhvnQKWr/vyuexFjeFAWuJWp57NsPSNrgocrlzP/XtXTKYXP5yvFz+Phf/OuWn6BcA7fuX5gEuICk+rwBaugJYyYwdRmmtnaAEXtEXqZ3UIcZOYgMYMIxxqGOwoFBL7GIJcS/u3Bvbi24WXEHEIAB9giBQWiebxej5e+AWDg9p4MFByU1oeWwESUgAYGG2ddWQy/vAuVzyDSK5UrSSpLqdTT/W7s5g0FOswzCmVvBHi5mph/9iFt04c4gB/f/fD9s/+es33CCBTXIz20CTxFLSEfNUd8FMW/2QoIeRE7wHeGn0C0nly+gLB65EAkMonQLv5tziwqh9jNLiUe7+vITuIspRT3U2AyDYt6XVkM7IZiYJgzc7p2JZVjgvQ1alYCGhhsnDplMfwaPEm//N391A+FxsyepXAlsZ8/DJfOe1bMEQqbd+vMP8dxBPkdO2N8MRgwgyhX/frwnf/tQwWZH8qRv/NnmXIiBKDw4W9DrQnpxpGZRirjqK6xgfzB4KDxVwIQ1JSZrQZR2wAr5t4Xd9Ef1uyiSMBnubZBAQNj2Tc/9TGaK4BBWww2vhr61jZLQAODjROgSPQEu+pd90EZZQT1djFMSawk2fMRS+fovafOpfcsn4qdM2oB+PnU7l09q7GLly4Z8f/invyz+BJFZDKGIFxJxs7fLKrhNuPhBgkMzPdUjHuomKkYsBoAdgC0eDKLiuj1tLcjJqweq4FoJSK2GObPmqGBoZjJ0J8ZNxLQwGDjVA7tx8BR2QxTYhQQOJXKXfaO5urhWVMa6arzF8KRIpW7WUErZT4UePJK3qTtzYrfyq6fxxABMPiqDAwD1gMDGawlWA3Pbz9Ctz+xRVg/4rAgT86J4t7Pt95wJS2YPVP3fbbxvdC3tl8CGhhsnAPVQvLuPz5Mt//m7jwlhkXX+KCRi509/EIffvMJtLQtKqiqVU3ASI+oFH45dvd2AoM5tsKmD8cKbn9yC72w4wiFfUiNtTDHgmEV4HDL9VfQwjkzTWm0Fj6sT9ESGGcS0MBg44QqV9K9Dz5KP/jFnSLGwLveQg6lFONwIZ23qJ3ef0a7pJMQG+ViIKaQuw+caycwSKtJ/L/kURIV0ceQpbQlbzGMJQmOtzCwfuWTH6FF82Zri6G4ZaA/NU4koIHBxolUFsP9jzxB//2TX8EXwsFnK/vbwYPmyuHGujBdc9FiagzJSmLeAZerpsGKiOwGBjVGBga2lPqSGfrqH18RxW8+5VIa5UE43RWVefSlj/8nLZ4/R7f3tDLp+pxxKwENDDZOrYoxPPTkM/TNH/7UsBisA4OyFqAD6f1nzafz5rdQLJXJu5AmksUgrQYpO/7OgedvI3V1/d5OmU47hvXkNdp7fv6j/05LF87TFoON74W+tf0S0MBg4xyw28gN98VTK1fRF7/1fcQYVB3C2OCgAs6JdIaWzphMHz5XKjNVn1Dtx3KMxYAAPpe2BZFme//aPfR7QcvN2UmjO5PYlcR9nz971f+jkxYv0BZDtReQvp+jJKCBwcbpULnyq156hW76ym2iqKqQg8/3+nx01YWLaXZTUMQWqu1CUuN1CjDIynFCvwaPqIL+9p83SpoMDHQ0aBA1HXAlferKD9LJGhgKWYb63HEoAQ0MNk6qigFs2radPv6Zr1AylRpUITzS0IRVAFUXBxBcuny2qFmIGW0v+TPVdCE5DRh4PAy4PlTxHepK0Dcf3kBdMbRQ5SKPUZBBAcOnr/g3Wr5kobYYbHwv9K3tl4AGBvvngPYfPEyXX/9Z6umLCVe4FcuBK5pb6kJ07duWwocuSeDsshaUX9/OOgYzQA0E3fvpe49uplf3dI7pTtLA4IAXQQ/BMRLQwOCAqUgkk3TZVdfR0Y5OMRoVRB1xaHCXJNHjYEn7JLri/AX5vsd2WQtOAgY1Fs7uqgev06+e3U5/fmWfaAU6WuRGAcPNl19Gpyw9QVsMDngv9BDsk4AGBvtkP+jO/3zFJ+nA4cOS1lrRnY4wNvaIxOE6et/ps+niJVNR8cyxCWkx2HU4Jcagnp+BgVlWn3vtMP3sL9sE++pomUn5GAOA4WQNDHYtI31fh0hAA4NDJuLfrr6O9u4/JPzgo7mSZBCVLYZ+uubiJXTC1HoBEsKFXsWCtqFicxIwKGBlYsAjvUn6yh/WgTcKeUn490hhhgGL4V9hMSzSFoND3gs9DHskoIHBHrnn76r84R/6xM20c9c+/J67mo3i9MCfsiiEi4aDdOUFi2lK1E9ppOFw2qudh5OAweyOY1F+/YH1tOtonyx0GwEZFDDc9F//SiuWaWCwcy3pe9svAQ0MNs+BAoGrP/Ul2rR1u3AJjWYxsLXAGUgnz5pE/3nuAkGrrQwFbTEMTKaSoQ/FbXes3EmPr98vUlhHqmdQdQw3X87AsFiArwd1DfrQEpiIEtDAYOusD2TXf+pr36XnV68VpD+jAwNRH4DhomXTwYs0i7rjadFLwU5QUDt0J2QlqelkwOVGRdxQ6ImNB+gnT22lOjQcMlpSHDfreYvh8n+jFUsX2roq9M21BOyWgAYGu2aAfRzcaxjtPJOdB+ibP7mTHn3hVQRJRw8+K4X3L2cvoDNnNwsWVQYGuw+nuZJYHioAvflAF9JWN1EacRnBODuMuBgY4JCjGz70d/SGZQsomUMnu3Cd3WLV99cSsEUCGhjsELsBCsneTtr94mPkih1F57HX6fdrXheZNCNFGPj3bE0E/T664dJlIh2T6xf40BbD4IkUNOT4z4PYSwxkUrc9tIH2dcZEq9Lh5Mv9nXvjKfroW5fSmfNbqTeZo/pp86lp7km2y9aOJarvObEloIHBpvnPppK09cl7iJK9wmpYue0w/eQvW9BfGfn2IzFjQKOl4fue3lxPH7voBJGCKZxRNmYjmV03TnIlKfcWY3AIXEnffWQjrd15DD+PVM+ASnK46K68eDGdOrtF/NxUX0fZuik0aeFpA53wbFov+rZaAtWUgAaGakpbaivhQtqz5mlK7N9M3bGk6Kv8yp5j9G0oL1GINYLJwDDA8YWLl7XT36yYQSkUufFhZ/2Ck4GBx8YWFoPBfWt2oxf07hGZVhlb2bJgYFgxCy66FHioELgO4LMN886g8OT2qtKYV3tZ6vtpCZgloIGhmuvB5EJ67Yl7KJtJoWo5I+gaNu3vom88vH5EV5LkRyK4OLL07+cupLNAsc0/c0xCWwzDT6Ig1MOfgkhTXb+vCzTcG4w+0MeHGfLAcOEiWjF3EnpHZ9BDmoHBR/3+CE075ULUQegspWq+Lvpe9klAA0MVZd8PH5ELPu9Dm9dQ59bV1JdICqpt5jradriXvvXIBhKqZzjXEJCBabV9iEF8+M2LaGFrBIHnnCMCz8pt4zRXkrQYJKHesd4UffX+Vwf6VQwJQCtguAIuulNnAxi4aJDrHiB3D9B38pJzKNwyLW/xVXHZ6FtpCVRdAhoYqi5yoi2P30WZnqPCWsggZhD0eml3R4y+A1dSMp3GzhQU0EPGxf9OIANpzuQoXY1ObfLvMt1VWwwjT2I/c3Bz9hcA4gePb0bjni7Rq2FoPYMChsthMZw2R8YYRLIX5qIB3fEQiaaWBadqd5IN74u+ZfUloIGhSjJXFc6pvm7a+MgdyKXMCGXFv+eN6TG0oPzu45voWE8CFNHDVej2C2A4bW4rCtvmw9pApzYH1C8o8TkxXVVZMiznCGoY7nhuOz348l7UM3AcZzD0DgcMjL4cvwn4vEQBdiddpN1JVXpf9G3slYAGhirJXwFD1/4dtOOvfxIuJN7xc9iBd6bcW+EHT2yh7Ye6oYiG8WXjvGQ2S39z2ly6aHErQIKb8thfv+B0YODxcT1DHYL6T28+KAj1uO3n0CMfY4AraYVyJUkCKmGdcXxhxplvJ48/pN1JVXpn9G3sk4AGhirJvh8uI1Yuh7a+RJ2bX8COP2WqcnZBWbnp9qe30Is7jojdrTkzSSQpcSAVu1zuv9DeFAYpHOIVrLAckKqqduZOjDGIegYIkOMMu8GXxB3dhJtoiLtuIMawKJ+uqmrh+vGDH+6+1hPfTIGGSWN2g6vSktK30RKomAQ0MFRMtIMvrALP+159jlJ7N1JnbwxWgyTM4x1tA4rVfvLMNnpy8wGqD0jqhvzBxHkIXDeEQ/SxixdRI87NGGyhVRr+mLdxqitJgZZ6gK/c94oodPMNsRqOT1cFkLPBwG49zFMg4Efa6qlUN2W2mDfxe31oCYxTCWhgqNLEKmDYs/Yp1C9spV7UL/Dv+GBgiILg7ZfPM9nbPuEDNwqaxd8Vcd4Z86bQv541V+TmsyJ2Qv2CEp/TgYGroP0eD/3k6a303LYjCPgjAG2ythQwXHXRIjplFoLPiOfIFg4yuM/V5uEZy6ihHTxKPDkOcuNVaQnr20wgCWhgqNJkGyUMggIjcWA79SVTAxaDQfZ2z5o99OC6XcfVMvDetBt59X972mx65/Lp1OUQ4rxBRg0e0ImuJB6jAFLAK9ONMMvqr1ZuF4WErN9VlCYPDChwO0UUuA0AAwOwHwHo0LRF1DRrycTLTFJ+Ta60x88CT2XJfZXeHn2baktAA0O1JG4Qqe5e8yQlYTH0JdJQWLJymS2GCIrcHtxwEJxJOygwpG+A5P1x0WXnLKBTZzY6qn6hViwGBgGuMN96sIe+8eB6QaYnwsqGbmMd1wfw/SiaH508uwkFboMtBgaGcPtiapo5kYBBleCPDADCEs7LUQNFtdRJpe+jgaHSEjauP+BKYiqMLdSL4HM/sozkjhZtKAEMj246RPes2i4byqjP4XsGgebmSJA+8dYlsqm98b46JfDMQ3WyK0nIGAqM04DZ2voOAtD7UTfCvRoUMiiL4epLFtPJM4e3GCLtS6lhxgnj3pWUtwoM1Ez2dlCy6wil473Un0GdDdZnqKGVAo2tyNIKDnqDRPxF+uCq9Gbp21RCAhoYKiHVYa6pgGH/qyspsWcjdXHw2dDwymJ4fMth+r/nt5GPM2bUi4VzOANp7pRGEOctAnU0drL8n8N83E4GBiVnFjcXt/3g8S30/Guc/cUgq0wGyZV0zSVL6KSZTZQwuZL4DD+Cz9FZy1HnNq9KK6b6txkKCNlkjLr3bKG+QzuF3Nglx9X3bG3xZibt8pI/0kSRydMp1DiVPAGk8pq3NJC3U0geqy/N2r6jBoZqzZ8RZDiybR0d3fgcXBWwGAxgyCHDKITg81Nbj9CdzwEYTBYDK6V4KkOXnDST3nPKdBDnIWDtsMBzLVgMPMYsAJYD+/ev3UO/e3EX6kVMFoNBUPgxBoZZcNeBdtscfPbBldS8+GwKN00VCtJJgf/yLGHD18nWVTpJXQCE3gOvkR8iijN1i7AeZOovy0WmALtB0YJYDYMEjN9wy1QKNk7B9+mDLQnhCpWHk6zc8shtfF5FA0O15tV4o7r2vkY7n3vQ6KMgX0a2GNhFtHJHB/3q2S2C/0i9pvwSMtPnFRcsopPaG0VbT1l35SxT3ckWgwIungKuF9myv1vQj5gPlnkP4j4fg7tuObuSEGMgF2d+iZxVuKFc1HbqW8kXrq/WiqnKfVThJd8sl59Umq4AACAASURBVE1Tz77t1LV3MwVcufzmRdXRDF/AIeM0vBojoSDcnlnKwArzsSXROgMup8nHyUzcU6JEVZ5R36RwCWhgKFxmxX3CAIZ49zHa+thdyEji4LNQWZIcD1bCge4E3fLgq/DjgjXVsBq497Db46NPXLKUpjcGKcl/c2AOfW0Ag0zx5T7Zt/zxVdqPeoag0RiJ60IYHK57OwoImyMmObuYLolc3gC1n/428vgCxc2/wz5ldhvxz7HDu6ln7xbRHySVTonNirJoLQ/dqBJnMPWhINCLNcwbGQaHYNMUikxqJ28wMnA58U4IhLB8C31idSSggaE6cs7fhV+2jQ//Cox4fXALZcTLp4jeODh677p99ChSKl25jHhfuN3kJSe207tOnCqC0MpS0BZD4RMnq6BRzwAweHH7EfrxU9uETOWO10XvO30mZD1dxnGM+gXe1UaCAINwM01Z9qZxsssdcBvFju4HIKDtKUgd+ZmTcFvKg9NSZXqq1SN/vgEQ6nORUEDIlGNlYQStQ3A1BVFB7q9rHHRp9R44bW1bff7xdJ4GhmrOpmE1vL7qUYqjliFhijOYd3AbD/bRa0fQ2Q3v5PxJdbR4SgQvKVsWXFflzN2V0y0GNc1K0XlBpb0ZLqXVO4/Cj+6mZTOaaFFbPdhupSI0A3A0EiZPyyxqmnOSKEpk6vSaPFSAAINPdB2mrt0bKdFxQOzueS1W4lByVC4r7m/BVedcJ8LAEG5po1DzdPKG6vJyzbuaBDw5z21aCTk57ZoaGKo5I8aL2bl3Ox1Y/WfxcuT7eBoBOtb7rKhUVS5HG3inJT+qCoycBw61AAxKOSlwMJPpsUTZTTcIFOQ/hPtpKvMkNU6uyeI2cxwh1dcFQNhEPQd2oI1sQMYRBlCz8m+DsbHhDQ6DBKv+BKyUEGTLmU0hAIU/crwloSlIKj815jtoYKiuvMXdMsk4bXnst5RDOqB0W3Dgj0n2AAhAAI45mM1pVlpOBgV+ploABjVOJcuhThIlZzFJPAeYD866QfSU2k97W025woemnmYSMepBYWXP/u2gBnFRLJ7gVWXsyW14CQyAECOArENIB+a4GrMGe8MNVIcU2CCAgoP9ZlAYKKhz3ubIBilW7JYaGCom2uEvnCfTe2Ul9ex8ZVDmB++i8sBg+rjZ1+tU/2utAMNQcBi0SzJZZErmkXAQVBiLqb4dhW21cphcRv3INOLU0z64Ln2uLPUBEEROUAGxg8o+tgIn5qSSUMVg7IW7KRZPUrB+kiikq5s8A5lOAAnlxstb2BogKjE/GhgqIVUL10zH+2jDQ79CRmQa+fUyKOqGr5dTlThP3qkAMNKj1RIwWJgesUtlV1PO46fpKy4mN7KRzC4ZK9ew85wsKpR7AAY9AAW/KwN3TVoE2tXmw86xDXdvVRuh/qaAOQR3F6t+djf5Ig0is4lbrA4KXJuA0GnPVavj0cBgw8zlez9ve5k6Nj6PWEM6T+WsqLg1MNgwMYNuCdI90J/XzT6Zom1zDZeLw3enhoJk6oqjm58nd6pXFKdxPF0x+dot1cLvr2TOvbu9FITLiTsZ+pHdxEy3QaTC5g8NEIWLd4RPaGAomygLvxBbBq8//zD1d+6jnhh8vhxjQKxBWwyFy7JsnxC+bxc11oUoHWyhKUvPKtulK34hQzEe3ryK/PFDdKy7T1o5DGuOcR0VLwVhVRs1PNxulfujR+FiirTNpxDqJPgYGlsp/m4T+5MaGGye/xx6P+9Z/ST17d9GXiz23r54TVIu1LoricfPwU/OlPGg056rbjJNOuEMEMbBvVdjx761j1J/optSbImOC0AYKB9RXE38XFlsouqQSszFeIHGNhAcLqJAfbOcLfXcDk3vdvqS0sDgkBnq2reDYkf20iFwKWVR+KZdSdWdGN6Jun1BtO5sQS1bGzq1zanJOeB1cwQWQ383CtewyZCVAOPjEHEHQ+kLwMO/M6kUeeBi4lqTOH6OTJ5FjeiZ4QtFBwBCg0PBC0ADQ8Eiq+wHXr3/x5RNsdVQWy90LVsMrHA4EyY680TZoa1GDxUc51qFAy8/Qe7+DKrruVam8CpmJ4ogX/hmUvT8uxQyrTw+FM5xlz2uzUAMorF9ETLJFiKhg2sl9FGoBDQwFCqxCp3PwUFe5K89cTeqUo8Ux1VTobFZuWwtAwM/H9OYM+VFuHkaEgG4psRj5bEde04Slc2HN65EzCpF6bSiuShxuENTh0q8XDEfVxYDg7lyK/F1En29sBx85A+FkemXI85mSrv81DR7Gcj8ZmrroUBha2AoUGCVPn336icovm8regOwf1j2hK6Fo5aBQcabPTTjjLeB5K2uFsQ9xhglF1KypwMU789yRSUCtRIcCok5mF03ghSPqSyQ5WRrYZzx5Mo6MoNDvLdXpHwHQugLITixvKLuwYfMpUbQmfhROKcPaxLQwGBNThU/S3S+gp/76I4N1I1Uwy74h3nnWiuHJWDgoqQhBGt2Pp/KlWel1w/21BlnXFoRS0Ep42rGjdR6SqH72qENfyVfLjXGZkMWmLHS58+6UR0t0kP9flGEmXMjKO8PUKq3U7hruFCOla6dmxcVZ5Bd4zAWptfo6UESAcYdrZPklDh4vAn0MWmatQzupQWySE6nto766mlgsFMzme8tGfKoe/8O2r8aJHuiOYrY4jllhKOOYyRgOL4oTFa6Kn5Pu5+OWVWDqFdw100SrqRKKu98sxpjWisdE1X1Mhkw+R7dtppc8U5kvcWk8ldBaWNQTGwXZBZZrLdYAtXRsKB8dU1oTNQK7qJmCtQ1CMrs+LEDqKJ+jfqO7sP5fuoTAW4FKgbpXZVWrFhDRgW0eZ3FurrJi3hDIBKR9UGC7wrzDJDrDzdSy5zl5I8211TBYpVEmr+NBoZqS3zE+0lVmejuoC2Po19DRpKbFWL62/koQ4FBjUUqWoNaHC8pd9Jk/73crdvLYi1dJS6qj4TI1zqPGmYurYgIZdDU4HuoyB1GvqhSmPy9a9d66t23DVxJIAw02FS5BwW7Y5jdNAgg8IHALtQ0mdxBNCRC1feIR6yDOvdspjgAIgfLlluh2vGI+Q0GA4QKsmPQfZ2d5IeFE6yLiPRvQYaILwaHFJgGOPbAwWm59xrMTVblKXLk7TQwOGhaFB/9NgSgs73HBI1BLQODULzsDuOsn7oW8tVPITfSCN2qNkByKts2AxIYoBS5x7Y/hMyWoKlAqrRhKdDj7LJYMkkZZAeJBjZ49mg0Iuol7GgPmurrpsTRPbRlwyuCwDENgsC0J0zuQASEdXWiKZQgdBRtPGUbWal8JbD143lEv3EGd/wt2XWIIqkjND3K9R/om51IVdTqGm5WzOCniuD4GXoBDr5gkMLRKOWQAs5rjd21vOK4gtqL6ummOScLS0iDw2DJamAo7f0v66eV6f/68w9R8vAu6sNLVouuJH4pWen1o3jPjWBuePpSBACnSIVhIxCMNFmsFHgnycHVcgGxWVl19vSKlpde+OwZKFixeiAHtlSE+6ZKB+/s3VDov7n/Ebrz/j+LnbR8XrbecgAryXDKyp9/P9Cp+fgBuuGnz+EzKaSG8pSesaCN/uHcpeRPdwulywR41QxSmxW76snNBXC9HR3IVApRuK5OFMTxGlRfHHvIeQLUgMA096nW1sPAPGtgqNJLWchtjr2+iQ689CReOtnhrRYO5UrysqLjjSY60An65LlnkAfgkINrrJL++2JklB9PBXxaZmDohl+fgUEpJP6bPyD9+ZObG6BIq0fQF4/H6T9u/DL1suIW7hf44AUwGLUOhQjSWJtuj4e4RfaFb1xBV//9xXRo+yuU7DgEoPHCgkjmKeMLuXQx55rfFQY1Bi8ugGPLIYh4QwjgILjIcHH+m7AWOfEAMqhvX0KNs5fowLQheA0MxazASn3GUFBMgrbhgV9gR8cphva5Wgp5zHyMIQB3DMbt8vopOu8N5IXfWoICTHgRVxgotpJJMLXxfIXIwrzz5OfticXRZxq7deP5xWPjy4cdOstk+tTJeT6jSoGnknt3bx9d+ZmvURe+S2AofePBPcg5TXTBzHb6ynWXC1HFOw4KmpdeVPOzBSGSKWQ2RUWBYji3Uhr37uvqpBBcSoFweFi3UR3o1fsjoEFZeJrs612BzUKha8jO8zUw2Cn9Ee6dA2Xy1qd+R5nuYwiUycpVpx/m4HMOzeRDbQsp3L4sbyk4vdFQueU7ksUw9D51dVH46rPUOqk6WTJmYGBwEoHZEg8GBo45LJ03iz7/8Q8PsgwTAIiuvQhSH9kvs5hgqXCspRyANNKwVbBfOMPw7giLpq+PYkhljTQ0kB9xB3V/4fLkzQq+RzC+nL+OWhaeiXgLKDUmMDhoYCjxpSj3x1WcYf/65yi+ez12dmBdrYFCt7wrSbhIiOoXnQMXUlT4q5UiyBMos59XgF1lAa+frRQFqlW2TKwCg0ijDIaoLhSgKDJoKnVU2mJgYFgCYPjiJz4iHmFob+xE52Hq2bsFPab3g34ETXhE/ExaEJU4GBSUi4wVPCv+eDcC73Cl1TU1IZ0VGVfG2jBbaWzdZPrdNGnxG5GqO+W456jEWJ14TQ0MDpsVVZjUc2An7UIQOgVqYcYF4Yao0EtUDhHkLQZk27gCddRwgqwJyOfuD1LMwruL21aSdoJ952ncwx5XlVVgYNmzn9uLoO/k5iakWPryNR7lmBd1jWoDw9D7qn8nOg6gvSjqIA7voYByMZlmSVmWJT87Fp4AB5P7jq/JaawZputubhbke8KiMKwGdU+u6fCg4LFh/grRGGgiWg4aGEpegZW5AAPExod+ib7QfaLzFmeAiJRBhx55YACZmSc6CfEFUFabYgrGNlJ+w07eneskV66bixrKvGsUOZW4B/LXPc2OtxgE5w/mOgj3BoNDa0vzgIVVRivHLmDIL1fhluF/yTWc6DxE3eguF4cFwWs9axSimbOLyrHU1fVEjxORKZdDptIxcek6gIPoJ22qY1D1NVzfwfGv5oVnUHTKrAmXzqqBoRyrr8zXUIt5z9qnqHfPJkqAN4m3kbVhMWD3Wz+VonNPG8iBVwpO+LP7Qa8QokjfjygUu4P63RGoitL93PkdKjHo9FIycCF111+Pnw0COaPBS5mnasTLWbEYhu5mA3DDsdpsnYRCM27zytIqJltomFHlgQGps1d/7hvEmVLlDD4LV9LcmfQ5xBhGOmTDIC42k7UEfMSO7KEjW15AQWdmEDiUa54GZSoZ1gFbDD3HOsgHiyXS0CjWJJ/nQSzCfL4X/2Zrrn7eCqprZXCQ1BsT4dDA4MRZNoJefQjY7Vl5P+oZkPLnxHGaxjTgSoIZ3gBgmH2apCsw8sYNLSdfQhd86r3fplDfTwEMdRUAhh5KBC+l7obPCaZNcZRx921lKqwAw3DX4WrdXDZNDfX1FEGmjAIIK/e0ck4aSvGfP/YZ6gBAcM/PcgSBOfjsghJdtmAO3XrDVVaGMeicw5ueo1w3spjAv1TJRAt+VuU6SiHW0NvVJeobgpzGqlJvh7iV2M3E9S1NC85Ar4cZE8atpIGh4GVc+Q/kzV/OTnrid5QD/UASOyoO5Dr1GACGUSwGI+Dc7wrCYvhvAMPPK2YxJIJvpZ76z4qMn1oCBolhLgSi68FD1CNiDtxRTu4Mip9/lWCTxjpa88omQYkx1Lde7NqS7rB+aqyvoxMXLxCuMFHIN8JuJp8PgBvyGFyJLurbvkpYDEpBl3sjZAZqJeNYdw8lYzEEoxtFhbSo+DZvZAyBMDBwYWDzIgSk0cRpIsQcNDAU+zZU+HPKbD244QXq3v4y9TLdsYPTVgcBA1sMc4ZxJeWBARZD33cBDD+roMXwNriSahMY1NJiJRVC3r1MPCjTgTlgV0q5jSgJPKjoRozJ8sEWCxAgBZDK7AbJX+wY3IxeOAMlBFYKHPI91XETjjdw/C7a1CIq0pVFMfQZOP7jRn1D69LzQMDH7qfxfWhgcPj8pmM9tOGhX+UpuFWRkNOGrYFh8IwU60oyX6UStR/KnVIOF9LQNShZTAvwwRuunX62iLoPkPvwRqAB/PwVAAU1VvXcan64jS7TZrDFEIH7Lm+xmMydfIIArDfQzNLU5W9BQZ8kGKxUQaLd77cGBrtnYJT7q8X7+gsPU+Lg6+DFZ1I9do2Uey9VuhA0MJQXGDgDjXey5XL3lD7DFbiCUc/CFQfw41D/3jXkTsdEBYIgvKvALc2ArayDBIrfuMlPpLFRUJXkLYohip8BKyoqpFtpytKzxnWmkgaGCiy+cl1S1TT0gVZg7/MPCGIybTGMLl1kpSMTiYPPte9KKtc6cux12GLgwfGiBqur69h2Qqcq/IyMLCMoUklwMANAb2eHiOFFUfymgiPDWgPISgqjf0d41klU3zbPsaItdWAaGEqVYIU/L6mPibaAIqO/5yiouJlYr3zpneUavrYYymsxlGteauI6RvYapdEVbu9aWA+wjLlqp0JWg8QiGbURFgTcX1nEXbj4jcn2mE9JgcZw4MBprAxkbadcQD7QyFcmImLvzGlgsFf+Fu4uPa7dqITe+8JDsqbBgYcGBg0MRS1LI84gdumIL7gObybq2kP9ULwFRCuKurUZIBgAON7ANozHi1jCMHQZAzdxIZUY1C8g3Zuy9Oyi7+3kD2pgcPLsqLEZ2Txbn7yXsj1HHNnARwODBoaiXyVe3wwQ7EKKd5Fr38vGLryywV0Vb8hbDirgrHJ7R3gg1VfEB8uhZfHZFGqeOu6K3zQwFL2aq/hBY6F273+d9sBqkPxJkmKgbNwyJT5OYcBQpTqG6GfwVEwlwkZXJbzVIwutHFlJJU5JTX1c9WbOcVX0/lfIHTuK1FVYEMJertwxXHaW+Z0aLesoiCylXCBK7SsukplUVV5jlZMKngWNO8qWIl3JgU70aytF89rTf6B05wGRoaRK+Z2wIK0DA/MYhVH5/C3UMfwEdQygnS47JQZYNINvp66GLyAQLXsRa2Bw8Btk8vcT3DiunoPkPriecuxaEpuicvNplS4LQe8BIPBzVfQJZ4JsD1XRFU20LX3MhVxBA0Mh0rLzXMNqiHccpu1P34t+vQAGw2qoRE56oY9qCRgM7v+cmy2G28GVdGflKp8DF1Bv9Fo8BqpZeetTSH59oQ8/zPnaYihCiIJGGHUM3BL2wDq4lbqxPqTV4MSDN2TMEJvzRWjayRfIftLjxGrQwODEFTfGmPa+9BTFwG3fG+O+us4w+CwBg9oZcrYJiO7c/TJnvZwvvgzVc0Ut8s1d6AfB7jZp51d1pjUwFChusfHBZ7DZyXHguXMXuY9sE+4kPqo7e4WNPQRwiM47DUR7M8dNbYMGhsLWgP1n4wXKppO0+dE7Qckdg+VgcAHZPDJLwJAfo+jIy9v4Co6a0QDxhUqW0Y4yeg0MRUytMVfiG4gEPfteAusqNj8GNbkTd+M8Jm7uw1bDdMQazNTiRUjAMR/RwOCYqbA2EKVwOvdspYNrnzCqoe2va7AEDGaLwci0qsxeUNkNwhOsg8/Wlpb9Z/GagDuG2Vp51sJ9eyhzZAcl00x3PVB7YP9AB4+Aq9P94IhqWnQWhdD1bTyQ7GlgcNoqszAeBQ470OEtfXi3pCu2+bAEDDaPsZq31xZD8dJmdtYsfIARV5oyu14U1CBZh1jGwz4VUCuC1qyu6BRqRUvQ8XBoYKjBWRRKB+POJOO05fHfUjYRowwHdm1kX9XAMHghaWAo/sVSLiMfelOEOrZQrvcI9cXiZekdUfyoRv8kM+By4Hz6qZeQL4zYFr+jVY5rlfPZNDCUU5pVvJZaeD2HdtM+1DYkU2nKgk/ersMMDJ76KcPTbts1OBvuq4GheKGLHg2cChoI0pRQjg6+8jQq/tGsyqGKVtQ94HHDwQAFpsynptnLNDAUP/36k6VKQCmfAxtWoWfDWnR6S4uaAGE4SKdsqbew/HkeS7i+AS+zlzQwmFpyQi5dvbDokILpVMVmeZKrdKKi7g74/dTe1kq7X3yYvJkYwCHlXKuBe2cgCJ31hmn6KReKjna1bDVoi6FKi71St5GEei7aiXhD9uhe6lHtEatcGKQsBq/PQ77GNqqfe/rxPZ8rJQQHXjevFDAP3JpVNbt34FAdNyTBW4TCRDcK22ZMm0Ld+7ZR3651FMfGRx7V2/BYFo6xEQvCamhe8iYK1k/SwGBZePrEsktAKSBmh9z+l99TtvcYMpVSwmIQXeCqlAGuLIZAELsmt59+u3o/dspxNFivZEpq2cVZ1guyTFi5tbS2iqwV2e7SyRn5ZX38oi/GwWdew++9+M00b1a7SM/eC6vBlU3C8hpo/1n0DSrxQYOlld1J3pZZ1DL/FAPAanO+tcVQiUVS7WsaVdHpeB/tfPY+Svd1IubA/Wurl+LHSjAUbaBQJCgYYK/92eN0sKOXfBMcGISvHHLxoGVlLbsWqr2kvV4vfeczn6AFc5hqgqgD7W1TSF2VPUmcaTEwBHB/6Bw2RjPOuBSxaJAC1uihgaFGJ+74Ycvc/XjnEXr9uT9RBiCRxu6qWnGGvMWAtL0U8s4/fcczdKizl7hX7kQ9FBCE0CPYAyWhgcHaSlDspbdcd2UeGLr3bKHEvo1Gtb/9dTvDPYkiZfUgvjB56TkUbm6r2ZoGDQzW1mpNnKUUT+zYQdrx7B9BE5SkVEaCg/gbTPRKuWcVMATR+pCtlU/95i8aGIyUxaAGhoLfHw5A33r9VQMWw45XKHnwNYohXlOxRVzwKI//gAuuw2gkRK6mGdQy72QNDGWQqb5EGSSg2oEyOOxZ9QhlEr1Q1JwRgzVqkO6V4TbHXUIDwzA2nAaGopfaUGA4sm0NqqDR9xxp2bzGnXuAWI/puL0haj/1YpGdVIuHthhqcdbGGLOyHOJdR+n15x8kNziVYvxCGW1C5cclXUS5DqvAMJHcKepZi7EYhsrJXBdR7JwN7TNQrK9eXUdlRJfSE2TgWoODtEOB4eiWVZQ6uptiiF/JqgGnHtx0iGvdPDRtxcXkr2usSReiBganrq8Sx6UUSRqgwJZDtusw9cIMr9Ruq1BgmAjZOcUCA3/OycAgthUi601mWRULMObrqJ/VshfAcB1cSXNl8PnQhr9iDaMPCTY41YqblfIKhpCdFJp2AjXOXKKBoRRB6s+WXwIiXRU+z0wmRftf+gv1IR9cFAmV/1Zi8XOBm5UYA5+bSiGlthIDqcCzFXvJPDDUc/DZZ7H9Yz/5kNrKirH81pWZarY02lkzKJQC8iM941CL4eArf0Fb20Mg1ENfZidmJQ1aJJI7qT/USFNPenOxy8fWz2mLwVbxV/7m5hfv6I71dHjDc6AyTmPnhbiDuL3SzqW5lqwCQw6ZUqFwiM46701ochJEbj+n1dZmrvdYs6dk78VzMkCP2uDLmAZOEFi7+iU6fPAwmpkNpDvKa4FIHHGiTAqkibK8fawhyPnFaV5fEGCDalxjvkURGShUsmm+ltivj3ktMQZkmfn8wePOzaSSlMP1rM2lHIXXFyAP0lKVojd/VgDDDbAYZkuLYf9Lj1Mu3omMNwCDo2MM0pribDyu55lx2sXk8YeM92xsGY85CVU6QQNDlQTtlNskOg/TwVdXUqrrEFL/4kJhyerp0g6rwJDBiz2pdRJ99pYvU2NTE/pJTACqCAs7XKUcOdXxe9/6HsDhZQpHwnmlmYMyZGWZAmFiMtZjUQHLOeVr+4MRCoDcjYGYD75WMt5LKXwJ0LJysPsc1wrU1YP6JIRryTFlQfcR7+4wLBwrF5LX8XjhbonWC1DifysqDDU+c1bSntUocEsikQLrx+muJMWdFASlR+PCMyncMk0Dg7Vloc+yRQJGojW/hEe2voSvteiJnBZFQ6qv7nC7NytjtQoMTJ/cPKmZrv/cp6mhsRFurioDA5Qb0zgP68Jg377xsPxyqy8rz1/qOWZguP37/0uvvPwqBUMDO3M5XlbmPZROMKBb333yDtsbDFIwUi8z01gV4+PJPtS6pGLWgYHVG67lC0UANHX4l9xQZDGHyd4udMuz3o9PPA8sGC6KFJaMEa9QcmSQ+NqNV9N8VD7zsfuFB8iVjsFiYFoM689e6rwU83kJch6krQbJO3kuNc6qPVI9bTEUM/O1/BlVhYNnSPR20uFNq6h3/05Kgb2SVYbZf1uIj7sQYGiZ3EI3fP4zVQEGsy9c/RxAYNCHpvPsSpFqUio0duMwhQXDA/8tycF6U4C1EGVc6BIxA8OPvnc7rXvpFeFyU79X40gl+rDLZ2VuXTn2w33nC4VgMQAYDOuQP5+I9SGduU/0KrZyiLGw9RGuAzBIa0a4pAAMiZ5OAANTsFi9FqwNxF0YGJSiH+pKuuWGK2nh7JkCyPc8/ydyoy6HOxaa16iVcVf7HLWh8MNN5oo0Udvyt1R7CCXfTwNDySKszQuowDSP/gACexmkAh452iFe8pF2yqMBhROBwazU+TkDgQAlAYCbNmym13fupHgfek4Lv7kHPmEvFJUblAZQVtip1zfU05JliymInTZbOaI4sIKHNWBgVxK7fwoEBt7lBxkYZJ8APqTFgNawKQCDVVcSQyiuJYAhAGAwYFWAqACGwiwGpoyQriQJJscBw/UAhjkzKZNO0d5VDwjrNo2qetmv1dmHeId4iKBCmXXWu7DGfM4e8JDRaWCoqekq72A5WMjK8NCm58nTd5g6u/so0ddLaSjPHO/MeCdtuFSG3nkoSDgNGAaDQr9Q+K++sp4e+P0facfWrdTbCz89Kzr2mUei5EVTGPaZ8/Oyn5+/n3bGafRP//qPg3zfhezUC5mtsYBB+fNlXKA4YAjWNYgAsdBXsBISMcw1WwxFAEMgVCfiFSLGAPdOvGhgaBTXUM+nZGZOV80i2L7nxYdEH+g0B7gLEawDzp128lso2DhFWD5skdbCoYGhFmapQmNUVdKHNv6VPLGj1A02VLYk+CXlLJM0Ulsz+cI4lTYj83EK0QAAIABJREFUfe/DAQXv/szpqoe7+o7jSuLdd7VcSaxs+VnCcMn8CYBw12/+D7v/FPkRFGTlzwefExTAEBzkNhJNj/DI133mWpo6dQp21ukKpZBKSY4FDBLo4M9H8DUJZS7dX2Mfam/tD0TwjP5BGUC8E0+BU4svZPVafJ4fMQaPd+Ba7F5iwMoV0HOCn4dl7kMQWx3HWQzXXUEL586iNK69d/WfyZXLoOUnU7yM/dyOOMPo0RCevpgaZiyymK7siJGTBgZnzIMtoxgAhpXkhsWggMH8gsqURvTeRd0B/8w7Tv6cUFQ8agMk+N+RhkYoWXAlJUfmSqoWMChQYFfQju076ZbPfAHKPYFUS78AC3UMBwzqb/y873zvO+jCi89H3QUqbkewnsoxedaAwUgwtpDlNHRMYk4HBdfF5El3UAGKVk730GsVNy61zgbcWwPwJNNVQaKHGEOyt0Okq8KMxSNIOvlaOPj5osgsy4ZaaMrSs4ZPeHDog2hgcOjEVGNYZmDwxI7kgcEc3MuDBFe4QqGyUu1ngMB3EbwVIIEvZLvwjtSH3PtkOkufu+t5stNiUMqfgeCnP7ydnnj4EaqrqxNjNgOfGRiUO0NVdAjLCRbOh6/8DzrxpKUAvFTFwGEsYDADmVTNVvb48lPm2gXzusor5CKuxRsCNYJirjPauPhv0pUEYJg7k+JdR+jguic5wCGUq9ODz0rGvM4kb1KYpp1yAcINtRNn0MBQDQ3s0HsMBwyq4GzgZTeVwCkXkvpuekn5Jejt6kSWC5qpYAd6y4Pr6WhP3DZXEo9f5OojXvLZ626iY4cPC/6aoW4wVv4h5OWzW4N31Pz3FLJ4vJyhhM/HUetx7vnn0j9+4O8pkUiIv5vz7cs1tQUBg6GUrWz0FcipZxsKDPldu7QDRjUe5N+lhSFz9WWw2bzjtzKmvK2S904O0Guo8bGMvwpgOIGBoeMgEiSeFJsPq2V95ZqX0q7DblcWlpfaUejmE1lhtdGsSQNDaTNf058eyWI4TnmMojDMSiHW0z0IGI50x2wFBlZeDAyf+sR11N3RZQDDwNMpRRdEto4bVbhJzj7CZ6Y2hKizT1KH8OfPftPZ9P5/+QdB41Epd9JYwKBiDKoYrJCFl3f5mV1JQjsXw3PEyk4ChIvdOkaCgrAACnRxSVBiC2BwRpKyGG4xspJ6j+yhw+ufHRQDKuT57TyXn5G7utUvfAOFmqYKq0fWDDn70MDg7Pmp6OisAMNQkBAuBJOCcTowpOD++fQnr6eOY8eQmSQpJnLC0pHfOcslAoshCjfTzOYwnTF/Mp3U3kT/8/hmeu0QqoKRCfPGc95I77/sHwF6qLrFO12JzKSxgEG5uTKgM+FOfaZylNHXiLHF5nRVpqBQLjbekWfQMlNkOFmMPktwcovgsxudykR9mwg3gPtKBJ8tUmIIowOcULDSvAg+y9TpwUkNPL5brr2cFs6bTT0HX6eOLS+grafMqKqpA89Vh/TnwLRF1NB+gjTJrHsBbXtUDQy2id7+GxcKDMON2AwMfd1djrIYBlxJN9JRuJJkFzXUM/g8FPS6KRzwUsTvoVMWzKDTT5hGTWE/BfB7VlLrdnXQD55A1zC4xs465w30gcv+yQEWAywggEJBNBa8J0daqQ+UGKLy2VTglkS6KtdFuFxWewZAncOdw3UMIl21H+mqTNKI5ARZ4FZIHYMscAuDYHAkSgzu4LYQrqTu/dupd+dLlKgRZtXB7wlbDMiCa2yjyYvekHe/2f/2jz4CDQxOn6EKjm+8AwMr+DSU1hdv+jQd2LsPKZY++vvTZ9PcyVFRJBXyeykMkGhsRi496hhko3m5A2bQuP+lPXTXytfoTW86k/75g/8sUlb5sMNiULv1VKIHwFA4JYYocENabp4SA8+RiMWQbVZcHYMPlc9CWGyBYSdfODAgBgSgDsJaG4kSQwFD5+7NlERbzz7u3lagu6qCr4+lS7M15sc66/dHEGd4q6XPOOEkDQxOmAWbxjCugYGL1QTBW5a+/vkv06vrN9Gbl7bTv50zXwAAu5H44J+5/iIAc18FrNnd4oPlcLAbgeu7X6STV5xCH/zPywAyzEgr3SnlPsZyJamgZVGUGMNWPsP6ACWGKHCzSInBz5yvfDYoMdgtwsWQAhhM8Yax5CNkLSqfR6HEuA6upLmzqeP1DZQ78hp19cZqDhjYhmILNYsA9IwzLoULzj+WaBzxdw0MjpgGewYxroFB7SxhNXz3lq/TqlVr6P+dv5TOW9BK3Yk0eZB1pCqfw/UMDAO8RMIqwBd7tL9w92pqmT2fLr/6I5RJJuAuMdiAhinyK2UWrQFDCSR6oP7mymdFWc3DT4BEL1MkiV4AJHooHxTWE7uSkj0g0XMX4kpiEj1JiTGWxXDktZfJ07WbOnuYwqQ2ahjya0Gl9WIzwSmrgWgzw6uxwkpZMZX9rAaGysrX0VcfWuDW0wfFV+CL59gYA9dXID3V09dBP7ztm7Ru62667h3LaXIdXEbwk7tNhXkMDH4UwqlduaLGYE79nzy5hfbHiW5AIDThr0f1LfMmVd9iGEy7zXEB60tLxAUQMA4gNmAOPrPFIOIVBfBA8bXYJcUkekJO+CxbDPEept2WQGHlYFmzay8UHTvGcHjrGvJ070WdTULENWrpEGsK68WLr5ZFb6TIZGaL1cBQS3M44cYqskiwYA9veo68cVBioO6g0BfPycAA7UXuzX+lO379W3ppfy994d3L8ympwiow0jWHAgM/EzfEiQZ99Of1B+iRNa/RFz75QYpPOwlZSkkji8eaArS6qKxZDNyoR9KVCIVj4eJKBXGdBtdxmOeL55+b/lhVU+I8yIx5pdQuXxU/cIYTA4RFXBD3ZP4q6VpRxH4DT8SUJbeAEmMBSPQOgQHY3bufuvuA0LUWYxACcVF9XZi8rfNrhhpDWwwWXq7xd4oqQ5Iv4qGNBiVGES/eUGBIowgsi/x2LnAbq46hvrFBMpda1SYFTARXZ/ejc1Zg45P0hz/8kdbsi9H1b11CCW70gkMVqYlA8xCLgf/OCtiPlMy9nXH630dfpY/86/uoYdnZUKRxZKxCbmW2GsYChkGPXoy8ZFQ9T2GS37WW5VoCZgtPwxRKfnhYkq09UfnMwID16eo9RD0x1bmugIVg86kqDTcagasy2kaTFp5WE0VuGhhsXjjVuj2nLAoiBZNCS6EfQ9/hXSIdkLLgQuImLgXuyI6zGND0J43LfPXBV+noKAVuN3I/BnRwq1SjHvG83FJxy0ra9dzj1IOEogWtUeFGUtYCfx8OGMyFWhxo3vD6AZp+2rkUmb+CcgAGEXwuRqGOMtljAYP4u6gss1pbfPzNlIVkCKCka41dJ211ZQ/UWw/aIOBZv3bD1aDdnoGOg38h6jtKcWQlqaQBq1e3+zyV0BAK+NGboYVal72pIhuhcj+nBoZyS9RB1xPKhP2+6CaljiwUW6LzEMBgB2V6j1EQefx9UOZmYrlCHmF4i4HoG49spoOdw1Q+YyffMqmFrv/szVRRi4FjJQhu5joPUu6F+8DvxJTNx9MRjGQxCKuBs2zYpx6OUHzBOZQJotsY+7htyEoqZE5GPte8O7fqQDr+ascV11muthvuWsNTREiLAT2fAQz71z1FBPbfeBLoXgIwlkeGhV1FUoegdoab9gSiNBUU3LXAmaSBobB5dvzZUlHLnb8CBP5d37OPUDLip1g2Rv4cM6XmBGOoyPEo4WUbCgwyx95NP121n7YdiZMfAVzzHpfTR5tamuiaT15N0Qb0IM5YD1gWInwBdJxBxHxJz99PKVhFHt9g2ukRLQYlE96hg6Y7PQ+FSVMXkBs/c1ZSnmKikAGNca41i0FOrejbzJaPFavFUNqCJ0qxqfJYDOtD9GewqtjFmoJMRazC9ECs/DAm7hRX8JiMOI8ckoldFT/fCothwezptHft4+j33CXIGVVWVRlFX/lLGWvG5fbRjDMvJY/By2VJVpUf3bB30MBgk+ArctshPCzctjH+0nPU8+Dd5Nm2ibxvfzv1zZtP2Th8taYXspSxHGcxwA/cDzD4+WjAABfSRwEM9Y3RysUYlE+dC9e2rabk2sfILXLvuf3kgAIayWKQ1hYkAyWYXnoB9YcbZUaSUqqlCG2Yz44FDDIDCFXGSJlNxrjJkEWfvtgjGF3XVCYR3x/XSifjlBLXYtfY2A+kxshFaR5vAB+QnBg8tgT3fGb5WAIrFi2ICjkGBJ6q4YLP/Hxfu+mjtGDmVNq9+lFypVClje6Cg3YZYw/ZGWfwWoK8PZBNG4rc/EymZxAQOmOAx49CA4NTZ8bSuAzlZVJWTP2WO4TUvheeoMxzT1Pk0D7qQwvHDIKuuRNOoOxb34YEdrCEGo1qLN1mlJOOAwYDdEa1GJphMVwLYED7zEoFn3nIQpmCH6j/yC6Kr/yDYRlJEjh1DBtjMFSVC7xE/aAyyCw6V5xeKVDga48FDDKVVtYxlNLBTdCkMy4YdQzppPXKZ5ZbDlZBnhID13LjQnlKDMYXiyEQ4XsXBW4jdHBji+FGCQy7VqF7WzqOAkN245W6Ym34vGEx+OBOallytkGmpxaUDeOxcEsNDBaE5LhT8FKJna8pdpBG7KBv28sUW/kEudetJW9nByXZVYSXL8ebSxQh9SP7Jvue91I/COMQ9S1LPv6wwIDd0c9GsxgADMJigCupUsCgxsU7M+bkSay8lzIHdgoWValk5awOBQZlSfGO1YUewxm4kbJT5gs3kshEsup2KXDRWAEGHhtXKhcLDOaez3ytFFc+FwAMQl5Gz+fhKTHYGrNW4zEADMP3fPZ4kNl2PYBhRiu9/vyDmAt0E0SMSLCT1uDByy2AAHR09nKKts2TrsAC6keq/cgaGKot8VLux35zU1ZRFtuz5J4d1PfqC5R68a8U2r+HUh0ABOzqXEZTEOk64d0J/MBwQ+QuvJiyy5aRG3TSQjtaMf1HGbNTgUENWRSGIVc+e2gnJZ6D1QDCOOFeNzZsx1kM+H0OO3MGglzDFMosPk+eqVz6JcprJFFaAQa2GJj0rhzAICjJSwAGfwBuOcOvUwpX0oiUGIbFsHDmFNr+1/sxKdjYKPdeKe+QTZ9lN2AATazC006gxllLjWJAayBqx5A1MNghdav3FJaBkV5pAALTuPUjzbR3/SpKv/gseXZuodzBQzKQjHNczCBq+MI5UJonOsPn3LAacu3tlH3Xu/O/L9U9MhowbD0cQzYGApWm5xXB5ypYDMoaMMwCAsczpdHsJbX5RWSHhEQYdqjFoPz4iMyj+soHUHgz5epayI1exnkAtRUYmF1VAkMhzYI4WM29lQdTYrhAidErLAYuVrN6MAgoV5KqdFauJBmqsObrEVYb7svAMBwlBgPX1268hhbOmESvPfN7WUdnJBRYHauTzuNyRGZZ9TXPELUMOWzYmJnWqYcGBifOjNEq0xwHyGAHG9/8MvWtfoYy616kYFcHZdBdLMUpmNiJDFWEQxMTxYvIJ3FLzne8k3KzZ5MbjWfK6R7p6+ZGPbBKcJufv3hg5KykKgFDXiYi+MexBfjo1/6Z0jtfFbEH/jfLJRRligd0cBMfwOjhesrOfyNlm6aLfgwMCpaCqiWspbEsBkWJkTaCz/JWVpSwzFLzh/gZQ4MoMdKJuAhkS9Czei24RECJwb0UFHUIA0QCXElZAKhVgkH+jA/8TTL4LF16ZrDj7CcBDO2TaOezfxBkiPm1WoKc7fooyyWMSnqKTKIpqGWQ7kwrMrdnxBoY7JH78XdVDepN7p0cN2XZ/zr1rHycUq+uodAxWAZoOJOEf9LFTWdUZpFhVYyWmW4ksQowyM6ZSzlkKImdcYlKTyk0fqAYlEMKWUlujO1nqw7QFjS6sdNiUEKWLgjl00WwdNuLlN62VtQ2MPVFXWMjFBS4fyDvnAfNbJacR/0RkJ0JRWe42yoUWxg0RvyDqSB+9L3bad1Lr1AoPEDsp+IiPAyRrirm3IpikefJdNWBpB5V7CbSVQsgxRCVvNjpD70Wj0mmkloZk4ACo6OeBGcBcyZFyT9//aZraH5bE+1Z9aCRkWQxsu2Ud9o8DgMYcr4oTVtxoRNHOGhMGhhsnqLhKpKTAIP42ucoBuvA8zry78FDwxkZGX5xOIdcgYjcalmuiM2/VohBZC+9lHJz5wqgKCU33/xSM1snK5pAJEL/88RW2rCnk4KgHLbLlaR2okrhiB0u/xIxB9eGp6n/wBZB3yGUJL6y3BmtcToF3vgeUb8g5MLuOZW0X8Ed3lgWg83LdNTbl7L7NX/WvMng1M5bb/o4zZsSoX1rHoVlDHeeUbXuZFmMODY8T9Dvo35fhKadepFly8quZ9XAYIfkecc3hFYhfQCB4+2bqOephyi7YwvVIdgWA3dRmmMLwhdpqFcL1sFwjyT2jfhsDgtUxBra2ij7bihAVn5GnnWpolDuAFbA33t0E23c1y06otkCDMcBpmzniW0q6KHBurrxL+Tr3CVAorejE757cP3nMiA6m0XB8/4B1gSsBZDVCVDBHCj5lRqsH0nGZmD44X//6DiLodS5qaXPs8yZ/fYWthgmhWjfS09QSnBc1a7FwMuI01X7vSGavuIiZMfJYkunupM0MFTrjcm7MwYCTjkoo/iaZymBIHJs/RqqA9NlCjvuFFeQchBZlrnKEapAsimgXOjQxWulFCYshdy551F2xQpUlcoMpbwToIidsdlyYGD4/qObaeP+ruq6kjhYL8KfJgXCv+PgqlDucF/0HiX3wR3kOrabXEYKaqyzE9k+CcSb0VGseTIqU+sp1zKHcvOWCHm54ItXGVzCiqiAW6l0i2GQc8dQomO4dYr4SKFrTpw/1OuVTwkb4WqMxfjT12/+OM1scNOh9c8guSKTz4Iqagw2f4iXjB/rqx80LW0ABm616uRDA0OFZ0dkCJmzPrBCEgCB1CurqPuvj6Pe4CgFoLR6uc4AQU8R/DQUDysgc2ZRuYYqPMGCZC5A2fe+j3LNyLzhYi52m5RwE7UD4u/fewzAsJeBoQoWg7KilNKWSCr6MYiAZbyb3Ef3km/HOgq9ulr0Jo4tPzWfmZVkcjbUdQTrIuThDJ7f3U2Zzm7KnX0RZS6EfBggGKzZgjBShtW8lAKmZlGbgeEH3/0Bvbx2HYURY2DSOKG/h4LREIvIXEk78LO0khTOH29EjfzHkSMYA3+RP8m7yRuZnsik/IfujM3rhFFD4ZNZltxI6QvXXUPL2sJ0cMNzqMnB5qWk1VnCwi7HR9kK4uvgHZ928vnkr2sULuFK9PYoy3Dj8Xjt2mflkEAlrqF2+aaagwxcRX3PgK/o5eeRFbONIijg6UPcICuCm1gy4jPGVJRgFYz1OMpqECAAS6F/9hzKciDasGjypm2RVoMKalbNlWRoO+nqYRkCiERQPk1uEOj5drxCgS0vUwAy9yJryp1E8D0Upq4LLqYMCv7YrdaP1FQGylwgQL5168j1+GOUY9IzxByooZmyJ7+RMhcBIOYuoX5OdcXvBUAYsYlyWBBmYPjO126jNS+8SBEAleB8UjGOUSa3KGAY6XpjgNBwH1MgUQ7lLVxJoFW56WNX0dnouHdo8wuU4H7bFuQw1vq37e/KIsd3BoZA/STtSrJtMqp8Y7ED4HsagNCPXWh87UpKrnqael54msKcuYE/x3n3yVaEoMKWu9t8BVWVFj8rItGmEuCQfQOqe994lvhZuErMbqsCZDjIYqhGjEGBAu+qDZdRPxpyerevoeC6vwow8O/fZ+zyObYA0MCXO52i1NRp1H32uQAFL6wl0IUgXdX7OiqjH3qI+lUaL4MnAwdbCn74hFecDTldROkTz0D1ODqPJWJy5srgXjIDw7fRinQQMFiYAzNB3sDPkv5DLakip9XC3ct/ihfzctPHrqTTZ9ZTx/aXQaDHGWS1WfUspCPiW5w17aIpJ54naDF0jKH868Y5VxwmdpDatwvFVKuo67E/Eu3fRSEomB4Onil+ItMCH8SRX6WnUoHUvKmIZ8hefAnlFiwEOIAEjxViEVqk6sDA71seFJC+m4lR+KnfUvi5J8nX1S00Yr8P7jnjWZRLRihyKJp02zTqO+U0yoAixLt2DblXr6F+uNR4nlQmknAZsUXHFeRsQcC66J/aTul3vJ8y575TUosIiu/S6DIGWQy3fqNgYKjS0hnxNhKjR3ZAFTo+Ttu9+RNX0+ntIerYuR69GFBzU8PBZ5GYgXUUDPioYcGZFJ40XXoJytzwqVA5j3S+jjEUK0mxDeO3QQaTeeJT2zdS9yP3CQshAgWTwMRz05q8q0iwnxqe1Aq6i6w8Uh4ceBycyw43SvYd76B+KEvhYioCHKoKDGobbFgK3Gio/u7vUgSy7/dgdw9XhMi5N4DbHBMQP/O0cAAexW1JFH4lN25C2ghcSgIEjNgOn8M/c0Cbd978EvPLzBYE5jfzjn+g1D9elU8QKCXDpNaBwcqaK+QcAQwfv4pWtPmpZ89mirErqYYtBrkBJNHiMzhzOdW1zhT1KIVUnRciv1LP1cBQqASHWAg8ufHVz1LPw7+j7NYNFMSuqQ8ZFJxVpALJeavAZjAY+qgKHDiFlRUdWO0o8853ETU358Ehn85qIeZQVWAwwJhl3A/envrf/4DqHrmHcqikzWclmXzlKrBpTjvlwK4bX9xDuacviZ9xLXHC8cQO5s/JGAY2e6AmSV92DaXe/UH8DNppo/CrmJRWDQyDVydXQX/qk9fQKZOJeg9spxiaSdWyxSA2InimRgCDb/oyqpsyW7jGCqE2KVRVlXK+Bgar0hsCCFmkOvatfIwSj/+JvLtfA38NUk3Z46x2leq6DgOD4cBB7ZDZvUItLZR526VE6JnAO+pCLIeqAoOYjxxiAxH0dV5Fzbd/Hm8e4jbs+RkaPB3y0HkXmmHKZ9B3uq+jS352jMyXoZaWC7GJ5Ke+T9kZ82Vaa5F05hoYBk+SciWd3JSh2JE9Ahi4h0MtH5yX1BANkbdtEdVPW6BdSbU8mYafKO8CyqK1Y8/zj1PfA/dQEMymaZi4AhDEFxZuvrNWPpGvJh5fKCYGNQ68giIig8pomtwKZSdjDnnLQWx9hk9qrSowQM7iP3AeNf3mNgqvfJiyEWQZYX4MVqgxkxvVeLnvdG8nN6yx5iPPW1qwCt3d4Kz6wJWUet+/oy9xt0xNtmBdHQfQhmuMFeJ3ajDGUM5FzvLlYrCb4Eo6sR58YJ0HKJbg4LNK1ijn3ap5LRc1wGLwTF1Ije0nVPPGBd9LWwwWRcYU131r4TL6w28otHsnxUH/kIFiyAdpRfqi0QmrSplFFoc+5ml5dSj89XgGthzge89eeBHlZszIU3TnqTNGuGJVgYGtBeSEe3o6qOV7N5L3yAHEFZg/ynrCZLHAwI+ftzo43rBwGcWv+zbG4yF3kQFFbTEMLCredjDf1s3ISlpWBzbZnqPSYqjRXgzqyTieEI0EUF2/kBpmLHI0w6oGhpHUpuGOYOM1sWsLxR78LbnWPk+JTrBIcq8D3hUa6alCSTjcZTQWOihFJ9M+DXBAMDb7JqR0Ll0qs2+4+5fI0hm++re6wADLAO0lPUf206SvXwVqbPxbjW2shzX+XgowKEsyB+oMd0srxb70cwTwg/n6BotDyJ+mgWGwxJj07+aPXUHLotiA9RyjXpAzjocYQzSMtGg0fmqcwVX1xmay0MVShfM1MAwj5LzCSCeo6893Ueah3xMdPUpJtgiMtMR86iNjQhUmqlq3yPvQ+TmZLwi/yC4/mXJnnC4qpTnuIOglTCmgYmwiICu5X0Tlc6XrGDhQDDeS59AemnzL5bIuZJig8WhyKxUYBJhyH+LGZkp89ZfUjx7GInVVu5KKXq48Jx5klHGpzw2XX0YnReOUQA+KLH6hwLPoi9v+QRcsBsQYJs+jptnYbDm4i5sGBvNiMRCcPZnxbeuo966fkHfzBuoDZYKL8+GVhVDj1sFY78egACufzOmrSGPNnvMmohntwtXkYoVoAIQK9lYdGECA5z28lyZ99b+EG0mkp471cKa/lwoMfCmm7nbVt1D8ll8gOyoiqUY0MBQwCwOnyjCXUZEHoP/cv15Csxu9iC+k5O9r/OCsJGExTIbFMEvycBWzVqohBg0MhpQVbwmIEajjgf+j3AN3UfrIEbiN/NKEVd2jxjkoqEU3CBz4mUElgeocyp14EuWWLydCUZiwHoycfzPfjbIYNuzvoaCXQ7oDLzU3XGlsaiy957NhMXjZYrj1CkFOVkh8QSh1w8IpNPg86MVkOmjQZsS/wsAQLhswrF21msIRtM+ssXhV8UpL8jp5uRgUQPC2U+fRv11wEiqewTVW+5ggxMIxhkgoSL7WeRIYLCY7FC/T4j+pgYGnxyCzSiHDpPNX3yHviyuFlUBMkysameCYIIBgXkpDc/dlcRfAYNIkyp56GvWjUhrpIwMAwYoWLzbXRbAraRP6MQSG9GNgJdzc0kzXXPtRlE0gwI1U0aIKw0yupOavSItBTFMB70JJwGDcSNBzAxjSt/yqbMDAlBirn19FddG62qaBKGAuhOKETHviKTpjwTS68p2nkgeKlBspCaK9cYAOymLwtS6ghpmLRTDdase7AkVZ8ukaGNj0xwLs27mZem6/FY1xdlDcqH6daFbCcKtJ+NFZ4RvgKGILnLWE3+VmzERgGsRys+cg/mDwy/OZ3V2CXXVDZ5qCIAsczmK44prLSwaGHGIMAVgMc2+7ChlBxQNDltNVu0zpqvmUo/wPx4tGCkbEYfobW+jgF9hiQIxhOFcSl1wMksLxl+NiOz44XfX7t32bXnpxzYSwGBQ487LqjafplLlT6IpLT8XOGj23EVcQ7kEjblWytrPxAuIZcH9OV/VNWUj1SFfVwGDjhIx6ayO1sHs1SO7+9zZygZc/w1w4TJWt8vonjCk/+iTlAcJY4OJsFYhubZXuJVRM+3e9ToGd2+kOE9YJAAAfKUlEQVTW2GR6JYfyf0SvzcAgOGNgVUTYFSV2gdZqB4bTzCAUoGh/ii5M7sVLVkCeqrqY8vHyd864YotDFM7xCcxqyhaI+jd/N74MsOQTuHI67vbRo40L0GGPacvl85jjLUnUN8h+yKPYM2qd4Zy+3l5UYyN2USa/uhqL1dew0POtXnfQeeyCxC84dsBWQSyZoTecMI0+dMnJFEanszQsdabeHhBLIbZgUSOq6IfEukcBZj0K3HxTUeA2HQVuxS79io5UXnziWgwGKHQ9+UdK/ur76FUck7vOCRJgLnZtmd1L+UwkZr7ES+xFS88o918A79KXk230ciYEAkEuOBtoTiR1KqyNMvHe8HhYMZfjUDBlvBqDvo12ff5cEFxNZtVlBoYEXJRjAoPpBqI/synLq9BnMyt2aemNcIXRFJNhLJltpnIAhtlC4GElQB/DG4VLEVP4m7NOEEDBlgKzkBaaZVaonKp5vrIYGqMR8rUtpmjbPJ2uWs0JsHIvFVPoeugeytz9Y+rrQ1tHxBMkDbZckDXN/W5FCCWco6wH9eKqf3MHtEhjvdgIfTk+lV7JBinoljtDpZ3KoVyGDn1wK6ASHmy4j47iTTKfznEV8zEIGHo6CwIGBZ5W/epDZSp0Kv5j9xQr2Sx25MpVZQYKNWK1K5ePKnvgsYJm5Sy+jJ/lXwcQw6JoBslFJR1xUDmLzcHctib627MW0Yp5U9C+E6kfuKjKQKrEWinz6rB8OTmXqHyOhsnffiJI9GbpAjfL0qvCiRxMdmFH1vknZB7d81OKgQ5bMLCIHezgPWMVhlPzt1AWBEvPCxdAHXZE7AL5eqKVVmXBY1RGKuZaElapwGDlWc27b7mEQZ+OL3bD8PcwKJ4bwwGKBH3i52jQT2H8HMLPrKA5AyiDdc+7dlbUCXxxb+VYEszA4t8Z/A0kkXBrxZkYEofHBBSswFWKcD5V2AAlNX5BWyI8cHJsKSQb8H1nTo7SeSfOonMWt1M05BfXZxAyxxOsAqMVWdl9jpwrN9UhXTUyZwVFJs/Q/RjsnpT8/Y1Ac9dj91Hm198XVL6idaLyNWtLoeip4oXPwBCuryOEoelHqUn0QKaB0IMMxXDqsrXtJy5EOJUChkFuIsOwZaUq3Fl+L7XWh2leWyPNndJIrY0RaokGqSESpDooX1bIMv11yAbIWPdKETNQ9AEc+sBP1IfU0V783BNLUmdvko72xqmjNyG+OvsSAlRY4TPACMuEwcmI0/BlWdl7UbDG924EHcQJ7c20fM4UWjZzsvg3AxJ/1qOaWxnmy3gCBV43CvDCSPmOzjsdwIB6oCLpUwpZh8WeO2FiDKr3ci+auHR//0vCxy0sBR1cLnbtDPqcAoZgfZSiriw9kqmnb8FqiCDGkAMylBZoLssQq3qRcgKD+VrKzZLKoNcHdt9hgMH8ac20uL2FTpw1mdpbokgR9qLxPDrWAQMysB4yhitJ7H9GkYJyDbE1wffxYIfL+ppjAKzgWemzEudrZrNsAeQEaBzrAUMAQKIT4MFkd1yH0I9zvbDMQwEvTQJYtQGkprXUCcvFB6CQgMAB2QGlqRRoVSeqSjdTcMwymbTkHAq3tAkZlSvBoNyPMTGAwbAI0q9vo8Nf/CgiXgkShnGZAqDlnpRavJ7ZYkD1B3X3e+jTiWm0r98HdxJAWICDePVr8fEKHnO5gGGQuwjahd077Ief3lxHZyxsoxVzp8It0wCLwAc3DSttSR0hYwpS5kriowW0zeNVDytjRwNxBY49yJiwvKKyCMxxCPV3ZZPIRAPpRmJQ4Z8VE8R4dRsNt1jMrVennfwWCjZOMVKYnfk+jH9gMEAh19UBULiG6MBuSrCSEiu+mPBZwTpiQnxAAUOkPiKykEIAgycydfTtZKtwLbk5bdVIKVWeOykYZ74YpU5aOYAh7+HEYBgQ+Fg4vZnOXtROpy9oo2akPvJ9GBB49y4yeUxHORTvcIAxVDYDAGIgyZATBFGJCaAkqAyk9JYq61r4vLAMBFa7adopF1Ag2qyzkmydOIPK4vA3P0Oel1dSD5tvzNAlktTHp1KyQ95mi0G6rF2wFLJ0T6qZfp1G0x8Myg9wGJy4asdIq3PPcgADa9M01irvtBfCXXThybPp1HltCNb6EKyFi05UBctlXA4QqI5kJuhdAAjwoCHe5qW2U86nQKQxz7jgRImMa4tBpaX2PnofJX7xHYqzehKFTMI+1kcZJTBgMaBwDdcVOgs/BCHoZ5Cd9FsAxN5+L5oayeRSwxlRxhE461KqqpW/J4pIVxU1IrASmkNees+ZCwEKcwS9iEjz5Dx/IyNIAJCwf8cHbYSzZrGMo8Gi96DGh9x+mn7qheQN1jm5vm0cF7ipuAK6rB35/NXUH49RhqstjRdJI0MZFz3bX0ZWUgRZSbIOhK0yCQJBWA49AIWXsiHalAtQV85DSBrOVwmXdyTOuJo59ycHyg0BFBbdZiKLC0WDPnBKveXcE2lea71I55yIvnlnzGbpo+BXggPP3ENk2ikABhAuOrn0efxaDEb84OCtN5Bnw4sUYz1lbqxT+lzrK5gkMMhiyPuPZbkUT4UHbiSONYBwBKAAiiFWkgOmwziXZQEuSwEKGcqgrWrsrLMpEYqAeYSrg8dvjv84n3zxeFzD4GNWAF+Ipq+4GB3q8CaI2oYC1kYVBTU+gcHID06sepq6v/sFSnBcYaBmUwedK7DAhgOGwfnykkVIefDyCUrapZefDYGTqLXJAgy63nw+ZaPoYZ1Ji3RRPpysSCqwpMbVJZl8MoTU4pw3Qu2nXiQbSzn4GJ/AwMZBIk4HP/Vf5D64m5ICGOSLpY/KSGB4i2FgN6QyV1wqO6kyw6jZqwr5QFxuuJB6Tn8DxReCNwhp1UzVnAdTh+4ua1boVR04gAGV51lvmNpPu6Sqdy7mZuMPGAxroeeR+yj5y+9QH3daZO5+oyRdxxaKWSZjf2YsYBj7ChP3DGVJuRGLyDQ0UNdbLoLLwSd7bAMY8pX5E1dENf/kYJyiEKrPc34U+p0Ci8Hhx/gDBrYWkgk6+OnLybP/dUpyAhLHFgy/t8Pno2aHp4Gh+KnLWwTpFCVnzaGus88lD7dTZVAQloQz/dDFP/HE+yR3bwsF4UoKNFLb8rc4uheDWHLxeHz8+FcMayH27GMU++FXYC0YPEgTbx1W/Yk1MBQvcknfiNcQFkNi4SLqXXE6ubivthFbKP7K+pNOkYCyGCg8iaaeeI5IyHAy3o8vYDBWwcHPf5Rc215FhTObD4IRSR8VloAGhuIFrHh9XbAYErPnUfdZ52iLoXhxOvSTLjDb+snTOI0mLzrToWMcGNa4AQZVzJbeuZUOfv4q6k/BFB8/tpDjF5IGhuKnaFCMobGJus5HjEG7kYoXqBM/ifnkrCR/yyxqWXCqdiVVa47yfRZ++2Pqf+BO6uFkedF4Rx/VkIAGhtKknI8zwJ3U80bUL8BycCNWxgDBh441lCZf+z+NrCQwy/qnzKWWuSc7midJrLfxFGPo56AzrAXX7u0IOqPK2UhTtX9RjP8RaGAofo5VnZ9wKYHSOheNUtd5F1A2HEH6agrVgaiY5cuLqn2jLtDUO0S1jRw0giE9FoaOTqRu6/4jxU9agZ/kWhQ/dzicvogaZi5Rs1jgVap3+vgABmORZ0B/cejGD4F6WBrn6iWqnjgn7p00MJQ290rxcyEU1zKkUfnc84azUeQWJVfK6Cd9XLRymNJx4xwPGNvcop+CIMseNDjmVZL016DBZppudV3jPZLnS/oYfZRJApAx98mon3UiRacvdHyx4vgABiMbqfuB31Lyzh9RnEllxP8kOOij8hLQwFAmGXP/AigRzkrKNjRS7MTllJo2nfphNYi1rLCA06/ZwjApb/4719Py8vf4/Ghhi1oIBgf+LABC8YTlYJX058C9xA130glw+EjwYMuDO6nx9zRcWtzmkz8vSSc1SJQ6wwHEGKKzT6H6afPkJDEVt0OPcQEMKvB88JZrybthrShq0/GF6q44DQyly/s41QvFze6ezKTJlGyfQRkEprnwTTDGZ8GfhMpoN8ghvfjuZ5JIELTV/9OV5KlvEjQaTHIuU16h9PPAYDAAGEWfnLWXSSUoi69MoodSvV2UjndTJhnH9140r2eupjRYXdEGl5WZ2boo/ZEnzBUYAnyYu8YFp1Nd60xtMVRr5vtjvbT/5g+T5/B+UdSmdzjVkry8jwaG8sjbbAUoF48Lu3dRvY8iqX4/UxFis8nuJd75s3UhGzJQAMRsng/fTN5Fy0seTC6DYrueDkrHuih27CAlug4DZrLoK+2nWBxB8fwrJongtNtpdJGzjHxeDzUvOgttPac5nj+y9i0Gw42U3Lqejnz1k5SNx7lJrQaGklVDYRfQwFCYvEY7O285GOyb4t8qmGy4dARoiN8Zm3i4i5rB3hl/9wfJf9ZFMJj///bOLcauqgzA/zkzc+baKUKBchETiBjBYhVClEskxGDUYOKDwQeNmsjFxEvwDk9E7vHFJ+ODLz74agwJGhNK6g1CRMQWKm1BEKbt0M60nenMmfuM/9rn7Gk7tDP/39lrn332fDshBfqvffnWf/a319prr6UyaU7UtnIGz0aXUnNrtgDS/7f81mLF+4wgiqnRQzIxMiRTR4d17eawNsS8zg4eupsQw1q1H4jXtH4u3KbLem7eQothLWDr/vswJFV/AJPPPyvzv35Sxma1HymsBUCf6LrRenaAGDy07LHLw1jDKLsVN+vwfiFpMYTd6cPQJr3xzFx/m/R++VsZ3HjCy+fGea4Uy1z9hEwfOyTHD7yus7/qg5huQRJMVLlKvYb1GPQ+dfH25rKe9hRoSWTbtxjS9wvjv/uNLD31WxkPTtCpigv9vXlLqjruQRFDXL5r7j10VWjQ/AVbZdODv9AXz51rFvEHNAZ1pL+tJX0omzjytkwc3C+VmcnkhXVYipSHsveSDe98wkixi7ffIbX+QT/6nEu0vRgCr5Cro798RBafe1Z0ouIGQloMuaYSYsgV93sOFrK+Grp0untl4KFfSUXXdIi1LXdFNVswodtq8vBbMvbOXulcmtV3EDN0L50BfhjxddmNn9dlPUPdnGGocawKO4f9lkIMQQKHfvYdkX2vypwOr0MM55AJ6yyCGNYJcJ3Fw3NQMvpRWwoDP/y5VC+9ovFwFHumtlOOsTA3I2NvvyZjB/YmY/andTQTD2iNrrj05fwVn7izKYZ1Vnjk4qUQQ+g6Ovjjr4sMH5SFSjKSOzI2dr+SAGJobU6kN5/Qaui9+6fSee0N+Yhh+bJPPgHPjI/IyP6XpHO+LpNhMEizFb9RX1Kn7qzqdyWX3/jZxnrPeUh7HSlZCjGE9RcOfvtLIvVJlLCOZFhPUcSwHnrZlA033h7tx5Y7vyK1277Qgvl4Tr6DWNLupWNv7ZbJQ2/IQliudANPT5N8PBiac9VOef+Nn5OOWg9dSdmk/Op7WTwxLge/e5csJYubNJnncWCOcfJ5UZ+AOmtd0j84sNx0LupC56WstjAEVYesDnZ1yNQnPyO9X/yGDsJYkIqOnc97O3Vt6vqRITn+xks6fHZOv6TWrqUNuAUpJEsuddZUDJ9VP3RnMGosLsi2bjGkCTh3ZFgO/ehrOo3ALJNgxM2Xs+6dFkOLwKeHDe8S9OXmedpiqN+gQ1bvuk+HKOlQ7haIITmlpKsk/Esl+Thu5LUXpLo4I9MzqRyK/fI109rU9546klg/fe7V9Z7vSMRAV1KmhE/fWSqG2QNvyvAD9yTTBDA7UkTgq+waMbSG+/JRl8VQkfp1N0nvV7/XmBam+ZFbq85uSb8pCvMtzU9PypE9z4nMnpCp6VPl0Kozy/G46sAubclVuvvlku2fTuaxKvrW1i2G1LrTb+yRww/p4jyh6VzgiamKngzrOT/EsB56GZQNXUmdOkmbTohX/9DHpf+bPynMU2n6rdGCzr90eM/f9JuHCalP63Ti6WfbJR9aHpzdqXVT7d4kW7ffrgPHuuhKyiDlz76L8IWzPo3U9+6So498Xz941vlkoh6QnZ+NAGJocW6EIZH6z6CKYfrqj0nfPQ+0+IRWHr7RdbSoQ1rffeWv+j5wXKaa3zsU7EQzP53QYgothmr3oLYYbk/eBRV9K0WLob5vt4w+fH8yBfFiyZ8+ippQiKH1NRNuOKHFMPXB7Q0xFGxIZNr1Oz9Tl+Fdf06m05iaaa410Xp80c4gCLtXv+tY6j1PLg1iiP1tSQZX0uZiaLQYplQMIyqGMIUwLYYMsuIcdoEYzgFa1kX05fNgmEgvtBj0W4aiiSG53KaswnxL7+7aKYvzOt13eEle4i20GMJaDNX+82XrdZ9KWk5F30ohhrTFgBhal26IoXXsl4+ciqGgLYaThBrdSnWdpfXo3udkXifgWwyzJJd1W9IWQ68umtSHGPKp4vQdQ7MrCTHkg/1MR0EMrWPffmJImg6JHEb/+2+ZH3lTJurLs5wVAGS2pxC6jnq7dSTSshiy3X+MvdFiiEF1A+4TMRSg0tumxdBY2CmZIkOHmB/81w593zDZHMZavs7gqg4Z7unWuW/7LpCt224tQKKsfQqIYW1GRBgIIAYDpNghbSSGBEXzfcPE4f/J2P4Xk0n32uC9rLsWgwD7uvVr537E4IZ3TgXoSjonbDEKIYYYVJ37bDcxNC8vfAQ39I8/SXWurtNmhI9Uy9VqCLLr6+mWysBFctG1NzsrtTXhtBhaw710R0UMBajSdhRDs9UwNrRP5ob/I+MTjRXhyrSFFkN/b2gxXCgXI4YcqpYWQw6QbYdADDZOUaPaUQxNIHOTY3Lw5R065DyMUArLipan1ZCIoadHFge2yFbEEPUn0Ng5YsgBsu0QiMHGKWpUm4qh8SJa5MA/n9HupAmdaE8nwyyZGPq0xSC0GKKm/8mdI4acQK99GMSwNqPoEW0rhsZEeyP7XpSFY0MyGeZRCr/tkmzJcNWeWvKOga6kPCoVMeRB2XQMxGDCFDeoTcWQtvzHh/bLibd3yUxYt6E8PUnJsNxGi2GLiuGWuDmQ0d55+ZwRyI2+G8RQgAxoWzEoO+1Kmhw5IMf2Pp+MTCrTFrrJesOopNCV9BHEEL9uaTHEZ2w8AmIwgooZ1qZiCBNfhrWqZ8dHdf6kZ2VuISwRWp6upKrWS29Nv3zWl8+IIeYPIN03YsiDsukYiMGEKW5Qm4ohhTI7cUyG9SvoeR2ZVKquJF3Ys7dHv3wOk+htC5PoFX+jK6n4ddQWZ4gYClBNbS6GGV0C9PDunSoGnSVZh6yWaevRuZIqvefLJR9VMbTB592IoUzZ18JrQQwthJ8eumBiCCNOF/Qmn8yJtMrw0/B3obulfmxYRvf8XWbDNNw5DleNfp/WA/TUdHZVXY/hkjDtto7Asm4dLVqREjFYa4i4VQkghgIkSMHEYCbS/Pq5enxIxva9oKOSdFqMnN4xhJUR5sMrDfPJ+gMrWi81Xdqz0jso7/vwbWEBaP9Oci6BGHIGXtbDIYYC1GxBxJDOnPrW0Ul5+cBR6eioNmZTXRVRRSaPvCNTo0OysKBdSRqfx0duQQibu/QdgK58d3KOpmwX0qnqU3+n1o3U+mTL1ddr66hj1QZRaMGki+9ds3Wz9NXyXwoUMRTg91yGU0AMBajFgohhQd8PhC6Qx595VR57/h1d37mefMC2et/6UmMltxmdYbXZfZKHGMIdeECnqxjQp/j0eFkvvVlRJSb71jt+6DJLxXn2jAlSlEQmv7/7Jrlm66ChTLb5hxiy5blh94YYClD1BRFDmOsoPCU/sWOPPP6X13WthelGC2AVRI1XCqFPJ2anzntPIAyV7e/qkVpVJ7lrHjtrMZx2VG0NhPbI6iwaa1UEP/7xvlubYsj3nTViKMDvuQyngBgKUIsFEUPaYghieHTnPhXDzJpiSOgtd6E0unLyaDEEMWzq6pbujlo0MaQv3xt/hhv86i/j00wKra6n772FFoP7p8V3DG5ksQoghlhkHfstoBge8YjBcalZhTbE0BNVDOd6rqeLgRaDnSNisLOKHIkYIgO27B4xWCidFoMYzoyMriR3KlHgTAQQQwHyAjG4KwExIAZ30lDATgAx2FlFi0QMbrSIATG4k4YCdgKIwc4qWiRicKNFDIjBnTQUsBNADHZW0SIRgxstYkAM7qShgJ0AYrCzihaJGNxoEQNicCcNBewEEIOdVbRIxOBGixgQgztpKGAngBjsrKJFIgY3WsSAGNxJQwE7AcRgZxUtEjG40SIGxOBOGgrYCSAGO6tokYjBjRYxIAZ30lDATgAx2FlFi0QMbrSIATG4k4YCdgKIwc4qWiRicKNFDIjBnTQUsBNADHZW0SIRgxstYkAM7qShgJ0AYrCzihaJGNxoEQNicCcNBewEEIOdVbRIxOBGixgQgztpKGAngBjsrKJFIgY3WsSAGNxJQwE7AcRgZxUtEjG40SIGxOBOGgrYCSAGO6tokYjBjRYxIAZ30lDATgAx2FlFi0QMbrSIATG4k4YCdgKIwc4qWiRicKNFDIjBnTQUsBNADHZW0SIRgxstYkAM7qShgJ0AYrCzihaJGNxoEQNicCcNBewEEIOdVbRIxOBGixgQgztpKGAngBjsrKJFIgY3WsSAGNxJQwE7AcRgZxUtEjG40SIGxOBOGgrYCSAGO6tokYjBjRYxIAZ30lDATgAx2FlFi0QMbrSIATG4k4YCdgKIwc4qWiRicKNFDIjBnTQUsBNADHZW0SIRgxstYkAM7qShgJ0AYrCzihaJGNxoEQNicCcNBewEEIOdVbRIxOBGixgQgztpKGAngBjsrKJFIgY3WsSAGNxJQwE7AcRgZxUtEjG40SIGxOBOGgrYCSAGO6tokYjBjRYxIAZ30lDATgAx2FlFi0QMbrSIATG4k4YCdgKIwc4qWiRicKNFDIjBnTQUsBNADHZW0SIRgxstYkAM7qShgJ0AYrCzihaJGNxoEQNicCcNBewEEIOdVbRIxOBGixgQgztpKGAngBjsrKJFIgY3WsSAGNxJQwE7AcRgZxUtEjG40SIGxOBOGgrYCSAGO6tokYjBjRYxIAZ30lDATgAx2FlFi0QMbrSIATG4k4YCdgKIwc4qWiRicKNFDIjBnTQUsBNADHZW0SIRgxstYkAM7qShgJ0AYrCzihaJGNxoEQNicCcNBewEEIOdVbRIxOBGixgQgztpKGAngBjsrKJFIgY3WsSAGNxJQwE7AcRgZxUtEjG40SIGxOBOGgrYCSAGO6tokYjBjRYxIAZ30lDATgAx2FlFi0QMbrSIATG4k4YCdgKIwc4qWiRicKNFDIjBnTQUsBNADHZW0SIRgxstYkAM7qShgJ0AYrCzihaJGNxoEQNicCcNBewEEIOdVbRIxOBGixgQgztpKGAngBjsrKJFIgY3WsSAGNxJQwE7AcRgZxUtEjG40SIGxOBOGgrYCSAGO6tokYjBjRYxIAZ30lDATgAx2FlFi0QMbrSIATG4k4YCdgKIwc4qWiRicKNFDIjBnTQUsBNADHZW0SIRgxstYkAM7qShgJ0AYrCzihaJGNxoEUMpxbAkUqlIfd9uGX34fpHFRdH/w9YCAoihBdBXHrIgYlhcXJJqtSJP7Ngjj+7cJ9X5GQn5UcTfZhDDQFePdHfUknMMW0XvKUXYOpTh0/feItdsHcz9dCpTU1NFrC8biKVFrcUqYrDRihq1LIbNm5IfVvjvovzAol54kXaeiuGq66Tv3gdbdmYLKoZwU3v8FDEs6kNbeIgr0pbKalPBxJD+dhSh/OG+WxMxBGflia/NxXCyxXDssR/I0kJoMYQbUrVI+bchzmVJJd1V65JNg4ihVRU+rzff83tqMn7lNum75wHJ/W7SvPC0xfCkiuHhnfulMj/deBrP885mqQQ9pXDHGOzqlr7OHlkMD5oFazE8dffNtBgsdXmmmKWZaZl68zUJzyOJGJJ/Y8uTQMJ9YUGkPrF8P2q2zPM8jQ17rKSVFupAn9Zrl18pHZd9oOUsDoxNySvDx6Xa/D0WrTMp3CdCV9IF/SqGrs6EV+g+afXdI3Vo+POqLf3S09WRe122d4shd1wcEAIQgED5CZRHDM1mYPmrrNhXSCuh9fWTvNspQLdNUV84r6yhIvcwtKoayyOG1v8eOQMIQAACpSCAGEpRjVwEBCAAgewIIIbsWLInCEAAAqUggBhKUY1cBAQgAIHsCCCG7FiyJwhAAAKlIIAYSlGNXAQEIACB7AgghuxYsicIQAACpSCAGEpRjVwEBCAAgewIIIbsWLInCEAAAqUggBhKUY1cBAQgAIHsCCCG7FiyJwhAAAKlIIAYSlGNXAQEIACB7AgghuxYsicIQAACpSCAGEpRjVwEBCAAgewIIIbsWLInCEAAAqUggBhKUY1cBAQgAIHsCCCG7FiyJwhAAAKlIIAYSlGNXAQEIACB7AgghuxYsicIQAACpSCAGEpRjVwEBCAAgewIIIbsWLInCEAAAqUggBhKUY1cBAQgAIHsCCCG7FiyJwhAAAKlIIAYSlGNXAQEIACB7AgghuxYsicIQAACpSCAGEpRjVwEBCAAgewIIIbsWLInCEAAAqUggBhKUY1cBAQgAIHsCCCG7FiyJwhAAAKlIIAYSlGNXAQEIACB7AgghuxYsicIQAACpSDwf+hUI/xuLVhTAAAAAElFTkSuQmCC;" vertex="1" parent="1">
          <mxGeometry x="126.87" y="170" width="106.27" height="100" as="geometry" />
        </mxCell>
        <mxCell id="H7RTySpPC0p8DqEm5PfO-18" value="1" style="ellipse;whiteSpace=wrap;html=1;aspect=fixed;rotation=0;gradientColor=#0057D2;strokeColor=none;gradientDirection=east;fillColor=#2395FF;rounded=0;pointerEvents=0;fontFamily=Helvetica;fontSize=16;fontColor=#FFFFFF;spacingTop=4;spacingBottom=4;spacingLeft=4;spacingRight=4;points=[];fontStyle=1" vertex="1" parent="1">
          <mxGeometry x="60" y="190" width="30" height="30" as="geometry" />
        </mxCell>
        <mxCell id="H7RTySpPC0p8DqEm5PfO-20" value="2" style="ellipse;whiteSpace=wrap;html=1;aspect=fixed;rotation=0;gradientColor=#0057D2;strokeColor=none;gradientDirection=east;fillColor=#2395FF;rounded=0;pointerEvents=0;fontFamily=Helvetica;fontSize=16;fontColor=#FFFFFF;spacingTop=4;spacingBottom=4;spacingLeft=4;spacingRight=4;points=[];fontStyle=1" vertex="1" parent="1">
          <mxGeometry x="60" y="330" width="30" height="30" as="geometry" />
        </mxCell>
        <mxCell id="H7RTySpPC0p8DqEm5PfO-21" value="" style="shape=image;verticalLabelPosition=bottom;labelBackgroundColor=default;verticalAlign=top;aspect=fixed;imageAspect=0;image=data:image/png,iVBORw0KGgoAAAANSUhEUgAAAVoAAAFVCAYAAACuByejAAAgAElEQVR4Xu2dCZwdVZX/z1u600v2hSQkBAIJgUASw+KgA6OMKDCMwuDCX1FEAi4ooKL+iajDjqL+FXAUkQgDwogOfJDN+WgUdUSBsAcJ2dhCFpPO2ul+r/v1e+9/z62u7pdON32q6tat5f0KHp00p+6t+t1T33fq3C1TKBSqhAMKQAEoAAVCUyAD0IamLQqGAlAACmgFAFo4AhSAAlAgZAUA2pAFRvFQAApAAYAWPgAFoAAUCFkBgDZkgVE8FIACUACghQ9AASgABUJWAKANWWAUDwWgABQAaOEDUAAKQIGQFQBoQxYYxUMBKAAFAFr4ABSAAlAgZAUA2pAFRvFQAApAAYAWPgAFoAAUCFkBgDZkgVE8FIACUACghQ9AASgABUJWAKANWWAUDwWgABSIFLTVapX4k81m+1qis7OL1r62kV594++0YVMbrd/YRlu27aJCsYsKhS7qKVf0OUk6KpUKNTWNoKsvvVD/5L9nMpkk3YK1ay2XyzR61Eh65H+foB/dejeNGT1K61V7cPuzfvyzu9ihfyZJT/b3nbva6f3vO1F/+M+5XM6axkNVxBp2dZfoN0t/T3MO2o9GjWqhiePH0CGzZ1B+wPX19JTVNWcTpXuUAkcCWgewpADrwKajs0irX15Pf3xsOb3y+iba8Pet6rc5qmg79ZCpj8PWZAHWbViAVu7iAK1cK5OW+stKfQF0d3fT5df+gLoVSBm8uUyVpu87iSZNGEtHLDiYjlpwCE2cMKYPvO6zzHFDkr7sTGonKcs6aCsVjmAdwO5q76Sl//sMPfLoc7Rh83bVUBzZVqlS7umNch0g10awbiQjubm42AC08pYAaOVambbkZ6tQLNKV3/oPKnZ1UVb9nYOdbC7f9wZRVW8Xhx8ykxbOn03/cMRcOmC/KX2XUVb/L1fzdmr6+pJcnlXQupAtFrvpgaWP06+XPkG7OrtVwFpWGqrXafUP/8t2jOJkxq97uwNAK39EAFq5ViYt3RRel4poL7vmBg1aN0J1AyM36GHw8mdEQ5YOmTWD/vXEt9OCw2apv+f1JQG4e7eMFdDW5tCWPbuKfnH/n+jV9W1ULpf0t6abqzXpOHEqC6CVtwZAK9fKpKULWgasC1rOGw/sD2H4OmmCrHp+VXohm9Of2TP3pXcddwSd+M6jKZ938s3s97X9LyavN2llhQ5aN4ot9fTQ3ff9ge79n78quHJDlPvyrtVqmuJXRLRBHgKANoh6/s8dDLRDQZLfPFVST0e8Lnidd9As7T99Hzrj1OPpuGPmA7Y1zREqaN1IdsfO3XTDT39Fy196XedfuXEG9iT7d5H4n4mIVt5GAK1cK5OWXkA7WL06vcD9KZwAVHnaeYfOpHM+cgrNOmDfXuD2982YvO6klBUaaN1IdsOmrfTdm++l19erkQTVHvW6sedQnaQIFeQ6AVq5egCtXCuTlkFBy9fiRrj6utRbazZbpdNOOo4++oF3U4PK3/Kzz0PC6vEIBbRubmbT5m101fU/p01bdirIlusqiq11JoBW/mgBtHKtTFqaAG3t9fDoAx6xkMs30qz9p9Anz3ovzVEdZ0kb82xKY+OgdYXcvmM3XfG9O2ndxq2UUeNguScyiUOzTAgN0MpVBGjlWpm0NA1a99oYuJxOaGpupE+fdaruMOOj3oBrHLQMlZIa7HzV9++il9ZurNt0ASJafxgAaP3pFvSssEDL1+WMx1U/1SiGU044hs758MnU2Nigh3G6Q8eCXn/czzcKWvdb6vZfLqUHfveUGlhQ0pFsvR+IaOUeANDKtTJpGRZo3bfYvjG5uQY6ct5s+r8XfpiaRjTWzRAwY6B187JPL19D19x4N78b1G1OduADANDKkQDQyrUyaRkWaAdeI6+ZUFUdZTzu9tIvfIzGj+W1LNIf2RoBrTuoudjVTV+99jZ6Q+Vlq7rzKy1zu4K5NEAr1w+glWtl0tIWaLkevUCNgu3MGVPpsi99nMaNSz9sjYGWXw3ueejP9PP7/6ym1JYA2ZqnAKCVIwGglWtl0tIWaN1Ugp4MoWaX7Tt5PF21+Fy9aE2aZ5IZAS03+E61QMznv/Ej2t1RVIK5s75MukJyywJo5W0H0Mq1MmlpC7S116zXlso2qNlkk+nyr5xNE8aNTm0aITBo+cHgOdH3PKyi2V9xNNuD3OyAJwCglSMBoJVrZdIyCtDy9TuRbY6mTVWR7SXn6vVv0xjZBgYti8WrcV18xc309y27dG42aQtzm3TYwcoCaOUKA7RyrUxaRgVavge9tKL67LfvPnTZl8/uTSOkq4PMCGj1SIMb7taLdAOye7s/QCtHAkAr18qkZZSg5S7zPE9sUJHtDLUozVWXnEPjxqSrg8wIaK+/5T569MmX1CxbHjeLkQYDHwCAVo4EgFaulUnLKEFbDx1kgUHL29BccvVPaePmHc56Bgnbz8uksw5VFkArVxmglWtl0jJK0O7ZQaZ6yLL51HWQBQbt31a+Rleq6bbdpVJ6tkQw6cGqLIBWLihAK9fKpGVcQJvWDrLAoH3wt4/T7fc8ooJZtQQiptsO6vsArRwJAK1cK5OWcQJtGjvIAoP2ptsfot89+rwK2xi0yM9i1EGwxx+gDaaf37PjBtq0dZAFBu03vn07vbj6DWdYF0CLiNbvk957HkAbUECfp8cNtGnrIAsM2vMX/0At7L1dRbTqO8jZRRzHAAWQOpC7BEAr18qkZdxAO1gH2QH7TdbjbJM4gywwaM++6Du0c3enWnNSL9iFYxAFAFq5WwC0cq1MWsYZtHt1kKm1ESaOS9YMssCgPePT11CpW4044D2IcSB1ENAHANqAAvo8Pe6g5dvqm0E2TUW2atUvZyGaZMwgCwza08+5HJAdxrkR0cqffoBWrpVJyySANskdZMFBe+6VyBkAtMaeeYDWmJSeCkoCaJPcQRYctIuu8NSg9WiMiFbe6gCtXCuTlkkA7WAdZElZYhGgNemtQ5QF0MpFBmjlWpm0TBpok9ZBBtCa9FaANrCaAG1gCX0VkETQJqmDDKD15ZbeTkJEK9cLoJVrZdIyqaBNSgcZQGvSWxHRBlYToA0soa8CkgrapHSQAbS+3NLbSYho5XoBtHKtTFomFbRJ6SADaE16KyLawGoCtIEl9FVAGkAb5w4ygNaXW3o7CRGtXC+AVq6VScu0gDauHWQArUlvRUQbWE2ANrCEvgpIE2jj2EEG0PpyS28nIaKV6wXQyrUyaZkm0MaxgwygNemtiGgDqwnQBpbQVwFpAm0cO8gAWl9u6e0kRLRyvQBauVYmLdMK2rh0kAG0Jr0VEW1gNQHawBL6KiDNoI1DBxlA68stvZ2EiFauF0Ar18qkZdpBG3UHGUBr0lsR0QZWE6ANLKGvAtIO2qg7yABaX27p7SREtHK9AFq5ViYt0w7aqDvIAFqT3oqINrCaAG1gCX0VUE+gjaKDDKD15ZbeTkJEK9cLoJVrZdKy3kC7ZwfZPmoPsk+oPcjGqA1mq2r7Q/P7HwK0Jr0VEW1gNQHawBL6KqAeQet2kFEmR/urrcyvvmQRjR7dGgpsAVpfbuntJES0cr0AWrlWJi3rEbS1HWSZbI4OmD6Zrv3aJ6m1pck4bAFak96KiDawmgBtYAl9FVCPoK0VKpfLqt28czR/7oH09S+cRQ0NOcpm1e8MHQCtISHfrBhEtHKRAVq5ViYt6x20OmerYZunk44/is7/xGnEz60p2AK0Jr0VEW1gNQHawBL6KgCgdWRjsGayefrsOafSie882hhsAVpfbuntJES0cr0AWrlWJi0B2n41Gbb5fJ6+9Y1P08EHTjcCW4DWpLciog2sJkAbWEJfBQC0/bJxJ1kmk6VZB0ylb192vkop5AIP+QJofbmlt5MQ0cr1AmjlWpm0BGj3VJPztZxCeP8px9JZHzopcFQL0Jr0VkS0gdUEaANL6KsAgHZv2ZwUQgP9v8vPp5n7Tw005Aug9eWW3k5CRCvXC6CVa2XSEqAdDLQqhaCi2nmHzqSrF58L0Jp0uDDKAmjlqgK0cq1MWgK0e6vJudos52vVZIZLLjqT3nbkXN8pBES0Jr0VqYPAagK0gSX0VQBAO7hset0D9Tlgv6l0/dUXUM7nJAaA1pdbejsJEa1cL4BWrpVJS4B2cDXVGjPMWcrm8vTFT32Qjj92oYpqq2q8rbeFZwBak96KiDawmgBtYAl9FQDQDi2bM4khRwfOmKLH1jY25D0P9wJofbmlt5MQ0cr1AmjlWpm0BGjfXE09tlbB9oqvnEML583yHNUCtCa9FRFtYDUB2sAS+ioAoH1z2XRuVoH26LfMoa9/8SzPGgO0niXzfgIiWrlmAK1cK5OWAO3wavJssebmEXTjtZ+nKZPGeRruBdAOr29gC4BWLiFAK9fKpCVAO3zqQA/1yjXQOR8+kU496VhiX+XpuZIDoJWoFNAGoJULCNDKtTJpCdAOD1o90ktNYJg/dyb9+8VnqzVr8+ImAGjFUvk3BGjl2gG0cq1MWgK0b65m7V5iObWy1203LqbxY0aJmwCgFUvl3xCglWsH0Mq1MmkJ0A4f0RLxLmPO6IPPf+oD9K5jjxA3AUArlsq/IUAr1w6glWtl0hKgHV5NnryQzzNoG+iYIw6hxRd9dPiTei0AWrFU/g0BWrl2AK1cK5OWAK1MTV4+sUo5mq3Wqr3uss9QHp1hMuFsWAG0cpUBWrlWJi0BWpmaGR5Pq0Lb5qZGumrxp2jOrOmiExHRimQKZgTQyvUDaOVambQEaIVqKshm9Y4LOfryZ8+g446ZLzoRoBXJFMwIoJXrB9DKtTJpCdDK1OSlZLK8+4IaT/vJM/+FTnn320QnArQimYIZAbRy/QBauVYmLQFamZo87iDP25JTlt759gX0xc+cIToRoBXJFMwIoJXrB9DKtTJpCdDK1OSItqqGePExW+2Q+/2rLhCdCNCKZApmBNDK9QNo5VqZtARovahZ1bAdP2Y0/exHXxOdCNCKZApmBNDK9QNo5VqZtARoPaqpcghNaoGZe356pehEgFYkUzAjgFauH0Ar18qkJUArV5PXpuVnmnfIvf+Oa0QnArQimYIZAbRy/QBauVYmLQFauZouaHNqKu4Dd35TdCJAK5IpmBFAK9cPoJVrZdISoPWn5kN3XSc6EaAVyRTMCKCV6wfQyrUyaQnQelPT1evBO78lOhGgFckUzAiglesH0Mq1MmkJ0MrV5NSBu2wiQCvXLXRLgFYuMUAr18qkJUDrT02kDvzpFspZAK1cVoBWrpVJS4DWn5oArT/dQjkLoJXLCtDKtTJpCdD6UxOg9adbKGcBtHJZAVq5ViYtAVp/agK0/nQL5SyAVi4rQCvXyqQlQOtPTYDWn26hnAXQymUFaOVambQEaP2pCdD60y2UswBauawArVwrk5YArT81AVp/uoVyFkArlxWglWtl0hKg9acmQOtPt1DOAmjlsjJoR41spT/8eRnddNsvaMzoUXoBj9rDHSzOP7uLHX2Dx+W1RGuZVftO7dzVTqe/9z36s6t9N+WEm/yFdeUArT9lAVp/uoVyFkArl7Wnp0fD9bd/+Ctd/+Of0Vi15mfaQJtToN2xcxed8f5T6P+cfor+cz6fl4sUgiVA609UgNafbqGcBdDKZeWItrWlmZ55fgXd9+tHaGRLC1WqQ0e0XYXkRbSZTJY6OjvpHf94tPq8lXZ3dCKilbtIrCwB2hg1B0DrrTE4usrnczSisVGnBQYetamDjo7kgZbviOfLl0ol9enRf476QETrrwUAWn+6hXIWQCuXtRailYpC0iAMSjpo9b5TfGvZDGVrFiiRq2TeEqD1pylA60+3UM4CaM3KmnTQmlXDTGkArT8dAVp/uoVyFkBrVlaA1qyeXBpA609TgNafbqGcBdCalRWgNasnQOtfT4DWv3bGzwRozUoK0JrVE6D1rydA618742dq0I4YQVddegE1NzfpcaFx6Gk2fqOWCgRozQuN1IE/TQFaf7qFchaDdcSIRrr60gsBWgMKA7QGRBxQRD9oi3TZNTdSsauLeAYbjjdXAKCNkYdo0DaNoGsUaJsUcMvq73Bi/w0E0PrXbqgzXdAWigzaG6iruxs+KpAZoBWIZMuEZzs1KdBe+dXPqVlPLVQuM2ijH6Ru6/5N1wPQmlaUdDorm83pSNYBLSJaicoArUQlSzbsxA1qLvviL5xHUyZPVKDtUTVnkKf1qT9A61O4IU5zZ9/xl3+hqEB77Q1UVD+jXujG7F2GUxpAG46uvkvlxVLO/shpdNzbjqTOzoJ2YhcYvgut0xMBWnMN72rJwUBjYwOtXvsa/eDmO9T6ElU9aw0HcrSJ8QH2146OooLsQjrv4x+kQqGo818YeeCvCQFaf7oNflaVeO2Fck+ZRqtV0+74+X3020cepZGtLYOuM2Gy5jSUhYg2Vq1YVTmwKjU2NNDFn/s4zdxvGhUG9OoCuvIGA2jlWr2ZpZMyyCigOqmt7Tvb6bs3LlHLNu6MfNlGM3cYfikAbfgai2tgf9b5LxXJHrlgLn36nDO0c3OnmJNC4KKqiHCFigK0QqHexKw2ZcB/blFLU971i/tp6R/+Qq0qmsVYb5nGAK1MJ2tWrmNzJ8PJ7z6OPnTaicR52x71yrb3UC+9vhPAO0TrALTe3daNXvVqaL1LT7owHal2tFiq0gV3/fcDfUtT4g1LpjFAK9MpAquqGjpT0p1iH1SwHa2ih261Jik7vV4WUGfMcAz3yssgYHgkcT3a6Fs3o9f75XRBuVKm3/z+z3Tfg0v17zC+21vrALTe9LJiXTvKoKurm6bvO5nec/zb6LBDZtPIkS3UrMbaYkjN8E2BiHZ4jQZa1H5987hu3rPs9XUb6ddL/0ir1ryi+w/cLy9Es3J9AVq5VlYtXUiwM3er2Tc8S2zi+LF00MwZNEH9bGzgvaOc1MGgq15bvdp4VlYL2mICt7KJQtXa1EFJvVGtWLWWXlu3gXiSLU8P1+9S6g0BkPXWOgCtN72sWtfClivuURFGt3J+jjTcweNWLyhhldWCNom74EYtN8OU4cpRLB+sJyDrr1UAWn+6WTurFhbs+O7H2gUkuCKANnjjVblPoDeCBWT96wnQ+tcOZ8ZcAYA25g1UR5cH0NZRY9fbrQK09dbi8b1fgDa+bYMrC6gAQBtQQJxuTAGA1piUKChuCgC0cWuR+r0egLZ+2z71dw7Qpr6JE3ODAG1imgoX6lUBgNarYrAPSwGANixlUW7kCgC0kTcBLqBXAYAWrpBaBQDa1DZt4m4MoE1ck+GCpQoAtFKlYBe2AgBt2Aqj/MgUAGgjkx4VD1AAoIVLpFYBgDa1TZu4GwNoE9dkuGCpAgCtVCnYha0AQBu2wig/MgUA2sikR8VIHcAH6kUBgLZeWjr+94mINv5thCv0qQBA61M4nGZcAYDWuKQoMC4KALRxaQlcB0ALH0itAgBtaps2cTcG0CauyXDBUgUAWqlSsAtbAYA2bIVRfmQKALSRSY+KMeoAPlAvCgC09dLS8b9PRLTxbyNcoU8FAFqfwuE04woAtMYlRYFxUQCgjUtL4DoAWvhAahUAaFPbtIm7MYA2cU2GC5YqANBKlYJd2AoAtGErjPIjUwCgjUx6VIxRB/CBelEAoK2Xlo7/fSKijX8b4Qp9KgDQ+hQOpxlXAKA1LikKjIsCAG1cWgLXAdDCB1KrAECb2qZN3I0BtIlrMlywVAGAVqoU7MJWAKANW2GUH5kCAG1k0qNijDqAD9SLAgBtvbR0/O8TEW382whX6FMBgNancDjNuAIArXFJ+wt0H3TKZEh/cFhVAKC1KvcwlVWJKlXqeybidGkWrgWgDUHkPQBbVc7V3U3VnrJytEoItaHIoRTYA7RdnXX7kMfCQ7JZyjSNoEwuq4GrGoPUf1X8UR8BCEBr0AvZcdiBMsqpquUKVbu6KNPYQPkZ0ygzabz6c6N2LHaxjPoHR7gK9IO2Ql3tOwHacOXeu3RN0t5fF7qotPoVquxqV8BVz0EurwOPqnoe6uFJAGgNOp9+sBmyKoKlhkYa8Y9Hqs/RlJ0ykTJjminbaLAyFDWsAqo5dMamql4kilt2qZ+VuomghhXHgoETUPChgotiF5U3baHS8peo65G/ULW9Q0e4uk20SbpxC9Aacrg+yBaLlJ02lVrP/iA1HLq/fj2ikvqoCJejXRz2FOiLaNXDXGzbDNDak37vmhik6u2OI9nq5q3U8fNfUfcLKynX2lIX7QLQGnA+F7IVBdn8zBk08sKzKTdpDFULCq66H4zTBc6h/8yRb8q/wQ3IGrgIgDawhIEKcPTvjWg5yHA/DQ3qz0Sdt/ycup/7G2VbmlMPW4A2kCv1n8ydXZkxI2nUxZ+i/P77UKWzTNl8Thuww7mQNVQdihEoANAKRLJkUhtcVMrqWWlQOVqVt22/4VaqbNhEmREqr5biFz6ANqijce8p52ULRWr5yGnU/L7jqNKuHIl7V2ui2KDV4HzvCgC03jUL8ww34OAwlwOT7MgW6l72HHXc9kvKqKAk4wxDCPMSIisboDUgfaVUUqmCCTT637+ge1SravhKVsEXR7QKALTR6j9k7b1Du3QqIZ+n3dfdRD3rN6nOYpVSSOkB0AZuWO5RLVLj8W+nkee+nyrF/p5t5GEDixuoAIA2kHyhnawjW4at+pFtHkFdv/kTFe79H8qoXG1aO4wB2qDupN50Kh0FGvmZj1HjPy1UeSdnbCAi2qDCBj8foA2uYVglOLBVncVNTVResZZ2f/8WB7QpPQDaoA2rMgTl9k4as/hzlF94kOpKdQZvIpoNKmzw8wHa4BqGWYIeQ6vG0pYUaDuuX0KZ5qYwq4u0bIA2qPwKqpWOThp16YXUOG+mHtKlIZvSpH5QuWyeD9DaVNtbXW76gOFaenG1Au1PkTpQEmYKhUKgwRenL7rCW0skxTqrQLu7k0ZfegE1zD+Qqp3qdYjndSfl+lN8nQBtvBtXR7QKtD0rVqvUAUDLrQXQDuWzg4AWEW08HnCANh7tMNRV9IN2jQKtSh2gMwygHdJlXdB+7UJq4NSBimh5vQMc0SsA0EbfBm92BQDt3uogoh0uogVoY/dUA7Sxa5I9LgigBWjlHoqIVq6VZUuA1rLgHqsDaAFaucsAtHKtLFsCtJYF91gdQAvQyl0GoJVrZdkSoLUsuMfqAFqAVu4yAK1cK8uWAK1lwT1WB9ACtHKXAWjlWlm2BGgtC+6xOoAWoJW7DEAr18qyJUBrWXCP1QG0AK3cZQBauVaWLQFay4J7rA6gBWjlLgPQyrWybAnQWhbcY3UALUArdxmAVq6VZUuA1rLgHqsDaAFaucsAtHKtLFsCtJYF91gdQAvQyl0GoJVrZdkSoLUsuMfqAFqAVu4yAK1cK8uWAK1lwT1WB9ACtHKXAWjlWlm2BGgtC+6xOoAWoJW7DEAr18qyJUBrWXCP1QG0AK3cZQBauVaWLQFay4J7rA6gBWjlLgPQyrWybAnQWhbcY3UALUArdxmAVq6VZUuA1rLgHqsDaAFaucsAtHKtLFsCtJYF91gdQAvQyl0GoJVrZdkSoLUsuMfqAFqAVu4yAK1cK8uWAK1lwT1WB9ACtHKXAWjlWlm2BGgtC+6xOoAWoJW7TCZD5Y5OGnvpBdhuXK6aFcu9QVuljGovHPFQoBa0u65fQtmWZqJqNR4XZ/gqHrrrOlGJ2G58CJmqKqKttndQ09cvoty8mVTtrFAmmxWJCqNwFagFbVfbZtIPNkAbrugeSndBW1mxhrq+t4SotZkyAG0h0FfN6Yuu8NAECTJVD26PimjnLP4sjT7sQCoXegDamDRfP2ir1NHWpkCLiDYmTaMvg0Gba26i9pfW0Ms3LqEcIlpCRDuEh2YpQ+2FAn39wnNo/pxZ1FkoUhYRbSye5z7QUpU2b+3Qb6WIaGPRNPoiKgq0zQq0K1atoe/fskQFtM2qjQLFc/G5uQFXgtRBwKbhB7dDRbRf+vy5dPghAG1AOY2e3gda9fBu0aBFRGtU4ICFuaBdqUB7081LqBkRLSLaoXwqq0C7u7NAX7loEUAb8MEzfTpAa1pRs+XVgvaHP1lCLYhoAVqA1uxDZqM0gNaGyv7rAGj31g452qFytIho/T9pIZ8J0IYscMDiAVqAVuxCSB2IpbJuCNBal9xThQAtQCt2GIBWLJV1Q4DWuuSeKgRoAVqxwwC0YqmsGwK01iX3VCFAC9CKHQagFUtl3RCgtS65pwoBWoBW7DAArVgq64YArXXJPVUI0AK0YocBaMVSWTcEaK1L7qlCgBagFTsMQCuWyrohQGtdck8VArQArdhhAFqxVNYNAVrrknuqEKAFaMUOA9CKpbJuCNBal9xThQAtQCt2GIBWLJV1Q4DWuuSeKgRoAVqxwwC0YqmsGwK01iX3VCFAC9CKHQagFUtl3RCgtS65pwoBWoBW7DAArVgq64YArXXJPVUI0AK0YocBaMVSWTcEaK1L7qlCgBagFTsMQCuWyrohQGtdck8VArQArdhhAFqxVNYNAVrrknuqEKAFaMUOA9CKpbJuCNBal9xThQAtQCt2GIBWLJV1Q4DWuuSeKgRoAVqxwwC0YqmsGwK01iX3VCFAC9CKHQagFUtl3RCgtS65pwoBWoBW7DAArVgq64YArXXJPVUI0AK0YocBaMVSWTcEaK1L7qlCgBagFTsMQCuWyrohQGtdck8VArQArdhhAFqxVNYNAVrrknuqEKAFaMUOA9CKpbJuCNBal9xThQAtQCt2GIBWLJV1Q4DWuuSeKgRoAVqxwwC0YqmsGwK01iX3VCFAC9CKHQagFUtl3RCgtS65pwoBWoBW7DAArVgq64YArXXJPVUI0AK0YocBaMVSWTcEaK1L7qlCgBagFTtMEkDLwKnHA6Dds9UzmUys3ACgBWjFDhl30Lqw4RtygZvNZimb5YcuQ86zF68HUCz+MIa1oN3ctlvff9xgY+Zeube3VdEAABP2SURBVP36v0z5e7VarRCDTLduL2Djdv8ALUAr9v84g3ZgJMsPXE5BtrNQpG07dtC2bdupWCxSRT2UaYRtLWh3t3emGLQMWefLMpfL0pgx42jChInU1NSigTuYH4gdPERDgBagFbtXXEFbG72wQ+dyOerp6aFXX19H69atp4ICbNqPWtAWOtMM2r1TBLlcniZPmUrTp81QwG3Sbc9vMu6bTRwie4AWoBUzKK6gdR8ohg1DtrNQoOV/W0FbtrRRPp/ve+jEN5pAw3oFrdv2PT0lam0dRXPmzKXRo8do2DJg4wBZvkaAFqAVYyWOoHVfFfknRzHd3d207OnnaMfOndTY0LBXVFNV+T31+InvOSmG9QPa/tTBwIiV4TpCRbTzDn8LNTe3KriVe2Grs7eRNiVAC9CKHTCOoHUfNv7JoH32+eX0xoZNg0JWfKMJNKwf0O7dOM69OzBl2I4dO44OP3yh+rvbaeZ2hEbXsAAtQCv2vjiClh8y/nCK4O+bN9PTzy7XowzSGbcO3VT1DFpXFVcDhu2cOYfR1Kn7UqlU6ht1Inb0EAwBWoBW7FZxBK07rKdBgfbpZ5+n9Rs3UYNKGcRteI9YZJ+GAK0zpI9zsgzXiRMn0dzD5lOlXNHRbibjdI5FdQC0AK3Y9+IIWv1wqZRBUXWAPfHUs1RQP+PUCSIWN6AhQOsIWDt+et78I2ik6iArl8u9UW1AkQOcDtACtGL3iStoeaTB9u076LFlT9UlZF3A8BcMg6aehncN5bycPliw4AiVr52gQOuMQIjyAGgBWrH/xRW0nJ/d0raVHnviSZ02qMcDEW1/q7MWDNcFC46kcePGqw4yZ/RBlAdAC9CK/S+uoOWIlmd+cUTLIw+ifqjEgho0BGj3FJMj2vkqdTBuHCJag24mKuqhu64T2WVUni/QyiSnL7pCVFHSjOIKWoZrR0cHPf7kM3ocLXK09TMzbOAzVDsFd/78hWrywlido436yxcRLSJaMe/jCFp31AHD9kk1UWGzmg3WkM9xN7P4vtJgiIjWaUUnbVBWayCMVWNpF+g3nErFmcwS5QHQArRi/4sjaN1xtDwL7NXX1tHyF19SY2pzGN6V2tW7hnbX/nG0JZo5czbtv/+BaqhXPN5wAFqANtGgdaMY9+cTy56m7Wr6LXeQua+RUb82igUOYFjPEW1tO/O026amZtURdpRa98LxAWeZzGgPgBagFXtgXCNaF7IM1+1qSUROIXSrQet51Unm/r+0w7ZeQVs7McVNI82dO4/Gj5+0x7CuqNsfoAVoEw1a9+Jrp+JuaWuj519YoScv8HAvd3yp+EYTaFivoHWbikcZ8OiTWbPm0JQp09SQrlKsOkUBWoBWjJU4RrS1EWstbHftaqdVa9fS5s1b9SpOWfUQ6qmYEa/iJBbbo2E9gpbv2Yliq3oBcM7JOuNm+5dIjMtUbIAWoBU/0nEF7WCw5eiGH7K2rduoTU1m4LxtsdhF1d4tT8Q3nRDDWtB2pnjhb966xlm7gFdry+nhW+PHT1C7LEzSf+cvVT7ct5ioUwau+wC0AK0YJXEG7cBcrNtB4naK8ewgZ6sTfgrFt5wYw1rQtm3tqItRFwxb7vBiwPJMsNroNS6RLEA79COECQtDaBN30LqwrY1o3FuJS2QTFrlrQbulTkBb294D2zxu7Y2IFhGt+NlPAmjdm6mdISS+wQQb1itoa79I4xbF1roTQAvQivGSJNCKbyolhvUO2rg3I0AL0Ip9FKAVS2XdEKC1LrmnCgFagFbsMACtWCrrhgCtdck9VQjQArRihwFoxVJZNwRorUvuqUKAFqAVOwxAK5bKuiFAa11yTxUCtACt2GEAWrFU1g0BWuuSe6oQoAVoxQ4D0Iqlsm4I0FqX3FOFAC1AK3YYgFYslXVDgNa65J4qBGgBWrHDALRiqawbArTWJfdUIUAL0IodBqAVS2XdEKC1LrmnCgFagFbsMACtWCrrhgCtdck9VQjQArRihwFoxVJZNwRorUvuqUKAFqAVOwxAK5bKuiFAa11yTxUCtACt2GGSBNr+1bt48VlehDbdRz2DltelrVaddo7b8oiu1wG0AK2YQEkArQtYd4V9RixfdzabdfaQSil26xG0vIg7L+ZeLpf79gerbX+xY1swBGgBWrGbxR20g62wzzssdHd3U2dngUpqLyltI77j5BjWgnbbjnrYYUF9aaovTt5avLm5WcPW3QU3btvYsBcBtACtmCZxBm0taDiK5a3GeRfcdW9soK3bttHujg4F3JIGbRqP2vsvqvuO8yLYwfTv34som80oyLbS2LHjaMrU6TSytVUDl4+4wRagBWjFfh9X0NZChm+GN2Zcv2EjrVy9Rkey/NDx7+oldVBI8eaMA52VN2Mslys0YkQjTZu+P+2nPnGMbAFagDbxoOUbcCPVXC5La19+TUPWhW7tDVa5wySFyYPaL5t0g3bw3TU5V8sbcE6bPoNmHXTwHrAVO3iIhgAtQCt2rzhGtC5g+SfnY9dv2EDPLn+xrwPMhXBce6PF4g9jWD+g3VOIgZ2fvBvugQceTPvtt78Cb0/fKISo2x+gBWjFz3ocQatBWqlQRo0q6OrqpseeeJIKXV2UU39Pb55y7yarV9C6StTeP48wmb/gKGptbqGKinSjhixfI0AL0CYatPyA8aexsYFeWrmGVq1ZS40NDeoBi++YSrHgHgzrHbS1by6lUklHtLNnzaFu9Wedm+fBthEeAC1AK3a/OEa07MAczVZVh8iyp5+hbdt36BEH6skS31caDAFapxVZB/aJVjUC4bDDF+ovXc7fZjLZSJsZoAVoxQ4YR9Dyg8UjCnbt2kWPP/mMM7ynd2KC+MZSYAjQ9jei85ZToXnzj6SxY8bqTjIeChblAdACtGL/iytouROsbes2nZ/lP9fjAdDu2eo9PSWar0A7btwE9eXb3ykWlW8AtACt2PcAWrFU1g0B2j0jWn6zWbDgCAXa8TqiRY7Wnks+dNd1osoyakZRoOlDpy+6QlRR0oziClpOHezYsZMeX/a0GiVbX51grg8BtHs+TRzFckQ7dux4RLSWQQPQBhQ8jqDlVzIezsM9zU889Qy1t+/uW0Am4O0m6nSA1mmu/lEojTRv3kI1RbdF5+3ZR6I8kDpA6kDsf3EEbd+DpXqXn39hBb36+jpqaMjX1RhaFzDu/P50zwwb2l3dLxvOz06ePJUOOWSegmxJnYDhXeKH3IAhItqAIsYRtHxLHC04Iw/aVfrgqb4xtJiwEG1Pe0B383T6nutdVOmww97SlzaIOpp1fbS5uYlWrlpDP/zJEmpRK46ldYEjgNaT6+5tHEfQDpyCu0qtcbBqzcsqqm3oe5WMuiMkoOyi0+s5dVD7hcrR7FS1ktfs2YfukZuN2geQOkDqQPQgs1FcQeu+MusbUUHc8hdepHXrN1KDGuq11wM2+JokYg3ialgvoOVVLjOZwRuxVOrWw7nmzp2vcrJq0kpvx2gc3mwAWoBWzI44gtbNT7o34UJ35eq1Kl/7uloHoaofOh6wHnVUIxbah2G9gLZWGjc/zxDjP++zz2Q66KA5+m2Gl0/U37r83xjMEgRoAVrxYx1X0NbegJ6S27t1TZta8PuVV17Xs8Z4zjuvW5rW/cNqQVssdKa2M9CJaJ0W53bO5xuppaWZpk2bQRMn7qN/745EETu2BUOAFqAVu1mcQTtwuTy+Ke4g49/v3t1BOxi2anUvvSh0CvuIakG7c2faQeuMleZOrpEjR9Po0WP1G8vA3RXiEs268Edn2J6owYSFIdAbZ9C6l7xn77PzW34g3R0WxN8qCTOsve/NbendM8zZ8bavtfUXpwtYF6xxyMkOdB9EtIhoxUhJCmgHuyH9bKZ0vzDn1pwoj39u2Zpe0A5s26Hyr3HIy9ZeK0AL0KYKtOKbSZlhvYI2Kc0I0AK0Yl9NQkQrvpmUGQK08W5QgBagFXsoQCuWyrohQGtdck8VArQArdhhAFqxVNYNAVrrknuqEKAFaMUOA9CKpbJuCNBal9xThWkHLXc+uuOXH7zzWyJtMLxrCJkAWpH/RGIE0EYiu7jStIO21v8e/q9vi3QJDNoPnHeVMzA+ZQdAG98GBWjj2zZ8ZWkHLc8B4p2neeLIg3da2mHhYxdcR7s7iqnbiBWgje/DDNDGt23qArRqUlBF7WqRUws5PXDHN0WNETii/eSXr6e2bTtFlSXJCKCNb2sBtPFtm3oArbOeWlWvPfGr268WNUZg0H7pipvpldc3q+k6alUhUZXJMAJo49tOAG182ybtoNWz8FTagFMHY8aMov+66RuixggM2u/dfC/95amVirM9KjeTHtQCtCL/icQIoI1EdnGlac7Rsu/xeiIM3Fkzp9H3rrxApEtg0N59/5/onof/okHrLM2XjgOgjW87ArTxbZt6iGgZshm17vMpJxxDnzrrvaLGCAzax59+ib5z0z0KtGplIRXRxmDdYdGND2cE0A6nUHT/H6CNTntJzWmOaPn+c7zLcC5PFy76Nzrhn46USEKBQbu5bQctvuantKO9UyeI05I+AGhF/hOJEUAbieziStMNWt69hKhpxAi6cvG5dOjsGSJdAoOWa7nsOz+jF1e/oaJatbJ/SvK0AK3IfyIxAmgjkV1caZpBq6PZbJ4OnDGZvnPZ+WrkAe/XNvxhBLQP/24Z3Xr3UhXN9qRmW2GAdnjnicoCoI1KeVm9aQWtu+5vVqUNTjvpWDrnIyfLBFFWRkC7dVs7XfSNH1FnoUvv2pmGNacBWrEPWTcEaK1L7qnCNIK2dieLTCZLN337Ypq+7ySxLoFB6y6ucP0t99Gjy1aqqJb3qkr+MC+AVuxD1g0BWuuSe6owbaB1I1n9M5Oj+XNn0mVf/gTlc84wL8lhDLRrXt1Il37zNurp4fSBM3MiybgFaCXuE40NQBuN7tJa0wZavm8HsrwJap6+etGZ9A9HzNX7t/H+fJIjMGhrK7nuh7+gZc+tVfOAS2rmRLI3YAVoJe4TjQ1AG43u0lrTCFqepKAGz9LBB06j717+Wc9b3BsBrev4b2xoo8XX3kpF3upa0R4RrdQ1YedFAYDWi1r2bdMGWr3du/rk8g109eJFNHfOAdGAlpvSzdX+4v4/0n8//JgCbbJztYho7T+g0hoBWqlS0dilDbTMgkyugU44biFdeN77dR8UL5Ho5TAS0boV8gPQXeqhy777M1r96iYitZQYL76QxAOgjW+rAbTxbRs36GpubqKVq9bQD3+yhFqamxM17NPdyr4vN6uSs1P2GU/fV+sajBzZ7Et846Dli1y3YQt9/brbqV2tU6tX9VKwrb14X1dq+SSA1rLgHqoDaD2IFYFpmiLarOrs4g6vKy9ZRPMOmdn35u5VVqOgrU0hPPHMSvruj++lHpWr1cuKqbUQpEMhvN5EGPYAbRiqmikToDWjY1ilJBa0vUsgal14hIHuAMvR+Z84lU46/q2eRhkM1NY4aB3YOjmMRx59jn7wnw9SRv1d/5OgNAJAG9ZjGLxcgDa4hmGWkFjQ6nGpvJZB70cN5Trz9HfRGace7zuSdXUOBbS1sP3tH5+iH//s173wdSBcO8sizAYPUjZAG0S9cM8FaMPVN2jpiQMt92vpbRPUyALdyeVMTPjQ+95BH/3Au311flmJaN1K3Afir0+toP+47UE97CujvjXKCdjMEaAN+riFdz5AG562JkpOCmj7+o04kFWAdbYRV2/jKid73pn/Su876e0m5HAyEYVCIdRhAbwYeE5NVVu19g266Y6HaN2m7VTpKfXeVHwXCgdojfmY8YIAWuOSGi0wKaB1b9oZqsVRbJbGjGqlT5/1Pjr2mHk6INR5WgNH6KCtTSO07+6k//zlUvr9n59V95RXt6Y6ytR/47hdOUBrwLtCKgKgDUlYQ8XGFbRuhkBHmHoYrLO2LKdmeUWuoxbMoUVn/gtNmzLRSLqgVk4roHVgW9F77fDx7Atr6c57H6FX12/Rv69Wyvr/xQm4AK2hpy6EYgDaEEQ1WGR8QOug1U0R8Ku7nnzQC1m9/5ea7TVl4jj6t1OOo5P/+a1aBT8TEoaTzxpo+ULcUQd8411dJeLc7UNLn6CXX9+kp7f1lHiZxd4FHHqvnL9t9hit4Oz1G/oB0IYuse8KAFrf0lk5MRLQcmTaO9qpdnCTM4Kg/7b1wAK13xf/csKYVjr5hLfTe95xJI0bO6oXsv0BoUmxrILWvfDabwx+aHjM7VPL19LjT6+gjoLqMNP5EgewFRXtVtWkh6zKnzD8HMi6yoWXXub6dncW6EsXfIIOm3OQWmu32BeRm2wAlOVdAYDWu2Y2z3BBu2r1Wvrxklup2fLMMDcw02/IeiRB3uGJHvFUpoWHz6ajjziUTnjHUdTSNEJLYzIfO5jWkYDWjW51bqRmzvCOXR308msb6YWXXqWVqvNsx67d1K72Iuvo7OKYXy9RppZ36FusRrgUpC8fY6i3d3TSxZ89i+YePJMKxS6A1peS5k8CaM1rarJEBlyTAtjqNS/TTbfeQa2WQevcS1Uv2TqqtYkmT5pAkyaOpfmHztSAnaxSBW4ak4O+gW/RJrVwy4oMtLU34+RmFUIHLNSwS0F267adCrgdeg2Foko3sHh97wIhToDgV46SquuAmbNowoRJ1NnZURNJh9EUKFOqAEArVSo6u+bmFmrftZW2tb1GDWpBFvVuGu7FqOfVTR3wDgg80qlFrbewj4LqAftN2Wt3bi9ryZq48FiA1sSNoAwoAAWgQFwVAGjj2jK4LigABVKjAECbmqbEjUABKBBXBQDauLYMrgsKQIHUKADQpqYpcSNQAArEVYH/DwW1iH/5IhcOAAAAAElFTkSuQmCC;movable=1;resizable=1;rotatable=1;deletable=1;editable=1;locked=0;connectable=1;" vertex="1" parent="1">
          <mxGeometry x="119.99999999999999" y="370" width="30.44" height="30" as="geometry" />
        </mxCell>
        <mxCell id="H7RTySpPC0p8DqEm5PfO-22" value="3" style="ellipse;whiteSpace=wrap;html=1;aspect=fixed;rotation=0;gradientColor=#0057D2;strokeColor=none;gradientDirection=east;fillColor=#2395FF;rounded=0;pointerEvents=0;fontFamily=Helvetica;fontSize=16;fontColor=#FFFFFF;spacingTop=4;spacingBottom=4;spacingLeft=4;spacingRight=4;points=[];fontStyle=1" vertex="1" parent="1">
          <mxGeometry x="60" y="480" width="30" height="30" as="geometry" />
        </mxCell>
      </root>
    </mxGraphModel>
  </diagram>
</mxfile>
